<?xml version="1.0" encoding="utf-8"?>
<!-- Generator: Adobe Illustrator 17.0.0, SVG Export Plug-In . SVG Version: 6.00 Build 0)  -->
<!DOCTYPE svg PUBLIC "-//W3C//DTD SVG 1.1//EN" "http://www.w3.org/Graphics/SVG/1.1/DTD/svg11.dtd">
<svg version="1.1" id="Layer_1" xmlns="http://www.w3.org/2000/svg" xmlns:xlink="http://www.w3.org/1999/xlink" x="0px" y="0px"
	 width="42.52px" height="42.52px" viewBox="4.24 6.74 42.52 42.52" enable-background="new 4.24 6.74 42.52 42.52"
	 xml:space="preserve">
<title>Group 3 Copy 5</title>
<desc>Created with Sketch.</desc>
<g id="Page-1">
	<g id="schueler_01" transform="translate(-159.000000, -784.000000)">
		<g id="Group-3-Copy-5" transform="translate(159.000000, 784.000000)">
			<circle id="Oval" fill="none" stroke="#FFFFFF" stroke-width="4" cx="25.5" cy="28" r="18.318"/>
			<g id="Group-4" transform="translate(12.000000, 21.000000)">
				<path id="Combined-Shape" fill="#FFFFFF" d="M11.551,5.051l-5.473,0l0,0C5.001,5.051,4.128,5.923,4.128,7l0,0l0,0
					c0,1.077,0.873,1.949,1.949,1.949l5.473,0l0,5.473c0,1.077,0.873,1.949,1.949,1.949s1.949-0.873,1.949-1.949l0-5.473l5.473,0
					c1.077,0,1.949-0.873,1.949-1.949l0,0c0-1.077-0.873-1.949-1.949-1.949l0,0l-5.473,0l0-5.473c0-1.077-0.873-1.949-1.949-1.949
					l0,0c-1.077,0-1.949,0.873-1.949,1.949l0,0L11.551,5.051z"/>
			</g>
		</g>
	</g>
</g>
</svg>
