<?xml version="1.0" encoding="UTF-8"?>
<svg width="274px" height="275px" viewBox="0 0 274 275" version="1.1" xmlns="http://www.w3.org/2000/svg" xmlns:xlink="http://www.w3.org/1999/xlink">
    <!-- Generator: Sketch 47.1 (45422) - http://www.bohemiancoding.com/sketch -->
    <title>Group</title>
    <desc>Created with Sketch.</desc>
    <defs></defs>
    <g id="Page-1" stroke="none" stroke-width="1" fill="none" fill-rule="evenodd">
        <g id="Artboard-Copy-7" transform="translate(-113.000000, -113.000000)">
            <g id="Group" transform="translate(113.000000, 113.000000)">
                <ellipse id="Oval-3" fill="#D29055" cx="137.477967" cy="137.478115" rx="136.493831" ry="136.726729"></ellipse>
                <ellipse id="Oval-3-Copy-2" fill="#D29055" cx="137.477967" cy="137.478115" rx="136.493831" ry="136.726729"></ellipse>
                <ellipse id="Oval-3-Copy-6" fill="#D29055" cx="137.477967" cy="137.478115" rx="136.493831" ry="136.726729"></ellipse>
                <ellipse id="Oval-3-Copy-4" fill="#D29055" cx="137.477967" cy="137.478115" rx="136.493831" ry="136.726729"></ellipse>
                <ellipse id="Oval-3-Copy-12" fill="#D29055" cx="137.477967" cy="137.478115" rx="136.493831" ry="136.726729"></ellipse>
                <ellipse id="Oval-3-Copy-11" fill="#D29055" cx="137.477967" cy="137.478115" rx="136.493831" ry="136.726729"></ellipse>
                <ellipse id="Oval-3-Copy-10" fill="#D29055" cx="137.477967" cy="137.478115" rx="136.493831" ry="136.726729"></ellipse>
                <ellipse id="Oval-3-Copy-8" fill="#D29055" cx="137.477967" cy="137.478115" rx="136.493831" ry="136.726729"></ellipse>
                <ellipse id="Oval-3-Copy-20" fill="#D29055" cx="137.477967" cy="137.478115" rx="136.493831" ry="136.726729"></ellipse>
                <ellipse id="Oval-3-Copy-19" fill="#D29055" cx="137.477967" cy="137.478115" rx="136.493831" ry="136.726729"></ellipse>
                <ellipse id="Oval-3-Copy-18" fill="#D29055" cx="137.477967" cy="137.478115" rx="136.493831" ry="136.726729"></ellipse>
                <ellipse id="Oval-3-Copy-17" fill="#D29055" cx="137.477967" cy="137.478115" rx="136.493831" ry="136.726729"></ellipse>
                <ellipse id="Oval-3-Copy-16" fill="#234A77" cx="137.477967" cy="137.478115" rx="136.493831" ry="136.726729"></ellipse>
                <path d="M45.6702516,238.656259 C41.0106822,234.411289 36.6455149,229.847751 32.6090472,225 L63.1740171,225 L63.1740171,225 C66.9450889,225 70.0021467,228.057058 70.0021467,231.82813 L70.0021467,231.82813 C70.0021467,235.599201 66.9450889,238.656259 63.1740171,238.656259 L45.6702516,238.656259 Z" id="Combined-Shape" fill="#D59964"></path>
                <path d="M38.3221729,231.44 C34.6066143,227.507022 31.1217406,223.353113 27.8892433,219 L91.9400039,219 L91.9400039,219 C95.3752149,219 98.1600037,221.784789 98.1600037,225.22 L98.1600037,225.22 C98.1600037,228.655211 95.3752149,231.44 91.9400039,231.44 L38.3221729,231.44 Z" id="Combined-Shape" fill="#D59964"></path>
                <path d="M28.2164943,219.438868 C22.7624273,212.154923 18.0172992,204.307721 14.0836793,196.000008 L113.438591,196 L113.438591,196 C119.911056,196 125.158025,201.246969 125.158025,207.719434 L125.158025,207.719434 C125.158025,214.191899 119.911056,219.438868 113.438591,219.438868 L28.2164943,219.438868 Z" id="Combined-Shape" fill="#D59964"></path>
                <path d="M19.921212,207 C15.1017131,198.840333 11.1047487,190.135486 8.04466658,181 L28.0446664,181 L28.0446664,181 C35.2243682,181 41.0446664,186.820298 41.0446664,194 L41.0446664,194 C41.0446664,201.179702 35.2243682,207 28.0446664,207 L19.921212,207 Z" id="Combined-Shape" fill="#D59964"></path>
                <path d="M6.9724982,177.656259 C5.60595051,173.196977 4.46092405,168.640597 3.55027907,164 L17.8004039,164 L17.8004039,164 C21.5714757,164 24.6285335,167.057058 24.6285335,170.82813 L24.6285335,170.82813 C24.6285335,174.599201 21.5714757,177.656259 17.8004039,177.656259 L6.9724982,177.656259 Z" id="Combined-Shape" fill="#D59964"></path>
                <path d="M1.08148142,132.26605 C1.40749319,123.552794 2.54747258,115.048113 4.42746372,106.826087 L36.3614816,106.826087 L36.3614816,106.826087 C43.3865435,106.826087 49.0814814,112.521025 49.0814814,119.546087 L49.0814814,119.546087 C49.0814814,126.571149 43.3865435,132.266087 36.3614816,132.266087 L1.08148006,132.266087 Z" id="Combined-Shape" fill="#D59964"></path>
                <path d="M101.116593,64.7651003 L138.860577,64.7651003 L138.860577,64.7651003 C146.592564,64.7651003 152.860577,71.0331138 152.860577,78.7651003 L152.860577,80.7651003 L152.860577,80.7651003 C152.860577,88.4970868 146.592564,94.7651003 138.860577,94.7651003 L101.116593,94.7651003 L101.116593,94.7651003 C93.3846065,94.7651003 87.116593,88.4970868 87.116593,80.7651003 L87.116593,78.7651003 L87.116593,78.7651003 C87.116593,71.0331138 93.3846065,64.7651003 101.116593,64.7651003 L101.116593,64.7651003 Z" id="Combined-Shape" fill="#D59964"></path>
                <path d="M21.7183998,64.9995709 C27.6691264,55.4829741 34.756936,46.7526383 42.7911469,38.9995709 L68.7183998,38.9995709 C75.8981016,38.9995709 81.7183998,44.8198691 81.7183998,51.9995709 L81.7183998,51.9995709 C81.7183998,59.1792726 75.8981016,64.9995709 68.7183998,64.9995709 L21.7183998,64.9995709 Z" id="Combined-Shape" fill="#D59964"></path>
                <path d="M54.2909633,29.0698776 C66.2331814,19.8610282 79.7399226,12.5878774 94.3432289,7.71918162 L99.7904695,7.71918162 L99.7904695,7.71918162 C105.865602,7.71918162 110.790469,12.6440492 110.790469,18.7191812 L110.790469,18.7191812 C110.790469,24.7943132 105.865602,29.7191808 99.7904695,29.7191808 L58.2151094,29.7191808 L58.2151094,29.7191808 C56.8452643,29.7191808 55.5245942,29.4912594 54.2909633,29.0698776 Z" id="Combined-Shape" fill="#D59964"></path>
                <path d="M250.638599,61 C253.593192,65.3780993 256.301238,69.9368449 258.742778,74.6562434 L242.82813,74.6562591 L242.82813,74.6562591 C239.057058,74.6562591 236,71.5992014 236,67.8281296 L236,67.8281296 L236,67.8281296 C236,64.0570577 239.057058,61 242.82813,61 L250.638599,61 Z" id="Combined-Shape" fill="#D59964"></path>
                <path d="M256.218031,69.9997495 C261.700837,79.6598499 266.042721,90.0544923 269.060067,100.99975 L224,100.99975 C216.268014,100.99975 210,94.731736 210,86.9997495 L210,83.9997495 L210,83.9997495 C210,76.267763 216.268014,69.9997495 224,69.9997495 L224,69.9997495 L256.218031,69.9997495 Z" id="Combined-Shape" fill="#D59964"></path>
                <path d="M272.290488,159 C271.100538,166.53882 269.295512,173.872711 266.928513,180.948481 C261.356198,180.40982 257,175.713632 257,170 L257,170 L257,170 C257,163.924868 261.924868,159 268,159 L272.290488,159 Z" id="Combined-Shape" fill="#C69468"></path>
                <path d="M255.010682,207.040686 C248.617262,217.856543 240.778323,227.713745 231.760357,236.345346 L155,236.345346 C147.268014,236.345346 141,230.077333 141,222.345346 L141,219.478249 C141,211.746263 147.268014,205.478249 155,205.478249 L155,205.478249 L248.577297,205.478249 L248.577297,205.478249 C250.896724,205.478249 253.084412,206.042288 255.010682,207.040686 Z" id="Combined-Shape" fill="#D59964"></path>
                <path d="M239.77501,228 C231.894046,236.929778 222.865874,244.819913 212.921635,251.438868 L206.719434,251.438868 C200.246969,251.438868 195,246.191899 195,239.719434 L195,239.719434 L195,239.719434 C195,233.246969 200.246969,228 206.719434,228 L206.719434,228 L239.77501,228 Z" id="Combined-Shape" fill="#D59964"></path>
                <path d="M93.5698481,266.976611 C107.349059,271.663114 122.117192,274.204844 137.477967,274.204844 C152.988073,274.204844 167.893959,271.613454 181.787673,266.839322 C179.438734,265.057396 176.509962,264 173.334223,264 L102.201299,264 L102.201299,264 C98.9448317,264 95.9480482,265.111837 93.5698481,266.976611 Z" id="Combined-Shape" fill="#C38D5E"></path>
                <path d="M179.312694,7.29305536 C202.662882,14.8163679 223.269217,28.4683368 239.243791,46.357835 L162.687525,46.357835 C154.955538,46.357835 148.687525,40.0898215 148.687525,32.357835 L148.687525,21.2930554 C148.687525,13.5610689 154.955538,7.29305536 162.687525,7.29305536 L162.687525,7.29305536 L179.312694,7.29305536 Z" id="Combined-Shape" fill="#D59964"></path>
                <path d="M266.360966,92.3469014 C270.650862,104.640509 273.237339,117.735113 273.837009,131.346841 L242.984136,131.346901 C235.25215,131.346901 228.984136,125.078888 228.984136,117.346901 L228.984136,106.346902 L228.984136,106.346902 C228.984136,98.6149155 235.25215,92.346902 242.984136,92.346902 L242.984136,92.346902 L266.360971,92.346902 Z" id="Combined-Shape" fill="#D59964"></path>
                <path d="M5.16039874,171.173913 C2.43323286,160.395225 0.98413631,149.106186 0.98413631,137.478115 C0.98413631,134.01174 1.11291177,130.575493 1.36593195,127.173913 L186.90795,127.173913 L186.90795,127.173913 C194.639936,127.173913 200.90795,133.441927 200.90795,141.173913 L200.90795,157.173913 L200.90795,157.173913 C200.90795,164.9059 194.639936,171.173913 186.90795,171.173913 L5.16039874,171.173913 Z" id="Combined-Shape" fill="#D59964"></path>
                <path d="M35.6398416,46.4388678 C43.6192635,37.4887035 52.7570845,29.5969764 62.8173935,23 L138.673666,23 L138.673666,23 C145.14613,23 150.393099,28.2469693 150.393099,34.7194339 L150.393099,34.7194339 C150.393099,41.1918985 145.14613,46.4388678 138.673666,46.4388678 L35.6398416,46.4388678 Z" id="Combined-Shape" fill="#D59964"></path>
                <rect id="Rectangle-2-Copy-2" fill="#D59964" x="88.0434783" y="153.26087" width="129.634198" height="34.7826087" rx="14"></rect>
                <path d="M216.525178,26 C225.787841,32.6023259 234.192428,40.3340465 241.53872,48.9946044 C241.420924,48.9982021 241.302659,49 241.183973,49 L178.044295,49 C171.430027,49 165.855245,44.0653676 165.052446,37.5 L165.052446,37.5 C164.365005,31.8780399 168.365223,26.7632596 173.987183,26.0758186 C174.400168,26.0253197 174.815844,26 175.231905,26 L175.231905,26 L216.525178,26 Z" id="Combined-Shape" fill="#D59964"></path>
                <rect id="Rectangle-2-Copy-29" fill="#FFFFFF" x="47" y="209" width="45.5088149" height="13.6562591" rx="6.82812956"></rect>
                <path d="M124.912055,97.7826087 L134.329895,97.7826087 L134.329895,97.7826087 C138.100967,97.7826087 141.158025,100.839666 141.158025,104.610738 L141.158025,104.610738 L141.158025,104.610738 C141.158025,108.38181 138.100967,111.438868 134.329895,111.438868 L125.641192,111.438868 L125.641192,111.438868 C121.80717,111.438868 118.643184,108.439308 118.438769,104.610738 L118.438769,104.610738 L118.438769,104.610738 C118.247886,101.035641 120.991335,97.9827111 124.566432,97.7918289 C124.681538,97.7856832 124.796786,97.7826087 124.912055,97.7826087 Z" id="Rectangle-2-Copy-12" fill="#D59964"></path>
                <path d="M136.871545,155 L171.487917,155 L171.487917,155 C177.960382,155 183.207351,160.246969 183.207351,166.719434 L183.207351,166.719434 L183.207351,166.719434 C183.207351,173.191899 177.960382,178.438868 171.487917,178.438868 L138.70644,178.438868 L138.70644,178.438868 C132.070827,178.438868 126.551582,173.334807 126.033703,166.719434 L126.033703,166.719434 L126.033703,166.719434 C125.565126,160.733859 130.037538,155.501735 136.023113,155.033159 C136.305384,155.011061 136.588411,155 136.871545,155 Z" id="Rectangle-2-Copy-18" fill="#FFFFFF"></path>
                <path d="M50.4957459,137 L61.9996672,137 L61.9996672,137 C68.0747992,137 72.9996667,141.924868 72.9996667,148 L72.9996667,148 L72.9996667,148 C72.9996667,154.075132 68.0747992,158.999999 61.9996672,158.999999 L51.5544195,158.999999 L51.5544195,158.999999 C45.3884611,158.999999 40.3087266,154.158831 40.0123542,148 L40.0123542,148 L40.0123542,148 C39.7337394,142.210182 44.2014517,137.290746 49.9912691,137.012131 C50.1593065,137.004045 50.327514,137 50.4957459,137 Z" id="Rectangle-2-Copy-43" fill="#BE8A5C"></path>
                <path d="M104.393902,146 L120.169817,146 L120.169817,146 C123.940889,146 126.997947,149.057058 126.997947,152.82813 L126.997947,152.82813 L126.997947,152.82813 C126.997947,156.599201 123.940889,159.656259 120.169817,159.656259 L105.324061,159.656259 L105.324061,159.656259 C101.471267,159.656259 98.2768477,156.672017 98.0150317,152.82813 L98.0150317,152.82813 L98.0150317,152.82813 C97.7750753,149.305177 100.43647,146.254736 103.959423,146.01478 C104.10404,146.004929 104.24895,146 104.393902,146 Z" id="Rectangle-2-Copy-30" fill="#FFFFFF"></path>
                <path d="M42.3939022,201 L58.1698173,201 L58.1698173,201 C61.9408891,201 64.9979469,204.057058 64.9979469,207.82813 L64.9979469,207.82813 L64.9979469,207.82813 C64.9979469,211.599201 61.9408891,214.656259 58.1698173,214.656259 L43.3240613,214.656259 L43.3240613,214.656259 C39.4712673,214.656259 36.2768477,211.672017 36.0150317,207.82813 L36.0150317,207.82813 L36.0150317,207.82813 C35.7750753,204.305177 38.4364698,201.254736 41.9594227,201.01478 C42.1040398,201.004929 42.2489501,201 42.3939022,201 Z" id="Rectangle-2-Copy-35" fill="#FFFFFF"></path>
                <path d="M65.7562814,142 L109.035555,142 L109.035555,142 C115.50802,142 120.754989,147.246969 120.754989,153.719434 L120.754989,153.719434 L120.754989,153.719434 C120.754989,160.191899 115.50802,165.438868 109.035555,165.438868 L67.8651693,165.438868 L67.8651693,165.438868 C61.202628,165.438868 55.6409943,160.35517 55.0439508,153.719434 L55.0439508,153.719434 L55.0439508,153.719434 C54.5116417,147.803177 58.8761937,142.575582 64.7924506,142.043272 C65.1129185,142.014439 65.4345189,142 65.7562814,142 Z" id="Rectangle-2-Copy-32" fill="#FFFFFF"></path>
                <path d="M181.338552,20 L201.178457,20 L201.178457,20 C204.949529,20 208.006587,23.0570577 208.006587,26.8281296 L208.006587,26.8281296 L208.006587,26.8281296 C208.006587,30.5992014 204.949529,33.6562591 201.178457,33.6562591 L182.397226,33.6562591 L182.397226,33.6562591 C178.532107,33.6562591 175.318011,30.6816865 175.019272,26.8281296 L175.019272,26.8281296 L175.019272,26.8281296 C174.748714,23.3380877 177.358621,20.2895188 180.848663,20.0189604 C181.011654,20.0063249 181.175072,20 181.338552,20 Z" id="Rectangle-2-Copy-39" fill="#FFFFFF"></path>
                <path d="M191.338552,29 L211.178457,29 L211.178457,29 C214.949529,29 218.006587,32.0570577 218.006587,35.8281296 L218.006587,35.8281296 L218.006587,35.8281296 C218.006587,39.5992014 214.949529,42.6562591 211.178457,42.6562591 L192.397226,42.6562591 L192.397226,42.6562591 C188.532107,42.6562591 185.318011,39.6816865 185.019272,35.8281296 L185.019272,35.8281296 L185.019272,35.8281296 C184.748714,32.3380877 187.358621,29.2895188 190.848663,29.0189604 C191.011654,29.0063249 191.175072,29 191.338552,29 Z" id="Rectangle-2-Copy-40" fill="#FFFFFF"></path>
                <path d="M119.868765,88 L125.187905,88 L125.187905,88 C128.005895,88 130.290327,90.2844321 130.290327,93.1024219 L130.290327,93.1024219 L130.290327,93.1024219 C130.290327,95.9204118 128.005895,98.2048439 125.187905,98.2048439 L120.359299,98.2048439 L120.359299,98.2048439 C117.499228,98.2048439 115.14304,95.9591948 115.005718,93.1024219 L115.005718,93.1024219 L115.005718,93.1024219 C114.876616,90.4166357 116.949218,88.1347175 119.635004,88.0056151 C119.712868,88.0018722 119.790811,88 119.868765,88 Z" id="Rectangle-2-Copy-38" fill="#FFFFFF"></path>
                <path d="M114.393902,59 L130.169817,59 L130.169817,59 C133.940889,59 136.997947,62.0570577 136.997947,65.8281296 L136.997947,65.8281296 L136.997947,65.8281296 C136.997947,69.5992014 133.940889,72.6562591 130.169817,72.6562591 L115.324061,72.6562591 L115.324061,72.6562591 C111.471267,72.6562591 108.276848,69.6720174 108.015032,65.8281296 L108.015032,65.8281296 L108.015032,65.8281296 C107.775075,62.3051766 110.43647,59.254736 113.959423,59.0147796 C114.10404,59.0049294 114.24895,59 114.393902,59 Z" id="Rectangle-2-Copy-33" fill="#D59964"></path>
                <path d="M110.268612,70 L134.56497,70 L134.56497,70 C138.336042,70 141.393099,73.0570577 141.393099,76.8281296 L141.393099,76.8281296 L141.393099,76.8281296 C141.393099,80.5992014 138.336042,83.6562591 134.56497,83.6562591 L111.468233,83.6562591 L111.468233,83.6562591 C107.589305,83.6562591 104.353433,80.6921784 104.013999,76.8281296 L104.013999,76.8281296 L104.013999,76.8281296 C103.710557,73.373802 106.264854,70.3275278 109.719182,70.0240857 C109.901886,70.0080363 110.085205,70 110.268612,70 Z" id="Rectangle-2-Copy-44" fill="#BE8A5C"></path>
                <path d="M157.014822,209 L185.04369,209 L185.04369,209 C189.263302,209 192.683973,212.420671 192.683973,216.640283 L192.683973,216.640283 L192.683973,216.640283 C192.683973,220.859895 189.263302,224.280566 185.04369,224.280566 L158.383782,224.280566 L158.383782,224.280566 C154.04084,224.280566 150.415945,220.965902 150.02842,216.640283 L150.02842,216.640283 L150.02842,216.640283 C149.682745,212.781799 152.530439,209.373656 156.388923,209.027981 C156.597035,209.009336 156.805877,209 157.014822,209 Z" id="Rectangle-2-Copy-36" fill="#C38D5E"></path>
                <path d="M178.787966,83 L231.688109,83 L231.688109,83 C239.420096,83 245.688109,89.2680135 245.688109,97 L245.688109,99 L245.688109,99 C245.688109,106.731986 239.420096,113 231.688109,113 L179.164889,113 L179.164889,113 C171.899427,113 165.841337,107.44215 165.216722,100.203587 L165.026574,98 L165.026574,98 C164.370752,90.3997934 170.000289,83.7069601 177.600495,83.0511384 C177.995402,83.0170619 178.391592,83 178.787966,83 Z" id="Rectangle-2-Copy-31" fill="#D59964"></path>
                <path d="M110.506584,78 L118.244139,78 L118.244139,78 C122.015211,78 125.072269,81.0570577 125.072269,84.8281296 L125.072269,84.8281296 L125.072269,84.8281296 C125.072269,88.5992014 122.015211,91.6562591 118.244139,91.6562591 L111.182604,91.6562591 L111.182604,91.6562591 C107.353438,91.6562591 104.197425,88.652612 104.008103,84.8281296 L104.008103,84.8281296 L104.008103,84.8281296 C103.830438,81.2391178 106.595881,78.1856227 110.184892,78.0079574 C110.292041,78.0026533 110.399304,78 110.506584,78 Z" id="Rectangle-2-Copy-37" fill="#FFFFFF"></path>
                <path d="M122.506584,72 L130.244139,72 L130.244139,72 C134.015211,72 137.072269,75.0570577 137.072269,78.8281296 L137.072269,78.8281296 L137.072269,78.8281296 C137.072269,82.5992014 134.015211,85.6562591 130.244139,85.6562591 L123.182604,85.6562591 L123.182604,85.6562591 C119.353438,85.6562591 116.197425,82.652612 116.008103,78.8281296 L116.008103,78.8281296 L116.008103,78.8281296 C115.830438,75.2391178 118.595881,72.1856227 122.184892,72.0079574 C122.292041,72.0026533 122.399304,72 122.506584,72 Z" id="Rectangle-2-Copy-45" fill="#FFFFFF"></path>
                <path d="M185.393902,88 L201.169817,88 L201.169817,88 C204.940889,88 207.997947,91.0570577 207.997947,94.8281296 L207.997947,94.8281296 L207.997947,94.8281296 C207.997947,98.5992014 204.940889,101.656259 201.169817,101.656259 L186.324061,101.656259 L186.324061,101.656259 C182.471267,101.656259 179.276848,98.6720174 179.015032,94.8281296 L179.015032,94.8281296 L179.015032,94.8281296 C178.775075,91.3051766 181.43647,88.254736 184.959423,88.0147796 C185.10404,88.0049294 185.24895,88 185.393902,88 Z" id="Rectangle-2-Copy-41" fill="#BE8A5C"></path>
                <path d="M22.5065379,114 L30.2473039,114 L30.2473039,114 C34.0183757,114 37.0754334,117.057058 37.0754334,120.82813 L37.0754334,120.82813 L37.0754334,120.82813 C37.0754334,124.599201 34.0183757,127.656259 30.2473039,127.656259 L23.1826592,127.656259 L23.1826592,127.656259 C19.3534844,127.656259 16.1974559,124.65262 16.0081054,120.82813 L16.0081054,120.82813 L16.0081054,120.82813 C15.8304148,117.239144 18.5958154,114.18565 22.1848005,114.00796 C22.2919643,114.002654 22.3992429,114 22.5065379,114 Z" id="Rectangle-2-Copy-42" fill="#BE8A5C"></path>
                <path d="M37.2829566,43 C14.1632426,67.6018248 0,100.718423 0,137.143024 C0,213.082177 61.5608469,274.643024 137.5,274.643024 C165.036009,274.643024 190.681511,266.548803 212.187002,252.609866 C82.4806413,213.126997 46.1870888,132.357255 38.5152798,52.600028 C38.1778351,49.0919037 37.7670606,45.8918943 37.2829566,43 Z" id="Combined-Shape" fill="#000000" opacity="0.325747283"></path>
            </g>
        </g>
    </g>
</svg>