<?xml version="1.0" encoding="UTF-8"?>
<svg width="74px" height="74px" viewBox="0 0 74 74" version="1.1" xmlns="http://www.w3.org/2000/svg" xmlns:xlink="http://www.w3.org/1999/xlink">
    <!-- Generator: Sketch 47.1 (45422) - http://www.bohemiancoding.com/sketch -->
    <title>link_icon copy 2</title>
    <desc>Created with Sketch.</desc>
    <defs></defs>
    <g id="Page-1" stroke="none" stroke-width="1" fill="none" fill-rule="evenodd">
        <g id="Artboard-3" transform="translate(-517.000000, -521.000000)">
            <g id="link_icon-copy-2" transform="translate(519.000000, 523.000000)">
                <circle id="Oval-8-Copy-2" stroke="#FF5F73" stroke-width="3" fill="#1C1C20" cx="35" cy="35" r="35"></circle>
                <g id="Group-9" transform="translate(35.500000, 35.500000) rotate(-30.000000) translate(-35.500000, -35.500000) translate(10.000000, 27.000000)" fill="#FF5F73">
                    <path d="M29.9864313,1.49167725e-12 L44.0227286,0 C45.6640764,0 47.0490141,0.557513685 48.1775414,1.67254106 C49.3060688,2.78756843 49.9141985,4.22525478 50.0019305,5.98560013 L50.0019305,10.0187851 C49.9176191,11.7648729 49.3094894,13.1855237 48.1775414,14.2807374 C47.0455934,15.3759511 45.6606558,15.9500724 44.0227286,16.0031012 L24.9893153,16.0031012 C23.3446901,15.9528154 21.9463732,15.3786942 20.7943646,14.2807374 C19.6423561,13.1827807 19.0442345,11.7621299 19,10.0187851 L19,7.00006883 L22.994729,7.00006883 L22.994729,7.00006883 C23.5470138,7.00006883 23.994729,7.44778408 23.994729,8.00006883 L23.994729,9.00695853 L23.994729,9.00695853 C23.994729,10.111528 24.8901595,11.0069585 25.994729,11.0069585 L42.9842447,11.0069585 L42.9842447,11.0069585 C44.0888142,11.0069585 44.9842447,10.111528 44.9842447,9.00695853 L44.9842447,6.99930896 L44.9842447,6.99930896 C44.9842447,5.89473946 44.0888142,4.99930896 42.9842447,4.99930896 L32.9924759,4.99930896 C32.8331004,3.96402354 32.4999458,3.03408985 31.9930122,2.2095079 C31.4860786,1.38492595 30.8172183,0.648423318 29.9864313,1.49167725e-12 Z" id="Path-6-Copy"></path>
                    <path d="M10.9864313,1.49167725e-12 L25.0227286,0 C26.6640764,0 28.0490141,0.557513685 29.1775414,1.67254106 C30.3060688,2.78756843 30.9141985,4.22525478 31.0019305,5.98560013 L31.0019305,10.0187851 C30.9176191,11.7648729 30.3094894,13.1855237 29.1775414,14.2807374 C28.0455934,15.3759511 26.6606558,15.9500724 25.0227286,16.0031012 L5.98931527,16.0031012 C4.34469009,15.9528154 2.94637321,15.3786942 1.79436465,14.2807374 C0.642356087,13.1827807 0.0442345377,11.7621299 0,10.0187851 L0,7.00006883 L3.99472901,7.00006883 L3.99472901,7.00006883 C4.54701376,7.00006883 4.99472901,7.44778408 4.99472901,8.00006883 L4.99472901,9.00695853 L4.99472901,9.00695853 C4.99472901,10.111528 5.89015951,11.0069585 6.99472901,11.0069585 L23.9842447,11.0069585 L23.9842447,11.0069585 C25.0888142,11.0069585 25.9842447,10.111528 25.9842447,9.00695853 L25.9842447,6.99930896 L25.9842447,6.99930896 C25.9842447,5.89473946 25.0888142,4.99930896 23.9842447,4.99930896 L13.9924759,4.99930896 C13.8331004,3.96402354 13.4999458,3.03408985 12.9930122,2.2095079 C12.4860786,1.38492595 11.8172183,0.648423318 10.9864313,1.49167725e-12 Z" id="Path-6-Copy-2" transform="translate(15.500965, 8.001551) scale(-1, -1) translate(-15.500965, -8.001551) "></path>
                </g>
            </g>
        </g>
    </g>
</svg>