<?xml version="1.0" encoding="UTF-8"?>
<svg width="266px" height="260px" viewBox="0 0 266 260" version="1.1" xmlns="http://www.w3.org/2000/svg" xmlns:xlink="http://www.w3.org/1999/xlink">
    <!-- Generator: Sketch 47.1 (45422) - http://www.bohemiancoding.com/sketch -->
    <title>Group</title>
    <desc>Created with Sketch.</desc>
    <defs></defs>
    <g id="Page-1" stroke="none" stroke-width="1" fill="none" fill-rule="evenodd">
        <g id="Artboard" transform="translate(-117.000000, -120.000000)">
            <g id="Group" transform="translate(117.000000, 120.000000)">
                <ellipse id="Oval-3" fill="#4A90E2" transform="translate(133.182432, 130.184564) rotate(180.000000) translate(-133.182432, -130.184564) " cx="133.182432" cy="130.184564" rx="132.668919" ry="129.312081"></ellipse>
                <path d="M5.52799347,165.522135 C2.26162346,154.290263 0.513513514,142.436394 0.513513514,130.184564 C0.513513514,121.213703 1.45071938,112.4562 3.23490262,104 L99.5583746,104 L99.5583746,104 C107.290361,104 113.558375,110.268014 113.558375,118 L113.558375,151.522135 C113.558375,159.254121 107.290361,165.522135 99.5583746,165.522135 L5.52799347,165.522135 Z" id="Combined-Shape" fill="#F5A623"></path>
                <path d="M264.338376,110.591824 C265.334717,116.981128 265.851351,123.524039 265.851351,130.184564 C265.851351,132.702426 265.777522,135.203481 265.631857,137.685784 L248.533879,137.685784 L248.533879,137.685784 C241.052089,137.685784 234.986899,131.620595 234.986899,124.138804 L234.986899,124.138804 C234.986899,116.657014 241.052089,110.591824 248.533879,110.591824 L264.338376,110.591824 Z" id="Combined-Shape" fill="#FFFFFF"></path>
                <path d="M155,232.522135 L155,234.522135 C155,242.254121 161.268014,248.522135 169,248.522135 L186.751115,248.522135 C215.329863,236.21359 238.611684,214.358178 252.341047,187.103753 C251.779648,187.035258 251.207984,187 250.628085,187 L250.628085,187 L169,187 C163.191298,187 158.208842,190.537577 156.089535,195.575826 L106,195.575826 C98.2680135,195.575826 92,201.84384 92,209.575826 L92,218.522135 C92,226.254121 98.2680135,232.522135 106,232.522135 L155,232.522135 Z" id="Combined-Shape" fill="#F5A623"></path>
                <path d="M0.60179476,134.94634 C0.543109374,133.366148 0.513513514,131.778724 0.513513514,130.184564 C0.513513514,119.073362 1.95128174,108.289471 4.6553733,98 L58.027027,98 L58.027027,98 C65.7590135,98 72.027027,104.268014 72.027027,112 L72.027027,120.946309 C72.027027,128.678295 65.7590135,134.946309 58.027027,134.946309 L0.601793615,134.946309 Z" id="Combined-Shape" fill="#FFFFFF"></path>
                <path d="M232.445068,44.3870246 C242.316477,55.2290578 250.346664,67.699716 256.057874,81.3333333 L162.498682,81.3333333 C154.766695,81.3333333 148.498682,75.0653198 148.498682,67.3333333 L148.498682,58.3870246 C148.498682,50.6550381 154.766695,44.3870246 162.498682,44.3870246 L232.445068,44.3870246 Z" id="Combined-Shape" fill="#F5A623"></path>
                <rect id="Rectangle-2-Copy-2" fill="#F5A623" transform="translate(140.734578, 85.163247) rotate(180.000000) translate(-140.734578, -85.163247) " x="92.7210646" y="71.6162675" width="96.027027" height="27.0939597" rx="13.5469799"></rect>
                <rect id="Rectangle-2-Copy-6" fill="#FFFFFF" transform="translate(87.874789, 136.479170) rotate(180.000000) translate(-87.874789, -136.479170) " x="47.6520162" y="116.839109" width="80.4455448" height="39.2801209" rx="14"></rect>
                <rect id="Rectangle-2-Copy-7" fill="#FFFFFF" transform="translate(72.114865, 58.546980) rotate(180.000000) translate(-72.114865, -58.546980) " x="38" y="45" width="68.2297297" height="27.0939597" rx="13.5469799"></rect>
                <rect id="Rectangle-2-Copy-10" fill="#FFFFFF" transform="translate(227.797297, 141.083893) rotate(180.000000) translate(-227.797297, -141.083893) " x="200" y="130" width="55.5945946" height="22.1677852" rx="11.0838926"></rect>
                <rect id="Rectangle-2-Copy-9" fill="#FFFFFF" transform="translate(124.337838, 115.406040) rotate(180.000000) translate(-124.337838, -115.406040) " x="96.5405405" y="104.322148" width="55.5945946" height="22.1677852" rx="11.0838926"></rect>
                <path d="M209.780124,235.779464 C188.143403,250.71752 161.714769,259.496644 133.182432,259.496644 C59.9114117,259.496644 0.513513514,201.601654 0.513513514,130.184564 C0.513513514,108.819521 5.8293829,88.6646513 15.242265,70.9079709 C33.7774535,142.06253 98.6234048,197.019698 209.780124,235.779464 Z" id="Combined-Shape" fill-opacity="0.200000018" fill="#000000"></path>
                <path d="M169.721861,206.090063 C170.139366,206.030706 170.566097,206 171,206 L177.149564,206 C177.051031,205.329708 177,204.643968 177,203.946309 L177,195 C177,187.268014 183.268014,181 191,181 L255.21551,181 C249.206237,194.69244 240.842215,207.1691 230.619673,217.946309 L198.241246,217.946309 C197.021024,221.469904 193.673269,224 189.734578,224 L189.734578,224 L171,224 L171,224 C166.029437,224 162,219.970563 162,215 C162,214.312612 162.077061,213.643223 162.223016,213 L149.704049,213 C146.114199,213 143.204049,210.089851 143.204049,206.5 L143.204049,206.5 C143.204049,202.910149 146.114199,200 149.704049,200 L163.234578,200 C166.686741,200 169.510342,202.691194 169.721861,206.090063 Z" id="Combined-Shape" fill="#FFFFFF"></path>
            </g>
        </g>
    </g>
</svg>