<?xml version="1.0" encoding="UTF-8"?>
<svg width="74px" height="74px" viewBox="0 0 74 74" version="1.1" xmlns="http://www.w3.org/2000/svg" xmlns:xlink="http://www.w3.org/1999/xlink">
    <!-- Generator: Sketch 47.1 (45422) - http://www.bohemiancoding.com/sketch -->
    <title>text_document_icon copy</title>
    <desc>Created with Sketch.</desc>
    <defs>
        <path d="M2,-2.84217094e-13 L23.8445325,-2.84217094e-13 L23.8445325,9.60313975 L23.8445325,9.60313975 C23.8445325,10.7077092 24.739963,11.6031397 25.8445325,11.6031397 L36,11.6031397 L36,44 L36,44 C36,45.1045695 35.1045695,46 34,46 L2,46 L2,46 C0.8954305,46 4.05948992e-15,45.1045695 0,44 L2.22044605e-16,2 L0,2 C-1.3527075e-16,0.8954305 0.8954305,-2.84014188e-13 2,-2.84217094e-13 Z" id="path-1"></path>
    </defs>
    <g id="Page-1" stroke="none" stroke-width="1" fill="none" fill-rule="evenodd">
        <g id="Artboard-3" transform="translate(-266.000000, -521.000000)">
            <g id="text_document_icon-copy" transform="translate(268.000000, 523.000000)">
                <circle id="Oval-8-Copy-3" stroke="#FF5F73" stroke-width="3" fill="#1C1C20" cx="35" cy="35" r="35"></circle>
                <g id="Group-8-Copy" transform="translate(17.000000, 12.000000)">
                    <path d="M2,-2.84217094e-13 L23.8445325,-2.84217094e-13 L36,11.6031397 L36,44 L36,44 C36,45.1045695 35.1045695,46 34,46 L2,46 L2,46 C0.8954305,46 4.05948992e-15,45.1045695 0,44 L4.4408921e-16,2 L4.4408921e-16,2 C3.0881846e-16,0.8954305 0.8954305,-2.84014188e-13 2,-2.84217094e-13 Z" id="Rectangle" fill="#FF5F73"></path>
                    <g id="Rectangle-Copy">
                        <use fill="#1C1C20" fill-rule="evenodd" xlink:href="#path-1"></use>
                        <path stroke="#FF5F73" stroke-width="3" d="M34.5,13.1031397 L25.8445325,13.1031397 C23.9115359,13.1031397 22.3445325,11.5361364 22.3445325,9.60313975 L22.3445325,1.5 L2,1.5 C1.72385763,1.5 1.5,1.72385763 1.5,2 L1.5,44 C1.5,44.2761424 1.72385763,44.5 2,44.5 L34,44.5 C34.2761424,44.5 34.5,44.2761424 34.5,44 L34.5,13.1031397 Z"></path>
                    </g>
                    <path d="M8.45454545,19.5 L17.5454545,19.5" id="Line-Copy-5" stroke="#FF5F73" stroke-width="3" stroke-linecap="round"></path>
                    <path d="M8.47619048,31.5 L27.5238095,31.5" id="Line-Copy-6" stroke="#FF5F73" stroke-width="3" stroke-linecap="round"></path>
                    <path d="M8.47619048,25.5 L27.5238095,25.5" id="Line-Copy-7" stroke="#FF5F73" stroke-width="3" stroke-linecap="round"></path>
                    <path d="M8.47619048,37.5 L27.5238095,37.5" id="Line-Copy-8" stroke="#FF5F73" stroke-width="3" stroke-linecap="round"></path>
                </g>
            </g>
        </g>
    </g>
</svg>