<?xml version="1.0" encoding="UTF-8"?>
<svg width="275px" height="275px" viewBox="0 0 275 275" version="1.1" xmlns="http://www.w3.org/2000/svg" xmlns:xlink="http://www.w3.org/1999/xlink">
    <!-- Generator: Sketch 51.2 (57519) - http://www.bohemiancoding.com/sketch -->
    <title>Group</title>
    <desc>Created with Sketch.</desc>
    <defs></defs>
    <g id="Page-1" stroke="none" stroke-width="1" fill="none" fill-rule="evenodd">
        <g id="Artboard-Copy-34" transform="translate(-113.000000, -113.000000)">
            <g id="Group" transform="translate(250.500000, 250.500000) scale(-1, -1) translate(-250.500000, -250.500000) translate(113.000000, 113.000000)">
                <ellipse id="Oval-3" fill="#D29055" cx="137.979712" cy="137.478115" rx="136.991983" ry="136.726729"></ellipse>
                <ellipse id="Oval-3-Copy-2" fill="#D29055" cx="137.979712" cy="137.478115" rx="136.991983" ry="136.726729"></ellipse>
                <ellipse id="Oval-3-Copy-6" fill="#D29055" cx="137.979712" cy="137.478115" rx="136.991983" ry="136.726729"></ellipse>
                <ellipse id="Oval-3-Copy-4" fill="#D29055" cx="137.979712" cy="137.478115" rx="136.991983" ry="136.726729"></ellipse>
                <ellipse id="Oval-3-Copy-12" fill="#D29055" cx="137.979712" cy="137.478115" rx="136.991983" ry="136.726729"></ellipse>
                <ellipse id="Oval-3-Copy-11" fill="#D29055" cx="137.979712" cy="137.478115" rx="136.991983" ry="136.726729"></ellipse>
                <ellipse id="Oval-3-Copy-10" fill="#D29055" cx="137.979712" cy="137.478115" rx="136.991983" ry="136.726729"></ellipse>
                <ellipse id="Oval-3-Copy-8" fill="#D29055" cx="137.979712" cy="137.478115" rx="136.991983" ry="136.726729"></ellipse>
                <ellipse id="Oval-3-Copy-20" fill="#D29055" cx="137.979712" cy="137.478115" rx="136.991983" ry="136.726729"></ellipse>
                <ellipse id="Oval-3-Copy-19" fill="#D29055" cx="137.979712" cy="137.478115" rx="136.991983" ry="136.726729"></ellipse>
                <ellipse id="Oval-3-Copy-18" fill="#D29055" cx="137.979712" cy="137.478115" rx="136.991983" ry="136.726729"></ellipse>
                <ellipse id="Oval-3-Copy-17" fill="#D29055" cx="137.979712" cy="137.478115" rx="136.991983" ry="136.726729"></ellipse>
                <ellipse id="Oval-3-Copy-16" fill="#838383" cx="137.979712" cy="137.478115" rx="136.991983" ry="136.726729"></ellipse>
                <path d="M61.0936426,250.656259 C55.0472441,246.556638 49.3466058,241.987013 44.0444462,237 L82.8912221,237 C86.6622939,237 89.7193517,240.057058 89.7193517,243.82813 C89.7193517,247.599201 86.6622939,250.656259 82.8912221,250.656259 L61.0936426,250.656259 Z" id="Combined-Shape" fill="#C2C2C2"></path>
                <path d="M32.0333321,224.161956 C28.3405806,219.671349 24.9288224,214.941775 21.8248753,210 L76.7807821,210 C80.6914983,210 83.8617601,213.170262 83.8617601,217.080978 C83.8617601,220.991694 80.6914983,224.161956 76.7807821,224.161956 L32.0333321,224.161956 Z" id="Combined-Shape" fill="#9B9B9B"></path>
                <path d="M3.87115186,109.438516 C5.56243027,101.339563 7.97164216,93.5035044 11.0293466,85.9996487 L85.5696736,85.9996487 C92.0421382,85.9996487 97.2891075,91.246618 97.2891075,97.7190826 C97.2891075,104.191547 92.0421382,109.438516 85.5696736,109.438516 L3.87115186,109.438516 Z" id="Combined-Shape" fill="#787878"></path>
                <path d="M10.9089021,188.66 C9.89017627,186.142986 8.94434727,183.588784 8.07402667,181 L77.701274,181 C79.8165246,181 81.5312739,182.714749 81.5312739,184.83 C81.5312739,186.94525 79.8165246,188.66 77.701274,188.66 L10.9089021,188.66 Z" id="Combined-Shape" fill="#BB885C"></path>
                <path d="M17.4321145,202.484923 C10.9881932,190.606715 6.25529079,177.668677 3.56323629,164 L272.396187,164 C269.704132,177.668677 264.97123,190.606715 258.527308,202.484923 L17.4321145,202.484923 Z" id="Combined-Shape" fill="#9B9B9B"></path>
                <path d="M1.08542843,132.26605 C1.20467733,129.090497 1.4324356,125.942647 1.7651101,122.826087 L116.046078,122.826087 C118.652862,122.826087 120.766078,124.939303 120.766078,127.546087 C120.766078,130.152871 118.652862,132.266087 116.046078,132.266087 L1.08542707,132.266087 Z" id="Combined-Shape" fill="#90ACB8"></path>
                <path d="M10.1535148,88.2039667 C13.3393959,79.9767143 17.2996777,72.1340779 21.9451447,64.7651003 L141.699029,64.7651003 C148.171493,64.7651003 153.418463,70.0120696 153.418463,76.4845342 C153.418463,82.9569988 148.171493,88.2039681 141.699029,88.2039681 L10.1535045,88.2039681 Z" id="Combined-Shape" fill="#C2C2C2"></path>
                <path d="M24.7874077,60.4399996 C27.0123326,57.1898403 29.3741215,54.0404181 31.8644913,51 L113.101542,51 C115.708326,51 117.821541,53.1132159 117.821541,55.7199998 C117.821541,58.3267837 115.708326,60.4399996 113.101542,60.4399996 L24.7874077,60.4399996 Z" id="Combined-Shape" fill="#90ACB8"></path>
                <path d="M73.052649,17.0529113 C79.9320085,13.350489 87.1648101,10.218118 94.6875472,7.71918162 L126.804355,7.71918162 C129.411139,7.71918162 131.524355,9.8323975 131.524355,12.4391814 C131.524355,15.0459653 129.411139,17.1591812 126.804355,17.1591812 L74.1773998,17.1591812 C73.7941767,17.1591812 73.4180335,17.1227671 73.052649,17.0529113 Z" id="Combined-Shape" fill="#C2C2C2"></path>
                <path d="M196.881981,13.9999521 C204.91676,17.8247599 212.519571,22.4077588 219.597498,27.6562112 L150.350027,27.6562112 C146.578956,27.6562112 143.521898,24.5991535 143.521898,20.8280816 C143.521898,17.0570098 146.578956,13.9999521 150.350027,13.9999521 L196.881981,13.9999521 Z" id="Combined-Shape" fill="#9B9B9B"></path>
                <path d="M264.518083,85 C265.806414,88.0909579 266.984364,91.2392584 268.047022,94.4399996 L158.278394,94.4399996 C155.67161,94.4399996 153.558394,92.3267837 153.558394,89.7199998 C153.558394,87.1132159 155.67161,85 158.278394,85 L264.518083,85 Z" id="Combined-Shape" fill="#90ACB8"></path>
                <path d="M271.555613,107.000095 C273.254242,114.446877 274.343774,122.124873 274.769144,129.979123 C273.733861,130.278454 272.639613,130.438868 271.507898,130.438868 L237.540602,130.438868 C231.068137,130.438868 225.821168,125.191899 225.821168,118.719434 C225.821168,112.246969 231.068137,107 237.540602,107 L271.507898,107 C271.523811,107 271.539715,107.000032 271.555613,107.000095 Z" id="Combined-Shape" fill="#90ACB8"></path>
                <path d="M274.714844,129.036289 C274.885249,131.828425 274.971695,134.643194 274.971695,137.478115 C274.971695,137.799003 274.970587,138.119632 274.968376,138.44 L210.450031,138.44 C207.853268,138.44 205.748175,136.334908 205.748175,133.738145 C205.748175,131.141382 207.853268,129.036289 210.450031,129.036289 L274.714844,129.036289 Z" id="Combined-Shape" fill="#90ACB8"></path>
                <path d="M262.29459,195.000006 C261.11118,197.543374 259.851721,200.044342 258.519128,202.5 L193.439781,202.5 C191.368713,202.5 189.689781,200.821068 189.689781,198.75 C189.689781,196.678932 191.368713,195 193.439781,195 L262.294593,195 Z" id="Combined-Shape" fill="#9B9B9B"></path>
                <path d="M255.947861,207.029756 C249.529924,217.849902 241.660125,227.710838 232.606198,236.345346 L155.514599,236.345346 C147.782612,236.345346 141.514599,230.077333 141.514599,222.345346 L141.514599,219.478249 C141.514599,211.746263 147.782612,205.478249 155.514599,205.478249 L249.535608,205.478249 C251.846558,205.478249 254.02673,206.038173 255.947861,207.029756 Z" id="Combined-Shape" fill="#C2C2C2"></path>
                <path d="M237.170801,231.783256 C230.118132,239.170391 222.245544,245.770729 213.698721,251.438868 L113.088047,251.438868 C106.615582,251.438868 101.368613,246.191899 101.368613,239.719434 C101.368613,233.246969 106.615582,228 113.088047,228 L228.547363,228 C231.958423,228 235.029113,229.457296 237.170801,231.783256 Z" id="Combined-Shape" fill="#C2C2C2"></path>
                <path d="M100.904272,269.13854 C102.580507,263.284496 107.972386,259 114.364964,259 L185.859686,259 C189.149155,259 192.17365,260.134486 194.56325,262.033537 C177.315328,269.851109 158.156941,274.204844 137.979712,274.204844 C125.13137,274.204844 112.696151,272.439485 100.904272,269.13854 Z" id="Combined-Shape" fill="#C2C2C2"></path>
                <rect id="Combined-Shape" fill="#A59689" x="178.649635" y="146" width="45.6749055" height="13.6562591" rx="6.82812956"></rect>
                <path d="M242.854134,49.5067806 C252.588247,61.0543275 260.442872,74.2324061 265.947639,88.571559 L210.05278,88.5715603 C202.320793,88.5715603 196.05278,82.3035468 196.05278,74.5715603 L196.05278,63.5067806 C196.05278,55.7747941 202.320793,49.5067806 210.05278,49.5067806 L242.854134,49.5067806 Z" id="Combined-Shape" fill="#9B9B9B"></path>
                <path d="M224.121628,31.1591416 C234.115399,39.2350222 242.94782,48.6861048 250.329865,59.2239231 L169.126169,59.2239231 C161.394182,59.2239231 155.126169,52.9559096 155.126169,45.2239231 L155.126169,45.1591416 C155.126169,37.4271551 161.394182,31.1591416 169.126169,31.1591416 L224.121628,31.1591416 Z" id="Combined-Shape" fill="#C2C2C2"></path>
                <path d="M2.457351,157.576361 C1.48918639,151.016964 0.987728049,144.305987 0.987728049,137.478115 C0.987728049,134.01174 1.11697349,130.575493 1.3709171,127.173913 L187.64119,127.173913 C195.373177,127.173913 201.64119,133.441927 201.64119,141.173913 L201.64119,143.576361 C201.64119,151.308348 195.373177,157.576361 187.64119,157.576361 L2.457351,157.576361 Z" id="Combined-Shape" fill="#C2C2C2"></path>
                <path d="M34.0148518,48.4388678 C41.6522047,39.5639765 50.4107247,31.6780768 60.071156,25 L65.8468863,25 C72.319351,25 77.5663202,30.2469693 77.5663202,36.7194339 C77.5663202,43.1918985 72.319351,48.4388678 65.8468863,48.4388678 L34.0148518,48.4388678 Z" id="Combined-Shape" fill="#90ACB8"></path>
                <rect id="Rectangle-2-Copy-2" fill="#90ACB8" x="135.492701" y="142.375137" width="130.107316" height="34.7826087" rx="14"></rect>
                <path d="M233.01255,39 C237.935034,43.7329987 242.503536,48.8301923 246.674518,54.2481265 C246.441195,54.2695985 246.204826,54.2805661 245.965895,54.2805661 L219.153031,54.2805661 C214.809591,54.2805661 211.183919,50.9662707 210.794947,46.640283 C210.448123,42.7830558 213.293868,39.3749992 217.151095,39.0281756 C217.359895,39.0094013 217.569432,39 217.779075,39 L233.01255,39 Z" id="Combined-Shape" fill="#9B9B9B"></path>
                <rect id="Rectangle-2-Copy-29" fill="#C2C2C2" x="83.3029197" y="196" width="68.4463105" height="7.44000006" rx="3.72000003"></rect>
                <path d="M19.9932867,95 L129.953766,95 C136.426231,95 141.6732,100.246969 141.6732,106.719434 L141.6732,106.719434 C141.6732,113.191899 136.426231,118.438868 129.953766,118.438868 L24.0097402,118.438868 C17.2345623,118.438868 11.4316332,113.587325 10.2312323,106.919336 L10.1952451,106.719434 C9.22107724,101.308125 12.8180908,96.1316733 18.2293998,95.1575054 C18.8115159,95.0527103 19.4018129,95 19.9932867,95 Z" id="Rectangle-2-Copy-12" fill="#9B9B9B"></path>
                <path d="M184.499969,144.375137 L219.32809,144.375137 C225.800555,144.375137 231.047524,149.622107 231.047524,156.094571 L231.047524,156.094571 C231.047524,162.567036 225.800555,167.814005 219.32809,167.814005 L186.34156,167.814005 C179.705297,167.814005 174.185022,162.710445 173.665213,156.094571 L173.665213,156.094571 C173.19506,150.110701 177.664812,144.878681 183.648682,144.408529 C183.931899,144.386276 184.215879,144.375137 184.499969,144.375137 Z" id="Rectangle-2-Copy-18" fill="#748E99"></path>
                <path d="M42.5237621,201 L58.4070361,201 C62.1781079,201 65.2351656,204.057058 65.2351656,207.82813 L65.2351656,207.82813 C65.2351656,211.599201 62.1781079,214.656259 58.4070361,214.656259 L43.4573159,214.656259 C39.6041996,214.656259 36.4092625,211.672274 36.1464734,207.82813 L36.1464734,207.82813 C35.905701,204.30605 38.5657258,201.255656 42.0878051,201.014884 C42.2329124,201.004964 42.3783161,201 42.5237621,201 Z" id="Rectangle-2-Copy-35" fill="#9B9B9B"></path>
                <path d="M33.2088479,139 L69.4471821,139 C73.2182539,139 76.2753116,142.057058 76.2753116,145.82813 L76.2753116,145.82813 C76.2753116,149.599201 73.2182539,152.656259 69.4471821,152.656259 L34.7862774,152.656259 C30.868817,152.656259 27.5735475,149.719714 27.1240319,145.82813 L27.1240319,145.82813 C26.7358559,142.467579 29.1454419,139.428635 32.505993,139.040459 C32.7393085,139.013509 32.973981,139 33.2088479,139 Z" id="Rectangle-2-Copy-32" fill="#9B9B9B"></path>
                <path d="M182.031061,39 L197.914335,39 C201.685407,39 204.742465,42.0570577 204.742465,45.8281296 L204.742465,45.8281296 C204.742465,49.5992014 201.685407,52.6562591 197.914335,52.6562591 L182.964615,52.6562591 C179.111499,52.6562591 175.916562,49.6722741 175.653773,45.8281296 L175.653773,45.8281296 C175.413,42.3060503 178.073025,39.2556562 181.595104,39.0148838 C181.740212,39.0049642 181.885615,39 182.031061,39 Z" id="Rectangle-2-Copy-33" fill="#9B9B9B"></path>
                <path d="M157.560097,209 L185.746917,209 C189.966528,209 193.3872,212.420671 193.3872,216.640283 L193.3872,216.640283 C193.3872,220.859895 189.966528,224.280566 185.746917,224.280566 L158.934053,224.280566 C154.590613,224.280566 150.964941,220.966271 150.575969,216.640283 L150.575969,216.640283 C150.229145,212.783056 153.07489,209.374999 156.932117,209.028176 C157.140917,209.009401 157.350454,209 157.560097,209 Z" id="Rectangle-2-Copy-36" fill="#9B9B9B"></path>
                <path d="M181.065349,100 L246.419249,100 C252.891714,100 258.138683,105.246969 258.138683,111.719434 L258.138683,111.719434 C258.138683,118.191899 252.891714,123.438868 246.419249,123.438868 L183.872647,123.438868 C177.138404,123.438868 171.466649,118.405888 170.665805,111.719434 L170.665805,111.719434 C169.977899,105.975925 174.076275,100.762232 179.819784,100.074326 C180.233126,100.024819 180.649052,100 181.065349,100 Z" id="Rectangle-2-Copy-31" fill="#90ACB8"></path>
            </g>
        </g>
    </g>
</svg>