<?xml version="1.0" encoding="UTF-8"?>
<svg width="51px" height="56px" viewBox="0 0 51 56" version="1.1" xmlns="http://www.w3.org/2000/svg" xmlns:xlink="http://www.w3.org/1999/xlink">
    <!-- Generator: Sketch 47.1 (45422) - http://www.bohemiancoding.com/sketch -->
    <title>Group 3 Copy 5</title>
    <desc>Created with Sketch.</desc>
    <defs></defs>
    <g id="Page-1" stroke="none" stroke-width="1" fill="none" fill-rule="evenodd">
        <g id="schueler_01" transform="translate(-159.000000, -784.000000)">
            <g id="Group-3-Copy-5" transform="translate(159.000000, 784.000000)">
                <circle id="Oval" stroke="#FFFFFF" stroke-width="4" cx="23.5" cy="32.5" r="21.5"></circle>
                <circle id="Oval-Copy-6" fill="#FFFFFF" cx="46" cy="5" r="5"></circle>
                <g id="Group-4" transform="translate(12.000000, 21.000000)" fill="#FFFFFF">
                    <path d="M8.712,8.712 L2.288,8.712 L2.288,8.712 C1.02437249,8.712 -1.54749738e-16,9.73637249 0,11 L0,11 L0,11 C1.54749738e-16,12.2636275 1.02437249,13.288 2.288,13.288 L8.712,13.288 L8.712,19.712 C8.712,20.9756275 9.73637249,22 11,22 C12.2636275,22 13.288,20.9756275 13.288,19.712 L13.288,13.288 L19.712,13.288 C20.9756275,13.288 22,12.2636275 22,11 L22,11 C22,9.73637249 20.9756275,8.712 19.712,8.712 L19.712,8.712 L13.288,8.712 L13.288,2.288 C13.288,1.02437249 12.2636275,-2.98427949e-13 11,-2.98427949e-13 L11,-2.98427949e-13 C9.73637249,-2.94875235e-13 8.712,1.02437249 8.712,2.288 L8.712,2.288 L8.712,8.712 Z" id="Combined-Shape"></path>
                </g>
            </g>
        </g>
    </g>
</svg>