<?xml version="1.0" encoding="UTF-8"?>
<svg width="41px" height="45px" viewBox="0 0 41 45" version="1.1" xmlns="http://www.w3.org/2000/svg" xmlns:xlink="http://www.w3.org/1999/xlink">
    <!-- Generator: Sketch 47.1 (45422) - http://www.bohemiancoding.com/sketch -->
    <title>Group 3 Copy 6</title>
    <desc>Created with Sketch.</desc>
    <defs></defs>
    <g id="Page-1" stroke="none" stroke-width="1" fill="none" fill-rule="evenodd">
        <g id="schueler_01-copy-4" transform="translate(-195.000000, -115.000000)">
            <g id="Group-3-Copy-6" transform="translate(195.000000, 115.000000)">
                <circle id="Oval" stroke="#FFFFFF" stroke-width="4" cx="19" cy="26" r="17"></circle>
                <circle id="Oval-Copy-6" fill="#FFFFFF" cx="37" cy="4" r="4"></circle>
                <g id="Group-4" transform="translate(7.000000, 14.000000)" fill="#FFFFFF">
                    <path d="M6.8189765,10.1696 L18.1696,10.1696 L18.1696,10.1696 C19.180502,10.1696 20,10.989098 20,12 L20,12 C20,13.010902 19.180502,13.8304 18.1696,13.8304 L7.0493765,13.8304 L13.7393676,20.5203911 L13.7393676,20.5203911 C14.4541833,21.2352068 14.4541833,22.3941519 13.7393676,23.1089676 L13.7393676,23.1089676 L13.7393676,23.1089676 C13.0245519,23.8237833 11.8656068,23.8237833 11.1507911,23.1089676 L1.83933493,13.7975114 C1.55546439,13.7138962 1.28787276,13.5600963 1.06388825,13.3361117 L1.06388825,13.3361117 L1.06388825,13.3361117 C0.349072589,12.6212961 0.349072589,11.4623509 1.06388825,10.7475352 L1.06388825,10.7475352 L10.9203911,0.891032399 C11.6352068,0.176216735 12.7941519,0.176216735 13.5089676,0.891032399 C14.2237833,1.60584806 14.2237833,2.76479324 13.5089676,3.4796089 L6.8189765,10.1696 Z" id="Combined-Shape"></path>
                </g>
            </g>
        </g>
    </g>
</svg>