<?xml version="1.0" encoding="UTF-8"?>
<svg width="45px" height="45px" viewBox="0 0 45 45" version="1.1" xmlns="http://www.w3.org/2000/svg" xmlns:xlink="http://www.w3.org/1999/xlink">
    <!-- Generator: Sketch 47.1 (45422) - http://www.bohemiancoding.com/sketch -->
    <title>Group</title>
    <desc>Created with Sketch.</desc>
    <defs></defs>
    <g id="Page-1" stroke="none" stroke-width="1" fill="none" fill-rule="evenodd">
        <g id="schueler_01" transform="translate(-66.000000, -693.000000)" fill="#FFFFFF">
            <g id="Group" transform="translate(66.000000, 693.000000)">
                <g id="JUPIT" transform="translate(5.000000, 5.000000)">
                    <path d="M18.0017143,35.5257143 C10.3388571,35.5257143 3.45257143,30.3925714 1.25542857,23.0434286 C-0.0811428571,18.5685714 0.404571429,13.8411429 2.62285714,9.73142857 C4.84114286,5.62171429 8.528,2.62285714 13.0022857,1.28571429 C14.6371429,0.797142857 16.324,0.549142857 18.0148571,0.549142857 C25.6794286,0.549142857 32.5645714,5.68285714 34.7605714,13.0325714 C36.0971429,17.5068571 35.6114286,22.2342857 33.3931429,26.344 C31.1748571,30.4531429 27.488,33.4525714 23.0137143,34.7897143 C21.3782857,35.2782857 19.6925714,35.5257143 18.0017143,35.5257143 L18.0017143,35.5257143 Z M18.0148571,3.66514286 C16.6262857,3.66514286 15.24,3.86914286 13.8948571,4.27085714 C10.2171429,5.36971429 7.188,7.83485714 5.36457143,11.212 C3.54171429,14.5891429 3.14228571,18.4737143 4.24171429,22.1508571 C6.04628571,28.1908571 11.7051429,32.4097143 18.0017143,32.4097143 C19.3902857,32.4097143 20.7771429,32.2062857 22.1211429,31.8045714 C25.7988571,30.7057143 28.8274286,28.2405714 30.6514286,24.8634286 C32.4742857,21.4862857 32.8737143,17.6017143 31.7742857,13.9245714 C29.9697143,7.884 24.312,3.66514286 18.0148571,3.66514286 L18.0148571,3.66514286 Z" id="Fill-1"></path>
                    <path d="M2.984,20.1097143 C2.31371429,20.1097143 1.69371429,19.6731429 1.492,18.9971429 C1.24571429,18.1731429 1.71428571,17.3045714 2.53885714,17.0588571 L15.9742857,13.0445714 C16.7977143,12.796 17.6674286,13.2657143 17.9137143,14.0914286 C18.16,14.9154286 17.6914286,15.784 16.8668571,16.0297143 L3.43142857,20.044 C3.28228571,20.0885714 3.132,20.1097143 2.984,20.1097143" id="Fill-2"></path>
                    <path d="M20.188,26.8942857 C19.5171429,26.8942857 18.8977143,26.4577143 18.6954286,25.7817143 C18.4491429,24.9571429 18.9177143,24.0891429 19.7422857,23.8428571 L33.1771429,19.8291429 C34.0005714,19.5805714 34.8697143,20.0502857 35.1165714,20.876 C35.3628571,21.7 34.8942857,22.568 34.0697143,22.8142857 L20.6348571,26.828 C20.4857143,26.8725714 20.336,26.8942857 20.188,26.8942857" id="Fill-3"></path>
                    <path d="M12.4902857,29.1942857 C11.8194286,29.1942857 11.2,28.7577143 10.9982857,28.0811429 C10.7514286,27.2571429 11.22,26.3891429 12.0445714,26.1428571 L14.3788571,25.4457143 C15.2022857,25.1977143 16.0714286,25.6668571 16.3182857,26.4925714 C16.5645714,27.3165714 16.096,28.1851429 15.2714286,28.4308571 L12.9377143,29.128 C12.788,29.1725714 12.6382857,29.1942857 12.4902857,29.1942857" id="Fill-4"></path>
                    <path d="M18.3822857,9.17428571 C17.712,9.17428571 17.092,8.73714286 16.8902857,8.06114286 C16.6434286,7.23714286 17.1125714,6.36914286 17.9371429,6.12285714 L20.2708571,5.42571429 C21.0942857,5.17714286 21.964,5.64685714 22.2102857,6.47257143 C22.4565714,7.29657143 21.988,8.16457143 21.1634286,8.41085714 L18.8297143,9.108 C18.6805714,9.15257143 18.5302857,9.17428571 18.3822857,9.17428571" id="Fill-5"></path>
                </g>
                <path d="M22.0822785,0 L22.9177215,0 L22.9177215,4.4408921e-16 C24.5745758,1.39730022e-16 25.9177215,1.34314575 25.9177215,3 L25.9177215,3.26582278 L25.9177215,3.26582278 C25.9177215,4.92267703 24.5745758,6.26582278 22.9177215,6.26582278 L22.0822785,6.26582278 L22.0822785,6.26582278 C20.4254242,6.26582278 19.0822785,4.92267703 19.0822785,3.26582278 L19.0822785,3 L19.0822785,3 C19.0822785,1.34314575 20.4254242,7.48448398e-16 22.0822785,4.4408921e-16 L22.0822785,0 Z M38.1145289,6.2947237 L38.7052763,6.88547114 C39.8768492,8.05704402 39.8768492,9.95653895 38.7052763,11.1281118 L38.5173112,11.3160769 C37.3457383,12.4876498 35.4462434,12.4876498 34.2746705,11.3160769 L33.6839231,10.7253295 C32.5123502,9.55375661 32.5123502,7.65426167 33.6839231,6.4826888 L33.8718882,6.2947237 C35.043461,5.12315083 36.942956,5.12315083 38.1145289,6.2947237 Z M45,22.0822785 L45,22.9177215 C45,24.5745758 43.6568542,25.9177215 42,25.9177215 L41.7341772,25.9177215 C40.077323,25.9177215 38.7341772,24.5745758 38.7341772,22.9177215 L38.7341772,22.0822785 C38.7341772,20.4254242 40.077323,19.0822785 41.7341772,19.0822785 L42,19.0822785 C43.6568542,19.0822785 45,20.4254242 45,22.0822785 Z M38.7052763,38.1145289 L38.1145289,38.7052763 C36.942956,39.8768492 35.043461,39.8768492 33.8718882,38.7052763 L33.6839231,38.5173112 C32.5123502,37.3457383 32.5123502,35.4462434 33.6839231,34.2746705 L34.2746705,33.6839231 C35.4462434,32.5123502 37.3457383,32.5123502 38.5173112,33.6839231 L38.7052763,33.8718882 C39.8768492,35.043461 39.8768492,36.942956 38.7052763,38.1145289 Z M22.9177215,45 L22.0822785,45 C20.4254242,45 19.0822785,43.6568542 19.0822785,42 L19.0822785,41.7341772 C19.0822785,40.077323 20.4254242,38.7341772 22.0822785,38.7341772 L22.9177215,38.7341772 C24.5745758,38.7341772 25.9177215,40.077323 25.9177215,41.7341772 L25.9177215,42 C25.9177215,43.6568542 24.5745758,45 22.9177215,45 Z M6.88547114,38.7052763 L6.2947237,38.1145289 C5.12315083,36.942956 5.12315083,35.043461 6.2947237,33.8718882 L6.4826888,33.6839231 C7.65426167,32.5123502 9.55375661,32.5123502 10.7253295,33.6839231 L11.3160769,34.2746705 L11.3160769,34.2746705 C12.4876498,35.4462434 12.4876498,37.3457383 11.3160769,38.5173112 L11.1281118,38.7052763 L11.1281118,38.7052763 C9.95653895,39.8768492 8.05704402,39.8768492 6.88547114,38.7052763 L6.88547114,38.7052763 Z M1.66935499e-15,22.9177215 L1.51588659e-15,22.0822785 L1.51588659e-15,22.0822785 C9.07168217e-16,20.4254242 1.34314575,19.0822785 3,19.0822785 L3.26582278,19.0822785 C4.92267703,19.0822785 6.26582278,20.4254242 6.26582278,22.0822785 L6.26582278,22.9177215 L6.26582278,22.9177215 C6.26582278,24.5745758 4.92267703,25.9177215 3.26582278,25.9177215 L3,25.9177215 L3,25.9177215 C1.34314575,25.9177215 2.27807337e-15,24.5745758 1.66935499e-15,22.9177215 L1.66935499e-15,22.9177215 Z M6.2947237,6.88547114 L6.88547114,6.2947237 C8.05704402,5.12315083 9.95653895,5.12315083 11.1281118,6.2947237 L11.3160769,6.4826888 C12.4876498,7.65426167 12.4876498,9.55375661 11.3160769,10.7253295 L10.7253295,11.3160769 C9.55375661,12.4876498 7.65426167,12.4876498 6.4826888,11.3160769 L6.2947237,11.1281118 L6.2947237,11.1281118 C5.12315083,9.95653895 5.12315083,8.05704402 6.2947237,6.88547114 Z" id="Rectangle-6"></path>
            </g>
        </g>
    </g>
</svg>