<?xml version="1.0" encoding="utf-8"?>
<!-- Generator: Adobe Illustrator 17.0.0, SVG Export Plug-In . SVG Version: 6.00 Build 0)  -->
<!DOCTYPE svg PUBLIC "-//W3C//DTD SVG 1.1//EN" "http://www.w3.org/Graphics/SVG/1.1/DTD/svg11.dtd">
<svg version="1.1" id="Layer_1" xmlns="http://www.w3.org/2000/svg" xmlns:xlink="http://www.w3.org/1999/xlink" x="0px" y="0px"
	 width="39.685px" height="39.685px" viewBox="2.657 2.657 39.685 39.685" enable-background="new 2.657 2.657 39.685 39.685"
	 xml:space="preserve">
<title>Group</title>
<desc>Created with Sketch.</desc>
<g id="Page-1">
	<g id="schueler_01" transform="translate(-66.000000, -693.000000)">
		<g id="Group" transform="translate(66.000000, 693.000000)">
			<g id="JUPIT" transform="translate(5.000000, 5.000000)">
				<path id="Fill-1" fill="#FFFFFF" d="M17.92,32.598c-6.418,0-12.186-4.299-14.026-10.455c-1.119-3.748-0.713-7.708,1.145-11.15
					s4.946-5.954,8.694-7.074c1.369-0.409,2.782-0.617,4.198-0.617c6.42,0,12.187,4.3,14.026,10.456
					c1.119,3.748,0.713,7.707-1.145,11.149c-1.858,3.442-4.946,5.954-8.694,7.074C20.748,32.391,19.336,32.598,17.92,32.598
					L17.92,32.598z M17.931,5.912c-1.163,0-2.324,0.171-3.451,0.507c-3.08,0.92-5.618,2.985-7.145,5.814
					c-1.527,2.829-1.861,6.082-0.94,9.162c1.511,5.059,6.251,8.593,11.525,8.593c1.163,0,2.325-0.17,3.45-0.507
					c3.08-0.92,5.617-2.985,7.145-5.814c1.527-2.829,1.861-6.082,0.94-9.162C27.944,9.446,23.206,5.912,17.931,5.912L17.931,5.912z"
					/>
				<path id="Fill-2" fill="#FFFFFF" d="M5.342,19.686c-0.561,0-1.081-0.366-1.25-0.932c-0.206-0.69,0.186-1.418,0.877-1.623
					l11.253-3.362c0.69-0.208,1.418,0.185,1.624,0.877c0.206,0.69-0.186,1.418-0.877,1.623L5.716,19.631
					C5.591,19.668,5.466,19.686,5.342,19.686"/>
				<path id="Fill-3" fill="#FFFFFF" d="M19.751,25.369c-0.562,0-1.081-0.366-1.25-0.932c-0.206-0.691,0.186-1.418,0.877-1.624
					l11.253-3.362c0.69-0.208,1.418,0.185,1.624,0.877c0.206,0.69-0.186,1.417-0.877,1.623l-11.253,3.362
					C20.001,25.35,19.875,25.369,19.751,25.369"/>
				<path id="Fill-4" fill="#FFFFFF" d="M13.304,27.295c-0.562,0-1.081-0.366-1.25-0.932c-0.207-0.69,0.186-1.417,0.876-1.623
					l1.955-0.584c0.69-0.208,1.418,0.185,1.624,0.877c0.206,0.69-0.186,1.418-0.877,1.623l-1.955,0.584
					C13.553,27.277,13.428,27.295,13.304,27.295"/>
				<path id="Fill-5" fill="#FFFFFF" d="M18.239,10.526c-0.561,0-1.081-0.366-1.25-0.932c-0.207-0.69,0.186-1.417,0.877-1.623
					l1.955-0.584c0.69-0.208,1.418,0.185,1.624,0.877c0.206,0.69-0.186,1.417-0.877,1.623l-1.955,0.584
					C18.489,10.508,18.363,10.526,18.239,10.526"/>
			</g>
			<path id="Rectangle-6" fill="#FFFFFF" d="M22.15,3.654h0.7l0,0c1.388,0,2.513,1.125,2.513,2.513V6.39l0,0
				c0,1.388-1.125,2.513-2.513,2.513h-0.7l0,0c-1.388,0-2.513-1.125-2.513-2.513V6.167l0,0C19.637,4.779,20.762,3.654,22.15,3.654
				L22.15,3.654z M35.579,8.927l0.495,0.495c0.981,0.981,0.981,2.572,0,3.554l-0.157,0.157c-0.981,0.981-2.572,0.981-3.554,0
				l-0.495-0.495c-0.981-0.981-0.981-2.572,0-3.554l0.157-0.157C33.006,7.945,34.597,7.945,35.579,8.927z M41.346,22.15v0.7
				c0,1.388-1.125,2.513-2.513,2.513H38.61c-1.388,0-2.513-1.125-2.513-2.513v-0.7c0-1.388,1.125-2.513,2.513-2.513h0.223
				C40.221,19.637,41.346,20.762,41.346,22.15z M36.073,35.579l-0.495,0.495c-0.981,0.981-2.572,0.981-3.554,0l-0.157-0.157
				c-0.981-0.981-0.981-2.572,0-3.554l0.495-0.495c0.981-0.981,2.572-0.981,3.554,0l0.157,0.157
				C37.055,33.006,37.055,34.597,36.073,35.579z M22.85,41.346h-0.7c-1.388,0-2.513-1.125-2.513-2.513V38.61
				c0-1.388,1.125-2.513,2.513-2.513h0.7c1.388,0,2.513,1.125,2.513,2.513v0.223C25.363,40.221,24.238,41.346,22.85,41.346z
				 M9.421,36.073l-0.495-0.495c-0.981-0.981-0.981-2.572,0-3.554l0.157-0.157c0.981-0.981,2.572-0.981,3.554,0l0.495,0.495l0,0
				c0.981,0.981,0.981,2.572,0,3.554l-0.157,0.157l0,0C11.994,37.055,10.403,37.055,9.421,36.073L9.421,36.073z M3.654,22.85v-0.7
				l0,0c0-1.388,1.125-2.513,2.513-2.513H6.39c1.388,0,2.513,1.125,2.513,2.513v0.7l0,0c0,1.388-1.125,2.513-2.513,2.513H6.167l0,0
				C4.779,25.363,3.654,24.238,3.654,22.85L3.654,22.85z M8.927,9.421l0.495-0.495c0.981-0.981,2.572-0.981,3.554,0l0.157,0.157
				c0.981,0.981,0.981,2.572,0,3.554l-0.495,0.495c-0.981,0.981-2.572,0.981-3.554,0l-0.157-0.157l0,0
				C7.945,11.994,7.945,10.403,8.927,9.421z"/>
		</g>
	</g>
</g>
</svg>
