<?xml version="1.0" encoding="UTF-8"?>
<svg width="50px" height="34px" viewBox="0 0 50 34" version="1.1" xmlns="http://www.w3.org/2000/svg" xmlns:xlink="http://www.w3.org/1999/xlink">
    <!-- Generator: Sketch 47.1 (45422) - http://www.bohemiancoding.com/sketch -->
    <title>Group Copy 5</title>
    <desc>Created with Sketch.</desc>
    <defs></defs>
    <g id="Page-1" stroke="none" stroke-width="1" fill="none" fill-rule="evenodd">
        <g id="schueler_09-copy-12" transform="translate(-578.000000, -694.000000)">
            <g id="Group-Copy-5" transform="translate(578.000000, 694.000000)">
                <g id="Group-5">
                    <rect id="Rectangle" fill="#FF5F73" x="14.1891892" y="25.84" width="2.7027027" height="2.04"></rect>
                    <rect id="Rectangle-Copy" fill="#FF5F73" x="6.08108108" y="27.2" width="2.7027027" height="2.04"></rect>
                    <rect id="Rectangle-2" stroke="#FF5F73" stroke-width="3" x="1.5" y="1.5" width="47" height="31" rx="5"></rect>
                    <path d="M19.8876236,9.13007142 L19.8876236,19.5875552 L19.8876236,19.5875552 C19.8876236,20.1398399 20.3353388,20.5875552 20.8876236,20.5875552 C21.0488156,20.5875552 21.2076188,20.5485889 21.3505028,20.4739765 L31.3639378,15.2450733 L31.3639378,15.2450733 C31.8534948,14.9894321 32.043121,14.3853297 31.7874799,13.8957727 C31.6928867,13.7146253 31.5450652,13.5668075 31.3639153,13.4722189 L21.3504804,8.24363836 L21.3504804,8.24363836 C20.8609169,7.9880096 20.2568193,8.17765114 20.0011905,8.6672146 C19.9265856,8.81009295 19.8876236,8.96888796 19.8876236,9.13007142 Z" id="Path-2" stroke="#FF5F73" stroke-width="3" fill="#FF5F73"></path>
                    <path d="M11.8243243,28.22 L42.2814371,28.22" id="Line-2" stroke="#FF5F73" stroke-width="3" stroke-linecap="square"></path>
                </g>
            </g>
        </g>
    </g>
</svg>