<?xml version="1.0" encoding="UTF-8"?>
<svg width="1142px" height="640px" viewBox="0 0 1142 640" version="1.1" xmlns="http://www.w3.org/2000/svg" xmlns:xlink="http://www.w3.org/1999/xlink">
    <!-- Generator: Sketch 47.1 (45422) - http://www.bohemiancoding.com/sketch -->
    <title>Group 3</title>
    <desc>Created with Sketch.</desc>
    <defs></defs>
    <g id="Page-1" stroke="none" stroke-width="1" fill="none" fill-rule="evenodd">
        <g id="schueler_01-copy-4" transform="translate(-165.000000, -122.000000)" fill="#FFFFFF">
            <g id="Group-3" transform="translate(165.000000, 122.000000)">
                <g id="Group-2" transform="translate(260.000000, 163.000000) scale(-1, 1) translate(-260.000000, -163.000000) ">
                    <ellipse id="Oval-6-Copy-8" cx="57.9617834" cy="117.691525" rx="1" ry="1"></ellipse>
                    <ellipse id="Oval-6-Copy" cx="101.571125" cy="81.7762712" rx="1.10403397" ry="1.10508475"></ellipse>
                    <ellipse id="Oval-6-Copy-37" cx="470.318471" cy="312.738983" rx="1.10403397" ry="1.10508475"></ellipse>
                    <ellipse id="Oval-6-Copy-11" cx="103.779193" cy="29.8372881" rx="1.10403397" ry="1.10508475"></ellipse>
                    <ellipse id="Oval-6-Copy-38" cx="473.630573" cy="260.8" rx="1.10403397" ry="1.10508475"></ellipse>
                    <ellipse id="Oval-6-Copy-52" cx="518.895966" cy="129.294915" rx="1.10403397" ry="1.10508475"></ellipse>
                    <ellipse id="Oval-6-Copy-7" cx="0.552016985" cy="7.18305085" rx="1" ry="1"></ellipse>
                    <ellipse id="Oval-6-Copy-5" cx="53.5456476" cy="19.3389831" rx="1" ry="1"></ellipse>
                    <ellipse id="Oval-6-Copy-39" cx="423.397028" cy="250.301695" rx="1" ry="1"></ellipse>
                    <ellipse id="Oval-6-Copy-6" cx="36.985138" cy="35.9152542" rx="1" ry="1"></ellipse>
                    <ellipse id="Oval-6-Copy-49" cx="502.887473" cy="12.7084746" rx="1" ry="1"></ellipse>
                    <ellipse id="Oval-6-Copy-40" cx="406.836518" cy="266.877966" rx="1" ry="1"></ellipse>
                    <ellipse id="Oval-6-Copy-33" cx="374.819533" cy="21.5491525" rx="1" ry="1"></ellipse>
                    <ellipse id="Oval-6-Copy-24" cx="124.203822" cy="0.552542373" rx="1" ry="1"></ellipse>
                    <ellipse id="Oval-6-Copy-41" cx="494.055202" cy="231.515254" rx="1" ry="1"></ellipse>
                    <ellipse id="Oval-6-Copy-2" cx="32.5690021" cy="73.4881356" rx="1" ry="1"></ellipse>
                    <ellipse id="Oval-6-Copy-42" cx="401.316348" cy="304.450847" rx="1" ry="1"></ellipse>
                    <ellipse id="Oval-6-Copy-34" cx="370.403397" cy="58.0169492" rx="1" ry="1"></ellipse>
                    <ellipse id="Oval-6-Copy-13" cx="21.5286624" cy="177.366102" rx="1" ry="1"></ellipse>
                    <ellipse id="Oval-6-Copy-16" cx="12.6963907" cy="244.776271" rx="1" ry="1"></ellipse>
                    <ellipse id="Oval-6-Copy-23" cx="14.9044586" cy="317.711864" rx="1" ry="1"></ellipse>
                    <ellipse id="Oval-6-Copy-25" cx="191.549894" cy="270.19322" rx="1" ry="1"></ellipse>
                    <ellipse id="Oval-6-Copy-45" cx="301.953291" cy="135.372881" rx="1" ry="1"></ellipse>
                    <ellipse id="Oval-6-Copy-31" cx="205.902335" cy="313.291525" rx="1" ry="1"></ellipse>
                    <ellipse id="Oval-6-Copy-46" cx="316.305732" cy="179.576271" rx="1" ry="1"></ellipse>
                    <ellipse id="Oval-6-Copy-28" cx="231.295117" cy="276.823729" rx="1" ry="1"></ellipse>
                    <ellipse id="Oval-6-Copy-19" cx="2.20806794" cy="298.372881" rx="1.10403397" ry="1.10508475"></ellipse>
                    <ellipse id="Oval-6-Copy-26" cx="179.40552" cy="251.40678" rx="1" ry="1"></ellipse>
                    <ellipse id="Oval-6-Copy-47" cx="303.057325" cy="28.179661" rx="1" ry="1"></ellipse>
                    <ellipse id="Oval-6-Copy-51" cx="214.734607" cy="1.65762712" rx="1" ry="1"></ellipse>
                    <ellipse id="Oval-6-Copy-29" cx="231.295117" cy="290.084746" rx="1" ry="1"></ellipse>
                    <ellipse id="Oval-6-Copy-20" cx="91.0828025" cy="307.766102" rx="1" ry="1"></ellipse>
                    <ellipse id="Oval-6-Copy-22" cx="1.65605096" cy="325.447458" rx="1" ry="1"></ellipse>
                    <ellipse id="Oval-6-Copy-27" cx="179.40552" cy="279.033898" rx="1" ry="1"></ellipse>
                    <ellipse id="Oval-6-Copy-48" cx="253.375796" cy="154.159322" rx="1" ry="1"></ellipse>
                    <ellipse id="Oval-6-Copy-32" cx="125.307856" cy="279.033898" rx="1" ry="1"></ellipse>
                    <ellipse id="Oval-6-Copy-30" cx="216.942675" cy="221.569492" rx="1" ry="1"></ellipse>
                    <ellipse id="Oval-6-Copy-21" cx="32.5690021" cy="276.823729" rx="1" ry="1"></ellipse>
                    <ellipse id="Oval-6-Copy-9" cx="140.764331" cy="105.535593" rx="1" ry="1"></ellipse>
                    <ellipse id="Oval-6-Copy-3" cx="46.9214437" cy="69.0677966" rx="1" ry="1"></ellipse>
                    <ellipse id="Oval-6-Copy-43" cx="415.66879" cy="300.030508" rx="1" ry="1"></ellipse>
                    <ellipse id="Oval-6-Copy-35" cx="384.755839" cy="55.8067797" rx="1" ry="1"></ellipse>
                    <ellipse id="Oval-6-Copy-14" cx="21.5286624" cy="143.108475" rx="1" ry="1"></ellipse>
                    <ellipse id="Oval-6-Copy-17" cx="62.3779193" cy="249.19661" rx="1" ry="1"></ellipse>
                    <ellipse id="Oval-6-Copy-15" cx="0.552016985" cy="151.949153" rx="1" ry="1"></ellipse>
                    <ellipse id="Oval-6-Copy-18" cx="41.4012739" cy="258.037288" rx="1" ry="1"></ellipse>
                    <ellipse id="Oval-6-Copy-10" cx="136.348195" cy="67.9627119" rx="1" ry="1"></ellipse>
                    <ellipse id="Oval-6-Copy-44" cx="506.199575" cy="298.925424" rx="1" ry="1"></ellipse>
                    <ellipse id="Oval-6-Copy-12" cx="192.653928" cy="60.2271186" rx="1" ry="1"></ellipse>
                    <ellipse id="Oval-6-Copy-4" cx="14.3524416" cy="47.5186441" rx="1.10403397" ry="1.10508475"></ellipse>
                    <ellipse id="Oval-6-Copy-50" cx="480.254777" cy="24.3118644" rx="1.10403397" ry="1.10508475"></ellipse>
                    <ellipse id="Oval-6-Copy-36" cx="352.186837" cy="33.1525424" rx="1.10403397" ry="1.10508475"></ellipse>
                </g>
                <g id="Group-2-Copy-2" transform="translate(882.000000, 468.000000) scale(-1, 1) translate(-882.000000, -468.000000) translate(622.000000, 305.000000)">
                    <ellipse id="Oval-6-Copy-8" cx="57.9617834" cy="117.691525" rx="1" ry="1"></ellipse>
                    <ellipse id="Oval-6-Copy" cx="101.571125" cy="81.7762712" rx="1.10403397" ry="1.10508475"></ellipse>
                    <ellipse id="Oval-6-Copy-37" cx="470.318471" cy="312.738983" rx="1.10403397" ry="1.10508475"></ellipse>
                    <ellipse id="Oval-6-Copy-11" cx="103.779193" cy="29.8372881" rx="1.10403397" ry="1.10508475"></ellipse>
                    <ellipse id="Oval-6-Copy-38" cx="473.630573" cy="260.8" rx="1.10403397" ry="1.10508475"></ellipse>
                    <ellipse id="Oval-6-Copy-52" cx="518.895966" cy="129.294915" rx="1.10403397" ry="1.10508475"></ellipse>
                    <ellipse id="Oval-6-Copy-7" cx="0.552016985" cy="7.18305085" rx="1" ry="1"></ellipse>
                    <ellipse id="Oval-6-Copy-5" cx="53.5456476" cy="19.3389831" rx="1" ry="1"></ellipse>
                    <ellipse id="Oval-6-Copy-39" cx="423.397028" cy="250.301695" rx="1" ry="1"></ellipse>
                    <ellipse id="Oval-6-Copy-6" cx="36.985138" cy="35.9152542" rx="1" ry="1"></ellipse>
                    <ellipse id="Oval-6-Copy-49" cx="502.887473" cy="12.7084746" rx="1" ry="1"></ellipse>
                    <ellipse id="Oval-6-Copy-40" cx="406.836518" cy="266.877966" rx="1" ry="1"></ellipse>
                    <ellipse id="Oval-6-Copy-33" cx="374.819533" cy="21.5491525" rx="1" ry="1"></ellipse>
                    <ellipse id="Oval-6-Copy-24" cx="124.203822" cy="0.552542373" rx="1" ry="1"></ellipse>
                    <ellipse id="Oval-6-Copy-41" cx="494.055202" cy="231.515254" rx="1" ry="1"></ellipse>
                    <ellipse id="Oval-6-Copy-2" cx="32.5690021" cy="73.4881356" rx="1" ry="1"></ellipse>
                    <ellipse id="Oval-6-Copy-42" cx="401.316348" cy="304.450847" rx="1" ry="1"></ellipse>
                    <ellipse id="Oval-6-Copy-34" cx="370.403397" cy="58.0169492" rx="1" ry="1"></ellipse>
                    <ellipse id="Oval-6-Copy-13" cx="21.5286624" cy="177.366102" rx="1" ry="1"></ellipse>
                    <ellipse id="Oval-6-Copy-16" cx="12.6963907" cy="244.776271" rx="1" ry="1"></ellipse>
                    <ellipse id="Oval-6-Copy-23" cx="14.9044586" cy="317.711864" rx="1" ry="1"></ellipse>
                    <ellipse id="Oval-6-Copy-25" cx="191.549894" cy="270.19322" rx="1" ry="1"></ellipse>
                    <ellipse id="Oval-6-Copy-45" cx="301.953291" cy="135.372881" rx="1" ry="1"></ellipse>
                    <ellipse id="Oval-6-Copy-31" cx="205.902335" cy="313.291525" rx="1" ry="1"></ellipse>
                    <ellipse id="Oval-6-Copy-46" cx="316.305732" cy="179.576271" rx="1" ry="1"></ellipse>
                    <ellipse id="Oval-6-Copy-28" cx="231.295117" cy="276.823729" rx="1" ry="1"></ellipse>
                    <ellipse id="Oval-6-Copy-19" cx="2.20806794" cy="298.372881" rx="1.10403397" ry="1.10508475"></ellipse>
                    <ellipse id="Oval-6-Copy-26" cx="179.40552" cy="251.40678" rx="1" ry="1"></ellipse>
                    <ellipse id="Oval-6-Copy-47" cx="303.057325" cy="28.179661" rx="1" ry="1"></ellipse>
                    <ellipse id="Oval-6-Copy-51" cx="214.734607" cy="1.65762712" rx="1" ry="1"></ellipse>
                    <ellipse id="Oval-6-Copy-29" cx="231.295117" cy="290.084746" rx="1" ry="1"></ellipse>
                    <ellipse id="Oval-6-Copy-20" cx="91.0828025" cy="307.766102" rx="1" ry="1"></ellipse>
                    <ellipse id="Oval-6-Copy-22" cx="1.65605096" cy="325.447458" rx="1" ry="1"></ellipse>
                    <ellipse id="Oval-6-Copy-27" cx="179.40552" cy="279.033898" rx="1" ry="1"></ellipse>
                    <ellipse id="Oval-6-Copy-48" cx="253.375796" cy="154.159322" rx="1" ry="1"></ellipse>
                    <ellipse id="Oval-6-Copy-32" cx="125.307856" cy="279.033898" rx="1" ry="1"></ellipse>
                    <ellipse id="Oval-6-Copy-30" cx="216.942675" cy="221.569492" rx="1" ry="1"></ellipse>
                    <ellipse id="Oval-6-Copy-21" cx="32.5690021" cy="276.823729" rx="1" ry="1"></ellipse>
                    <ellipse id="Oval-6-Copy-9" cx="140.764331" cy="105.535593" rx="1" ry="1"></ellipse>
                    <ellipse id="Oval-6-Copy-3" cx="46.9214437" cy="69.0677966" rx="1" ry="1"></ellipse>
                    <ellipse id="Oval-6-Copy-43" cx="415.66879" cy="300.030508" rx="1" ry="1"></ellipse>
                    <ellipse id="Oval-6-Copy-35" cx="384.755839" cy="55.8067797" rx="1" ry="1"></ellipse>
                    <ellipse id="Oval-6-Copy-14" cx="21.5286624" cy="143.108475" rx="1" ry="1"></ellipse>
                    <ellipse id="Oval-6-Copy-17" cx="62.3779193" cy="249.19661" rx="1" ry="1"></ellipse>
                    <ellipse id="Oval-6-Copy-15" cx="0.552016985" cy="151.949153" rx="1" ry="1"></ellipse>
                    <ellipse id="Oval-6-Copy-18" cx="41.4012739" cy="258.037288" rx="1" ry="1"></ellipse>
                    <ellipse id="Oval-6-Copy-10" cx="136.348195" cy="67.9627119" rx="1" ry="1"></ellipse>
                    <ellipse id="Oval-6-Copy-44" cx="506.199575" cy="298.925424" rx="1" ry="1"></ellipse>
                    <ellipse id="Oval-6-Copy-12" cx="192.653928" cy="60.2271186" rx="1" ry="1"></ellipse>
                    <ellipse id="Oval-6-Copy-4" cx="14.3524416" cy="47.5186441" rx="1.10403397" ry="1.10508475"></ellipse>
                    <ellipse id="Oval-6-Copy-50" cx="480.254777" cy="24.3118644" rx="1.10403397" ry="1.10508475"></ellipse>
                    <ellipse id="Oval-6-Copy-36" cx="352.186837" cy="33.1525424" rx="1.10403397" ry="1.10508475"></ellipse>
                </g>
                <g id="Group-2-Copy" transform="translate(840.000000, 163.000000) scale(-1, -1) translate(-840.000000, -163.000000) translate(580.000000, 0.000000)">
                    <ellipse id="Oval-6-Copy-8" cx="57.9617834" cy="117.691525" rx="1" ry="1"></ellipse>
                    <ellipse id="Oval-6-Copy" cx="101.571125" cy="81.7762712" rx="1.10403397" ry="1.10508475"></ellipse>
                    <ellipse id="Oval-6-Copy-37" cx="470.318471" cy="312.738983" rx="1.10403397" ry="1.10508475"></ellipse>
                    <ellipse id="Oval-6-Copy-11" cx="103.779193" cy="29.8372881" rx="1.10403397" ry="1.10508475"></ellipse>
                    <ellipse id="Oval-6-Copy-38" cx="473.630573" cy="260.8" rx="1.10403397" ry="1.10508475"></ellipse>
                    <ellipse id="Oval-6-Copy-52" cx="518.895966" cy="129.294915" rx="1.10403397" ry="1.10508475"></ellipse>
                    <ellipse id="Oval-6-Copy-7" cx="0.552016985" cy="7.18305085" rx="1" ry="1"></ellipse>
                    <ellipse id="Oval-6-Copy-5" cx="53.5456476" cy="19.3389831" rx="1" ry="1"></ellipse>
                    <ellipse id="Oval-6-Copy-39" cx="423.397028" cy="250.301695" rx="1" ry="1"></ellipse>
                    <ellipse id="Oval-6-Copy-6" cx="36.985138" cy="35.9152542" rx="1" ry="1"></ellipse>
                    <ellipse id="Oval-6-Copy-49" cx="502.887473" cy="12.7084746" rx="1" ry="1"></ellipse>
                    <ellipse id="Oval-6-Copy-40" cx="406.836518" cy="266.877966" rx="1" ry="1"></ellipse>
                    <ellipse id="Oval-6-Copy-33" cx="374.819533" cy="21.5491525" rx="1" ry="1"></ellipse>
                    <ellipse id="Oval-6-Copy-24" cx="124.203822" cy="0.552542373" rx="1" ry="1"></ellipse>
                    <ellipse id="Oval-6-Copy-41" cx="494.055202" cy="231.515254" rx="1" ry="1"></ellipse>
                    <ellipse id="Oval-6-Copy-2" cx="32.5690021" cy="73.4881356" rx="1" ry="1"></ellipse>
                    <ellipse id="Oval-6-Copy-42" cx="401.316348" cy="304.450847" rx="1" ry="1"></ellipse>
                    <ellipse id="Oval-6-Copy-34" cx="370.403397" cy="58.0169492" rx="1" ry="1"></ellipse>
                    <ellipse id="Oval-6-Copy-13" cx="21.5286624" cy="177.366102" rx="1" ry="1"></ellipse>
                    <ellipse id="Oval-6-Copy-16" cx="12.6963907" cy="244.776271" rx="1" ry="1"></ellipse>
                    <ellipse id="Oval-6-Copy-23" cx="14.9044586" cy="317.711864" rx="1" ry="1"></ellipse>
                    <ellipse id="Oval-6-Copy-25" cx="191.549894" cy="270.19322" rx="1" ry="1"></ellipse>
                    <ellipse id="Oval-6-Copy-45" cx="301.953291" cy="135.372881" rx="1" ry="1"></ellipse>
                    <ellipse id="Oval-6-Copy-31" cx="205.902335" cy="313.291525" rx="1" ry="1"></ellipse>
                    <ellipse id="Oval-6-Copy-46" cx="316.305732" cy="179.576271" rx="1" ry="1"></ellipse>
                    <ellipse id="Oval-6-Copy-28" cx="231.295117" cy="276.823729" rx="1" ry="1"></ellipse>
                    <ellipse id="Oval-6-Copy-19" cx="2.20806794" cy="298.372881" rx="1.10403397" ry="1.10508475"></ellipse>
                    <ellipse id="Oval-6-Copy-26" cx="179.40552" cy="251.40678" rx="1" ry="1"></ellipse>
                    <ellipse id="Oval-6-Copy-47" cx="303.057325" cy="28.179661" rx="1" ry="1"></ellipse>
                    <ellipse id="Oval-6-Copy-51" cx="214.734607" cy="1.65762712" rx="1" ry="1"></ellipse>
                    <ellipse id="Oval-6-Copy-29" cx="231.295117" cy="290.084746" rx="1" ry="1"></ellipse>
                    <ellipse id="Oval-6-Copy-20" cx="91.0828025" cy="307.766102" rx="1" ry="1"></ellipse>
                    <ellipse id="Oval-6-Copy-22" cx="1.65605096" cy="325.447458" rx="1" ry="1"></ellipse>
                    <ellipse id="Oval-6-Copy-27" cx="179.40552" cy="279.033898" rx="1" ry="1"></ellipse>
                    <ellipse id="Oval-6-Copy-48" cx="253.375796" cy="154.159322" rx="1" ry="1"></ellipse>
                    <ellipse id="Oval-6-Copy-32" cx="125.307856" cy="279.033898" rx="1" ry="1"></ellipse>
                    <ellipse id="Oval-6-Copy-30" cx="216.942675" cy="221.569492" rx="1" ry="1"></ellipse>
                    <ellipse id="Oval-6-Copy-21" cx="32.5690021" cy="276.823729" rx="1" ry="1"></ellipse>
                    <ellipse id="Oval-6-Copy-9" cx="140.764331" cy="105.535593" rx="1" ry="1"></ellipse>
                    <ellipse id="Oval-6-Copy-3" cx="46.9214437" cy="69.0677966" rx="1" ry="1"></ellipse>
                    <ellipse id="Oval-6-Copy-43" cx="415.66879" cy="300.030508" rx="1" ry="1"></ellipse>
                    <ellipse id="Oval-6-Copy-35" cx="384.755839" cy="55.8067797" rx="1" ry="1"></ellipse>
                    <ellipse id="Oval-6-Copy-14" cx="21.5286624" cy="143.108475" rx="1" ry="1"></ellipse>
                    <ellipse id="Oval-6-Copy-17" cx="62.3779193" cy="249.19661" rx="1" ry="1"></ellipse>
                    <ellipse id="Oval-6-Copy-15" cx="0.552016985" cy="151.949153" rx="1" ry="1"></ellipse>
                    <ellipse id="Oval-6-Copy-18" cx="41.4012739" cy="258.037288" rx="1" ry="1"></ellipse>
                    <ellipse id="Oval-6-Copy-10" cx="136.348195" cy="67.9627119" rx="1" ry="1"></ellipse>
                    <ellipse id="Oval-6-Copy-44" cx="506.199575" cy="298.925424" rx="1" ry="1"></ellipse>
                    <ellipse id="Oval-6-Copy-12" cx="192.653928" cy="60.2271186" rx="1" ry="1"></ellipse>
                    <ellipse id="Oval-6-Copy-4" cx="14.3524416" cy="47.5186441" rx="1.10403397" ry="1.10508475"></ellipse>
                    <ellipse id="Oval-6-Copy-50" cx="480.254777" cy="24.3118644" rx="1.10403397" ry="1.10508475"></ellipse>
                    <ellipse id="Oval-6-Copy-36" cx="352.186837" cy="33.1525424" rx="1.10403397" ry="1.10508475"></ellipse>
                </g>
                <g id="Group-2-Copy-3" transform="translate(300.000000, 468.000000) scale(1, -1) translate(-300.000000, -468.000000) translate(40.000000, 305.000000)">
                    <ellipse id="Oval-6-Copy-8" cx="57.9617834" cy="117.691525" rx="1" ry="1"></ellipse>
                    <ellipse id="Oval-6-Copy" cx="101.571125" cy="81.7762712" rx="1.10403397" ry="1.10508475"></ellipse>
                    <ellipse id="Oval-6-Copy-37" cx="470.318471" cy="312.738983" rx="1.10403397" ry="1.10508475"></ellipse>
                    <ellipse id="Oval-6-Copy-11" cx="103.779193" cy="29.8372881" rx="1.10403397" ry="1.10508475"></ellipse>
                    <ellipse id="Oval-6-Copy-38" cx="473.630573" cy="260.8" rx="1.10403397" ry="1.10508475"></ellipse>
                    <ellipse id="Oval-6-Copy-52" cx="518.895966" cy="129.294915" rx="1.10403397" ry="1.10508475"></ellipse>
                    <ellipse id="Oval-6-Copy-7" cx="0.552016985" cy="7.18305085" rx="1" ry="1"></ellipse>
                    <ellipse id="Oval-6-Copy-5" cx="53.5456476" cy="19.3389831" rx="1" ry="1"></ellipse>
                    <ellipse id="Oval-6-Copy-39" cx="423.397028" cy="250.301695" rx="1" ry="1"></ellipse>
                    <ellipse id="Oval-6-Copy-6" cx="36.985138" cy="35.9152542" rx="1" ry="1"></ellipse>
                    <ellipse id="Oval-6-Copy-49" cx="502.887473" cy="12.7084746" rx="1" ry="1"></ellipse>
                    <ellipse id="Oval-6-Copy-40" cx="406.836518" cy="266.877966" rx="1" ry="1"></ellipse>
                    <ellipse id="Oval-6-Copy-33" cx="374.819533" cy="21.5491525" rx="1" ry="1"></ellipse>
                    <ellipse id="Oval-6-Copy-24" cx="124.203822" cy="0.552542373" rx="1" ry="1"></ellipse>
                    <ellipse id="Oval-6-Copy-41" cx="494.055202" cy="231.515254" rx="1" ry="1"></ellipse>
                    <ellipse id="Oval-6-Copy-2" cx="32.5690021" cy="73.4881356" rx="1" ry="1"></ellipse>
                    <ellipse id="Oval-6-Copy-42" cx="401.316348" cy="304.450847" rx="1" ry="1"></ellipse>
                    <ellipse id="Oval-6-Copy-34" cx="370.403397" cy="58.0169492" rx="1" ry="1"></ellipse>
                    <ellipse id="Oval-6-Copy-13" cx="21.5286624" cy="177.366102" rx="1" ry="1"></ellipse>
                    <ellipse id="Oval-6-Copy-16" cx="12.6963907" cy="244.776271" rx="1" ry="1"></ellipse>
                    <ellipse id="Oval-6-Copy-23" cx="14.9044586" cy="317.711864" rx="1" ry="1"></ellipse>
                    <ellipse id="Oval-6-Copy-25" cx="191.549894" cy="270.19322" rx="1" ry="1"></ellipse>
                    <ellipse id="Oval-6-Copy-45" cx="301.953291" cy="135.372881" rx="1" ry="1"></ellipse>
                    <ellipse id="Oval-6-Copy-31" cx="205.902335" cy="313.291525" rx="1" ry="1"></ellipse>
                    <ellipse id="Oval-6-Copy-46" cx="316.305732" cy="179.576271" rx="1" ry="1"></ellipse>
                    <ellipse id="Oval-6-Copy-28" cx="231.295117" cy="276.823729" rx="1" ry="1"></ellipse>
                    <ellipse id="Oval-6-Copy-19" cx="2.20806794" cy="298.372881" rx="1.10403397" ry="1.10508475"></ellipse>
                    <ellipse id="Oval-6-Copy-26" cx="179.40552" cy="251.40678" rx="1" ry="1"></ellipse>
                    <ellipse id="Oval-6-Copy-47" cx="303.057325" cy="28.179661" rx="1" ry="1"></ellipse>
                    <ellipse id="Oval-6-Copy-51" cx="214.734607" cy="1.65762712" rx="1" ry="1"></ellipse>
                    <ellipse id="Oval-6-Copy-29" cx="231.295117" cy="290.084746" rx="1" ry="1"></ellipse>
                    <ellipse id="Oval-6-Copy-20" cx="91.0828025" cy="307.766102" rx="1" ry="1"></ellipse>
                    <ellipse id="Oval-6-Copy-22" cx="1.65605096" cy="325.447458" rx="1" ry="1"></ellipse>
                    <ellipse id="Oval-6-Copy-27" cx="179.40552" cy="279.033898" rx="1" ry="1"></ellipse>
                    <ellipse id="Oval-6-Copy-48" cx="253.375796" cy="154.159322" rx="1" ry="1"></ellipse>
                    <ellipse id="Oval-6-Copy-32" cx="125.307856" cy="279.033898" rx="1" ry="1"></ellipse>
                    <ellipse id="Oval-6-Copy-30" cx="216.942675" cy="221.569492" rx="1" ry="1"></ellipse>
                    <ellipse id="Oval-6-Copy-21" cx="32.5690021" cy="276.823729" rx="1" ry="1"></ellipse>
                    <ellipse id="Oval-6-Copy-9" cx="140.764331" cy="105.535593" rx="1" ry="1"></ellipse>
                    <ellipse id="Oval-6-Copy-3" cx="46.9214437" cy="69.0677966" rx="1" ry="1"></ellipse>
                    <ellipse id="Oval-6-Copy-43" cx="415.66879" cy="300.030508" rx="1" ry="1"></ellipse>
                    <ellipse id="Oval-6-Copy-35" cx="384.755839" cy="55.8067797" rx="1" ry="1"></ellipse>
                    <ellipse id="Oval-6-Copy-14" cx="21.5286624" cy="143.108475" rx="1" ry="1"></ellipse>
                    <ellipse id="Oval-6-Copy-17" cx="62.3779193" cy="249.19661" rx="1" ry="1"></ellipse>
                    <ellipse id="Oval-6-Copy-15" cx="0.552016985" cy="151.949153" rx="1" ry="1"></ellipse>
                    <ellipse id="Oval-6-Copy-18" cx="41.4012739" cy="258.037288" rx="1" ry="1"></ellipse>
                    <ellipse id="Oval-6-Copy-10" cx="136.348195" cy="67.9627119" rx="1" ry="1"></ellipse>
                    <ellipse id="Oval-6-Copy-44" cx="506.199575" cy="298.925424" rx="1" ry="1"></ellipse>
                    <ellipse id="Oval-6-Copy-12" cx="192.653928" cy="60.2271186" rx="1" ry="1"></ellipse>
                    <ellipse id="Oval-6-Copy-4" cx="14.3524416" cy="47.5186441" rx="1.10403397" ry="1.10508475"></ellipse>
                    <ellipse id="Oval-6-Copy-50" cx="480.254777" cy="24.3118644" rx="1.10403397" ry="1.10508475"></ellipse>
                    <ellipse id="Oval-6-Copy-36" cx="352.186837" cy="33.1525424" rx="1.10403397" ry="1.10508475"></ellipse>
                </g>
                <g id="Group-2-Copy-4" transform="translate(559.000000, 326.000000) scale(1, -1) translate(-559.000000, -326.000000) translate(58.000000, 12.000000)">
                    <ellipse id="Oval-6-Copy-8" cx="112.559471" cy="226.256591" rx="1.10352423" ry="1.10369069"></ellipse>
                    <ellipse id="Oval-6-Copy" cx="196.427313" cy="157.827768" rx="2.20704846" ry="2.20738137"></ellipse>
                    <ellipse id="Oval-6-Copy-37" cx="907.096916" cy="602.615114" rx="2.20704846" ry="2.20738137"></ellipse>
                    <ellipse id="Oval-6-Copy-11" cx="200.84141" cy="57.3919156" rx="2.20704846" ry="2.20738137"></ellipse>
                    <ellipse id="Oval-6-Copy-38" cx="912.614537" cy="502.179262" rx="2.20704846" ry="2.20738137"></ellipse>
                    <ellipse id="Oval-6-Copy-52" cx="999.792952" cy="249.434095" rx="2.20704846" ry="2.20738137"></ellipse>
                    <ellipse id="Oval-6-Copy-7" cx="1.10352423" cy="13.2442882" rx="1.10352423" ry="1.10369069"></ellipse>
                    <ellipse id="Oval-6-Copy-5" cx="102.627753" cy="37.5254833" rx="1.10352423" ry="1.10369069"></ellipse>
                    <ellipse id="Oval-6-Copy-39" cx="815.504405" cy="482.31283" rx="1.10352423" ry="1.10369069"></ellipse>
                    <ellipse id="Oval-6-Copy-6" cx="71.7290749" cy="69.5325132" rx="1.10352423" ry="1.10369069"></ellipse>
                    <ellipse id="Oval-6-Copy-49" cx="969.997797" cy="24.2811951" rx="1.10352423" ry="1.10369069"></ellipse>
                    <ellipse id="Oval-6-Copy-40" cx="783.502203" cy="513.216169" rx="1.10352423" ry="1.10369069"></ellipse>
                    <ellipse id="Oval-6-Copy-33" cx="721.704846" cy="41.940246" rx="1.10352423" ry="1.10369069"></ellipse>
                    <ellipse id="Oval-6-Copy-24" cx="239.464758" cy="1.10369069" rx="1.10352423" ry="1.10369069"></ellipse>
                    <ellipse id="Oval-6-Copy-41" cx="951.237885" cy="445.891037" rx="1.10352423" ry="1.10369069"></ellipse>
                    <ellipse id="Oval-6-Copy-2" cx="62.9008811" cy="141.272408" rx="1.10352423" ry="1.10369069"></ellipse>
                    <ellipse id="Oval-6-Copy-42" cx="773.570485" cy="586.059754" rx="1.10352423" ry="1.10369069"></ellipse>
                    <ellipse id="Oval-6-Copy-34" cx="713.980176" cy="112.57645" rx="1.10352423" ry="1.10369069"></ellipse>
                    <ellipse id="Oval-6-Copy-13" cx="41.9339207" cy="342.144112" rx="1.10352423" ry="1.10369069"></ellipse>
                    <ellipse id="Oval-6-Copy-16" cx="24.277533" cy="472.379613" rx="1.10352423" ry="1.10369069"></ellipse>
                    <ellipse id="Oval-6-Copy-23" cx="28.69163" cy="612.54833" rx="1.10352423" ry="1.10369069"></ellipse>
                    <ellipse id="Oval-6-Copy-25" cx="368.577093" cy="519.838313" rx="1.10352423" ry="1.10369069"></ellipse>
                    <ellipse id="Oval-6-Copy-45" cx="581.557269" cy="261.574692" rx="1.10352423" ry="1.10369069"></ellipse>
                    <ellipse id="Oval-6-Copy-31" cx="397.268722" cy="603.718805" rx="1.10352423" ry="1.10369069"></ellipse>
                    <ellipse id="Oval-6-Copy-46" cx="610.248899" cy="346.558875" rx="1.10352423" ry="1.10369069"></ellipse>
                    <ellipse id="Oval-6-Copy-28" cx="445.823789" cy="534.186292" rx="1.10352423" ry="1.10369069"></ellipse>
                    <ellipse id="Oval-6-Copy-19" cx="4.41409692" cy="575.022847" rx="2.20704846" ry="2.20738137"></ellipse>
                    <ellipse id="Oval-6-Copy-26" cx="345.403084" cy="484.520211" rx="1.10352423" ry="1.10369069"></ellipse>
                    <ellipse id="Oval-6-Copy-47" cx="583.764317" cy="54.0808436" rx="1.10352423" ry="1.10369069"></ellipse>
                    <ellipse id="Oval-6-Copy-51" cx="413.821586" cy="3.31107206" rx="1.10352423" ry="1.10369069"></ellipse>
                    <ellipse id="Oval-6-Copy-29" cx="445.823789" cy="558.467487" rx="1.10352423" ry="1.10369069"></ellipse>
                    <ellipse id="Oval-6-Copy-20" cx="175.460352" cy="592.681898" rx="1.10352423" ry="1.10369069"></ellipse>
                    <ellipse id="Oval-6-Copy-22" cx="3.31057269" cy="626.896309" rx="1.10352423" ry="1.10369069"></ellipse>
                    <ellipse id="Oval-6-Copy-27" cx="345.403084" cy="537.497364" rx="1.10352423" ry="1.10369069"></ellipse>
                    <ellipse id="Oval-6-Copy-48" cx="488.861233" cy="296.892794" rx="1.10352423" ry="1.10369069"></ellipse>
                    <ellipse id="Oval-6-Copy-32" cx="240.568282" cy="537.497364" rx="1.10352423" ry="1.10369069"></ellipse>
                    <ellipse id="Oval-6-Copy-30" cx="418.235683" cy="427.128295" rx="1.10352423" ry="1.10369069"></ellipse>
                    <ellipse id="Oval-6-Copy-21" cx="62.9008811" cy="534.186292" rx="1.10352423" ry="1.10369069"></ellipse>
                    <ellipse id="Oval-6-Copy-9" cx="271.46696" cy="203.079086" rx="1.10352423" ry="1.10369069"></ellipse>
                    <ellipse id="Oval-6-Copy-3" cx="90.4889868" cy="133.546573" rx="1.10352423" ry="1.10369069"></ellipse>
                    <ellipse id="Oval-6-Copy-43" cx="801.15859" cy="577.230228" rx="1.10352423" ry="1.10369069"></ellipse>
                    <ellipse id="Oval-6-Copy-35" cx="741.568282" cy="108.161687" rx="1.10352423" ry="1.10369069"></ellipse>
                    <ellipse id="Oval-6-Copy-14" cx="41.9339207" cy="275.922671" rx="1.10352423" ry="1.10369069"></ellipse>
                    <ellipse id="Oval-6-Copy-17" cx="120.284141" cy="480.105448" rx="1.10352423" ry="1.10369069"></ellipse>
                    <ellipse id="Oval-6-Copy-15" cx="1.10352423" cy="292.478032" rx="1.10352423" ry="1.10369069"></ellipse>
                    <ellipse id="Oval-6-Copy-18" cx="79.4537445" cy="496.660808" rx="1.10352423" ry="1.10369069"></ellipse>
                    <ellipse id="Oval-6-Copy-10" cx="262.638767" cy="131.339192" rx="1.10352423" ry="1.10369069"></ellipse>
                    <ellipse id="Oval-6-Copy-44" cx="975.515419" cy="576.126538" rx="1.10352423" ry="1.10369069"></ellipse>
                    <ellipse id="Oval-6-Copy-12" cx="370.784141" cy="116.991213" rx="1.10352423" ry="1.10369069"></ellipse>
                    <ellipse id="Oval-6-Copy-4" cx="27.5881057" cy="91.6063269" rx="2.20704846" ry="2.20738137"></ellipse>
                    <ellipse id="Oval-6-Copy-50" cx="925.856828" cy="47.4586995" rx="2.20704846" ry="2.20738137"></ellipse>
                    <ellipse id="Oval-6-Copy-36" cx="678.667401" cy="64.0140598" rx="2.20704846" ry="2.20738137"></ellipse>
                </g>
            </g>
        </g>
    </g>
</svg>