<?xml version="1.0" encoding="UTF-8"?>
<svg width="274px" height="275px" viewBox="0 0 274 275" version="1.1" xmlns="http://www.w3.org/2000/svg" xmlns:xlink="http://www.w3.org/1999/xlink">
    <!-- Generator: Sketch 47.1 (45422) - http://www.bohemiancoding.com/sketch -->
    <title>Group</title>
    <desc>Created with Sketch.</desc>
    <defs></defs>
    <g id="Page-1" stroke="none" stroke-width="1" fill="none" fill-rule="evenodd">
        <g id="Artboard-Copy-11" transform="translate(-113.000000, -113.000000)">
            <g id="Group" transform="translate(113.000000, 113.000000)">
                <ellipse id="Oval-3" fill="#D29055" cx="137.477967" cy="137.478115" rx="136.493831" ry="136.726729"></ellipse>
                <ellipse id="Oval-3-Copy-2" fill="#D29055" cx="137.477967" cy="137.478115" rx="136.493831" ry="136.726729"></ellipse>
                <ellipse id="Oval-3-Copy-6" fill="#D29055" cx="137.477967" cy="137.478115" rx="136.493831" ry="136.726729"></ellipse>
                <ellipse id="Oval-3-Copy-4" fill="#D29055" cx="137.477967" cy="137.478115" rx="136.493831" ry="136.726729"></ellipse>
                <ellipse id="Oval-3-Copy-12" fill="#D29055" cx="137.477967" cy="137.478115" rx="136.493831" ry="136.726729"></ellipse>
                <ellipse id="Oval-3-Copy-11" fill="#D29055" cx="137.477967" cy="137.478115" rx="136.493831" ry="136.726729"></ellipse>
                <ellipse id="Oval-3-Copy-10" fill="#D29055" cx="137.477967" cy="137.478115" rx="136.493831" ry="136.726729"></ellipse>
                <ellipse id="Oval-3-Copy-8" fill="#D29055" cx="137.477967" cy="137.478115" rx="136.493831" ry="136.726729"></ellipse>
                <ellipse id="Oval-3-Copy-20" fill="#D29055" cx="137.477967" cy="137.478115" rx="136.493831" ry="136.726729"></ellipse>
                <ellipse id="Oval-3-Copy-19" fill="#D29055" cx="137.477967" cy="137.478115" rx="136.493831" ry="136.726729"></ellipse>
                <ellipse id="Oval-3-Copy-18" fill="#D29055" cx="137.477967" cy="137.478115" rx="136.493831" ry="136.726729"></ellipse>
                <ellipse id="Oval-3-Copy-17" fill="#D29055" cx="137.477967" cy="137.478115" rx="136.493831" ry="136.726729"></ellipse>
                <ellipse id="Oval-3-Copy-16" fill="#B3D5CD" cx="137.477967" cy="137.478115" rx="136.493831" ry="136.726729"></ellipse>
                <path d="M60.8714839,250.656259 C54.8470723,246.556638 49.1671636,241.987013 43.8842845,237 L82.5649699,237 L82.5649699,237 C86.3360417,237 89.3930995,240.057058 89.3930995,243.82813 L89.3930995,243.82813 C89.3930995,247.599201 86.3360417,250.656259 82.5649699,250.656259 L60.8714839,250.656259 Z" id="Combined-Shape" fill="#7CB1A5"></path>
                <path d="M38.3221729,231.44 C34.6066143,227.507022 31.1217406,223.353113 27.8892433,219 L91.9400039,219 L91.9400039,219 C95.3752149,219 98.1600037,221.784789 98.1600037,225.22 L98.1600037,225.22 C98.1600037,228.655211 95.3752149,231.44 91.9400039,231.44 L38.3221729,231.44 Z" id="Combined-Shape" fill="#52EFCC"></path>
                <path d="M28.2164943,219.438868 C22.7624273,212.154923 18.0172992,204.307721 14.0836793,196.000008 L113.438591,196 L113.438591,196 C119.911056,196 125.158025,201.246969 125.158025,207.719434 L125.158025,207.719434 C125.158025,214.191899 119.911056,219.438868 113.438591,219.438868 L28.2164943,219.438868 Z" id="Combined-Shape" fill="#78C6B4"></path>
                <path d="M10.8692334,188.66 C9.85421194,186.142985 8.91182226,183.588783 8.04466643,181 L77.4047966,181 L77.4047966,181 C79.5200472,181 81.2347966,182.714749 81.2347966,184.83 L81.2347966,184.83 C81.2347966,186.94525 79.5200472,188.66 77.4047966,188.66 L10.8692334,188.66 Z" id="Combined-Shape" fill="#50E3C2"></path>
                <path d="M6.9724982,177.656259 C5.60595051,173.196977 4.46092405,168.640597 3.55027907,164 L52.406667,164 L52.406667,164 C56.1777388,164 59.2347966,167.057058 59.2347966,170.82813 L59.2347966,170.82813 L59.2347966,170.82813 C59.2347966,174.599201 56.1777388,177.656259 52.406667,177.656259 L6.9724982,177.656259 Z" id="Combined-Shape" fill="#50E3C2"></path>
                <path d="M3.89311306,109.265873 C5.74076948,100.443106 8.43752122,91.9331984 11.8937983,83.8258736 L59.7373849,83.8258736 L59.7373849,83.8258736 C66.7624468,83.8258736 72.4573847,89.5208115 72.4573847,96.5458734 L72.4573847,96.5458734 L72.4573847,96.5458734 C72.4573847,103.570935 66.7624468,109.265873 59.7373849,109.265873 L3.89311306,109.265873 Z" id="Combined-Shape" fill="#50E3C2"></path>
                <path d="M0.984405222,137.203773 C1.00007498,129.21129 1.70035174,121.379764 3.02962122,113.764905 L271.926313,113.764905 C273.248745,121.340598 273.948639,129.130734 273.971233,137.08046 C273.414229,137.161706 272.844513,137.203773 272.264971,137.203773 L0.984385938,137.203773 Z" id="Combined-Shape" fill="#7CB1A5"></path>
                <path d="M24.6972717,60.4399996 C26.914106,57.1898403 29.2673065,54.0404181 31.7486204,51 L112.6731,51 L112.6731,51 C115.279884,51 117.393099,53.1132159 117.393099,55.7199998 L117.393099,55.7199998 C117.393099,58.3267837 115.279884,60.4399996 112.6731,60.4399996 L24.6972717,60.4399996 Z" id="Combined-Shape" fill="#4ECEB2"></path>
                <path d="M42.17155,39.6012568 C50.4158688,31.5447798 59.6742278,24.5247544 69.7367796,18.7513861 L88.9089084,18.7513861 L88.9089084,18.7513861 C94.9840404,18.7513861 99.908908,23.6762536 99.908908,29.7513856 L99.908908,29.7513856 C99.908908,35.8265176 94.9840404,40.7513852 88.9089084,40.7513852 L47.3335483,40.7513852 L47.3335483,40.7513852 C45.4935738,40.7513852 43.7423198,40.3401733 42.1715461,39.601261 Z" id="Combined-Shape" fill="#50E3C2"></path>
                <path d="M253.237803,65 C255.983442,69.3909524 258.487009,73.9492901 260.729774,78.6562511 L179.82813,78.6562591 L179.82813,78.6562591 C176.057058,78.6562591 173,75.5992014 173,71.8281296 L173,71.8281296 L173,71.8281296 C173,68.0570577 176.057058,65 179.82813,65 L253.237803,65 Z" id="Combined-Shape" fill="#4ECEB2"></path>
                <path d="M263.556199,85 C267.629433,94.8081549 270.595282,105.193695 272.29739,116 L167,116 C159.268014,116 153,109.731986 153,102 L153,99 L153,99 C153,91.2680135 159.268014,85 167,85 L167,85 L263.556199,85 Z" id="Combined-Shape" fill="#50E3C2"></path>
                <path d="M255.060464,67.9998301 C259.42406,75.3938835 263.112391,83.2352297 266.040429,91.4386979 L238.719434,91.4386979 L238.719434,91.4386979 C232.246969,91.4386979 227,86.1917287 227,79.719264 L227,79.719264 L227,79.719264 C227,73.2467994 232.246969,67.9998301 238.719434,67.9998301 L238.719434,67.9998301 L255.060464,67.9998301 Z" id="Combined-Shape" fill="#4ECEB2"></path>
                <path d="M266.223971,183.000001 C265.337906,185.514544 264.380504,187.995357 263.3542,190.44 L221.72,190.44 L221.72,190.44 C219.665501,190.44 218,188.774499 218,186.72 C218,184.665501 219.665501,183 221.72,183 L221.72,183 L266.223977,183 Z" id="Combined-Shape" fill="#50E3C2"></path>
                <path d="M261.340792,195.000006 C260.161685,197.543374 258.906806,200.044342 257.579059,202.5 L192.75,202.5 L192.75,202.5 C190.678932,202.5 189,200.821068 189,198.75 L189,198.75 L189,198.75 C189,196.678932 190.678932,195 192.75,195 L192.75,195 L261.340795,195 Z" id="Combined-Shape" fill="#7CB1A5"></path>
                <path d="M262.034952,193.478254 C257.02463,204.643145 250.562199,215.012614 242.888564,224.345346 L234.721239,224.345346 L234.721239,224.345346 C226.989253,224.345346 220.721239,218.077333 220.721239,210.345346 L220.721239,207.478249 L220.721239,207.478249 C220.721239,199.746263 226.989253,193.478249 234.721239,193.478249 L234.721239,193.478249 L262.034954,193.478249 Z" id="Combined-Shape" fill="#7CB1A5"></path>
                <path d="M90.5355491,265.904171 C105.172583,271.274125 120.983605,274.204844 137.477967,274.204844 C169.305272,274.204844 198.588293,263.29288 221.801998,245 L104.53555,245 L104.53555,245 C96.8035635,245 90.53555,251.268014 90.53555,259 L90.53555,259 L90.53555,265.904179 Z" id="Combined-Shape" fill="#50E3C2"></path>
                <path d="M100.539162,269.13905 C112.287623,272.439667 124.677007,274.204844 137.477967,274.204844 C157.577047,274.204844 176.661473,269.853178 193.843491,262.039114 C191.452802,260.136706 188.425609,259 185.132924,259 L185.132924,259 L114,259 L114,259 C107.607237,259 102.21523,263.284744 100.539162,269.13905 Z" id="Combined-Shape" fill="#7CB1A5"></path>
                <path d="M274.00699,142.651987 C274.00699,146.406888 273.246098,150.083085 271.788874,153.651987 L125.5,153.651987 L125.5,153.651987 C122.462434,153.651987 120,151.189553 120,148.151987 C120,145.11442 122.462434,142.651987 125.5,142.651987 L125.5,142.651987 L274.00699,142.651987 Z" id="Combined-Shape" fill="#50E3C2"></path>
                <path d="M179.312694,7.29305536 C202.662882,14.8163679 223.269217,28.4683368 239.243791,46.357835 L162.687525,46.357835 C154.955538,46.357835 148.687525,40.0898215 148.687525,32.357835 L148.687525,21.2930554 C148.687525,13.5610689 154.955538,7.29305536 162.687525,7.29305536 L162.687525,7.29305536 L179.312694,7.29305536 Z" id="Combined-Shape" fill="#49BBA1"></path>
                <path d="M205.925012,19.1591812 C222.821943,28.9885648 237.420214,42.3456835 248.714966,58.2239634 L131.562073,58.2239634 L131.562073,58.2239634 C123.830087,58.2239634 117.562073,51.9559499 117.562073,44.2239634 L117.562073,33.1591838 L117.562073,33.1591838 C117.562073,25.4271973 123.830087,19.1591838 131.562073,19.1591838 L131.562073,19.1591838 L205.925016,19.1591838 Z" id="Combined-Shape" fill="#4ECEB2"></path>
                <path d="M4.43747855,168.173909 C2.17787516,158.306661 0.98413631,148.032032 0.98413631,137.478115 C0.98413631,132.989578 1.20005563,128.551559 1.6220574,124.173909 L168.805129,124.173909 L168.805129,124.173909 C176.537116,124.173909 182.805129,130.441922 182.805129,138.173909 L182.805129,154.173909 L182.805129,154.173909 C182.805129,161.905895 176.537116,168.173909 168.805129,168.173909 L4.43747855,168.173909 Z" id="Combined-Shape" fill="#50E3C2"></path>
                <path d="M27.6799043,56.2388972 C34.0697839,47.587579 41.4543925,39.7181056 49.6644663,32.8000294 L64.3535698,32.8000294 L64.3535698,32.8000294 C70.8260344,32.8000294 76.0730037,38.0469987 76.0730037,44.5194633 L76.0730037,44.5194633 C76.0730037,50.9919279 70.8260344,56.2388972 64.3535698,56.2388972 L27.6799043,56.2388972 Z" id="Combined-Shape" fill="#4ECEB2"></path>
                <rect id="Rectangle-2-Copy-2" fill="#50E3C2" x="88.0434783" y="153.26087" width="129.634198" height="34.7826087" rx="14"></rect>
                <path d="M216.525178,26 C225.787841,32.6023259 234.192428,40.3340465 241.53872,48.9946044 C241.420924,48.9982021 241.302659,49 241.183973,49 L178.044295,49 C171.430027,49 165.855245,44.0653676 165.052446,37.5 L165.052446,37.5 C164.365005,31.8780399 168.365223,26.7632596 173.987183,26.0758186 C174.400168,26.0253197 174.815844,26 175.231905,26 L175.231905,26 L216.525178,26 Z" id="Combined-Shape" fill="#49BBA1"></path>
                <rect id="Rectangle-2-Copy-29" fill="#78C6B4" x="83" y="196" width="68.1974148" height="7.44000006" rx="3.72000003"></rect>
                <path d="M23.9625281,95 L133.438591,95 L133.438591,95 C139.911056,95 145.158025,100.246969 145.158025,106.719434 L145.158025,106.719434 L145.158025,106.719434 C145.158025,113.191899 139.911056,118.438868 133.438591,118.438868 L27.9725385,118.438868 L27.9725385,118.438868 C21.1940112,118.438868 15.3892239,113.582643 14.1924605,106.910598 L14.1581715,106.719434 L14.1581715,106.719434 C13.1869205,101.304637 16.7891259,96.1277228 22.2039226,95.1564718 C22.7843373,95.0523629 23.3728503,95 23.9625281,95 Z" id="Rectangle-2-Copy-12" fill="#50E3C2"></path>
                <path d="M65.8715454,61.5611322 L100.487917,61.5611322 L100.487917,61.5611322 C106.960382,61.5611322 112.207351,66.8081015 112.207351,73.2805661 L112.207351,73.2805661 L112.207351,73.2805661 C112.207351,79.7530307 106.960382,85 100.487917,85 L67.7064397,85 L67.7064397,85 C61.0708271,85 55.5515822,79.8959388 55.0337027,73.2805661 L55.0337027,73.2805661 L55.0337027,73.2805661 C54.5651264,67.2949908 59.0375377,62.0628672 65.023113,61.5942909 C65.3053841,61.5721935 65.5884107,61.5611322 65.8715454,61.5611322 Z" id="Rectangle-2-Copy-18" fill="#FFFFFF"></path>
                <path d="M44.8715454,208.911798 L79.4879174,208.911798 L79.4879174,208.911798 C85.9603821,208.911798 91.2073514,214.158767 91.2073514,220.631232 L91.2073514,220.631232 L91.2073514,220.631232 C91.2073514,227.103696 85.9603821,232.350666 79.4879174,232.350666 L46.7064397,232.350666 L46.7064397,232.350666 C40.0708271,232.350666 34.5515822,227.246604 34.0337027,220.631232 L34.0337027,220.631232 L34.0337027,220.631232 C33.5651264,214.645656 38.0375377,209.413533 44.023113,208.944956 C44.3053841,208.922859 44.5884107,208.911798 44.8715454,208.911798 Z" id="Rectangle-2-Copy-38" fill="#FFFFFF"></path>
                <path d="M94.8715454,72 L129.487917,72 L129.487917,72 C135.960382,72 141.207351,77.2469693 141.207351,83.7194339 L141.207351,83.7194339 L141.207351,83.7194339 C141.207351,90.1918985 135.960382,95.4388678 129.487917,95.4388678 L96.7064397,95.4388678 L96.7064397,95.4388678 C90.0708271,95.4388678 84.5515822,90.3348067 84.0337027,83.7194339 L84.0337027,83.7194339 L84.0337027,83.7194339 C83.5651264,77.7338586 88.0375377,72.501735 94.023113,72.0331587 C94.3053841,72.0110613 94.5884107,72 94.8715454,72 Z" id="Rectangle-2-Copy-39" fill="#FFFFFF"></path>
                <path d="M119.35709,60 L140.679172,60 L140.679172,60 C146.754304,60 151.679171,64.9248676 151.679171,70.9999996 L151.679171,70.9999996 L151.679171,70.9999996 C151.679171,77.0751316 146.754304,81.9999991 140.679172,81.9999991 L120.726155,81.9999991 L120.726155,81.9999991 C114.531574,81.9999991 109.40509,77.1826215 109.020345,70.9999996 L109.020345,70.9999996 L109.020345,70.9999996 C108.665083,65.2911725 113.005005,60.3752573 118.713832,60.0199957 C118.927993,60.0066685 119.142516,60 119.35709,60 Z" id="Rectangle-2-Copy-40" fill="#FFFFFF"></path>
                <path d="M78.1728583,93.0631748 L110.673877,93.0631748 L110.673877,93.0631748 C114.444949,93.0631748 117.502006,96.1202325 117.502006,99.8913043 L117.502006,99.8913043 L117.502006,99.8913043 C117.502006,103.662376 114.444949,106.719434 110.673877,106.719434 L79.6320327,106.719434 L79.6320327,106.719434 C75.7268707,106.719434 72.450354,103.774363 72.0354483,99.8913043 L72.0354483,99.8913043 L72.0354483,99.8913043 C71.6732689,96.5017064 74.1274766,93.46029 77.5170746,93.0981107 C77.7348943,93.0748366 77.9537986,93.0631748 78.1728583,93.0631748 Z" id="Rectangle-2-Copy-41" fill="#FFFFFF"></path>
                <path d="M217.393885,144 L233.171027,144 L233.171027,144 C236.942099,144 239.999157,147.057058 239.999157,150.82813 L239.999157,150.82813 L239.999157,150.82813 C239.999157,154.599201 236.942099,157.656259 233.171027,157.656259 L218.324083,157.656259 L218.324083,157.656259 C214.471286,157.656259 211.27686,154.67202 211.015033,150.82813 L211.015033,150.82813 L211.015033,150.82813 C210.775067,147.305187 213.436446,144.254746 216.959389,144.014781 C217.104012,144.00493 217.248928,144 217.393885,144 Z" id="Rectangle-2-Copy-42" fill="#FFFFFF"></path>
                <path d="M205.393885,137 L221.171027,137 L221.171027,137 C224.942099,137 227.999157,140.057058 227.999157,143.82813 L227.999157,143.82813 L227.999157,143.82813 C227.999157,147.599201 224.942099,150.656259 221.171027,150.656259 L206.324083,150.656259 L206.324083,150.656259 C202.471286,150.656259 199.27686,147.67202 199.015033,143.82813 L199.015033,143.82813 L199.015033,143.82813 C198.775067,140.305187 201.436446,137.254746 204.959389,137.014781 C205.104012,137.00493 205.248928,137 205.393885,137 Z" id="Rectangle-2-Copy-43" fill="#FFFFFF"></path>
                <path d="M199.034975,152 L242.695226,152 L242.695226,152 C246.466298,152 249.523356,155.057058 249.523356,158.82813 L249.523356,158.82813 L249.523356,158.82813 C249.523356,162.599201 246.466298,165.656259 242.695226,165.656259 L200.847293,165.656259 L200.847293,165.656259 C196.90476,165.656259 193.571804,162.736397 193.053139,158.82813 L193.053139,158.82813 L193.053139,158.82813 C192.614709,155.524453 194.93745,152.490876 198.241127,152.052446 C198.504301,152.01752 198.769493,152 199.034975,152 Z" id="Rectangle-2-Copy-44" fill="#FFFFFF"></path>
                <path d="M114.393902,146 L130.169817,146 L130.169817,146 C133.940889,146 136.997947,149.057058 136.997947,152.82813 L136.997947,152.82813 L136.997947,152.82813 C136.997947,156.599201 133.940889,159.656259 130.169817,159.656259 L115.324061,159.656259 L115.324061,159.656259 C111.471267,159.656259 108.276848,156.672017 108.015032,152.82813 L108.015032,152.82813 L108.015032,152.82813 C107.775075,149.305177 110.43647,146.254736 113.959423,146.01478 C114.10404,146.004929 114.24895,146 114.393902,146 Z" id="Rectangle-2-Copy-30" fill="#FFFFFF"></path>
                <path d="M58.2703562,200 L74.0462713,200 L74.0462713,200 C77.8173431,200 80.8744008,203.057058 80.8744008,206.82813 L80.8744008,206.82813 L80.8744008,206.82813 C80.8744008,210.599201 77.8173431,213.656259 74.0462713,213.656259 L59.2005152,213.656259 L59.2005152,213.656259 C55.3477213,213.656259 52.1533017,210.672017 51.8914857,206.82813 L51.8914857,206.82813 L51.8914857,206.82813 C51.6515293,203.305177 54.3129238,200.254736 57.8358767,200.01478 C57.9804938,200.004929 58.125404,200 58.2703562,200 Z" id="Rectangle-2-Copy-35" fill="#FFFFFF"></path>
                <path d="M33.1281085,139 L69.1851712,139 L69.1851712,139 C72.956243,139 76.0133008,142.057058 76.0133008,145.82813 L76.0133008,145.82813 L76.0133008,145.82813 C76.0133008,149.599201 72.956243,152.656259 69.1851712,152.656259 L34.6998019,152.656259 L34.6998019,152.656259 C30.7829431,152.656259 27.4885866,149.719303 27.040753,145.82813 L27.040753,145.82813 L27.040753,145.82813 C26.6538271,142.466176 29.0655635,139.427109 32.4275171,139.040183 C32.6600882,139.013416 32.8940022,139 33.1281085,139 Z" id="Rectangle-2-Copy-32" fill="#FFFFFF"></path>
                <path d="M50.4627441,131 L61.2913565,131 L61.2913565,131 C65.0624283,131 68.119486,134.057058 68.119486,137.82813 L68.119486,137.82813 L68.119486,137.82813 C68.119486,141.599201 65.0624283,144.656259 61.2913565,144.656259 L51.2364813,144.656259 L51.2364813,144.656259 C47.3983473,144.656259 44.2276454,141.660118 44.0105323,137.82813 L44.0105323,137.82813 L44.0105323,137.82813 C43.8086336,134.264671 46.533716,131.212247 50.0971742,131.010348 C50.2189088,131.003451 50.3408142,131 50.4627441,131 Z" id="Rectangle-2-Copy-46" fill="#FFFFFF"></path>
                <path d="M113.17257,91 L145.696294,91 L145.696294,91 C149.467366,91 152.524424,94.0570577 152.524424,97.8281296 L152.524424,97.8281296 L152.524424,97.8281296 C152.524424,101.599201 149.467366,104.656259 145.696294,104.656259 L114.632463,104.656259 L114.632463,104.656259 C110.727227,104.656259 107.450597,101.71124 107.035481,97.8281296 L107.035481,97.8281296 L107.035481,97.8281296 C106.673142,94.4387089 109.127077,91.3973071 112.516498,91.0349684 C112.734413,91.0116727 112.953414,91 113.17257,91 Z" id="Rectangle-2-Copy-47" fill="#FFFFFF"></path>
                <path d="M90.1725701,57.3437404 L122.696294,57.3437404 L122.696294,57.3437404 C126.467366,57.3437404 129.524424,60.4007982 129.524424,64.17187 L129.524424,64.17187 L129.524424,64.17187 C129.524424,67.9429418 126.467366,70.9999996 122.696294,70.9999996 L91.632463,70.9999996 L91.632463,70.9999996 C87.7272269,70.9999996 84.4505967,68.0549806 84.0354811,64.17187 L84.0354811,64.17187 L84.0354811,64.17187 C83.6731424,60.7824494 86.1270772,57.7410475 89.5164978,57.3787088 C89.7344127,57.3554131 89.9534136,57.3437404 90.1725701,57.3437404 Z" id="Rectangle-2-Copy-51" fill="#FFFFFF"></path>
                <path d="M13.8522119,147.654123 L71.4426308,147.654123 L71.4426308,147.654123 C75.2137026,147.654123 78.2707603,150.711181 78.2707603,154.482252 L78.2707603,154.482252 L78.2707603,154.482252 C78.2707603,158.253324 75.2137026,161.310382 71.4426308,161.310382 L16.1055614,161.310382 L16.1055614,161.310382 C12.1136271,161.310382 8.70832869,158.420928 8.05842791,154.482252 L8.05842791,154.482252 L8.05842791,154.482252 C7.53044222,151.282434 9.69639071,148.260451 12.8962093,147.732466 C13.2122072,147.680325 13.5319411,147.654123 13.8522119,147.654123 Z" id="Rectangle-2-Copy-45" fill="#FFFFFF"></path>
                <path d="M163.393902,137 L179.169817,137 L179.169817,137 C182.940889,137 185.997947,140.057058 185.997947,143.82813 L185.997947,143.82813 L185.997947,143.82813 C185.997947,147.599201 182.940889,150.656259 179.169817,150.656259 L164.324061,150.656259 L164.324061,150.656259 C160.471267,150.656259 157.276848,147.672017 157.015032,143.82813 L157.015032,143.82813 L157.015032,143.82813 C156.775075,140.305177 159.43647,137.254736 162.959423,137.01478 C163.10404,137.004929 163.24895,137 163.393902,137 Z" id="Rectangle-2-Copy-33" fill="#FFFFFF"></path>
                <path d="M157.014822,209 L185.04369,209 L185.04369,209 C189.263302,209 192.683973,212.420671 192.683973,216.640283 L192.683973,216.640283 L192.683973,216.640283 C192.683973,220.859895 189.263302,224.280566 185.04369,224.280566 L158.383782,224.280566 L158.383782,224.280566 C154.04084,224.280566 150.415945,220.965902 150.02842,216.640283 L150.02842,216.640283 L150.02842,216.640283 C149.682745,212.781799 152.530439,209.373656 156.388923,209.027981 C156.597035,209.009336 156.805877,209 157.014822,209 Z" id="Rectangle-2-Copy-36" fill="#FFFFFF"></path>
                <path d="M165.2087,200 L179.358874,200 L179.358874,200 C183.578486,200 186.999157,203.420671 186.999157,207.640283 L186.999157,207.640283 L186.999157,207.640283 C186.999157,211.859895 183.578486,215.280566 179.358874,215.280566 L166.138761,215.280566 L166.138761,215.280566 C161.838133,215.280566 158.280585,211.932967 158.019308,207.640283 L158.019308,207.640283 L158.019308,207.640283 C157.777636,203.669692 160.800522,200.254977 164.771114,200.013305 C164.916807,200.004437 165.062737,200 165.2087,200 Z" id="Rectangle-2-Copy-53" fill="#FFFFFF"></path>
                <path d="M150.642862,216 L206.630477,216 L206.630477,216 C210.850089,216 214.27076,219.420671 214.27076,223.640283 L214.27076,223.640283 L214.27076,223.640283 C214.27076,227.859895 210.850089,231.280566 206.630477,231.280566 L152.896585,231.280566 L152.896585,231.280566 C148.460242,231.280566 144.694099,228.029147 144.046788,223.640283 L144.046788,223.640283 L144.046788,223.640283 C143.509497,219.997372 146.027099,216.608648 149.670011,216.071357 C149.992117,216.023849 150.317271,216 150.642862,216 Z" id="Rectangle-2-Copy-52" fill="#FFFFFF"></path>
                <path d="M101.014822,244 L129.04369,244 L129.04369,244 C133.263302,244 136.683973,247.420671 136.683973,251.640283 L136.683973,251.640283 L136.683973,251.640283 C136.683973,255.859895 133.263302,259.280566 129.04369,259.280566 L102.383782,259.280566 L102.383782,259.280566 C98.0408396,259.280566 94.4159447,255.965902 94.0284199,251.640283 L94.0284199,251.640283 L94.0284199,251.640283 C93.6827449,247.781799 96.530439,244.373656 100.388923,244.027981 C100.597035,244.009336 100.805877,244 101.014822,244 Z" id="Rectangle-2-Copy-48" fill="#FFFFFF"></path>
                <path d="M100.642862,252 L156.630477,252 L156.630477,252 C160.850089,252 164.27076,255.420671 164.27076,259.640283 L164.27076,259.640283 L164.27076,259.640283 C164.27076,263.859895 160.850089,267.280566 156.630477,267.280566 L102.896585,267.280566 L102.896585,267.280566 C98.4602423,267.280566 94.6940992,264.029147 94.0467878,259.640283 L94.0467878,259.640283 L94.0467878,259.640283 C93.5094966,255.997372 96.0270993,252.608648 99.6700107,252.071357 C99.9921173,252.023849 100.317271,252 100.642862,252 Z" id="Rectangle-2-Copy-54" fill="#FFFFFF"></path>
                <path d="M92.0148224,48 L120.04369,48 L120.04369,48 C124.263302,48 127.683973,51.4206712 127.683973,55.640283 L127.683973,55.640283 L127.683973,55.640283 C127.683973,59.8598949 124.263302,63.2805661 120.04369,63.2805661 L93.3837823,63.2805661 L93.3837823,63.2805661 C89.0408396,63.2805661 85.4159447,59.9659017 85.0284199,55.640283 L85.0284199,55.640283 L85.0284199,55.640283 C84.6827449,51.7817995 87.530439,48.3736556 91.3889225,48.0279806 C91.5970349,48.0093362 91.8058765,48 92.0148224,48 Z" id="Rectangle-2-Copy-50" fill="#FFFFFF"></path>
                <path d="M107.385331,237 L124.907635,237 L124.907635,237 C127.545534,237 129.683973,239.13844 129.683973,241.776339 L129.683973,241.776339 L129.683973,241.776339 C129.683973,244.414238 127.545534,246.552677 124.907635,246.552677 L108.241139,246.552677 L108.241139,246.552677 C105.526139,246.552677 103.260029,244.480508 103.017767,241.776339 L103.017767,241.776339 L103.017767,241.776339 C102.801667,239.3642 104.581909,237.233592 106.994048,237.017492 C107.12415,237.005837 107.254708,237 107.385331,237 Z" id="Rectangle-2-Copy-49" fill="#FFFFFF"></path>
                <path d="M180.478892,100 L245.510211,100 L245.510211,100 C251.982676,100 257.229645,105.246969 257.229645,111.719434 L257.229645,111.719434 L257.229645,111.719434 C257.229645,118.191899 251.982676,123.438868 245.510211,123.438868 L183.275982,123.438868 L183.275982,123.438868 C176.542819,123.438868 170.872694,118.40516 170.07485,111.719434 L170.07485,111.719434 L170.07485,111.719434 C169.389149,105.97344 173.491326,100.759521 179.23732,100.07382 C179.64935,100.02465 180.063938,100 180.478892,100 Z" id="Rectangle-2-Copy-31" fill="#7CB1A5"></path>
                <path d="M204.267147,104.782609 L230.401515,104.782609 L230.401515,104.782609 C234.172587,104.782609 237.229645,107.839666 237.229645,111.610738 L237.229645,111.610738 L237.229645,111.610738 C237.229645,115.38181 234.172587,118.438868 230.401515,118.438868 L205.524907,118.438868 L205.524907,118.438868 C201.640193,118.438868 198.395278,115.47908 198.038998,111.610738 L198.038998,111.610738 L198.038998,111.610738 C197.722196,108.171027 200.253815,105.12577 203.693527,104.808969 C203.884229,104.791405 204.075638,104.782609 204.267147,104.782609 Z" id="Rectangle-2-Copy-37" fill="#50E3C2"></path>
                <path d="M37.2829566,43 C14.1632426,67.6018248 0,100.718423 0,137.143024 C0,213.082177 61.5608469,274.643024 137.5,274.643024 C165.036009,274.643024 190.681511,266.548803 212.187002,252.609866 C82.4806413,213.126997 46.1870888,132.357255 38.5152798,52.600028 C38.1778351,49.0919037 37.7670606,45.8918943 37.2829566,43 Z" id="Combined-Shape" fill="#000000" opacity="0.325747283"></path>
            </g>
        </g>
    </g>
</svg>