<?xml version="1.0" encoding="UTF-8"?>
<svg width="476px" height="275px" viewBox="0 0 476 275" version="1.1" xmlns="http://www.w3.org/2000/svg" xmlns:xlink="http://www.w3.org/1999/xlink">
    <!-- Generator: Sketch 51.2 (57519) - http://www.bohemiancoding.com/sketch -->
    <title>Group 2</title>
    <desc>Created with Sketch.</desc>
    <defs></defs>
    <g id="Page-1" stroke="none" stroke-width="1" fill="none" fill-rule="evenodd">
        <g id="Artboard-Copy-19" transform="translate(-15.000000, -113.000000)">
            <g id="Group-2" transform="translate(14.000000, 113.000000)">
                <g id="Group" transform="translate(101.787056, 0.000000)">
                    <ellipse id="Oval-3" fill="#D29055" cx="137.190957" cy="137.478115" rx="136.208875" ry="136.726729"></ellipse>
                    <ellipse id="Oval-3-Copy-2" fill="#D29055" cx="137.190957" cy="137.478115" rx="136.208875" ry="136.726729"></ellipse>
                    <ellipse id="Oval-3-Copy-6" fill="#D29055" cx="137.190957" cy="137.478115" rx="136.208875" ry="136.726729"></ellipse>
                    <ellipse id="Oval-3-Copy-4" fill="#D29055" cx="137.190957" cy="137.478115" rx="136.208875" ry="136.726729"></ellipse>
                    <ellipse id="Oval-3-Copy-12" fill="#D29055" cx="137.190957" cy="137.478115" rx="136.208875" ry="136.726729"></ellipse>
                    <ellipse id="Oval-3-Copy-11" fill="#D29055" cx="137.190957" cy="137.478115" rx="136.208875" ry="136.726729"></ellipse>
                    <ellipse id="Oval-3-Copy-10" fill="#D29055" cx="137.190957" cy="137.478115" rx="136.208875" ry="136.726729"></ellipse>
                    <ellipse id="Oval-3-Copy-8" fill="#D29055" cx="137.190957" cy="137.478115" rx="136.208875" ry="136.726729"></ellipse>
                    <ellipse id="Oval-3-Copy-20" fill="#D29055" cx="137.190957" cy="137.478115" rx="136.208875" ry="136.726729"></ellipse>
                    <ellipse id="Oval-3-Copy-19" fill="#D29055" cx="137.190957" cy="137.478115" rx="136.208875" ry="136.726729"></ellipse>
                    <ellipse id="Oval-3-Copy-18" fill="#D29055" cx="137.190957" cy="137.478115" rx="136.208875" ry="136.726729"></ellipse>
                    <ellipse id="Oval-3-Copy-17" fill="#D29055" cx="137.190957" cy="137.478115" rx="136.208875" ry="136.726729"></ellipse>
                    <ellipse id="Oval-3-Copy-16" fill="#FFAEAE" cx="137.190957" cy="137.478115" rx="136.208875" ry="136.726729"></ellipse>
                    <path d="M68.6458652,255.656262 C61.823055,251.660167 55.3775784,247.085764 49.3761284,242 L119.779526,242 C123.550598,242 126.607656,245.057058 126.607656,248.82813 C126.607656,252.599201 123.550598,255.656259 119.779526,255.656259 L68.6458611,255.656259 Z" id="Combined-Shape" fill="#FFCA73"></path>
                    <path d="M2.46908336,157.75124 C1.50252509,151.223705 0.99558176,144.545631 0.982347721,137.75124 L9.94268175,137.75124 C15.4655292,137.75124 19.9426818,142.228392 19.9426818,147.75124 C19.9426818,153.274087 15.4655292,157.75124 9.94268175,157.75124 L2.46908336,157.75124 Z" id="Combined-Shape" fill="#FFCA73"></path>
                    <path d="M9.59755624,185.438869 C6.79063055,177.917924 4.62474477,170.082626 3.16667062,162 L69.3624885,162 C75.8349531,162 81.0819224,167.246969 81.0819224,173.719434 C81.0819224,180.191899 75.8349531,185.438868 69.3624885,185.438868 L9.59754782,185.438868 Z" id="Combined-Shape" fill="#FFCA73"></path>
                    <path d="M14.3682952,196.660008 C13.1650016,194.148311 12.0359182,191.594021 10.9838988,189.000002 L81.1191609,189 C83.2344115,189 84.9491609,190.714749 84.9491609,192.83 C84.9491609,194.94525 83.2344115,196.66 81.1191609,196.66 L14.3682912,196.66 Z" id="Combined-Shape" fill="#FFCA73"></path>
                    <path d="M263.415733,85.9999387 C269.282728,100.480896 272.748455,116.199014 273.316709,132.6562 L237.619144,132.6562 C230.540563,132.6562 224.575677,127.372522 223.721458,120.345673 L221.453509,101.689414 C220.520438,94.0139336 225.986242,87.0353248 233.661722,86.1022546 C234.222301,86.0341079 234.786489,85.9999408 235.351195,85.9999408 L263.415747,85.9999408 Z" id="Combined-Shape" fill="#FFCA73"></path>
                    <path d="M9.03277888,91.0589717 C11.9831088,82.8528099 15.6934052,75.0113193 20.0783875,67.6201047 L55.0531278,67.6201047 C61.5255924,67.6201047 66.7725617,72.867074 66.7725617,79.3395386 C66.7725617,85.8120032 61.5255924,91.0589725 55.0531278,91.0589725 L9.03277229,91.0589725 Z" id="Combined-Shape" fill="#FFCA73"></path>
                    <path d="M24.6457116,60.4399996 C26.8579179,57.1898403 29.2062057,54.0404181 31.6823393,51 L112.42802,51 C115.034804,51 117.14802,53.1132159 117.14802,55.7199998 C117.14802,58.3267837 115.034804,60.4399996 112.42802,60.4399996 L24.6457116,60.4399996 Z" id="Combined-Shape" fill="#FFCA73"></path>
                    <path d="M72.6404989,17.0499604 C79.4789023,13.3488246 86.6685237,10.2174541 94.1462702,7.71918162 L162.005921,7.71918162 C164.612705,7.71918162 166.725921,9.8323975 166.725921,12.4391814 C166.725921,15.0459653 164.612705,17.1591812 162.005921,17.1591812 L73.7797512,17.1591812 C73.3914344,17.1591812 73.010405,17.1217399 72.6404989,17.0499604 Z" id="Combined-Shape" fill="#FFCA73"></path>
                    <path d="M252.709123,65 C255.44903,69.3909524 257.94737,73.9492901 260.185453,78.6562511 L228.427035,78.6562591 C224.655963,78.6562591 221.598905,75.5992014 221.598905,71.8281296 C221.598905,68.0570577 224.655963,65 228.427035,65 L252.709123,65 Z" id="Combined-Shape" fill="#FFCA73"></path>
                    <path d="M272.099863,156.444753 C271.007615,164.345377 269.242832,172.030126 266.865417,179.438868 L235.251793,179.438868 C228.779328,179.438868 223.532359,174.191899 223.532359,167.719434 C223.532359,161.246969 228.779328,156 235.251793,156 L268.89093,156 C270.003601,156 271.080055,156.155061 272.099863,156.444753 Z" id="Combined-Shape" fill="#FFCA73"></path>
                    <path d="M265.66818,183.000001 C264.595285,186.051115 263.417579,189.052567 262.139403,192 L247.990605,192 C245.505324,192 243.490605,189.985281 243.490605,187.5 C243.490605,185.014719 245.505324,183 247.990605,183 L265.668186,183 Z" id="Combined-Shape" fill="#FFCA73"></path>
                    <path d="M260.327636,196.000008 C259.125508,198.544187 257.847431,201.045176 256.496346,203.500026 L190.359603,203.5 C188.288536,203.5 186.609603,201.821068 186.609603,199.75 C186.609603,197.678932 188.288536,196 190.359603,196 L260.32764,196 Z" id="Combined-Shape" fill="#FFCA73"></path>
                    <path d="M254.474598,207.046962 C248.095202,217.860356 240.273914,227.715415 231.276515,236.345346 L80.4228499,236.345346 C72.6908634,236.345346 66.4228499,230.077333 66.4228499,222.345346 L66.4228499,219.478249 C66.4228499,211.746263 72.6908634,205.478249 80.4228499,205.478249 L248.029119,205.478249 C250.353402,205.478249 252.545394,206.044652 254.474598,207.046962 Z" id="Combined-Shape" fill="#FFCA73"></path>
                    <path d="M137.110215,274.20482 C131.75996,273.119698 127.732777,268.389865 127.732777,262.719434 C127.732777,256.246969 132.979746,251 139.452211,251 L213.130999,251 C191.434351,265.653328 165.307528,274.204844 137.190957,274.204844 C137.164041,274.204844 137.137127,274.204836 137.110215,274.20482 Z" id="Combined-Shape" fill="#FFCA73"></path>
                    <path d="M74.703545,259 L158.093579,259 C164.715039,259 170.26286,263.596797 171.719907,269.773256 C160.692764,272.66527 149.120973,274.204844 137.190957,274.204844 C114.666639,274.204844 93.4192805,268.716748 74.7035619,259.000009 Z" id="Combined-Shape" fill="#FFCA73"></path>
                    <path d="M273.194332,139 C273.353996,140.208274 273.43495,141.425935 273.43495,142.651987 C273.43495,146.058644 272.809957,149.400518 271.608083,152.656259 L217.387629,152.656259 C213.616557,152.656259 210.559499,149.599201 210.559499,145.82813 C210.559499,142.057058 213.616557,139 217.387629,139 L273.194332,139 Z" id="Combined-Shape" fill="#FFCA73"></path>
                    <rect id="Rectangle-2-Copy-2" fill="#FFCA73" x="87.8596714" y="153.26087" width="129.363563" height="34.7826087" rx="14"></rect>
                    <path d="M239.312968,47 C243.541026,51.80487 247.437778,56.9104015 250.967332,62.2805661 L184.121286,62.2805661 C179.778628,62.2805661 176.154177,58.9656905 175.76748,54.640283 C175.422463,50.7810806 178.271272,47.3728869 182.130475,47.0278693 C182.338194,47.009299 182.546637,47 182.755184,47 L239.312968,47 Z" id="Combined-Shape" fill="#FFCA73"></path>
                    <path d="M23.6438767,95 L117.302606,95 C125.034592,95 131.302606,101.268014 131.302606,109 L131.302606,120.06478 C131.302606,127.796767 125.034592,134.06478 117.302606,134.06478 L24.7453992,134.06478 C17.5505021,134.06478 11.5270063,128.611161 10.8142621,121.451654 L9.71273964,110.386874 C8.94679005,102.69292 14.5630477,95.8348126 22.2570023,95.068863 C22.7178701,95.0229826 23.1807307,95 23.6438767,95 Z" id="Rectangle-2-Copy-12" fill="#FFCA73"></path>
                    <path d="M147.754474,125.758681 L170.408361,125.758681 C176.880825,125.758681 182.127794,131.00565 182.127794,137.478115 L182.127794,137.478115 C182.127794,143.95058 176.880825,149.197549 170.408361,149.197549 L149.211096,149.197549 C142.611555,149.197549 137.150085,144.064949 136.740742,137.478115 L136.740742,137.478115 C136.362728,131.395399 140.987303,126.157943 147.070018,125.779929 C147.297895,125.765767 147.526157,125.758681 147.754474,125.758681 Z" id="Rectangle-2-Copy-18" fill="#FFCA73"></path>
                    <path d="M172.555755,70 L205.516065,70 C211.988529,70 217.235498,75.2469693 217.235498,81.7194339 L217.235498,81.7194339 C217.235498,88.1918985 211.988529,93.4388678 205.516065,93.4388678 L174.338277,93.4388678 C167.707735,93.4388678 162.19654,88.3308847 161.693741,81.7194339 L161.693741,81.7194339 C161.237524,75.720509 165.730776,70.4875825 171.729701,70.0313653 C172.004557,70.0104626 172.280106,70 172.555755,70 Z" id="Rectangle-2-Copy-30" fill="#FFCA73"></path>
                    <path d="M152.856203,99 L191.418221,99 C196.941069,99 201.418221,103.477153 201.418221,109 L201.418221,109 C201.418221,114.522847 196.941069,119 191.418221,119 L154.707322,119 C149.017133,119 144.263441,114.665972 143.739021,109 L143.739021,109 C143.272976,103.964719 146.977073,99.5050136 152.012354,99.0389684 C152.292888,99.0130033 152.57447,99 152.856203,99 Z" id="Rectangle-2-Copy-36" fill="#FFECCB"></path>
                    <path d="M33.0577873,139 L69.0111577,139 C72.7822295,139 75.8392873,142.057058 75.8392873,145.82813 L75.8392873,145.82813 C75.8392873,149.599201 72.7822295,152.656259 69.0111577,152.656259 L34.6261996,152.656259 C30.7096846,152.656259 27.4158502,149.719067 26.9689786,145.82813 L26.9689786,145.82813 C26.5827683,142.465373 28.9957355,139.426236 32.3584917,139.040025 C32.5906366,139.013364 32.8241164,139 33.0577873,139 Z" id="Rectangle-2-Copy-32" fill="#FFECCB"></path>
                    <path d="M75.728448,28 L133.192567,28 C136.963639,28 140.020697,31.0570577 140.020697,34.8281296 L140.020697,34.8281296 C140.020697,38.5992014 136.963639,41.6562591 133.192567,41.6562591 L77.9777979,41.6562591 C73.9863252,41.6562591 70.5816922,38.7665352 69.9329895,34.8281296 L69.9329895,34.8281296 C69.4057886,31.6273862 71.5731231,28.6052903 74.7738664,28.0780894 C75.0894039,28.0261166 75.4086589,28 75.728448,28 Z" id="Rectangle-2-Copy-33" fill="#FFCA73"></path>
                    <path d="M160.103523,22 L179.258133,22 C184.78098,22 189.258133,26.4771525 189.258133,32 L189.258133,32 C189.258133,37.5228475 184.78098,42 179.258133,42 L161.340884,42 C155.710124,42 151.050783,37.6200144 150.703083,32 L150.703083,32 C150.381882,26.8082806 154.330216,22.3391752 159.521936,22.0179736 C159.715567,22.0059941 159.909522,22 160.103523,22 Z" id="Rectangle-2-Copy-35" fill="#FFCA73"></path>
                    <path d="M119.253752,160 L184.100546,160 C190.57301,160 195.81998,165.246969 195.81998,171.719434 L195.81998,171.719434 C195.81998,178.191899 190.57301,183.438868 184.100546,183.438868 L122.045003,183.438868 C115.312457,183.438868 109.643265,178.404742 108.847136,171.719434 L108.847136,171.719434 C108.162697,165.972019 112.26705,160.75797 118.014466,160.073531 C118.425745,160.024554 118.839567,160 119.253752,160 Z" id="Rectangle-2-Copy-31" fill="#FFECCB"></path>
                    <path d="M39.4207668,107 L104.26756,107 C110.740025,107 115.986994,112.246969 115.986994,118.719434 L115.986994,118.719434 C115.986994,125.191899 110.740025,130.438868 104.26756,130.438868 L42.2120173,130.438868 C35.4794716,130.438868 29.8102801,125.404742 29.0141507,118.719434 L29.0141507,118.719434 C28.3297117,112.972019 32.4340649,107.75797 38.1814803,107.073531 C38.5927599,107.024554 39.0065812,107 39.4207668,107 Z" id="Rectangle-2-Copy-39" fill="#FFECCB"></path>
                    <path d="M130.407176,25.1718692 L166.034204,25.1718692 C169.805276,25.1718692 172.862334,28.2289275 172.862334,32 L172.862334,32 C172.862334,35.7710725 169.805276,38.8281308 166.034204,38.8281308 L131.965262,38.8281308 C128.049827,38.8281308 124.757635,35.8901965 124.31379,32 L124.31379,32 C123.929834,28.6347159 126.346678,25.5953564 129.711963,25.2114005 C129.942765,25.1850676 130.174877,25.1718692 130.407176,25.1718692 Z" id="Rectangle-2-Copy-40" fill="#FFECCB"></path>
                    <path d="M50.7115486,200 L91.05898,200 C97.5314446,200 102.778414,205.246969 102.778414,211.719434 L102.778414,211.719434 C102.778414,218.191899 97.5314446,223.438868 91.05898,223.438868 L52.7277014,223.438868 C46.0743498,223.438868 40.5271139,218.348307 39.9569148,211.719434 L39.9569148,211.719434 C39.4460036,205.779814 43.8468417,200.550625 49.7864618,200.039713 C50.0941141,200.01325 50.4027602,200 50.7115486,200 Z" id="Rectangle-2-Copy-38" fill="#FFECCB"></path>
                    <path d="M161.482312,210 L203.824593,210 C209.745086,210 214.544593,214.799508 214.544593,220.72 L214.544593,220.72 C214.544593,226.640493 209.745086,231.440001 203.824593,231.440001 L163.498465,231.440001 C157.395399,231.440001 152.294487,226.796259 151.723094,220.72 L151.723094,220.72 C151.216248,215.330133 155.174718,210.549902 160.564585,210.043055 C160.869653,210.014368 161.175898,210 161.482312,210 Z" id="Rectangle-2-Copy-41" fill="#FFECCB"></path>
                    <path d="M80.3351718,67.6201047 L145.181965,67.6201047 C151.65443,67.6201047 156.901399,72.867074 156.901399,79.3395386 L156.901399,79.3395386 C156.901399,85.8120032 151.65443,91.0589725 145.181965,91.0589725 L83.1264224,91.0589725 C76.3938766,91.0589725 70.7246851,86.0248471 69.9285557,79.3395386 L69.9285557,79.3395386 C69.2441167,73.5921232 73.34847,68.378075 79.0958853,67.693636 C79.5071649,67.6446582 79.9209862,67.6201047 80.3351718,67.6201047 Z" id="Rectangle-2-Copy-37" fill="#FFCA6E"></path>
                </g>
                <path d="M139.99009,43 C140.473184,45.8918943 140.883101,49.0919037 141.219841,52.600028 C148.875634,132.357255 185.093417,213.126997 314.528995,252.609863 C293.068398,266.548803 267.476435,274.643024 239.997912,274.643024 C164.217296,274.643024 102.784969,213.082177 102.784969,137.143024 C102.784969,100.718423 116.918643,67.6018248 139.99009,43 Z" id="Combined-Shape" fill="#000000" opacity="0.325747283"></path>
                <path d="M101.234547,137.287685 C89.7966475,137.503801 83.9637045,138.398299 83.7357183,139.971179 C83.3937389,142.330499 151.298225,149.906536 240.647807,149.590088 C329.997388,149.273639 393.698517,142.3848 394.335993,139.971179 C394.760977,138.362098 389.017753,137.339533 377.106322,136.903483 L377.018354,134.379138 C443.33782,137.409094 476.615972,141.051829 476.852813,145.307342 C477.208073,151.690613 351.960432,162.795823 240.647807,163.45119 C129.335181,164.106556 -0.185902896,153.057127 1.00607881,145.307342 C1.80073329,140.140819 35.1720331,136.371705 101.119978,134 L101.234547,137.287685 Z" id="Path-3" fill="#A1CDFF" transform="translate(238.925739, 148.739525) rotate(2.000000) translate(-238.925739, -148.739525) "></path>
            </g>
        </g>
    </g>
</svg>