<?xml version="1.0" encoding="UTF-8"?>
<svg width="274px" height="275px" viewBox="0 0 274 275" version="1.1" xmlns="http://www.w3.org/2000/svg" xmlns:xlink="http://www.w3.org/1999/xlink">
    <!-- Generator: Sketch 47.1 (45422) - http://www.bohemiancoding.com/sketch -->
    <title>Group 2</title>
    <desc>Created with Sketch.</desc>
    <defs></defs>
    <g id="Page-1" stroke="none" stroke-width="1" fill="none" fill-rule="evenodd">
        <g id="Artboard-Copy-15" transform="translate(-112.000000, -113.000000)">
            <g id="Group-2" transform="translate(112.000000, 113.000000)">
                <g id="Group">
                    <ellipse id="Oval-3" fill="#D29055" cx="137.477967" cy="137.478115" rx="136.493831" ry="136.726729"></ellipse>
                    <ellipse id="Oval-3-Copy-2" fill="#D29055" cx="137.477967" cy="137.478115" rx="136.493831" ry="136.726729"></ellipse>
                    <ellipse id="Oval-3-Copy-6" fill="#D29055" cx="137.477967" cy="137.478115" rx="136.493831" ry="136.726729"></ellipse>
                    <ellipse id="Oval-3-Copy-4" fill="#D29055" cx="137.477967" cy="137.478115" rx="136.493831" ry="136.726729"></ellipse>
                    <ellipse id="Oval-3-Copy-12" fill="#D29055" cx="137.477967" cy="137.478115" rx="136.493831" ry="136.726729"></ellipse>
                    <ellipse id="Oval-3-Copy-11" fill="#D29055" cx="137.477967" cy="137.478115" rx="136.493831" ry="136.726729"></ellipse>
                    <ellipse id="Oval-3-Copy-10" fill="#D29055" cx="137.477967" cy="137.478115" rx="136.493831" ry="136.726729"></ellipse>
                    <ellipse id="Oval-3-Copy-8" fill="#D29055" cx="137.477967" cy="137.478115" rx="136.493831" ry="136.726729"></ellipse>
                    <ellipse id="Oval-3-Copy-20" fill="#D29055" cx="137.477967" cy="137.478115" rx="136.493831" ry="136.726729"></ellipse>
                    <ellipse id="Oval-3-Copy-19" fill="#D29055" cx="137.477967" cy="137.478115" rx="136.493831" ry="136.726729"></ellipse>
                    <ellipse id="Oval-3-Copy-18" fill="#D29055" cx="137.477967" cy="137.478115" rx="136.493831" ry="136.726729"></ellipse>
                    <ellipse id="Oval-3-Copy-17" fill="#D29055" cx="137.477967" cy="137.478115" rx="136.493831" ry="136.726729"></ellipse>
                    <ellipse id="Oval-3-Copy-16" fill="#A2CDFF" cx="137.477967" cy="137.478115" rx="136.493831" ry="136.726729"></ellipse>
                    <path d="M68.7894758,255.656262 C61.9523919,251.660167 55.4934311,247.085764 49.4794257,242 L120.044396,242 L120.044396,242 C123.815467,242 126.872525,245.057058 126.872525,248.82813 L126.872525,248.82813 C126.872525,252.599201 123.815467,255.656259 120.044396,255.656259 L68.7894717,255.656259 Z" id="Combined-Shape" fill="#FFFFFF"></path>
                    <path d="M1.19843576,129.75124 C1.44268724,125.359376 1.8938625,121.022835 2.54235625,116.75124 L24.6984358,116.75124 L24.6984358,116.75124 C28.2882866,116.75124 31.1984358,119.661389 31.1984358,123.25124 L31.1984358,123.25124 C31.1984358,126.841091 28.2882866,129.75124 24.6984358,129.75124 L1.19843576,129.75124 Z" id="Combined-Shape" fill="#FFFFFF"></path>
                    <path d="M4.39777332,168 C2.16389341,158.185955 0.98413631,147.970043 0.98413631,137.478115 C0.98413631,137.318679 0.984408739,137.159308 0.984953154,137 L19.0623907,137 L19.0623907,137 C26.7943772,137 33.0623907,143.268014 33.0623907,151 L33.0623907,154 C33.0623907,161.731986 26.7943772,168 19.0623907,168 L4.39777332,168 Z" id="Combined-Shape" fill="#FFFFFF"></path>
                    <path d="M14.3983544,196.660008 C13.1925431,194.148311 12.0610973,191.59402 11.0068768,189 L81.2968789,189 L81.2968789,189 C83.4121294,189 85.1268788,190.714749 85.1268788,192.83 L85.1268788,192.83 C85.1268788,194.94525 83.4121294,196.66 81.2968789,196.66 L14.3983504,196.66 Z" id="Combined-Shape" fill="#FFFFFF"></path>
                    <path d="M263.966812,85.9999387 C269.846081,100.480896 273.319059,116.199014 273.888501,132.6562 L234.005519,132.6562 L234.005519,132.6562 C226.273532,132.6562 220.005519,126.388186 220.005519,118.6562 L220.005519,99.9999408 L220.005519,99.9999408 C220.005519,92.2679543 226.273532,85.9999408 234.005519,85.9999408 L234.005519,85.9999408 L263.966826,85.9999408 Z" id="Combined-Shape" fill="#FFFFFF"></path>
                    <path d="M4.37447882,107.058752 C6.21403394,98.9481244 8.77343028,91.1115106 11.9818152,83.6198843 L48.5156222,83.6198843 L48.5156222,83.6198843 C54.9880868,83.6198843 60.2350561,88.8668536 60.2350561,95.3393182 L60.2350561,95.3393182 L60.2350561,95.3393182 C60.2350561,101.811783 54.9880868,107.058752 48.5156222,107.058752 L4.37447882,107.058752 Z" id="Combined-Shape" fill="#FFFFFF"></path>
                    <path d="M24.6972717,60.4399996 C26.914106,57.1898403 29.2673065,54.0404181 31.7486204,51 L112.6731,51 L112.6731,51 C115.279884,51 117.393099,53.1132159 117.393099,55.7199998 L117.393099,55.7199998 C117.393099,58.3267837 115.279884,60.4399996 112.6731,60.4399996 L24.6972717,60.4399996 Z" id="Combined-Shape" fill="#FFFFFF"></path>
                    <path d="M72.7904691,17.0510392 C79.6437761,13.3494331 86.8491105,10.2176968 94.3432289,7.71918162 L162.35472,7.71918162 L162.35472,7.71918162 C164.961504,7.71918162 167.07472,9.8323975 167.07472,12.4391814 L167.07472,12.4391814 C167.07472,15.0459653 164.961504,17.1591812 162.35472,17.1591812 L73.9244459,17.1591812 C73.5379828,17.1591812 73.1587311,17.1221155 72.7904691,17.0510392 Z" id="Combined-Shape" fill="#FFFFFF"></path>
                    <path d="M253.237803,65 C255.983442,69.3909524 258.487009,73.9492901 260.729774,78.6562511 L228.890631,78.6562591 C225.119559,78.6562591 222.062501,75.5992014 222.062501,71.8281296 L222.062501,71.8281296 L222.062501,71.8281296 C222.062501,68.0570577 225.119559,65 228.890631,65 L228.890631,65 L253.237803,65 Z" id="Combined-Shape" fill="#FFFFFF"></path>
                    <path d="M272.669782,156.4399 C271.5753,164.342231 269.806589,172.028609 267.423713,179.438868 L235.719434,179.438868 L235.719434,179.438868 C229.246969,179.438868 224,174.191899 224,167.719434 L224,167.719434 L224,167.719434 C224,161.246969 229.246969,156 235.719434,156 L235.719434,156 L269.477981,156 L269.477981,156 C270.584423,156 271.655053,156.15333 272.669782,156.4399 Z" id="Combined-Shape" fill="#FFFFFF"></path>
                    <path d="M266.223971,183.000001 C265.148832,186.051115 263.968662,189.052567 262.687812,192 L248.5,192 C246.014719,192 244,189.985281 244,187.5 L244,187.5 L244,187.5 C244,185.014719 246.014719,183 248.5,183 L248.5,183 L266.223977,183 Z" id="Combined-Shape" fill="#FFFFFF"></path>
                    <path d="M260.872255,196.000008 C259.667611,198.544187 258.386861,201.045176 257.032949,203.500026 L190.75,203.5 L190.75,203.5 C188.678932,203.5 187,201.821068 187,199.75 L187,199.75 L187,199.75 C187,197.678932 188.678932,196 190.75,196 L190.75,196 L260.872259,196 Z" id="Combined-Shape" fill="#FFFFFF"></path>
                    <path d="M254.148982,208.478249 C247.149068,219.995471 238.49742,230.394541 228.523589,239.345346 L112.56181,239.345346 L112.56181,239.345346 C104.829823,239.345346 98.5618099,233.077333 98.5618099,225.345346 L98.5618099,222.478249 C98.5618099,214.746263 104.829823,208.478249 112.56181,208.478249 L112.56181,208.478249 L254.148982,208.478249 Z" id="Combined-Shape" fill="#FFFFFF"></path>
                    <path d="M137.377375,274.204808 C137.410903,274.204832 137.444434,274.204844 137.477967,274.204844 C165.65336,274.204844 191.834841,265.653328 213.576879,251 L139.719434,251 C133.246969,251 128,256.246969 128,262.719434 L128,262.719434 L128,262.719434 C128,268.389843 132.027151,273.119661 137.377375,274.204808 Z" id="Combined-Shape" fill="#FFFFFF"></path>
                    <path d="M74.8598455,259.000009 C93.6147183,268.716748 114.906528,274.204844 137.477967,274.204844 C149.433207,274.204844 161.029456,272.665202 172.07989,269.773063 C170.622773,263.596701 165.074999,259 158.453607,259 L158.453607,259 L74.8598286,259 Z" id="Combined-Shape" fill="#FFFFFF"></path>
                    <path d="M273.765869,139 C273.925867,140.208274 274.00699,141.425935 274.00699,142.651987 C274.00699,146.058644 273.380689,149.400518 272.1763,152.656259 L217.82813,152.656259 C214.057058,152.656259 211,149.599201 211,145.82813 L211,145.82813 L211,145.82813 C211,142.057058 214.057058,139 217.82813,139 L217.82813,139 L273.765869,139 Z" id="Combined-Shape" fill="#FFFFFF"></path>
                    <rect id="Rectangle-2-Copy-2" fill="#FFFFFF" x="88.0434783" y="153.26087" width="129.634198" height="34.7826087" rx="14"></rect>
                    <path d="M239.813623,47 C244.050526,51.80487 247.955431,56.9104015 251.492369,62.2805661 L184.490557,62.2805661 L184.490557,62.2805661 C180.147614,62.2805661 176.522719,58.9659017 176.135195,54.640283 L176.135195,54.640283 L176.135195,54.640283 C175.78952,50.7817995 178.637214,47.3736556 182.495697,47.0279806 C182.70381,47.0093362 182.912651,47 183.121597,47 L183.121597,47 L239.813623,47 Z" id="Combined-Shape" fill="#FFFFFF"></path>
                    <path d="M48.0010431,110.906478 L141.914144,110.906478 L141.914144,110.906478 C149.64613,110.906478 155.914144,117.174491 155.914144,124.906478 L155.914144,135.971258 L155.914144,135.971258 C155.914144,143.703244 149.64613,149.971258 141.914144,149.971258 L49.10487,149.971258 L49.10487,149.971258 C41.9110783,149.971258 35.8881302,144.519265 35.1740193,137.361005 L34.0701924,126.296225 L34.0701924,126.296225 C33.3026561,118.602429 38.9174994,111.743163 46.6112958,110.975627 C47.0731124,110.929556 47.5369342,110.906478 48.0010431,110.906478 Z" id="Rectangle-2-Copy-12" fill="#FFFFFF"></path>
                    <path d="M141.793399,66 L206.599013,66 L206.599013,66 C210.370086,66 213.427144,69.0570583 213.427144,72.8281308 L213.427144,72.8281308 L213.427144,72.8281308 C213.427144,76.5992033 210.370086,79.6562615 206.599013,79.6562615 L144.275268,79.6562615 L144.275268,79.6562615 C140.256541,79.6562615 136.812942,76.7820901 136.094356,72.8281308 L136.094356,72.8281308 L136.094356,72.8281308 C135.522335,69.6806362 137.610169,66.665373 140.757663,66.093352 C141.099411,66.0312432 141.446053,66 141.793399,66 Z" id="Rectangle-2-Copy-18" fill="#FFFFFF"></path>
                    <path d="M16.8299867,170 L78.2887668,170 L78.2887668,170 C82.0598393,170 85.1168975,173.057058 85.1168975,176.828131 L85.1168975,176.828131 L85.1168975,176.828131 C85.1168975,180.599203 82.0598393,183.656262 78.2887668,183.656262 L19.2058476,183.656262 L19.2058476,183.656262 C15.1996509,183.656262 11.7738884,180.775041 11.087221,176.828131 L11.087221,176.828131 L11.087221,176.828131 C10.5354317,173.656489 12.6592418,170.638051 15.8308837,170.086262 C16.1608217,170.028861 16.4950927,170 16.8299867,170 Z" id="Rectangle-2-Copy-21" fill="#FFFFFF"></path>
                    <path d="M98.2900936,193 L175.286898,193 L175.286898,193 C177.954433,193 180.116898,195.162465 180.116898,197.83 L180.116898,197.83 L180.116898,197.83 C180.116898,200.497535 177.954433,202.66 175.286898,202.66 L101.033311,202.66 L101.033311,202.66 C98.0623348,202.66 95.4523237,200.687973 94.6407253,197.83 L94.6407253,197.83 L94.6407253,197.83 C94.0683725,195.814509 95.2382667,193.716648 97.2537571,193.144295 C97.5908796,193.04856 97.9396415,193 98.2900936,193 Z" id="Rectangle-2-Copy-23" fill="#FFFFFF"></path>
                    <path d="M171.892304,109.328069 L204.970532,109.328069 L204.970532,109.328069 C211.442997,109.328069 216.689966,114.575039 216.689966,121.047503 L216.689966,121.047503 L216.689966,121.047503 C216.689966,127.519968 211.442997,132.766937 204.970532,132.766937 L173.678554,132.766937 L173.678554,132.766937 C167.047652,132.766937 161.535885,127.659234 161.032012,121.047503 L161.032012,121.047503 L161.032012,121.047503 C160.574913,115.04953 165.066679,109.81666 171.064653,109.359561 C171.340037,109.338574 171.616121,109.328069 171.892304,109.328069 Z" id="Rectangle-2-Copy-30" fill="#FFFFFF"></path>
                    <path d="M241.041029,99 L250.839598,99 L250.839598,99 C256.362446,99 260.839598,103.477153 260.839598,109 L260.839598,109 L260.839598,109 C260.839598,114.522847 256.362446,119 250.839598,119 L242.281139,119 L242.281139,119 C236.650122,119 231.990364,114.620224 231.641879,109 L231.641879,109 L231.641879,109 C231.320008,103.808993 235.267223,99.3399221 240.45823,99.018051 C240.652263,99.0060199 240.846623,99 241.041029,99 Z" id="Rectangle-2-Copy-36" fill="#84AEDF"></path>
                    <path d="M167.15352,136 L201.183771,136 L201.183771,136 C204.954843,136 208.011901,139.057058 208.011901,142.82813 L208.011901,142.82813 L208.011901,142.82813 C208.011901,146.599201 204.954843,149.656259 201.183771,149.656259 L168.66108,149.656259 L168.66108,149.656259 C164.750912,149.656259 161.46674,146.714687 161.03769,142.82813 L161.03769,142.82813 L161.03769,142.82813 C160.664817,139.45045 163.100694,136.410026 166.478373,136.037153 C166.702571,136.012403 166.92796,136 167.15352,136 Z" id="Rectangle-2-Copy-32" fill="#84AEDF"></path>
                    <path d="M43.1535199,154 L77.1837714,154 L77.1837714,154 C80.9548432,154 84.011901,157.057058 84.011901,160.82813 L84.011901,160.82813 L84.011901,160.82813 C84.011901,164.599201 80.9548432,167.656259 77.1837714,167.656259 L44.6610801,167.656259 L44.6610801,167.656259 C40.7509122,167.656259 37.4667403,164.714687 37.0376903,160.82813 L37.0376903,160.82813 L37.0376903,160.82813 C36.6648169,157.45045 39.1006936,154.410026 42.478373,154.037153 C42.7025709,154.012403 42.9279601,154 43.1535199,154 Z" id="Rectangle-2-Copy-42" fill="#84AEDF"></path>
                    <path d="M52.8727813,32 L110.485497,32 L110.485497,32 C114.256569,32 117.313627,35.0570577 117.313627,38.8281296 L117.313627,38.8281296 L117.313627,38.8281296 C117.313627,42.5992014 114.256569,45.6562591 110.485497,45.6562591 L55.1268368,45.6562591 L55.1268368,45.6562591 C51.134821,45.6562591 47.7294051,42.7668533 47.0792928,38.8281296 L47.0792928,38.8281296 L47.0792928,38.8281296 C46.5511686,35.6284742 48.7168725,32.6065119 51.9165278,32.0783877 C52.232607,32.0262167 52.5524255,32 52.8727813,32 Z" id="Rectangle-2-Copy-33" fill="#FFFFFF"></path>
                    <path d="M27.1507789,66 L121.17187,66 L121.17187,66 C124.942942,66 128,69.0570577 128,72.8281296 L128,72.8281296 L128,72.8281296 C128,76.5992014 124.942942,79.6562591 121.17187,79.6562591 L30.558543,79.6562591 L30.558543,79.6562591 C26.4229416,79.6562591 22.8184377,76.8406875 21.8171495,72.8281296 L21.8171495,72.8281296 L21.8171495,72.8281296 C21.082088,69.8824474 22.8741502,66.8986151 25.8198323,66.1635536 C26.2551445,66.0549264 26.702118,66 27.1507789,66 Z" id="Rectangle-2-Copy-43" fill="#FFFFFF"></path>
                    <path d="M129.20778,42 L163.892123,42 L163.892123,42 C169.414971,42 173.892123,46.4771525 173.892123,52 L173.892123,52 L173.892123,52 C173.892123,57.5228475 169.414971,62 163.892123,62 L130.936244,62 L130.936244,62 C125.258248,62 120.523625,57.6569101 120.034736,52 L120.034736,52 L120.034736,52 C119.596905,46.9338681 123.348884,42.4720243 128.415016,42.0341929 C128.678656,42.0114082 128.943156,42 129.20778,42 Z" id="Rectangle-2-Copy-35" fill="#FFFFFF"></path>
                    <path d="M183.905835,28 L209.919093,28 L209.919093,28 C214.061228,28 217.419093,31.3578644 217.419093,35.5 L217.419093,35.5 L217.419093,35.5 C217.419093,39.6421356 214.061228,43 209.919093,43 L185.202183,43 L185.202183,43 C180.943686,43 177.392719,39.7426826 177.026052,35.5 L177.026052,35.5 L177.026052,35.5 C176.697679,31.7004011 179.511663,28.3540182 183.311262,28.0256447 C183.508992,28.0085562 183.707367,28 183.905835,28 Z" id="Rectangle-2-Copy-44" fill="#FFFFFF"></path>
                    <path d="M48.796009,227 L90.9199982,227 L90.9199982,227 C93.4052795,227 95.4199982,229.014719 95.4199982,231.5 L95.4199982,231.5 L95.4199982,231.5 C95.4199982,233.985281 93.4052795,236 90.9199982,236 L50.413113,236 L50.413113,236 C47.7668212,236 45.5004851,234.104582 45.0324984,231.5 L45.0324984,231.5 L45.0324984,231.5 C44.6590319,229.421471 46.0412586,227.433735 48.1197881,227.060269 C48.3429623,227.020169 48.5692609,227 48.796009,227 Z" id="Rectangle-2-Copy-45" fill="#FFFFFF"></path>
                    <path d="M118.478892,159 L183.510211,159 L183.510211,159 C189.982676,159 195.229645,164.246969 195.229645,170.719434 L195.229645,170.719434 L195.229645,170.719434 C195.229645,177.191899 189.982676,182.438868 183.510211,182.438868 L121.275982,182.438868 L121.275982,182.438868 C114.542819,182.438868 108.872694,177.40516 108.07485,170.719434 L108.07485,170.719434 L108.07485,170.719434 C107.389149,164.97344 111.491326,159.759521 117.23732,159.07382 C117.64935,159.02465 118.063938,159 118.478892,159 Z" id="Rectangle-2-Copy-31" fill="#84AEDF"></path>
                    <path d="M74.2471354,83.5611322 L109.510211,83.5611322 L109.510211,83.5611322 C115.982676,83.5611322 121.229645,88.8081015 121.229645,95.2805661 L121.229645,95.2805661 L121.229645,95.2805661 C121.229645,101.753031 115.982676,107 109.510211,107 L76.1024822,107 L76.1024822,107 C69.4648827,107 63.9424894,101.897468 63.4187164,95.2805661 L63.4187164,95.2805661 L63.4187164,95.2805661 C62.9453291,89.3001954 67.4096212,84.0683909 73.3899919,83.5950036 C73.675149,83.5724315 73.9610864,83.5611322 74.2471354,83.5611322 Z" id="Rectangle-2-Copy-39" fill="#84AEDF"></path>
                    <path d="M130.665802,25.1718692 L166.39584,25.1718692 L166.39584,25.1718692 C170.166913,25.1718692 173.223971,28.2289275 173.223971,32 L173.223971,32 L173.223971,32 C173.223971,35.7710725 170.166913,38.8281308 166.39584,38.8281308 L132.227147,38.8281308 L132.227147,38.8281308 C128.311372,38.8281308 125.018661,35.8904307 124.573861,32 L124.573861,32 L124.573861,32 C124.189193,28.6355139 126.604813,25.596224 129.969299,25.2115562 C130.200525,25.1851197 130.433069,25.1718692 130.665802,25.1718692 Z" id="Rectangle-2-Copy-40" fill="#84AEDF"></path>
                    <path d="M40.7932124,200 L81.2739976,200 L81.2739976,200 C87.7464622,200 92.9934315,205.246969 92.9934315,211.719434 L92.9934315,211.719434 L92.9934315,211.719434 C92.9934315,218.191899 87.7464622,223.438868 81.2739976,223.438868 L42.8135831,223.438868 L42.8135831,223.438868 C36.1598152,223.438868 30.6119257,218.34862 30.0405067,211.719434 L30.0405067,211.719434 L30.0405067,211.719434 C29.5286184,205.780879 33.9278012,200.551761 39.8663566,200.039872 C40.1745942,200.013303 40.4838318,200 40.7932124,200 Z" id="Rectangle-2-Copy-38" fill="#84AEDF"></path>
                    <path d="M161.797813,210 L204.273431,210 L204.273431,210 C210.193924,210 214.993431,214.799508 214.993431,220.72 L214.993431,220.72 L214.993431,220.72 C214.993431,226.640493 210.193924,231.440001 204.273431,231.440001 L163.818184,231.440001 L163.818184,231.440001 C157.714695,231.440001 152.613124,226.796569 152.040507,220.72 L152.040507,220.72 L152.040507,220.72 C151.532699,215.331189 155.489534,210.551034 160.878346,210.043227 C161.183989,210.014425 161.490816,210 161.797813,210 Z" id="Rectangle-2-Copy-41" fill="#84AEDF"></path>
                    <path d="M137.478892,83.5611322 L202.510211,83.5611322 L202.510211,83.5611322 C208.982676,83.5611322 214.229645,88.8081015 214.229645,95.2805661 L214.229645,95.2805661 L214.229645,95.2805661 C214.229645,101.753031 208.982676,107 202.510211,107 L140.275982,107 L140.275982,107 C133.542819,107 127.872694,101.966292 127.07485,95.2805661 L127.07485,95.2805661 L127.07485,95.2805661 C126.389149,89.5345724 130.491326,84.3206534 136.23732,83.6349521 C136.64935,83.5857823 137.063938,83.5611322 137.478892,83.5611322 Z" id="Rectangle-2-Copy-37" fill="#FFFFFF"></path>
                </g>
                <path d="M38.2829566,43 C15.1632426,67.6018248 1,100.718423 1,137.143024 C1,213.082177 62.5608469,274.643024 138.5,274.643024 C166.036009,274.643024 191.681511,266.548803 213.187002,252.609866 C83.4806413,213.126997 47.1870888,132.357255 39.5152798,52.600028 C39.1778351,49.0919037 38.7670606,45.8918943 38.2829566,43 Z" id="Combined-Shape" fill="#000000" opacity="0.325747283"></path>
            </g>
        </g>
    </g>
</svg>