<?xml version="1.0" encoding="UTF-8"?>
<svg width="100px" height="99px" viewBox="0 0 100 99" version="1.1" xmlns="http://www.w3.org/2000/svg" xmlns:xlink="http://www.w3.org/1999/xlink">
    <!-- Generator: Sketch 51.2 (57519) - http://www.bohemiancoding.com/sketch -->
    <title>Group 2</title>
    <desc>Created with Sketch.</desc>
    <defs>
        <filter x="-8.3%" y="-15.7%" width="116.7%" height="129.6%" filterUnits="objectBoundingBox" id="filter-1">
            <feOffset dx="0" dy="0" in="SourceAlpha" result="shadowOffsetOuter1"></feOffset>
            <feGaussianBlur stdDeviation="2.5" in="shadowOffsetOuter1" result="shadowBlurOuter1"></feGaussianBlur>
            <feColorMatrix values="0 0 0 0 0.635441452   0 0 0 0 0.800624869   0 0 0 0 0.993223852  0 0 0 1 0" type="matrix" in="shadowBlurOuter1" result="shadowMatrixOuter1"></feColorMatrix>
            <feMerge>
                <feMergeNode in="shadowMatrixOuter1"></feMergeNode>
                <feMergeNode in="SourceGraphic"></feMergeNode>
            </feMerge>
        </filter>
        <linearGradient x1="50%" y1="0%" x2="50%" y2="100%" id="linearGradient-2">
            <stop stop-color="#EFF7E5" offset="0%"></stop>
            <stop stop-color="#B8E986" offset="100%"></stop>
        </linearGradient>
        <linearGradient x1="69.6575704%" y1="-17.112835%" x2="50%" y2="68.7773714%" id="linearGradient-3">
            <stop stop-color="#000000" offset="0%"></stop>
            <stop stop-color="#B8E986" offset="100%"></stop>
        </linearGradient>
        <linearGradient x1="88.9749644%" y1="0%" x2="50%" y2="115.165304%" id="linearGradient-4">
            <stop stop-color="#232323" offset="0%"></stop>
            <stop stop-color="#B8E986" offset="100%"></stop>
        </linearGradient>
        <linearGradient x1="76.9100347%" y1="0%" x2="50%" y2="100%" id="linearGradient-5">
            <stop stop-color="#31352C" offset="0%"></stop>
            <stop stop-color="#B3E283" offset="100%"></stop>
        </linearGradient>
    </defs>
    <g id="Page-1" stroke="none" stroke-width="1" fill="none" fill-rule="evenodd">
        <g id="schueler_01" transform="translate(-1239.000000, -734.000000)">
            <g id="Group-2" transform="translate(1240.000000, 734.000000)">
                <circle id="Oval-5" fill="#000948" fill-rule="nonzero" cx="49.5" cy="49.5" r="49.5"></circle>
                <g id="Group-5" filter="url(#filter-1)" transform="translate(4.000000, 18.000000)">
                    <rect id="Rectangle-8" stroke="#000000" stroke-width="2" fill="#606060" x="43.6554426" y="12.241015" width="3.079683" height="7.31275216"></rect>
                    <path d="M40.4952486,45.6822614 L41.9971946,52.9950135 L48.7616361,52.9950135 L50.3108437,45.6822614 L40.4952486,45.6822614 Z" id="Rectangle-8-Copy-6" stroke="#000000" stroke-width="2" fill="#E5DB66"></path>
                    <polygon id="Rectangle-8-Copy-10" fill="#FFFBC9" points="43.2169596 46.6128659 49 46.6128659 48.070585 51 44.118021 51"></polygon>
                    <rect id="Rectangle-8-Copy-5" stroke="#000000" stroke-width="2" fill="#A6A6A6" x="38.9990665" y="18.1673118" width="12.3924352" height="30.1713256" rx="4"></rect>
                    <path d="M32.1893043,0.504955884 C32.1893043,7.6879602 38.0122798,13.5109357 45.1952841,13.5109357 C52.3782884,13.5109357 58.2012639,7.6879602 58.2012639,0.504955884 L32.1893043,0.504955884 Z" id="Oval-17" stroke="#000000" stroke-width="2" fill="url(#linearGradient-2)"></path>
                    <path d="M32.1893043,0.504955884 C32.1893043,7.6879602 38.0122798,13.5109357 45.1952841,13.5109357 C47.9603325,13.5109357 50.5238502,12.64808 52.6312646,11.176941 C52.6312646,11.176941 46.1727239,12.3211908 40.3044669,8.57518018 C36.3922955,6.07783974 33.6872413,3.38776498 32.1893043,0.504955884 Z" id="Oval-17-Copy" fill="#000000" opacity="0.173772321"></path>
                    <rect id="Rectangle-8-Copy-4" stroke="#000000" stroke-width="2" fill="#A6A6A6" x="24.6066313" y="31.2898262" width="44.9870677" height="3.92629683"></rect>
                    <rect id="Rectangle-8-Copy-3" stroke="#000000" stroke-width="2" fill="url(#linearGradient-3)" x="36.0359181" y="21.977074" width="18.318732" height="22.9751081" rx="3"></rect>
                    <path d="M37,25 C38.2812543,31.1256102 40.2044836,35.7432908 42.7696879,38.8530419 C45.3348922,41.9627931 48.8621258,43.9526106 53.3513887,44.8224947 L37,44.8224947 L37,25 Z" id="Rectangle-8-Copy-7" fill="#4B4B4B" opacity="0.504352679"></path>
                    <rect id="Rectangle-8-Copy" stroke="#000000" stroke-width="2" fill="url(#linearGradient-4)" x="1" y="22.8236879" width="26.7848703" height="20.0119597" rx="4"></rect>
                    <rect id="Rectangle-8-Copy-2" stroke="#000000" stroke-width="2" fill="url(#linearGradient-5)" x="61.85764" y="22.8236879" width="26.7848703" height="20.0119597" rx="4"></rect>
                    <path d="M62.8767716,24 C64.478553,29.5075639 66.88291,33.6593414 70.0898428,36.4553327 C73.2967756,39.251324 77.7064054,41.040378 83.318732,41.8224947 L62.8767716,41.8224947 L62.8767716,24 Z" id="Rectangle-8-Copy-8" fill="#4B4B4B" opacity="0.504352679"></path>
                    <path d="M1.59467169,24 C3.18679715,29.5075639 5.57666025,33.6593414 8.76426101,36.4553327 C11.9518618,39.251324 16.3349093,41.040378 21.9134037,41.8224947 L1.59467169,41.8224947 L1.59467169,24 Z" id="Rectangle-8-Copy-9" fill="#4B4B4B" opacity="0.504352679"></path>
                </g>
            </g>
        </g>
    </g>
</svg>