<?xml version="1.0" encoding="UTF-8"?>
<svg width="276px" height="276px" viewBox="0 0 276 276" version="1.1" xmlns="http://www.w3.org/2000/svg" xmlns:xlink="http://www.w3.org/1999/xlink">
    <!-- Generator: Sketch 51.2 (57519) - http://www.bohemiancoding.com/sketch -->
    <title>Group 2</title>
    <desc>Created with Sketch.</desc>
    <defs></defs>
    <g id="Page-1" stroke="none" stroke-width="1" fill="none" fill-rule="evenodd">
        <g id="Artboard-Copy-33" transform="translate(-112.000000, -113.000000)">
            <g id="Group-2" transform="translate(112.000000, 113.000000)">
                <g id="Group" transform="translate(138.000000, 138.000000) rotate(-180.000000) translate(-138.000000, -138.000000) ">
                    <ellipse id="Oval-3" fill="#D29055" cx="138.265785" cy="138" rx="137.265785" ry="138"></ellipse>
                    <ellipse id="Oval-3-Copy-2" fill="#D29055" cx="138.265785" cy="138" rx="137.265785" ry="138"></ellipse>
                    <ellipse id="Oval-3-Copy-6" fill="#D29055" cx="138.265785" cy="138" rx="137.265785" ry="138"></ellipse>
                    <ellipse id="Oval-3-Copy-4" fill="#D29055" cx="138.265785" cy="138" rx="137.265785" ry="138"></ellipse>
                    <ellipse id="Oval-3-Copy-12" fill="#D29055" cx="138.265785" cy="138" rx="137.265785" ry="138"></ellipse>
                    <ellipse id="Oval-3-Copy-11" fill="#D29055" cx="138.265785" cy="138" rx="137.265785" ry="138"></ellipse>
                    <ellipse id="Oval-3-Copy-10" fill="#D29055" cx="138.265785" cy="138" rx="137.265785" ry="138"></ellipse>
                    <ellipse id="Oval-3-Copy-8" fill="#D29055" cx="138.265785" cy="138" rx="137.265785" ry="138"></ellipse>
                    <ellipse id="Oval-3-Copy-20" fill="#D29055" cx="138.265785" cy="138" rx="137.265785" ry="138"></ellipse>
                    <ellipse id="Oval-3-Copy-19" fill="#D29055" cx="138.265785" cy="138" rx="137.265785" ry="138"></ellipse>
                    <ellipse id="Oval-3-Copy-18" fill="#D29055" cx="138.265785" cy="138" rx="137.265785" ry="138"></ellipse>
                    <ellipse id="Oval-3-Copy-17" fill="#D29055" cx="138.265785" cy="138" rx="137.265785" ry="138"></ellipse>
                    <ellipse id="Oval-3-Copy-16" fill="#FFD55A" cx="138.265785" cy="138" rx="137.265785" ry="138"></ellipse>
                    <path d="M68.7894758,256.585921 C61.9523919,252.575295 55.4934311,247.984258 49.4794257,242.88 L120.019566,242.88 C123.804351,242.88 126.872525,245.948174 126.872525,249.732959 C126.872525,253.517744 123.804351,256.585918 120.019566,256.585918 L68.7894717,256.585918 Z" id="Combined-Shape" fill="#FFEEDF"></path>
                    <path d="M1.06417681,133.233972 C1.21303407,128.829052 1.56839711,124.476802 2.12083915,120.186699 L130.578064,120.186699 C134.180968,120.186699 137.1017,123.107431 137.1017,126.710335 C137.1017,130.31324 134.180968,133.233972 130.578064,133.233972 L1.06417681,133.233972 Z" id="Combined-Shape" fill="#FBB900"></path>
                    <path d="M4.39777332,168.610909 C2.16389341,158.761176 0.98413631,148.508116 0.98413631,137.978035 C0.98413631,137.81802 0.984408739,137.658069 0.984953154,137.498182 L19.0623907,137.498182 C26.7943772,137.498182 33.0623907,143.766195 33.0623907,151.498182 L33.0623907,154.610909 C33.0623907,162.342896 26.7943772,168.610909 19.0623907,168.610909 L4.39777332,168.610909 Z" id="Combined-Shape" fill="#FBB900"></path>
                    <path d="M14.3983544,197.375136 C13.1925435,194.854305 12.061098,192.290727 11.0068776,189.687275 L81.2829516,189.687273 C83.405894,189.687273 85.1268788,191.408258 85.1268788,193.5312 C85.1268788,195.654142 83.405894,197.375127 81.2829516,197.375127 L14.3983504,197.375127 Z" id="Combined-Shape" fill="#FBB900"></path>
                    <path d="M273.769661,119.432666 C274.458293,124.585289 274.86052,129.828532 274.959804,135.145859 L185.862115,135.145859 C181.523037,135.145859 178.005519,131.628341 178.005519,127.289262 C178.005519,122.950184 181.523037,119.432666 185.862115,119.432666 L273.769661,119.432666 Z" id="Combined-Shape" fill="#FBB900"></path>
                    <path d="M2.8101728,115.477122 C4.13962654,107.374413 6.17511383,99.511047 8.85098888,91.9530217 L61.9087,91.9530224 C68.4047008,91.9530224 73.67075,97.2190715 73.67075,103.715072 C73.67075,110.211073 68.4047008,115.477122 61.9087,115.477122 L2.8101728,115.477122 Z" id="Combined-Shape" fill="#FBB900"></path>
                    <path d="M1.27264854,146.972311 C1.08129682,143.999024 0.98413631,140.999937 0.98413631,137.978035 C0.98413631,137.817954 0.984408963,137.657937 0.984953827,137.497984 L161.246973,137.497984 C163.863236,137.497984 165.984136,139.618885 165.984136,142.235148 C165.984136,144.851411 163.863236,146.972311 161.246973,146.972311 L1.27264854,146.972311 Z" id="Combined-Shape" fill="#FBB900"></path>
                    <path d="M59.7986827,25.1285529 C63.0314162,22.875201 66.3656329,20.7586368 69.7930478,18.7871897 L153.457923,18.7871927 C156.074186,18.7871927 158.195086,20.908093 158.195086,23.5243562 C158.195086,26.1406193 156.074186,28.2615196 153.457923,28.2615196 L65.0615968,28.2615196 C62.8218517,28.2615196 60.8238237,27.0199712 59.7986827,25.1285529 Z" id="Combined-Shape" fill="#FFEEDF"></path>
                    <path d="M261.819206,81.2942262 C263.82812,85.741152 265.607947,90.3148682 267.143537,95.0001444 L204.91546,95.0001444 C201.130675,95.0001444 198.062501,91.9319701 198.062501,88.1471853 C198.062501,84.3624005 201.130675,81.2942262 204.91546,81.2942262 L261.819206,81.2942262 Z" id="Combined-Shape" fill="#FBB900"></path>
                    <path d="M272.668613,157.017243 C271.574041,164.945331 269.805741,172.656816 267.423713,180.091373 L235.76205,180.091373 C229.266049,180.091373 224,174.825324 224,168.329323 C224,161.833322 229.266049,156.567273 235.76205,156.567273 L269.435365,156.567273 C270.556682,156.567273 271.641351,156.724182 272.668613,157.017243 Z" id="Combined-Shape" fill="#FBB900"></path>
                    <path d="M266.223971,183.665455 C265.148832,186.727664 263.968662,189.740031 262.687812,192.698182 L225.516364,192.698182 C223.022045,192.698182 221,190.676137 221,188.181818 C221,185.687499 223.022045,183.665455 225.516364,183.665455 L266.223977,183.665455 Z" id="Combined-Shape" fill="#FBB900"></path>
                    <path d="M260.872255,196.712735 C259.667611,199.266165 258.386861,201.77625 257.032949,204.240026 L190.763636,204.24 C188.685037,204.24 187,202.554963 187,200.476364 C187,198.397765 188.685037,196.712727 190.763636,196.712727 L260.872259,196.712727 Z" id="Combined-Shape" fill="#FFEEDF"></path>
                    <path d="M254.148982,209.236352 C247.149068,220.795454 238.49742,231.232339 228.523589,240.215693 L112.56181,240.215693 C104.829823,240.215693 98.5618099,233.947679 98.5618099,226.215693 L98.5618099,223.236352 C98.5618099,215.504366 104.829823,209.236352 112.56181,209.236352 L254.148982,209.236352 Z" id="Combined-Shape" fill="#FBB900"></path>
                    <path d="M137.411576,275.201937 C132.041846,274.112883 128,269.365842 128,263.674777 C128,257.178776 133.266049,251.912727 139.76205,251.912727 L213.576879,251.912727 C191.834841,266.61934 165.65336,275.201952 137.477967,275.201952 C137.455835,275.201952 137.433705,275.201947 137.411576,275.201937 Z" id="Combined-Shape" fill="#FFEEDF"></path>
                    <path d="M74.8598286,259.941818 L158.453607,259.941818 C165.088179,259.941818 170.644855,264.556838 172.088542,270.751783 C161.03551,273.655905 149.436327,275.201952 137.477967,275.201952 C114.906528,275.201952 93.6147183,269.6939 74.8598455,259.941827 Z" id="Combined-Shape" fill="#FFEEDF"></path>
                    <rect id="Combined-Shape" fill="#FBB900" x="211" y="137.498182" width="57.847518" height="13.7059182" rx="6.85295912"></rect>
                    <path d="M251.307086,62.2254545 C254.540086,67.1257677 257.468379,72.2469141 260.064793,77.5615762 L199.518229,77.5615863 C195.159989,77.5615863 191.522687,74.2345008 191.135195,69.8935204 C190.789408,66.0197538 193.649401,62.59913 197.523167,62.2533432 C197.731351,62.23476 197.940258,62.2254545 198.14927,62.2254545 L251.307086,62.2254545 Z" id="Combined-Shape" fill="#FBB900"></path>
                    <path d="M61.3197581,56.3761306 L171.152558,56.3761306 C174.937344,56.3761306 178.005519,59.4443054 178.005519,63.2290909 L178.005519,63.2290909 C178.005519,67.0138764 174.937344,70.0820512 171.152558,70.0820512 L65.2305531,70.0820512 C61.0126136,70.0820512 57.3060198,67.2851456 56.1486807,63.2290909 L56.1486807,63.2290909 C55.333787,60.3731837 56.9883554,57.3974117 59.8442626,56.582518 C60.3241356,56.4455929 60.8207324,56.3761306 61.3197581,56.3761306 Z" id="Rectangle-2-Copy-18" fill="#FFEEDF"></path>
                    <path d="M16.7179737,170.618182 L89.7239191,170.618182 C93.5087045,170.618182 96.5768794,173.686357 96.5768794,177.471142 L96.5768794,177.471142 C96.5768794,181.255928 93.5087045,184.324102 89.7239191,184.324102 L19.461191,184.324102 C15.3973241,184.324102 11.8982655,181.455978 11.1007072,177.471142 L11.1007072,177.471142 C10.4797809,174.368812 12.4913565,171.350515 15.5936871,170.729589 C15.963863,170.655499 16.3404561,170.618182 16.7179737,170.618182 Z" id="Rectangle-2-Copy-21" fill="#FBB900"></path>
                    <path d="M98.3069915,193.701818 L175.269334,193.701818 C177.946569,193.701818 180.116898,195.872146 180.116898,198.549382 L180.116898,198.549382 C180.116898,201.226617 177.946569,203.396945 175.269334,203.396945 L101.050209,203.396945 C98.0698309,203.396945 95.4521612,201.417173 94.6407253,198.549382 L94.6407253,198.549382 C94.0678057,196.524559 95.2448058,194.418672 97.2696286,193.845753 C97.6071426,193.750254 97.9562271,193.701818 98.3069915,193.701818 Z" id="Rectangle-2-Copy-23" fill="#FFEEDF"></path>
                    <path d="M148.384424,119.432727 L167.225294,119.432727 C171.01008,119.432727 174.078254,122.500902 174.078254,126.285688 L174.078254,126.285688 C174.078254,130.070473 171.01008,133.138648 167.225294,133.138648 L149.413072,133.138648 C145.537171,133.138648 142.316591,130.150719 142.026515,126.285688 L142.026515,126.285688 C141.762981,122.774311 144.395878,119.714142 147.907255,119.450608 C148.066032,119.438692 148.2252,119.432727 148.384424,119.432727 Z" id="Rectangle-2-Copy-30" fill="#FBB900"></path>
                    <path d="M237.897397,98.3563636 L253.547345,98.3563636 C258.258836,98.3563636 262.078254,102.175782 262.078254,106.887273 L262.078254,106.887273 C262.078254,111.598764 258.258836,115.418182 253.547345,115.418182 L239.258996,115.418182 C234.426224,115.418182 230.404617,111.704728 230.020165,106.887273 L230.020165,106.887273 C229.672981,102.536798 232.918289,98.728592 237.268764,98.3814075 C237.477893,98.3647182 237.687604,98.3563636 237.897397,98.3563636 Z" id="Rectangle-2-Copy-36" fill="#FBB900"></path>
                    <path d="M175.287018,137.498182 L200.809372,137.498182 C204.594157,137.498182 207.662331,140.566356 207.662331,144.351141 L207.662331,144.351141 C207.662331,148.135926 204.594157,151.2041 200.809372,151.2041 L176.526986,151.2041 C172.630377,151.2041 169.377145,148.231901 169.026055,144.351141 L169.026055,144.351141 C168.713226,140.893307 171.262757,137.83658 174.720592,137.523752 C174.90892,137.506714 175.097921,137.498182 175.287018,137.498182 Z" id="Rectangle-2-Copy-32" fill="#FBB900"></path>
                    <path d="M63.1782001,154.56 L97.1589418,154.56 C100.943727,154.56 104.011901,157.628174 104.011901,161.412959 L104.011901,161.412959 C104.011901,165.197744 100.943727,168.265918 97.1589418,168.265918 L64.6857602,168.265918 C60.7619426,168.265918 57.4666968,165.313254 57.0376903,161.412959 L57.0376903,161.412959 C56.6646687,158.021649 59.1114748,154.970056 62.5027847,154.597034 C62.7270779,154.572363 62.9525542,154.56 63.1782001,154.56 Z" id="Rectangle-2-Copy-42" fill="#FBB900"></path>
                    <path d="M52.8972805,38.1381818 L110.460668,38.1381818 C114.245453,38.1381818 117.313627,41.2063561 117.313627,44.9911409 L117.313627,44.9911409 C117.313627,48.7759258 114.245453,51.8441001 110.460668,51.8441001 L55.1513361,51.8441001 C51.1457497,51.8441001 47.729314,48.9436331 47.0792928,44.9911409 L47.0792928,44.9911409 C46.5508569,41.777955 48.7272768,38.7447713 51.9404627,38.2163353 C52.2567474,38.1643196 52.5767471,38.1381818 52.8972805,38.1381818 Z" id="Rectangle-2-Copy-33" fill="#FFEEDF"></path>
                    <path d="M27.1748723,73.2654545 L121.147041,73.2654545 C124.931826,73.2654545 128,76.3336289 128,80.1184137 L128,80.1184137 C128,83.9031985 124.931826,86.9713728 121.147041,86.9713728 L30.5826364,86.9713728 C26.4336484,86.9713728 22.8182515,84.1448136 21.8171495,80.1184137 L21.8171495,80.1184137 C21.0814429,77.1594251 22.883769,74.1642828 25.8427576,73.4285762 C26.2785101,73.3202331 26.7258528,73.2654545 27.1748723,73.2654545 Z" id="Rectangle-2-Copy-43" fill="#FFEEDF"></path>
                    <path d="M143.949904,73.8286265 L179.130073,73.8286265 C185.626074,73.8286265 190.892123,79.0946758 190.892123,85.5906769 L190.892123,85.5906769 C190.892123,92.0866779 185.626074,97.3527273 179.130073,97.3527273 L145.80532,97.3527273 C139.144233,97.3527273 133.602786,92.2311413 133.079033,85.5906769 L133.079033,85.5906769 C132.605494,79.5868605 137.08867,74.3359266 143.092486,73.8623876 C143.377739,73.8398889 143.663766,73.8286265 143.949904,73.8286265 Z" id="Rectangle-2-Copy-35" fill="#FBB900"></path>
                    <path d="M183.933007,37.1345455 L209.89182,37.1345455 C214.049018,37.1345455 217.419093,40.5046202 217.419093,44.6618182 L217.419093,44.6618182 C217.419093,48.8190161 214.049018,52.1890909 209.89182,52.1890909 L185.229355,52.1890909 C180.955837,52.1890909 177.392688,48.9195791 177.026052,44.6618182 L177.026052,44.6618182 C176.697576,40.8472127 179.523643,37.4885815 183.338248,37.1601055 C183.536043,37.1430733 183.734479,37.1345455 183.933007,37.1345455 Z" id="Rectangle-2-Copy-44" fill="#FFEEDF"></path>
                    <path d="M48.8121156,227.825455 L90.9036345,227.825455 C93.3979533,227.825455 95.4199982,229.847499 95.4199982,232.341818 L95.4199982,232.341818 C95.4199982,234.836137 93.3979533,236.858182 90.9036345,236.858182 L50.4292196,236.858182 C47.7740019,236.858182 45.5004153,234.955481 45.0324984,232.341818 L45.0324984,232.341818 C44.6587925,230.254393 46.0480363,228.259252 48.1354613,227.885547 C48.3587944,227.845564 48.5852318,227.825455 48.8121156,227.825455 Z" id="Rectangle-2-Copy-45" fill="#FFEEDF"></path>
                    <path d="M147.201067,78.2836364 L179.375584,78.2836364 C183.160368,78.2836364 186.228543,81.3518107 186.228543,85.1365955 L186.228543,85.1365955 C186.228543,88.9213803 183.160368,91.9895546 179.375584,91.9895546 L148.651478,91.9895546 C144.733564,91.9895546 141.447355,89.0327542 141.035049,85.1365955 L141.035049,85.1365955 C140.674677,81.7311973 143.143158,78.6784376 146.548556,78.3180658 C146.765304,78.2951288 146.98311,78.2836364 147.201067,78.2836364 Z" id="Rectangle-2-Copy-46" fill="#CC9704"></path>
                    <path d="M187.708158,122.443636 L222.879161,122.443636 C225.833543,122.443636 228.228543,124.838636 228.228543,127.793018 L228.228543,127.793018 C228.228543,130.7474 225.833543,133.1424 222.879161,133.1424 L189.158569,133.1424 C186.066529,133.1424 183.450431,130.85703 183.035049,127.793018 L183.035049,127.793018 C182.685163,125.212131 184.493747,122.83627 187.074634,122.486384 C187.284609,122.457918 187.496263,122.443636 187.708158,122.443636 Z" id="Rectangle-2-Copy-51" fill="#CC9704"></path>
                    <path d="M239.382742,161.585455 L258.225295,161.585455 C262.01008,161.585455 265.078254,164.653629 265.078254,168.438414 L265.078254,168.438414 C265.078254,172.223198 262.01008,175.291373 258.225295,175.291373 L240.411443,175.291373 C236.535537,175.291373 233.314949,172.303448 233.024858,168.438414 L233.024858,168.438414 C232.761312,164.927051 235.394187,161.866883 238.905549,161.603337 C239.064334,161.59142 239.22351,161.585455 239.382742,161.585455 Z" id="Rectangle-2-Copy-47" fill="#CC9704"></path>
                    <path d="M87.9053279,91.3309091 L123.083304,91.3309091 C129.579304,91.3309091 134.845354,96.5969583 134.845354,103.092959 L134.845354,103.092959 C134.845354,109.58896 129.579304,114.855009 123.083304,114.855009 L89.7606747,114.855009 C83.0995943,114.855009 77.5581585,109.733418 77.0344252,103.092959 L77.0344252,103.092959 C76.5609026,97.0891253 81.0441056,91.8381904 87.0479394,91.3646678 C87.333182,91.3421707 87.6191995,91.3309091 87.9053279,91.3309091 Z" id="Rectangle-2-Copy-39" fill="#FBB900"></path>
                    <path d="M129.156862,38.1381818 L164.837402,38.1381818 C168.622187,38.1381818 171.690362,41.2063567 171.690362,44.9911422 L171.690362,44.9911422 C171.690362,48.7759276 168.622187,51.8441025 164.837402,51.8441025 L130.718208,51.8441025 C126.788787,51.8441025 123.485005,48.8953119 123.040252,44.9911422 L123.040252,44.9911422 C122.655426,41.6130315 125.081962,38.5625684 128.460073,38.1777422 C128.691401,38.1513898 128.924038,38.1381818 129.156862,38.1381818 Z" id="Rectangle-2-Copy-40" fill="#FBB900"></path>
                    <path d="M96.7861759,95.3454545 L119.143548,95.3454545 C123.855039,95.3454545 127.674457,99.1648726 127.674457,103.876364 L127.674457,103.876364 C127.674457,108.587855 123.855039,112.407273 119.143548,112.407273 L98.4272429,112.407273 C93.5667771,112.407273 89.5017797,108.714501 89.0364302,103.876364 L89.0364302,103.876364 C88.624758,99.5962973 91.7607111,95.7928917 96.0407775,95.3812196 C96.2885291,95.3573899 96.5372809,95.3454545 96.7861759,95.3454545 Z" id="Rectangle-2-Copy-48" fill="#FBB900"></path>
                    <path d="M98.2337108,98.3563636 L119.220486,98.3563636 C122.452014,98.3563636 125.071686,100.976035 125.071686,104.207564 L125.071686,104.207564 C125.071686,107.439092 122.452014,110.058763 119.220486,110.058763 L99.5948823,110.058763 C96.2369193,110.058763 93.411616,107.543039 93.0236482,104.207564 L93.0236482,104.207564 C92.6889574,101.330125 94.7502613,98.7261804 97.6276994,98.3914895 C97.8288557,98.3680919 98.0311983,98.3563636 98.2337108,98.3563636 Z" id="Rectangle-2-Copy-50" fill="#CC9704"></path>
                    <path d="M40.8356717,200.727273 L81.2313814,200.727273 C87.7273823,200.727273 92.9934315,205.993322 92.9934315,212.489323 L92.9934315,212.489323 C92.9934315,218.985324 87.7273823,224.251373 81.2313814,224.251373 L42.8560424,224.251373 C36.178804,224.251373 30.6118789,219.14207 30.0405067,212.489323 L30.0405067,212.489323 C29.5284591,206.527318 33.9465224,201.279061 39.9085274,200.767014 C40.2168661,200.740532 40.5261978,200.727273 40.8356717,200.727273 Z" id="Rectangle-2-Copy-38" fill="#FBB900"></path>
                    <path d="M117.901993,213.763636 L204.234449,213.763636 C210.176471,213.763636 214.993431,218.580597 214.993431,224.522618 L214.993431,224.522618 C214.993431,230.46464 210.176471,235.281601 204.234449,235.281601 L121.312853,235.281601 C115.038855,235.281601 109.696356,230.719251 108.714114,224.522618 L108.714114,224.522618 C107.909771,219.448293 111.371276,214.682691 116.445602,213.878348 C116.927308,213.801992 117.414273,213.763636 117.901993,213.763636 Z" id="Rectangle-2-Copy-41" fill="#CC9704"></path>
                    <path d="M142.712454,101.149088 L217.418622,101.149088 C221.203407,101.149088 224.271582,104.217263 224.271582,108.002049 L224.271582,108.002049 C224.271582,111.786834 221.203407,114.855009 217.418622,114.855009 L145.509544,114.855009 C141.439031,114.855009 137.930717,111.990356 137.116787,108.002049 L137.116787,108.002049 C136.486101,104.911648 138.480095,101.89511 141.570496,101.264425 C141.94631,101.187729 142.328894,101.149088 142.712454,101.149088 Z" id="Rectangle-2-Copy-37" fill="#FBB900"></path>
                </g>
                <path d="M38.2829566,43.1563636 C38.7670606,46.0632467 39.1778351,49.2798418 39.5152798,52.8061489 C47.1870888,132.97676 83.4806413,214.165133 213.187006,253.85264 C191.681511,267.863826 166.036009,276 138.5,276 C62.5608469,276 1,214.120082 1,137.787334 C1,101.173943 15.1632426,67.8857004 38.2829566,43.1563636 Z" id="Combined-Shape" fill="#000000" opacity="0.325747283"></path>
            </g>
        </g>
    </g>
</svg>