<?xml version="1.0" encoding="UTF-8"?>
<svg width="274px" height="275px" viewBox="0 0 274 275" version="1.1" xmlns="http://www.w3.org/2000/svg" xmlns:xlink="http://www.w3.org/1999/xlink">
    <!-- Generator: Sketch 47.1 (45422) - http://www.bohemiancoding.com/sketch -->
    <title>Group Copy</title>
    <desc>Created with Sketch.</desc>
    <defs></defs>
    <g id="Page-1" stroke="none" stroke-width="1" fill="none" fill-rule="evenodd">
        <g id="Artboard-Copy" transform="translate(-113.000000, -113.000000)">
            <g id="Group-Copy" transform="translate(113.000000, 113.000000)">
                <ellipse id="Oval-3" fill="#F8E71C" cx="137.477967" cy="137.478115" rx="136.493831" ry="136.726729"></ellipse>
                <path d="M249.107488,216.17755 C243.94644,223.509668 238.083664,230.310608 231.617018,236.482346 L207.371608,236.482346 C200.899143,236.482346 195.652174,231.235377 195.652174,224.762912 L195.652174,224.762912 L195.652174,224.762912 C195.652174,218.290448 200.899143,213.043478 207.371608,213.043478 L207.371608,213.043478 L241.130155,213.043478 L241.130155,213.043478 C244.211722,213.043478 247.015501,214.232836 249.107488,216.17755 Z" id="Combined-Shape" fill="#FFFFFF"></path>
                <path d="M223.97119,243.254659 C218.659309,247.618142 213.012838,251.588021 207.076182,255.119814 L139,255.119812 L139,255.119812 C131.268014,255.119812 125,248.851799 125,241.119812 L125,238.252717 L125,238.252717 C125,230.520731 131.268014,224.252717 139,224.252717 L139,224.252717 L210.132924,224.252717 C217.86491,224.252717 224.132924,230.520731 224.132924,238.252717 L224.132924,241.119812 C224.132924,241.845655 224.077687,242.558597 223.971186,243.254662 Z" id="Combined-Shape" fill="#F5D623"></path>
                <path d="M273.734472,129.347826 C273.891952,132.037764 273.971798,134.748599 273.971798,137.478115 C273.971798,145.062236 273.355356,152.502134 272.169923,159.750275 L225.956522,159.750275 L225.956522,159.750275 C218.224535,159.750275 211.956522,153.482261 211.956522,145.750275 L211.956522,143.347826 L211.956522,143.347826 C211.956522,135.61584 218.224535,129.347826 225.956522,129.347826 L225.956522,129.347826 L273.734472,129.347826 Z" id="Combined-Shape" fill="#FFED1A"></path>
                <path d="M267.094402,94.5068569 C271.168302,106.843735 273.535895,119.958824 273.917157,133.571622 L166.339861,133.571637 C158.607874,133.571637 152.339861,127.303623 152.339861,119.571637 L152.339861,108.506857 C152.339861,100.774871 158.607874,94.5068573 166.339861,94.5068573 L166.339861,94.5068573 L267.094406,94.5068573 Z" id="Combined-Shape" fill="#F5D623"></path>
                <path d="M241.64727,49.1227333 C255.567981,65.5746003 265.674239,85.3676367 270.597905,107.131369 L270.597905,120.550044 L217.677676,97.0828318 C229.253622,95.3920983 234.914246,88.7260571 234.659547,77.0847084 C234.404849,65.4433597 228.744225,59.0015175 217.677676,57.759182 L241.64727,49.1227333 Z" id="Combined-Shape" fill="#F5D623"></path>
                <path d="M205.925012,19.1591812 C222.821943,28.9885648 237.420214,42.3456835 248.714966,58.2239634 L131.562073,58.2239634 L131.562073,58.2239634 C123.830087,58.2239634 117.562073,51.9559499 117.562073,44.2239634 L117.562073,33.1591838 L117.562073,33.1591838 C117.562073,25.4271973 123.830087,19.1591838 131.562073,19.1591838 L131.562073,19.1591838 L205.925016,19.1591838 Z" id="Combined-Shape" fill="#F5D623"></path>
                <path d="M272.385542,116.567413 C273.430013,123.38478 273.971798,130.368069 273.971798,137.478115 C273.971798,138.733494 273.954908,139.984922 273.921343,141.232183 C272.625417,141.673585 271.236053,141.913043 269.790761,141.913043 L195.399456,141.913043 L195.399456,141.913043 C188.32781,141.913043 182.595108,136.180341 182.595108,129.108695 L182.595108,129.108695 L182.595108,129.108695 C182.595108,122.037049 188.32781,116.304348 195.399456,116.304348 L195.399456,116.304348 L269.790761,116.304348 L269.790761,116.304348 C270.679758,116.304348 271.547595,116.394946 272.385542,116.567413 Z" id="Combined-Shape" fill="#FFFFFF"></path>
                <path d="M269.084077,101.086957 C271.165215,108.655835 272.613063,116.487644 273.366949,124.52161 C273.261503,124.524414 273.15571,124.525824 273.049587,124.525824 L220.415086,124.525824 C213.942621,124.525824 208.695652,119.278855 208.695652,112.80639 L208.695652,112.80639 L208.695652,112.80639 C208.695652,106.333926 213.942621,101.086957 220.415086,101.086957 L220.415086,101.086957 L269.084077,101.086957 Z" id="Combined-Shape" fill="#FFFFFF"></path>
                <path d="M2.44841518,157.576361 C1.48377116,151.016964 0.98413631,144.305987 0.98413631,137.478115 C0.98413631,134.01174 1.11291177,130.575493 1.36593195,127.173913 L77.6852036,127.173913 L77.6852036,127.173913 C85.4171901,127.173913 91.6852036,133.441927 91.6852036,141.173913 L91.6852036,143.576361 C91.6852036,151.308348 85.4171901,157.576361 77.6852036,157.576361 L2.44841518,157.576361 Z" id="Combined-Shape" fill="#FFED1A"></path>
                <path d="M32.6090472,225 C23.9652698,214.618924 16.8288046,202.934539 11.5364471,190.284216 C11.9893339,190.240012 12.448547,190.217391 12.9130435,190.217391 L12.9130435,190.217391 L79.8591166,190.217391 C87.5911031,190.217391 93.8591166,196.485405 93.8591166,204.217391 L93.8591166,211 C93.8591166,218.731986 87.5911031,225 79.8591166,225 L32.6090472,225 Z" id="Combined-Shape" fill="#FFED1A"></path>
                <path d="M1.05471223,141.917129 C1.00778043,140.443227 0.98413631,138.963437 0.98413631,137.478115 C0.98413631,131.030871 1.42961832,124.687852 2.29143059,118.478261 L31.3475461,118.478261 L31.3475461,118.478261 C37.8200107,118.478261 43.06698,123.72523 43.06698,130.197695 L43.06698,130.197695 L43.06698,130.197695 C43.06698,136.670159 37.8200107,141.917129 31.3475461,141.917129 L1.05471223,141.917129 Z" id="Combined-Shape" fill="#FFFFFF"></path>
                <rect id="Rectangle-2-Copy-3" fill="#F5D623" x="39.1304348" y="54.3478261" width="85.7961222" height="49.4820543" rx="14"></rect>
                <rect id="Rectangle-2-Copy-5" fill="#F5D623" x="151.435446" y="200" width="44.0590773" height="39.6862648" rx="14"></rect>
                <path d="M11.7817031,84.0895827 C17.91325,69.6225201 26.4611997,56.4315358 36.9182444,45.024803 L77.9800235,45.024803 C85.71201,45.024803 91.9800235,51.2928165 91.9800235,59.024803 L91.9800235,70.0895827 C91.9800235,77.8215692 85.71201,84.0895827 77.9800235,84.0895827 L11.7817031,84.0895827 Z" id="Combined-Shape" fill="#FFFFFF"></path>
                <rect id="Rectangle-2-Copy-2" fill="#F5D623" x="88.0434783" y="153.26087" width="129.634198" height="34.7826087" rx="14"></rect>
                <rect id="Rectangle-2-Copy-21" fill="#FFED1A" x="100" y="64.1304348" width="82.9895514" height="30.4024484" rx="14"></rect>
                <rect id="Rectangle-2-Copy-6" fill="#FFFFFF" x="211.956522" y="85.3807995" width="47.2275573" height="23.4388678" rx="11.7194339"></rect>
                <rect id="Rectangle-2-Copy-7" fill="#FFFFFF" x="164.776733" y="198.679603" width="70.1968273" height="28.6475051" rx="14"></rect>
                <path d="M75.140101,109.782609 L99.6435754,109.782609 L99.6435754,109.782609 C106.11604,109.782609 111.363009,115.029578 111.363009,121.502043 L111.363009,121.502043 L111.363009,121.502043 C111.363009,127.974507 106.11604,133.221477 99.6435754,133.221477 L76.6552043,133.221477 L76.6552043,133.221477 C70.0501702,133.221477 64.5798243,128.093321 64.1537599,121.502043 L64.1537599,121.502043 L64.1537599,121.502043 C63.7615471,115.434454 68.3623483,110.19775 74.4299369,109.805537 C74.6663499,109.790256 74.9031946,109.782609 75.140101,109.782609 Z" id="Rectangle-2-Copy-12" fill="#FFFFFF"></path>
                <path d="M75.140101,60.6507149 L99.6435754,60.6507149 L99.6435754,60.6507149 C106.11604,60.6507149 111.363009,65.8976842 111.363009,72.3701488 L111.363009,72.3701488 L111.363009,72.3701488 C111.363009,78.8426134 106.11604,84.0895827 99.6435754,84.0895827 L76.6552043,84.0895827 L76.6552043,84.0895827 C70.0501702,84.0895827 64.5798243,78.9614267 64.1537599,72.3701488 L64.1537599,72.3701488 L64.1537599,72.3701488 C63.7615471,66.3025602 68.3623483,61.0658565 74.4299369,60.6736437 C74.6663499,60.6583618 74.9031946,60.6507149 75.140101,60.6507149 Z" id="Rectangle-2-Copy-15" fill="#FFFFFF"></path>
                <path d="M60.6743417,119.565217 L81.4085489,119.565217 L81.4085489,119.565217 C85.1796207,119.565217 88.2366785,122.622275 88.2366785,126.393347 L88.2366785,126.393347 L88.2366785,126.393347 C88.2366785,130.164419 85.1796207,133.221477 81.4085489,133.221477 L61.7612982,133.221477 L61.7612982,133.221477 C57.8934326,133.221477 54.6749842,130.249019 54.3680958,126.393347 L54.3680958,126.393347 L54.3680958,126.393347 C54.0908823,122.910503 56.6895588,119.862375 60.1724023,119.585162 C60.3393854,119.571871 60.5068305,119.565217 60.6743417,119.565217 Z" id="Rectangle-2-Copy-13" fill="#FFFFFF"></path>
                <path d="M71.8541781,122.826087 L115.131276,122.826087 L115.131276,122.826087 C118.000756,122.826087 120.326929,125.15226 120.326929,128.021739 L120.326929,128.021739 L120.326929,128.021739 C120.326929,130.891219 118.000756,133.217392 115.131276,133.217392 L73.55155,133.217392 L73.55155,133.217392 C70.5159998,133.217392 67.9277111,131.017585 67.4383534,128.021739 L67.4383534,128.021739 L67.4383534,128.021739 C67.0399879,125.582947 68.6940808,123.282976 71.1328734,122.88461 C71.3713337,122.845659 71.6125574,122.826087 71.8541781,122.826087 Z" id="Rectangle-2-Copy-16" fill="#FFFFFF"></path>
                <path d="M76.4456939,129.347826 L100.42811,129.347826 L100.42811,129.347826 C103.29759,129.347826 105.623763,131.673999 105.623763,134.543478 L105.623763,134.543478 L105.623763,134.543478 C105.623763,137.412958 103.29759,139.739131 100.42811,139.739131 L77.5323343,139.739131 L77.5323343,139.739131 C74.5632574,139.739131 72.0738296,137.496453 71.7650309,134.543478 L71.7650309,134.543478 L71.7650309,134.543478 C71.4947059,131.95842 73.3711684,129.643674 75.9562272,129.373349 C76.1188287,129.356345 76.2822058,129.347826 76.4456939,129.347826 Z" id="Rectangle-2-Copy-17" fill="#FFFFFF"></path>
                <path d="M112.315259,154.347826 L136.297676,154.347826 L136.297676,154.347826 C139.167155,154.347826 141.493328,156.673999 141.493328,159.543478 L141.493328,159.543478 L141.493328,159.543478 C141.493328,162.412958 139.167155,164.739131 136.297676,164.739131 L113.401899,164.739131 L113.401899,164.739131 C110.432823,164.739131 107.943395,162.496453 107.634596,159.543478 L107.634596,159.543478 L107.634596,159.543478 C107.364271,156.95842 109.240734,154.643674 111.825792,154.373349 C111.988394,154.356345 112.151771,154.347826 112.315259,154.347826 Z" id="Rectangle-2-Copy-18" fill="#FFFFFF"></path>
                <rect id="Rectangle-2-Copy-9" fill="#FFFFFF" x="118.478261" y="141.304348" width="57.1974148" height="23.4388678" rx="11.7194339"></rect>
                <path d="M37.2829566,43 C14.1632426,67.6018248 0,100.718423 0,137.143024 C0,213.082177 61.5608469,274.643024 137.5,274.643024 C165.036009,274.643024 190.681511,266.548803 212.187002,252.609866 C82.4806413,213.126997 46.1870888,132.357255 38.5152798,52.600028 C38.1778351,49.0919037 37.7670606,45.8918943 37.2829566,43 Z" id="Combined-Shape" fill="#000000" opacity="0.325747283"></path>
            </g>
        </g>
    </g>
</svg>