<?xml version="1.0" encoding="UTF-8"?>
<svg width="274px" height="275px" viewBox="0 0 274 275" version="1.1" xmlns="http://www.w3.org/2000/svg" xmlns:xlink="http://www.w3.org/1999/xlink">
    <!-- Generator: Sketch 47.1 (45422) - http://www.bohemiancoding.com/sketch -->
    <title>Group</title>
    <desc>Created with Sketch.</desc>
    <defs></defs>
    <g id="Page-1" stroke="none" stroke-width="1" fill="none" fill-rule="evenodd">
        <g id="Artboard-Copy-4" transform="translate(-113.000000, -113.000000)">
            <g id="Group" transform="translate(113.000000, 113.000000)">
                <ellipse id="Oval-3" fill="#D29055" cx="137.477967" cy="137.478115" rx="136.493831" ry="136.726729"></ellipse>
                <ellipse id="Oval-3-Copy-2" fill="#D29055" cx="137.477967" cy="137.478115" rx="136.493831" ry="136.726729"></ellipse>
                <ellipse id="Oval-3-Copy-6" fill="#D29055" cx="137.477967" cy="137.478115" rx="136.493831" ry="136.726729"></ellipse>
                <ellipse id="Oval-3-Copy-4" fill="#D29055" cx="137.477967" cy="137.478115" rx="136.493831" ry="136.726729"></ellipse>
                <ellipse id="Oval-3-Copy-12" fill="#D29055" cx="137.477967" cy="137.478115" rx="136.493831" ry="136.726729"></ellipse>
                <ellipse id="Oval-3-Copy-11" fill="#D29055" cx="137.477967" cy="137.478115" rx="136.493831" ry="136.726729"></ellipse>
                <ellipse id="Oval-3-Copy-10" fill="#D29055" cx="137.477967" cy="137.478115" rx="136.493831" ry="136.726729"></ellipse>
                <ellipse id="Oval-3-Copy-8" fill="#D29055" cx="137.477967" cy="137.478115" rx="136.493831" ry="136.726729"></ellipse>
                <ellipse id="Oval-3-Copy-20" fill="#D29055" cx="137.477967" cy="137.478115" rx="136.493831" ry="136.726729"></ellipse>
                <ellipse id="Oval-3-Copy-19" fill="#D29055" cx="137.477967" cy="137.478115" rx="136.493831" ry="136.726729"></ellipse>
                <ellipse id="Oval-3-Copy-18" fill="#D29055" cx="137.477967" cy="137.478115" rx="136.493831" ry="136.726729"></ellipse>
                <ellipse id="Oval-3-Copy-17" fill="#D29055" cx="137.477967" cy="137.478115" rx="136.493831" ry="136.726729"></ellipse>
                <ellipse id="Oval-3-Copy-16" fill="#D29055" cx="137.477967" cy="137.478115" rx="136.493831" ry="136.726729"></ellipse>
                <path d="M60.8714839,250.656259 C54.8470723,246.556638 49.1671636,241.987013 43.8842845,237 L82.5649699,237 L82.5649699,237 C86.3360417,237 89.3930995,240.057058 89.3930995,243.82813 L89.3930995,243.82813 C89.3930995,247.599201 86.3360417,250.656259 82.5649699,250.656259 L60.8714839,250.656259 Z" id="Combined-Shape" fill="#BB885C"></path>
                <path d="M38.3221729,231.44 C34.6066143,227.507022 31.1217406,223.353113 27.8892433,219 L91.9400039,219 L91.9400039,219 C95.3752149,219 98.1600037,221.784789 98.1600037,225.22 L98.1600037,225.22 C98.1600037,228.655211 95.3752149,231.44 91.9400039,231.44 L38.3221729,231.44 Z" id="Combined-Shape" fill="#D07A4B"></path>
                <path d="M28.2164943,219.438868 C22.7624273,212.154923 18.0172992,204.307721 14.0836793,196.000008 L113.438591,196 L113.438591,196 C119.911056,196 125.158025,201.246969 125.158025,207.719434 L125.158025,207.719434 C125.158025,214.191899 119.911056,219.438868 113.438591,219.438868 L28.2164943,219.438868 Z" id="Combined-Shape" fill="#D07A4B"></path>
                <path d="M10.8692334,188.66 C9.85421194,186.142985 8.91182226,183.588783 8.04466643,181 L77.4047966,181 L77.4047966,181 C79.5200472,181 81.2347966,182.714749 81.2347966,184.83 L81.2347966,184.83 C81.2347966,186.94525 79.5200472,188.66 77.4047966,188.66 L10.8692334,188.66 Z" id="Combined-Shape" fill="#BB885C"></path>
                <path d="M6.9724982,177.656259 C5.60595051,173.196977 4.46092405,168.640597 3.55027907,164 L52.406667,164 L52.406667,164 C56.1777388,164 59.2347966,167.057058 59.2347966,170.82813 L59.2347966,170.82813 L59.2347966,170.82813 C59.2347966,174.599201 56.1777388,177.656259 52.406667,177.656259 L6.9724982,177.656259 Z" id="Combined-Shape" fill="#D07A4B"></path>
                <path d="M1.08148142,132.26605 C1.20029669,129.090497 1.42722674,125.942647 1.75869152,122.826087 L115.606929,122.826087 L115.606929,122.826087 C118.213713,122.826087 120.326929,124.939303 120.326929,127.546087 L120.326929,127.546087 C120.326929,130.152871 118.213713,132.266087 115.606929,132.266087 L1.08148006,132.266087 Z" id="Combined-Shape" fill="#F8B377"></path>
                <path d="M10.116593,88.2039667 C13.290889,79.9767143 17.2367698,72.1340779 21.8653442,64.7651003 L141.141143,64.7651003 L141.141143,64.7651003 C147.613608,64.7651003 152.860577,70.0120696 152.860577,76.4845342 L152.860577,76.4845342 L152.860577,76.4845342 C152.860577,82.9569988 147.613608,88.2039681 141.141143,88.2039681 L10.1165826,88.2039681 Z" id="Combined-Shape" fill="#BB885C"></path>
                <path d="M24.6972717,60.4399996 C26.914106,57.1898403 29.2673065,54.0404181 31.7486204,51 L112.6731,51 L112.6731,51 C115.279884,51 117.393099,53.1132159 117.393099,55.7199998 L117.393099,55.7199998 C117.393099,58.3267837 115.279884,60.4399996 112.6731,60.4399996 L24.6972717,60.4399996 Z" id="Combined-Shape" fill="#F8B377"></path>
                <path d="M72.7904691,17.0510392 C79.6437761,13.3494331 86.8491105,10.2176968 94.3432289,7.71918162 L126.326085,7.71918162 L126.326085,7.71918162 C128.932868,7.71918162 131.046084,9.8323975 131.046084,12.4391814 L131.046084,12.4391814 C131.046084,15.0459653 128.932868,17.1591812 126.326085,17.1591812 L73.9244459,17.1591812 L73.9244459,17.1591812 C73.5379828,17.1591812 73.1587311,17.1221155 72.7904691,17.0510392 Z" id="Combined-Shape" fill="#BB885C"></path>
                <path d="M253.237803,65 C255.983442,69.3909524 258.487009,73.9492901 260.729774,78.6562511 L179.82813,78.6562591 L179.82813,78.6562591 C176.057058,78.6562591 173,75.5992014 173,71.8281296 L173,71.8281296 L173,71.8281296 C173,68.0570577 176.057058,65 179.82813,65 L253.237803,65 Z" id="Combined-Shape" fill="#BB885C"></path>
                <path d="M263.556199,85 C264.839845,88.0909578 266.013511,91.2392582 267.072305,94.4399992 L157.72,94.4399996 L157.72,94.4399996 C155.113216,94.4399996 153,92.3267837 153,89.7199998 L153,89.7199998 L153,89.7199998 C153,87.1132159 155.113216,85 157.72,85 L157.72,85 L263.556199,85 Z" id="Combined-Shape" fill="#F8B377"></path>
                <path d="M272.669782,156.4399 C271.5753,164.342231 269.806589,172.028609 267.423713,179.438868 L235.719434,179.438868 L235.719434,179.438868 C229.246969,179.438868 224,174.191899 224,167.719434 L224,167.719434 L224,167.719434 C224,161.246969 229.246969,156 235.719434,156 L235.719434,156 L269.477981,156 L269.477981,156 C270.584423,156 271.655053,156.15333 272.669782,156.4399 Z" id="Combined-Shape" fill="#D07A4B"></path>
                <path d="M266.223971,183.000001 C265.337906,185.514544 264.380504,187.995357 263.3542,190.44 L221.72,190.44 L221.72,190.44 C219.665501,190.44 218,188.774499 218,186.72 C218,184.665501 219.665501,183 221.72,183 L221.72,183 L266.223977,183 Z" id="Combined-Shape" fill="#F8B377"></path>
                <path d="M261.340792,195.000006 C260.161685,197.543374 258.906806,200.044342 257.579059,202.5 L192.75,202.5 L192.75,202.5 C190.678932,202.5 189,200.821068 189,198.75 L189,198.75 L189,198.75 C189,196.678932 190.678932,195 192.75,195 L192.75,195 L261.340795,195 Z" id="Combined-Shape" fill="#D07A4B"></path>
                <path d="M255.010682,207.040686 C248.617262,217.856543 240.778323,227.713745 231.760357,236.345346 L155,236.345346 C147.268014,236.345346 141,230.077333 141,222.345346 L141,219.478249 C141,211.746263 147.268014,205.478249 155,205.478249 L155,205.478249 L248.577297,205.478249 L248.577297,205.478249 C250.896724,205.478249 253.084412,206.042288 255.010682,207.040686 Z" id="Combined-Shape" fill="#BB885C"></path>
                <path d="M236.302638,231.789272 C229.27708,239.173974 221.435067,245.772268 212.921635,251.438868 L112.719434,251.438868 C106.246969,251.438868 101,246.191899 101,239.719434 L101,239.719434 L101,239.719434 C101,233.246969 106.246969,228 112.719434,228 L112.719434,228 L227.673666,228 L227.673666,228 C231.087665,228 234.160708,229.459809 236.302638,231.789272 Z" id="Combined-Shape" fill="#F8B377"></path>
                <path d="M100.539162,269.13905 C112.287623,272.439667 124.677007,274.204844 137.477967,274.204844 C157.577047,274.204844 176.661473,269.853178 193.843491,262.039114 C191.452802,260.136706 188.425609,259 185.132924,259 L185.132924,259 L114,259 L114,259 C107.607237,259 102.21523,263.284744 100.539162,269.13905 Z" id="Combined-Shape" fill="#BB885C"></path>
                <path d="M273.765869,139 C273.925867,140.208274 274.00699,141.425935 274.00699,142.651987 C274.00699,146.058644 273.380689,149.400518 272.1763,152.656259 L217.82813,152.656259 C214.057058,152.656259 211,149.599201 211,145.82813 L211,145.82813 L211,145.82813 C211,142.057058 214.057058,139 217.82813,139 L217.82813,139 L273.765869,139 Z" id="Combined-Shape" fill="#BB885C"></path>
                <path d="M267.094402,94.5068569 C271.168302,106.843735 273.535895,119.958824 273.917157,133.571622 L166.339861,133.571637 C158.607874,133.571637 152.339861,127.303623 152.339861,119.571637 L152.339861,108.506857 C152.339861,100.774871 158.607874,94.5068573 166.339861,94.5068573 L166.339861,94.5068573 L267.094406,94.5068573 Z" id="Combined-Shape" fill="#D07A4B"></path>
                <path d="M205.925012,19.1591812 C222.821943,28.9885648 237.420214,42.3456835 248.714966,58.2239634 L131.562073,58.2239634 L131.562073,58.2239634 C123.830087,58.2239634 117.562073,51.9559499 117.562073,44.2239634 L117.562073,33.1591838 L117.562073,33.1591838 C117.562073,25.4271973 123.830087,19.1591838 131.562073,19.1591838 L131.562073,19.1591838 L205.925016,19.1591838 Z" id="Combined-Shape" fill="#BB885C"></path>
                <path d="M2.44841518,157.576361 C1.48377116,151.016964 0.98413631,144.305987 0.98413631,137.478115 C0.98413631,134.01174 1.11291177,130.575493 1.36593195,127.173913 L186.90795,127.173913 L186.90795,127.173913 C194.639936,127.173913 200.90795,133.441927 200.90795,141.173913 L200.90795,143.576361 L200.90795,143.576361 C200.90795,151.308348 194.639936,157.576361 186.90795,157.576361 L2.44841518,157.576361 Z" id="Combined-Shape" fill="#BB885C"></path>
                <path d="M35.6398416,46.4388678 C43.6192635,37.4887035 52.7570845,29.5969764 62.8173935,23 L138.673666,23 L138.673666,23 C145.14613,23 150.393099,28.2469693 150.393099,34.7194339 L150.393099,34.7194339 C150.393099,41.1918985 145.14613,46.4388678 138.673666,46.4388678 L35.6398416,46.4388678 Z" id="Combined-Shape" fill="#F8B377"></path>
                <rect id="Rectangle-2-Copy-2" fill="#F8B377" x="88.0434783" y="153.26087" width="129.634198" height="34.7826087" rx="14"></rect>
                <path d="M232.165232,39 C237.069152,43.7323583 241.620473,48.8288129 245.775832,54.2459273 C245.534879,54.2688488 245.290653,54.2805661 245.04369,54.2805661 L218.383782,54.2805661 L218.383782,54.2805661 C214.04084,54.2805661 210.415945,50.9659017 210.02842,46.640283 L210.02842,46.640283 L210.02842,46.640283 C209.682745,42.7817995 212.530439,39.3736556 216.388923,39.0279806 C216.597035,39.0093362 216.805877,39 217.014822,39 L217.014822,39 L232.165232,39 Z" id="Combined-Shape" fill="#A77851"></path>
                <rect id="Rectangle-2-Copy-29" fill="#BB885C" x="83" y="196" width="68.1974148" height="7.44000006" rx="3.72000003"></rect>
                <path d="M19.9625281,95 L129.438591,95 L129.438591,95 C135.911056,95 141.158025,100.246969 141.158025,106.719434 L141.158025,106.719434 L141.158025,106.719434 C141.158025,113.191899 135.911056,118.438868 129.438591,118.438868 L23.9725385,118.438868 L23.9725385,118.438868 C17.1940112,118.438868 11.3892239,113.582643 10.1924605,106.910598 L10.1581715,106.719434 L10.1581715,106.719434 C9.18692046,101.304637 12.7891259,96.1277228 18.2039226,95.1564718 C18.7843373,95.0523629 19.3728503,95 19.9625281,95 Z" id="Rectangle-2-Copy-12" fill="#D07A4B"></path>
                <path d="M136.871545,155 L171.487917,155 L171.487917,155 C177.960382,155 183.207351,160.246969 183.207351,166.719434 L183.207351,166.719434 L183.207351,166.719434 C183.207351,173.191899 177.960382,178.438868 171.487917,178.438868 L138.70644,178.438868 L138.70644,178.438868 C132.070827,178.438868 126.551582,173.334807 126.033703,166.719434 L126.033703,166.719434 L126.033703,166.719434 C125.565126,160.733859 130.037538,155.501735 136.023113,155.033159 C136.305384,155.011061 136.588411,155 136.871545,155 Z" id="Rectangle-2-Copy-18" fill="#D07A4B"></path>
                <path d="M139.393902,160 L155.169817,160 L155.169817,160 C158.940889,160 161.997947,163.057058 161.997947,166.82813 L161.997947,166.82813 L161.997947,166.82813 C161.997947,170.599201 158.940889,173.656259 155.169817,173.656259 L140.324061,173.656259 L140.324061,173.656259 C136.471267,173.656259 133.276848,170.672017 133.015032,166.82813 L133.015032,166.82813 L133.015032,166.82813 C132.775075,163.305177 135.43647,160.254736 138.959423,160.01478 C139.10404,160.004929 139.24895,160 139.393902,160 Z" id="Rectangle-2-Copy-30" fill="#C26F42"></path>
                <path d="M42.3939022,201 L58.1698173,201 L58.1698173,201 C61.9408891,201 64.9979469,204.057058 64.9979469,207.82813 L64.9979469,207.82813 L64.9979469,207.82813 C64.9979469,211.599201 61.9408891,214.656259 58.1698173,214.656259 L43.3240613,214.656259 L43.3240613,214.656259 C39.4712673,214.656259 36.2768477,211.672017 36.0150317,207.82813 L36.0150317,207.82813 L36.0150317,207.82813 C35.7750753,204.305177 38.4364698,201.254736 41.9594227,201.01478 C42.1040398,201.004929 42.2489501,201 42.3939022,201 Z" id="Rectangle-2-Copy-35" fill="#C26F42"></path>
                <path d="M33.1127546,139 L69.1698173,139 L69.1698173,139 C72.9408891,139 75.9979469,142.057058 75.9979469,145.82813 L75.9979469,145.82813 L75.9979469,145.82813 C75.9979469,149.599201 72.9408891,152.656259 69.1698173,152.656259 L34.684448,152.656259 L34.684448,152.656259 C30.7675892,152.656259 27.4732327,149.719303 27.0253991,145.82813 L27.0253991,145.82813 L27.0253991,145.82813 C26.6384732,142.466176 29.0502096,139.427109 32.4121632,139.040183 C32.6447343,139.013416 32.8786483,139 33.1127546,139 Z" id="Rectangle-2-Copy-32" fill="#A77851"></path>
                <path d="M117.393902,28 L133.169817,28 L133.169817,28 C136.940889,28 139.997947,31.0570577 139.997947,34.8281296 L139.997947,34.8281296 L139.997947,34.8281296 C139.997947,38.5992014 136.940889,41.6562591 133.169817,41.6562591 L118.324061,41.6562591 L118.324061,41.6562591 C114.471267,41.6562591 111.276848,38.6720174 111.015032,34.8281296 L111.015032,34.8281296 L111.015032,34.8281296 C110.775075,31.3051766 113.43647,28.254736 116.959423,28.0147796 C117.10404,28.0049294 117.24895,28 117.393902,28 Z" id="Rectangle-2-Copy-33" fill="#E6A974"></path>
                <path d="M157.014822,209 L185.04369,209 L185.04369,209 C189.263302,209 192.683973,212.420671 192.683973,216.640283 L192.683973,216.640283 L192.683973,216.640283 C192.683973,220.859895 189.263302,224.280566 185.04369,224.280566 L158.383782,224.280566 L158.383782,224.280566 C154.04084,224.280566 150.415945,220.965902 150.02842,216.640283 L150.02842,216.640283 L150.02842,216.640283 C149.682745,212.781799 152.530439,209.373656 156.388923,209.027981 C156.597035,209.009336 156.805877,209 157.014822,209 Z" id="Rectangle-2-Copy-36" fill="#AF8058"></path>
                <path d="M180.449244,100 L245.480563,100 L245.480563,100 C251.953028,100 257.199997,105.246969 257.199997,111.719434 L257.199997,111.719434 L257.199997,111.719434 C257.199997,118.191899 251.953028,123.438868 245.480563,123.438868 L183.246334,123.438868 L183.246334,123.438868 C176.513171,123.438868 170.843047,118.40516 170.045202,111.719434 L170.045202,111.719434 L170.045202,111.719434 C169.359501,105.97344 173.461678,100.759521 179.207672,100.07382 C179.619702,100.02465 180.03429,100 180.449244,100 Z" id="Rectangle-2-Copy-31" fill="#C26F42"></path>
                <path d="M37.2829566,43 C14.1632426,67.6018248 0,100.718423 0,137.143024 C0,213.082177 61.5608469,274.643024 137.5,274.643024 C165.036009,274.643024 190.681511,266.548803 212.187002,252.609866 C82.4806413,213.126997 46.1870888,132.357255 38.5152798,52.600028 C38.1778351,49.0919037 37.7670606,45.8918943 37.2829566,43 Z" id="Combined-Shape" fill="#000000" opacity="0.325747283"></path>
            </g>
        </g>
    </g>
</svg>