<?xml version="1.0" encoding="UTF-8"?>
<svg width="420px" height="275px" viewBox="0 0 420 275" version="1.1" xmlns="http://www.w3.org/2000/svg" xmlns:xlink="http://www.w3.org/1999/xlink">
    <!-- Generator: Sketch 47.1 (45422) - http://www.bohemiancoding.com/sketch -->
    <title>Group</title>
    <desc>Created with Sketch.</desc>
    <defs></defs>
    <g id="Page-1" stroke="none" stroke-width="1" fill="none" fill-rule="evenodd">
        <g id="Artboard-Copy-5" transform="translate(-41.000000, -113.000000)">
            <g id="Group" transform="translate(41.000000, 113.000000)">
                <ellipse id="Oval-3" fill="#D29055" cx="209.477967" cy="137.478115" rx="136.493831" ry="136.726729"></ellipse>
                <ellipse id="Oval-3-Copy-2" fill="#D29055" cx="209.477967" cy="137.478115" rx="136.493831" ry="136.726729"></ellipse>
                <ellipse id="Oval-3-Copy-6" fill="#D29055" cx="209.477967" cy="137.478115" rx="136.493831" ry="136.726729"></ellipse>
                <ellipse id="Oval-3-Copy-4" fill="#D29055" cx="209.477967" cy="137.478115" rx="136.493831" ry="136.726729"></ellipse>
                <ellipse id="Oval-3-Copy-12" fill="#D29055" cx="209.477967" cy="137.478115" rx="136.493831" ry="136.726729"></ellipse>
                <ellipse id="Oval-3-Copy-11" fill="#D29055" cx="209.477967" cy="137.478115" rx="136.493831" ry="136.726729"></ellipse>
                <ellipse id="Oval-3-Copy-10" fill="#D29055" cx="209.477967" cy="137.478115" rx="136.493831" ry="136.726729"></ellipse>
                <ellipse id="Oval-3-Copy-8" fill="#D29055" cx="209.477967" cy="137.478115" rx="136.493831" ry="136.726729"></ellipse>
                <ellipse id="Oval-3-Copy-20" fill="#D29055" cx="209.477967" cy="137.478115" rx="136.493831" ry="136.726729"></ellipse>
                <ellipse id="Oval-3-Copy-19" fill="#D29055" cx="209.477967" cy="137.478115" rx="136.493831" ry="136.726729"></ellipse>
                <ellipse id="Oval-3-Copy-18" fill="#D29055" cx="209.477967" cy="137.478115" rx="136.493831" ry="136.726729"></ellipse>
                <ellipse id="Oval-3-Copy-17" fill="#D29055" cx="209.477967" cy="137.478115" rx="136.493831" ry="136.726729"></ellipse>
                <ellipse id="Oval-3-Copy-16" fill="#C2F58F" cx="209.477967" cy="137.478115" rx="136.493831" ry="136.726729"></ellipse>
                <path d="M140.789476,255.656262 C133.952392,251.660167 127.493431,247.085764 121.479426,242 L192.044396,242 L192.044396,242 C195.815467,242 198.872525,245.057058 198.872525,248.82813 L198.872525,248.82813 C198.872525,252.599201 195.815467,255.656259 192.044396,255.656259 L140.789472,255.656259 Z" id="Combined-Shape" fill="#B8E986"></path>
                <path d="M74.4742488,157.75124 C73.5056684,151.223705 72.9976646,144.545631 72.9844028,137.75124 L81.9844028,137.75124 L81.9844028,137.75124 C87.5072503,137.75124 91.9844028,142.228392 91.9844028,147.75124 L91.9844028,147.75124 C91.9844028,153.274087 87.5072503,157.75124 81.9844028,157.75124 L74.4742488,157.75124 Z" id="Combined-Shape" fill="#B8E986"></path>
                <path d="M100.216494,219.438868 C94.7624273,212.154923 90.0172992,204.307721 86.0836793,196.000008 L118.442496,196 L118.442496,196 C124.914961,196 130.16193,201.246969 130.16193,207.719434 L130.16193,207.719434 L130.16193,207.719434 C130.16193,214.191899 124.914961,219.438868 118.442496,219.438868 L100.216494,219.438868 Z" id="Combined-Shape" fill="#B8E986"></path>
                <path d="M83.6943224,190.660003 C82.6329598,188.144231 81.6446197,185.590009 80.731963,183.000001 L100.021959,183 L100.021959,183 C102.13721,183 103.851959,184.714749 103.851959,186.83 L103.851959,186.83 C103.851959,188.94525 102.13721,190.66 100.021959,190.66 L83.6943039,190.66 Z" id="Combined-Shape" fill="#A4D275"></path>
                <path d="M78.9724982,177.656259 C77.6059505,173.196977 76.4609241,168.640597 75.5502791,164 L146.630331,164 L146.630331,164 C150.401403,164 153.458461,167.057058 153.458461,170.82813 L153.458461,170.82813 C153.458461,174.599201 150.401403,177.656259 146.630331,177.656259 L78.9724982,177.656259 Z" id="Combined-Shape" fill="#B8E986"></path>
                <path d="M82.116593,88.2039667 C85.290889,79.9767143 89.2367698,72.1340779 93.8653442,64.7651003 L213.141143,64.7651003 L213.141143,64.7651003 C219.613608,64.7651003 224.860577,70.0120696 224.860577,76.4845342 L224.860577,76.4845342 L224.860577,76.4845342 C224.860577,82.9569988 219.613608,88.2039681 213.141143,88.2039681 L82.1165826,88.2039681 Z" id="Combined-Shape" fill="#B8E986"></path>
                <path d="M96.6972717,60.4399996 C98.914106,57.1898403 101.267307,54.0404181 103.74862,51 L184.6731,51 L184.6731,51 C187.279884,51 189.393099,53.1132159 189.393099,55.7199998 L189.393099,55.7199998 C189.393099,58.3267837 187.279884,60.4399996 184.6731,60.4399996 L96.6972717,60.4399996 Z" id="Combined-Shape" fill="#B8E986"></path>
                <path d="M144.790469,17.0510392 C151.643776,13.3494331 158.849111,10.2176968 166.343229,7.71918162 L234.35472,7.71918162 L234.35472,7.71918162 C236.961504,7.71918162 239.07472,9.8323975 239.07472,12.4391814 L239.07472,12.4391814 C239.07472,15.0459653 236.961504,17.1591812 234.35472,17.1591812 L145.924446,17.1591812 C145.537983,17.1591812 145.158731,17.1221155 144.790469,17.0510392 Z" id="Combined-Shape" fill="#B8E986"></path>
                <path d="M325.237803,65 C327.983442,69.3909524 330.487009,73.9492901 332.729774,78.6562511 L300.890631,78.6562591 C297.119559,78.6562591 294.062501,75.5992014 294.062501,71.8281296 L294.062501,71.8281296 L294.062501,71.8281296 C294.062501,68.0570577 297.119559,65 300.890631,65 L300.890631,65 L325.237803,65 Z" id="Combined-Shape" fill="#B8E986"></path>
                <path d="M344.669782,156.4399 C343.5753,164.342231 341.806589,172.028609 339.423713,179.438868 L307.719434,179.438868 L307.719434,179.438868 C301.246969,179.438868 296,174.191899 296,167.719434 L296,167.719434 L296,167.719434 C296,161.246969 301.246969,156 307.719434,156 L307.719434,156 L341.477981,156 L341.477981,156 C342.584423,156 343.655053,156.15333 344.669782,156.4399 Z" id="Combined-Shape" fill="#B8E986"></path>
                <path d="M338.223971,183.000001 C337.148832,186.051115 335.968662,189.052567 334.687812,192 L320.5,192 C318.014719,192 316,189.985281 316,187.5 L316,187.5 L316,187.5 C316,185.014719 318.014719,183 320.5,183 L320.5,183 L338.223977,183 Z" id="Combined-Shape" fill="#ACDA7D"></path>
                <path d="M332.872255,196.000008 C331.667611,198.544187 330.386861,201.045176 329.032949,203.500026 L262.75,203.5 L262.75,203.5 C260.678932,203.5 259,201.821068 259,199.75 L259,199.75 L259,199.75 C259,197.678932 260.678932,196 262.75,196 L262.75,196 L332.872259,196 Z" id="Combined-Shape" fill="#AED982"></path>
                <path d="M327.010682,207.040686 C320.617262,217.856543 312.778323,227.713745 303.760357,236.345346 L152.56181,236.345346 L152.56181,236.345346 C144.829823,236.345346 138.56181,230.077333 138.56181,222.345346 L138.56181,219.478249 C138.56181,211.746263 144.829823,205.478249 152.56181,205.478249 L152.56181,205.478249 L320.577297,205.478249 L320.577297,205.478249 C322.896724,205.478249 325.084412,206.042288 327.010682,207.040686 Z" id="Combined-Shape" fill="#ACDA7D"></path>
                <path d="M209.377375,274.204808 C209.410903,274.204832 209.444434,274.204844 209.477967,274.204844 C237.65336,274.204844 263.834841,265.653328 285.576879,251 L211.719434,251 C205.246969,251 200,256.246969 200,262.719434 L200,262.719434 L200,262.719434 C200,268.389843 204.027151,273.119661 209.377375,274.204808 Z" id="Combined-Shape" fill="#B8E986"></path>
                <path d="M146.859845,259.000009 C165.614718,268.716748 186.906528,274.204844 209.477967,274.204844 C221.433207,274.204844 233.029456,272.665202 244.07989,269.773063 C242.622773,263.596701 237.074999,259 230.453607,259 L230.453607,259 L146.859829,259 Z" id="Combined-Shape" fill="#ADDA7E"></path>
                <path d="M345.765869,139 C345.925867,140.208274 346.00699,141.425935 346.00699,142.651987 C346.00699,146.058644 345.380689,149.400518 344.1763,152.656259 L289.82813,152.656259 C286.057058,152.656259 283,149.599201 283,145.82813 L283,145.82813 L283,145.82813 C283,142.057058 286.057058,139 289.82813,139 L289.82813,139 L345.765869,139 Z" id="Combined-Shape" fill="#B8E986"></path>
                <rect id="Rectangle-2-Copy-2" fill="#B8E986" x="160.043478" y="153.26087" width="129.634198" height="34.7826087" rx="14"></rect>
                <path d="M311.813623,47 C316.050526,51.80487 319.955431,56.9104015 323.492369,62.2805661 L256.490557,62.2805661 L256.490557,62.2805661 C252.147614,62.2805661 248.522719,58.9659017 248.135195,54.640283 L248.135195,54.640283 L248.135195,54.640283 C247.78952,50.7817995 250.637214,47.3736556 254.495697,47.0279806 C254.70381,47.0093362 254.912651,47 255.121597,47 L255.121597,47 L311.813623,47 Z" id="Combined-Shape" fill="#B8E986"></path>
                <path d="M95.6641965,95 L189.577297,95 L189.577297,95 C197.309284,95 203.577297,101.268014 203.577297,109 L203.577297,120.06478 L203.577297,120.06478 C203.577297,127.796767 197.309284,134.06478 189.577297,134.06478 L96.7680234,134.06478 L96.7680234,134.06478 C89.5742317,134.06478 83.5512836,128.612787 82.8371727,121.454527 L81.7333458,110.389747 L81.7333458,110.389747 C80.9658096,102.695951 86.5806528,95.8366855 94.2744492,95.0691493 C94.7362658,95.0230782 95.2000876,95 95.6641965,95 Z" id="Rectangle-2-Copy-12" fill="#ACDA7D"></path>
                <path d="M220.039113,125.758681 L242.789381,125.758681 L242.789381,125.758681 C249.261846,125.758681 254.508815,131.00565 254.508815,137.478115 L254.508815,137.478115 L254.508815,137.478115 C254.508815,143.95058 249.261846,149.197549 242.789381,149.197549 L221.498783,149.197549 L221.498783,149.197549 C214.898957,149.197549 209.437024,144.065181 209.026811,137.478115 L209.026811,137.478115 L209.026811,137.478115 C208.648055,131.396188 213.271388,126.15877 219.353315,125.780015 C219.581638,125.765796 219.810348,125.758681 220.039113,125.758681 Z" id="Rectangle-2-Copy-18" fill="#B8E986"></path>
                <path d="M244.711153,70 L277.789381,70 L277.789381,70 C284.261846,70 289.508815,75.2469693 289.508815,81.7194339 L289.508815,81.7194339 L289.508815,81.7194339 C289.508815,88.1918985 284.261846,93.4388678 277.789381,93.4388678 L246.497403,93.4388678 L246.497403,93.4388678 C239.866501,93.4388678 234.354734,88.3311642 233.850861,81.7194339 L233.850861,81.7194339 L233.850861,81.7194339 C233.393762,75.7214606 237.885528,70.4885905 243.883502,70.0314915 C244.158886,70.0105048 244.434969,70 244.711153,70 Z" id="Rectangle-2-Copy-30" fill="#B8E986"></path>
                <path d="M105.112755,139 L141.169817,139 L141.169817,139 C144.940889,139 147.997947,142.057058 147.997947,145.82813 L147.997947,145.82813 L147.997947,145.82813 C147.997947,149.599201 144.940889,152.656259 141.169817,152.656259 L106.684448,152.656259 L106.684448,152.656259 C102.767589,152.656259 99.4732327,149.719303 99.0253991,145.82813 L99.0253991,145.82813 L99.0253991,145.82813 C98.6384732,142.466176 101.05021,139.427109 104.412163,139.040183 C104.644734,139.013416 104.878648,139 105.112755,139 Z" id="Rectangle-2-Copy-32" fill="#B8E986"></path>
                <path d="M147.872781,28 L205.485497,28 L205.485497,28 C209.256569,28 212.313627,31.0570577 212.313627,34.8281296 L212.313627,34.8281296 L212.313627,34.8281296 C212.313627,38.5992014 209.256569,41.6562591 205.485497,41.6562591 L150.126837,41.6562591 L150.126837,41.6562591 C146.134821,41.6562591 142.729405,38.7668533 142.079293,34.8281296 L142.079293,34.8281296 L142.079293,34.8281296 C141.551169,31.6284742 143.716873,28.6065119 146.916528,28.0783877 C147.232607,28.0262167 147.552425,28 147.872781,28 Z" id="Rectangle-2-Copy-33" fill="#B8E986"></path>
                <path d="M232.417587,22 L251.65407,22 L251.65407,22 C257.176918,22 261.65407,26.4771525 261.65407,32 L261.65407,32 L261.65407,32 C261.65407,37.5228475 257.176918,42 251.65407,42 L233.657536,42 L233.657536,42 C228.026534,42 223.366801,37.6202114 223.018362,32 L223.018362,32 L223.018362,32 C222.69653,26.8089513 226.64381,22.3398785 231.834859,22.0180465 C232.028868,22.0060184 232.223204,22 232.417587,22 Z" id="Rectangle-2-Copy-35" fill="#AEDB81"></path>
                <path d="M252.449244,100 L317.480563,100 L317.480563,100 C323.953028,100 329.199997,105.246969 329.199997,111.719434 L329.199997,111.719434 L329.199997,111.719434 C329.199997,118.191899 323.953028,123.438868 317.480563,123.438868 L255.246334,123.438868 L255.246334,123.438868 C248.513171,123.438868 242.843047,118.40516 242.045202,111.719434 L242.045202,111.719434 L242.045202,111.719434 C241.359501,105.97344 245.461678,100.759521 251.207672,100.07382 C251.619702,100.02465 252.03429,100 252.449244,100 Z" id="Rectangle-2-Copy-31" fill="#ACDA7D"></path>
                <path d="M109.282957,43 C86.1632426,67.6018248 72,100.718423 72,137.143024 C72,213.082177 133.560847,274.643024 209.5,274.643024 C237.036009,274.643024 262.681511,266.548803 284.187002,252.609866 C154.480641,213.126997 118.187089,132.357255 110.51528,52.600028 C110.177835,49.0919037 109.767061,45.8918943 109.282957,43 Z" id="Combined-Shape" fill="#000000" opacity="0.325747283"></path>
                <path d="M71.9962376,137.969649 C62.1283468,138.00585 57.0801697,138.810391 56.8517065,140.38327 C56.5090117,142.74259 124.555558,150.318628 214.092063,150.002179 C303.628568,149.685731 367.462962,142.796892 368.101772,140.38327 C368.527645,138.774189 361.945386,137.969649 348.354993,137.969649 L347.074285,134 C394.931146,134 418.978244,136.127757 419.215579,140.38327 C419.571583,146.766541 325.63756,156.7562 214.092063,157.411567 C102.546566,158.066933 -1.10179005,146.766541 0.0693611466,140.38327 C0.85012861,136.127757 24.8257541,134 71.9962376,134 L71.9962376,137.969649 Z" id="Path-3" fill="#E386FF"></path>
                <path d="M73.6486862,118.008896 C65.1443166,118.045097 60.7806311,118.849638 60.5576295,120.422518 C60.2231272,122.781837 126.642947,130.357875 214.038984,130.041426 C301.435021,129.724978 363.743385,122.836139 364.366923,120.422518 C364.782616,118.813437 358.449388,118.008896 345.367239,118.008896 L343.842121,114.039247 C374.629325,114.039247 390.138757,116.167004 390.370419,120.422518 C390.717912,126.805788 322.917864,136.795447 214.038984,137.450814 C105.160104,138.10618 32.241846,126.805788 33.3849995,120.422518 C34.1471019,116.167004 47.5683308,114.039247 73.6486862,114.039247 L73.6486862,118.008896 Z" id="Path-3-Copy-2" fill="#E386FF"></path>
                <path d="M72.4871479,158.18704 C63.911313,158.223241 59.5109578,159.027782 59.2860823,160.600662 C58.948769,162.959981 125.926738,170.536019 214.057196,170.219571 C302.187654,169.903122 365.019617,163.014283 365.648395,160.600662 C366.067581,158.991581 359.168488,158.18704 344.951116,158.18704 L344.951116,154.217391 C375.997035,154.217391 391.636799,156.345148 391.870408,160.600662 C392.220821,166.983932 323.851025,176.973591 214.057196,177.628958 C104.263367,178.284324 30.732351,166.983932 31.8851109,160.600662 C32.6536175,156.345148 46.1876298,154.217391 72.4871479,154.217391 L72.4871479,158.18704 Z" id="Path-3-Copy" fill="#E386FF"></path>
            </g>
        </g>
    </g>
</svg>