<?xml version="1.0" encoding="UTF-8"?>
<svg width="452px" height="275px" viewBox="0 0 452 275" version="1.1" xmlns="http://www.w3.org/2000/svg" xmlns:xlink="http://www.w3.org/1999/xlink">
    <!-- Generator: Sketch 47.1 (45422) - http://www.bohemiancoding.com/sketch -->
    <title>Group</title>
    <desc>Created with Sketch.</desc>
    <defs></defs>
    <g id="Page-1" stroke="none" stroke-width="1" fill="none" fill-rule="evenodd">
        <g id="Artboard-Copy-9" transform="translate(-26.000000, -113.000000)">
            <g id="Group" transform="translate(24.000000, 113.000000)">
                <ellipse id="Oval-3" fill="#D29055" cx="226.477967" cy="137.478115" rx="136.493831" ry="136.726729"></ellipse>
                <ellipse id="Oval-3-Copy-2" fill="#D29055" cx="226.477967" cy="137.478115" rx="136.493831" ry="136.726729"></ellipse>
                <ellipse id="Oval-3-Copy-6" fill="#D29055" cx="226.477967" cy="137.478115" rx="136.493831" ry="136.726729"></ellipse>
                <ellipse id="Oval-3-Copy-4" fill="#D29055" cx="226.477967" cy="137.478115" rx="136.493831" ry="136.726729"></ellipse>
                <ellipse id="Oval-3-Copy-12" fill="#D29055" cx="226.477967" cy="137.478115" rx="136.493831" ry="136.726729"></ellipse>
                <ellipse id="Oval-3-Copy-11" fill="#D29055" cx="226.477967" cy="137.478115" rx="136.493831" ry="136.726729"></ellipse>
                <ellipse id="Oval-3-Copy-10" fill="#D29055" cx="226.477967" cy="137.478115" rx="136.493831" ry="136.726729"></ellipse>
                <ellipse id="Oval-3-Copy-8" fill="#D29055" cx="226.477967" cy="137.478115" rx="136.493831" ry="136.726729"></ellipse>
                <ellipse id="Oval-3-Copy-20" fill="#D29055" cx="226.477967" cy="137.478115" rx="136.493831" ry="136.726729"></ellipse>
                <ellipse id="Oval-3-Copy-19" fill="#D29055" cx="226.477967" cy="137.478115" rx="136.493831" ry="136.726729"></ellipse>
                <ellipse id="Oval-3-Copy-18" fill="#D29055" cx="226.477967" cy="137.478115" rx="136.493831" ry="136.726729"></ellipse>
                <ellipse id="Oval-3-Copy-17" fill="#D29055" cx="226.477967" cy="137.478115" rx="136.493831" ry="136.726729"></ellipse>
                <ellipse id="Oval-3-Copy-16" fill="#C88EB2" cx="226.477967" cy="137.478115" rx="136.493831" ry="136.726729"></ellipse>
                <path d="M157.789476,255.656262 C150.952392,251.660167 144.493431,247.085764 138.479426,242 L209.044396,242 L209.044396,242 C212.815467,242 215.872525,245.057058 215.872525,248.82813 L215.872525,248.82813 C215.872525,252.599201 212.815467,255.656259 209.044396,255.656259 L157.789472,255.656259 Z" id="Combined-Shape" fill="#A5B6D5"></path>
                <path d="M91.4742488,157.75124 C90.5056684,151.223705 89.9976646,144.545631 89.9844028,137.75124 L98.9844028,137.75124 L98.9844028,137.75124 C104.50725,137.75124 108.984403,142.228392 108.984403,147.75124 L108.984403,147.75124 C108.984403,153.274087 104.50725,157.75124 98.9844028,157.75124 L91.4742488,157.75124 Z" id="Combined-Shape" fill="#A5B6D5"></path>
                <path d="M117.216494,219.438868 C111.762427,212.154923 107.017299,204.307721 103.083679,196.000008 L135.442496,196 L135.442496,196 C141.914961,196 147.16193,201.246969 147.16193,207.719434 L147.16193,207.719434 L147.16193,207.719434 C147.16193,214.191899 141.914961,219.438868 135.442496,219.438868 L117.216494,219.438868 Z" id="Combined-Shape" fill="#A5B6D5"></path>
                <path d="M100.694322,190.660003 C99.6329598,188.144231 98.6446197,185.590009 97.731963,183.000001 L117.021959,183 L117.021959,183 C119.13721,183 120.851959,184.714749 120.851959,186.83 L120.851959,186.83 C120.851959,188.94525 119.13721,190.66 117.021959,190.66 L100.694304,190.66 Z" id="Combined-Shape" fill="#A5B6D5"></path>
                <path d="M95.9724982,177.656259 C94.6059505,173.196977 93.4609241,168.640597 92.5502791,164 L163.630331,164 L163.630331,164 C167.401403,164 170.458461,167.057058 170.458461,170.82813 L170.458461,170.82813 C170.458461,174.599201 167.401403,177.656259 163.630331,177.656259 L95.9724982,177.656259 Z" id="Combined-Shape" fill="#A097A3"></path>
                <path d="M99.116593,88.2039667 C102.290889,79.9767143 106.23677,72.1340779 110.865344,64.7651003 L230.141143,64.7651003 L230.141143,64.7651003 C236.613608,64.7651003 241.860577,70.0120696 241.860577,76.4845342 L241.860577,76.4845342 L241.860577,76.4845342 C241.860577,82.9569988 236.613608,88.2039681 230.141143,88.2039681 L99.1165826,88.2039681 Z" id="Combined-Shape" fill="#EBDDEF"></path>
                <path d="M113.697272,60.4399996 C115.914106,57.1898403 118.267307,54.0404181 120.74862,51 L201.6731,51 L201.6731,51 C204.279884,51 206.393099,53.1132159 206.393099,55.7199998 L206.393099,55.7199998 C206.393099,58.3267837 204.279884,60.4399996 201.6731,60.4399996 L113.697272,60.4399996 Z" id="Combined-Shape" fill="#D3C6D7"></path>
                <path d="M161.790469,17.0510392 C168.643776,13.3494331 175.849111,10.2176968 183.343229,7.71918162 L251.35472,7.71918162 L251.35472,7.71918162 C253.961504,7.71918162 256.07472,9.8323975 256.07472,12.4391814 L256.07472,12.4391814 C256.07472,15.0459653 253.961504,17.1591812 251.35472,17.1591812 L162.924446,17.1591812 C162.537983,17.1591812 162.158731,17.1221155 161.790469,17.0510392 Z" id="Combined-Shape" fill="#EBDDEF"></path>
                <path d="M342.237803,65 C344.983442,69.3909524 347.487009,73.9492901 349.729774,78.6562511 L317.890631,78.6562591 C314.119559,78.6562591 311.062501,75.5992014 311.062501,71.8281296 L311.062501,71.8281296 L311.062501,71.8281296 C311.062501,68.0570577 314.119559,65 317.890631,65 L317.890631,65 L342.237803,65 Z" id="Combined-Shape" fill="#D3C6D7"></path>
                <path d="M361.669782,156.4399 C360.5753,164.342231 358.806589,172.028609 356.423713,179.438868 L324.719434,179.438868 L324.719434,179.438868 C318.246969,179.438868 313,174.191899 313,167.719434 L313,167.719434 L313,167.719434 C313,161.246969 318.246969,156 324.719434,156 L324.719434,156 L358.477981,156 L358.477981,156 C359.584423,156 360.655053,156.15333 361.669782,156.4399 Z" id="Combined-Shape" fill="#EBDDEF"></path>
                <path d="M355.223971,183.000001 C354.148832,186.051115 352.968662,189.052567 351.687812,192 L337.5,192 C335.014719,192 333,189.985281 333,187.5 L333,187.5 L333,187.5 C333,185.014719 335.014719,183 337.5,183 L337.5,183 L355.223977,183 Z" id="Combined-Shape" fill="#A5B6D5"></path>
                <path d="M349.872255,196.000008 C348.667611,198.544187 347.386861,201.045176 346.032949,203.500026 L279.75,203.5 L279.75,203.5 C277.678932,203.5 276,201.821068 276,199.75 L276,199.75 L276,199.75 C276,197.678932 277.678932,196 279.75,196 L279.75,196 L349.872259,196 Z" id="Combined-Shape" fill="#A097A3"></path>
                <path d="M344.010682,207.040686 C337.617262,217.856543 329.778323,227.713745 320.760357,236.345346 L169.56181,236.345346 L169.56181,236.345346 C161.829823,236.345346 155.56181,230.077333 155.56181,222.345346 L155.56181,219.478249 C155.56181,211.746263 161.829823,205.478249 169.56181,205.478249 L169.56181,205.478249 L337.577297,205.478249 L337.577297,205.478249 C339.896724,205.478249 342.084412,206.042288 344.010682,207.040686 Z" id="Combined-Shape" fill="#CAA5D5"></path>
                <path d="M226.377375,274.204808 C226.410903,274.204832 226.444434,274.204844 226.477967,274.204844 C254.65336,274.204844 280.834841,265.653328 302.576879,251 L228.719434,251 C222.246969,251 217,256.246969 217,262.719434 L217,262.719434 L217,262.719434 C217,268.389843 221.027151,273.119661 226.377375,274.204808 Z" id="Combined-Shape" fill="#A5B6D5"></path>
                <path d="M163.859845,259.000009 C182.614718,268.716748 203.906528,274.204844 226.477967,274.204844 C238.433207,274.204844 250.029456,272.665202 261.07989,269.773063 C259.622773,263.596701 254.074999,259 247.453607,259 L247.453607,259 L163.859829,259 Z" id="Combined-Shape" fill="#A097A3"></path>
                <path d="M362.765869,139 C362.925867,140.208274 363.00699,141.425935 363.00699,142.651987 C363.00699,146.058644 362.380689,149.400518 361.1763,152.656259 L306.82813,152.656259 C303.057058,152.656259 300,149.599201 300,145.82813 L300,145.82813 L300,145.82813 C300,142.057058 303.057058,139 306.82813,139 L306.82813,139 L362.765869,139 Z" id="Combined-Shape" fill="#EBDDEF"></path>
                <rect id="Rectangle-2-Copy-2" fill="#D3C6D7" x="177.043478" y="153.26087" width="129.634198" height="34.7826087" rx="14"></rect>
                <path d="M328.813623,47 C333.050526,51.80487 336.955431,56.9104015 340.492369,62.2805661 L273.490557,62.2805661 L273.490557,62.2805661 C269.147614,62.2805661 265.522719,58.9659017 265.135195,54.640283 L265.135195,54.640283 L265.135195,54.640283 C264.78952,50.7817995 267.637214,47.3736556 271.495697,47.0279806 C271.70381,47.0093362 271.912651,47 272.121597,47 L272.121597,47 L328.813623,47 Z" id="Combined-Shape" fill="#A097A3"></path>
                <path d="M112.664197,95 L206.577297,95 L206.577297,95 C214.309284,95 220.577297,101.268014 220.577297,109 L220.577297,120.06478 L220.577297,120.06478 C220.577297,127.796767 214.309284,134.06478 206.577297,134.06478 L113.768023,134.06478 L113.768023,134.06478 C106.574232,134.06478 100.551284,128.612787 99.8371727,121.454527 L98.7333458,110.389747 L98.7333458,110.389747 C97.9658096,102.695951 103.580653,95.8366855 111.274449,95.0691493 C111.736266,95.0230782 112.200088,95 112.664197,95 Z" id="Rectangle-2-Copy-12" fill="#CAA5D5"></path>
                <path d="M237.039113,125.758681 L259.789381,125.758681 L259.789381,125.758681 C266.261846,125.758681 271.508815,131.00565 271.508815,137.478115 L271.508815,137.478115 L271.508815,137.478115 C271.508815,143.95058 266.261846,149.197549 259.789381,149.197549 L238.498783,149.197549 L238.498783,149.197549 C231.898957,149.197549 226.437024,144.065181 226.026811,137.478115 L226.026811,137.478115 L226.026811,137.478115 C225.648055,131.396188 230.271388,126.15877 236.353315,125.780015 C236.581638,125.765796 236.810348,125.758681 237.039113,125.758681 Z" id="Rectangle-2-Copy-18" fill="#D3C6D7"></path>
                <path d="M261.711153,70 L294.789381,70 L294.789381,70 C301.261846,70 306.508815,75.2469693 306.508815,81.7194339 L306.508815,81.7194339 L306.508815,81.7194339 C306.508815,88.1918985 301.261846,93.4388678 294.789381,93.4388678 L263.497403,93.4388678 L263.497403,93.4388678 C256.866501,93.4388678 251.354734,88.3311642 250.850861,81.7194339 L250.850861,81.7194339 L250.850861,81.7194339 C250.393762,75.7214606 254.885528,70.4885905 260.883502,70.0314915 C261.158886,70.0105048 261.434969,70 261.711153,70 Z" id="Rectangle-2-Copy-30" fill="#A097A3"></path>
                <path d="M122.112755,139 L158.169817,139 L158.169817,139 C161.940889,139 164.997947,142.057058 164.997947,145.82813 L164.997947,145.82813 L164.997947,145.82813 C164.997947,149.599201 161.940889,152.656259 158.169817,152.656259 L123.684448,152.656259 L123.684448,152.656259 C119.767589,152.656259 116.473233,149.719303 116.025399,145.82813 L116.025399,145.82813 L116.025399,145.82813 C115.638473,142.466176 118.05021,139.427109 121.412163,139.040183 C121.644734,139.013416 121.878648,139 122.112755,139 Z" id="Rectangle-2-Copy-32" fill="#A097A3"></path>
                <path d="M164.872781,28 L222.485497,28 L222.485497,28 C226.256569,28 229.313627,31.0570577 229.313627,34.8281296 L229.313627,34.8281296 L229.313627,34.8281296 C229.313627,38.5992014 226.256569,41.6562591 222.485497,41.6562591 L167.126837,41.6562591 L167.126837,41.6562591 C163.134821,41.6562591 159.729405,38.7668533 159.079293,34.8281296 L159.079293,34.8281296 L159.079293,34.8281296 C158.551169,31.6284742 160.716873,28.6065119 163.916528,28.0783877 C164.232607,28.0262167 164.552425,28 164.872781,28 Z" id="Rectangle-2-Copy-33" fill="#D3C6D7"></path>
                <path d="M249.417587,22 L268.65407,22 L268.65407,22 C274.176918,22 278.65407,26.4771525 278.65407,32 L278.65407,32 L278.65407,32 C278.65407,37.5228475 274.176918,42 268.65407,42 L250.657536,42 L250.657536,42 C245.026534,42 240.366801,37.6202114 240.018362,32 L240.018362,32 L240.018362,32 C239.69653,26.8089513 243.64381,22.3398785 248.834859,22.0180465 C249.028868,22.0060184 249.223204,22 249.417587,22 Z" id="Rectangle-2-Copy-35" fill="#EBDDEF"></path>
                <path d="M269.449244,100 L334.480563,100 L334.480563,100 C340.953028,100 346.199997,105.246969 346.199997,111.719434 L346.199997,111.719434 L346.199997,111.719434 C346.199997,118.191899 340.953028,123.438868 334.480563,123.438868 L272.246334,123.438868 L272.246334,123.438868 C265.513171,123.438868 259.843047,118.40516 259.045202,111.719434 L259.045202,111.719434 L259.045202,111.719434 C258.359501,105.97344 262.461678,100.759521 268.207672,100.07382 C268.619702,100.02465 269.03429,100 269.449244,100 Z" id="Rectangle-2-Copy-31" fill="#A097A3"></path>
                <path d="M126.282957,43 C103.163243,67.6018248 89,100.718423 89,137.143024 C89,213.082177 150.560847,274.643024 226.5,274.643024 C254.036009,274.643024 279.681511,266.548803 301.187002,252.609866 C171.480641,213.126997 135.187089,132.357255 127.51528,52.600028 C127.177835,49.0919037 126.767061,45.8918943 126.282957,43 Z" id="Combined-Shape" fill="#000000" opacity="0.325747283"></path>
                <path d="M90.374733,142.587759 C79.6979371,142.947257 74.3506403,143.826109 74.3328429,145.224315 C74.3061467,147.321625 139.891623,151.780434 229.428128,151.434757 C318.964633,151.089079 382.984198,147.309641 383.003884,145.224315 C383.017008,143.834098 376.602412,142.955246 363.760096,142.587759 L363.760096,138.251453 C424.919149,139.75137 455.487391,142.925726 455.464821,147.774523 C455.430967,155.047719 340.973625,160.922202 229.428128,161.638102 C117.882631,162.354001 0.19835937,155.605156 0.643206916,147.774523 C0.939771946,142.554101 30.8502807,139.379745 90.374733,138.251453 L90.374733,142.587759 Z" id="Path-3" fill="#E386FF" transform="translate(228.053392, 149.970887) rotate(8.000000) translate(-228.053392, -149.970887) "></path>
                <path d="M89.8578282,133.925873 C79.1810322,134.399302 73.8337355,135.556679 73.8159381,137.398004 C73.7892419,140.159991 139.374718,146.031883 228.911223,145.576654 C318.447728,145.121425 382.467293,140.144209 382.486979,137.398004 C382.500103,135.5672 376.085507,134.409823 363.243191,133.925873 L363.243191,128.215308 C424.402244,130.190577 454.970486,134.370948 454.947917,140.756422 C454.914063,150.334634 340.45672,158.070854 228.911223,159.013636 C117.365726,159.956418 -0.318545462,151.068734 0.126302083,140.756422 C0.422867113,133.881548 30.3333758,129.701177 89.8578282,128.215308 L89.8578282,133.925873 Z" id="Path-3-Copy" fill="#84678C" transform="translate(227.536487, 143.648856) rotate(8.000000) translate(-227.536487, -143.648856) "></path>
            </g>
        </g>
    </g>
</svg>