<?xml version="1.0" encoding="UTF-8"?>
<svg width="274px" height="275px" viewBox="0 0 274 275" version="1.1" xmlns="http://www.w3.org/2000/svg" xmlns:xlink="http://www.w3.org/1999/xlink">
    <!-- Generator: Sketch 47.1 (45422) - http://www.bohemiancoding.com/sketch -->
    <title>Group</title>
    <desc>Created with Sketch.</desc>
    <defs></defs>
    <g id="Page-1" stroke="none" stroke-width="1" fill="none" fill-rule="evenodd">
        <g id="Artboard-Copy-10" transform="translate(-113.000000, -113.000000)">
            <g id="Group" transform="translate(113.000000, 113.000000)">
                <ellipse id="Oval-3" fill="#D29055" cx="137.477967" cy="137.478115" rx="136.493831" ry="136.726729"></ellipse>
                <ellipse id="Oval-3-Copy-2" fill="#D29055" cx="137.477967" cy="137.478115" rx="136.493831" ry="136.726729"></ellipse>
                <ellipse id="Oval-3-Copy-6" fill="#D29055" cx="137.477967" cy="137.478115" rx="136.493831" ry="136.726729"></ellipse>
                <ellipse id="Oval-3-Copy-4" fill="#D29055" cx="137.477967" cy="137.478115" rx="136.493831" ry="136.726729"></ellipse>
                <ellipse id="Oval-3-Copy-12" fill="#D29055" cx="137.477967" cy="137.478115" rx="136.493831" ry="136.726729"></ellipse>
                <ellipse id="Oval-3-Copy-11" fill="#D29055" cx="137.477967" cy="137.478115" rx="136.493831" ry="136.726729"></ellipse>
                <ellipse id="Oval-3-Copy-10" fill="#D29055" cx="137.477967" cy="137.478115" rx="136.493831" ry="136.726729"></ellipse>
                <ellipse id="Oval-3-Copy-8" fill="#D29055" cx="137.477967" cy="137.478115" rx="136.493831" ry="136.726729"></ellipse>
                <ellipse id="Oval-3-Copy-20" fill="#D29055" cx="137.477967" cy="137.478115" rx="136.493831" ry="136.726729"></ellipse>
                <ellipse id="Oval-3-Copy-19" fill="#D29055" cx="137.477967" cy="137.478115" rx="136.493831" ry="136.726729"></ellipse>
                <ellipse id="Oval-3-Copy-18" fill="#D29055" cx="137.477967" cy="137.478115" rx="136.493831" ry="136.726729"></ellipse>
                <ellipse id="Oval-3-Copy-17" fill="#D29055" cx="137.477967" cy="137.478115" rx="136.493831" ry="136.726729"></ellipse>
                <ellipse id="Oval-3-Copy-16" fill="#838383" cx="137.477967" cy="137.478115" rx="136.493831" ry="136.726729"></ellipse>
                <path d="M60.8714839,250.656259 C54.8470723,246.556638 49.1671636,241.987013 43.8842845,237 L82.5649699,237 L82.5649699,237 C86.3360417,237 89.3930995,240.057058 89.3930995,243.82813 L89.3930995,243.82813 C89.3930995,247.599201 86.3360417,250.656259 82.5649699,250.656259 L60.8714839,250.656259 Z" id="Combined-Shape" fill="#95877B"></path>
                <path d="M31.9168473,224.161956 C28.2375239,219.671349 24.8381721,214.941775 21.7455122,210 L76.4758302,210 L76.4758302,210 C80.3865464,210 83.5568083,213.170262 83.5568083,217.080978 L83.5568083,217.080978 L83.5568083,217.080978 C83.5568083,220.991694 80.3865464,224.161956 76.4758302,224.161956 L31.9168473,224.161956 Z" id="Combined-Shape" fill="#696969"></path>
                <path d="M3.85707494,109.438516 C5.54220341,101.339562 7.94265482,93.503503 10.9892408,85.9996465 L85.215895,85.9996487 L85.215895,85.9996487 C91.6883596,85.9996487 96.9353289,91.246618 96.9353289,97.7190826 L96.9353289,97.7190826 C96.9353289,104.191547 91.6883596,109.438516 85.215895,109.438516 L3.85707494,109.438516 Z" id="Combined-Shape" fill="#787878"></path>
                <path d="M10.8692334,188.66 C9.85421194,186.142985 8.91182226,183.588783 8.04466643,181 L77.4047966,181 L77.4047966,181 C79.5200472,181 81.2347966,182.714749 81.2347966,184.83 L81.2347966,184.83 C81.2347966,186.94525 79.5200472,188.66 77.4047966,188.66 L10.8692334,188.66 Z" id="Combined-Shape" fill="#BB885C"></path>
                <path d="M17.368725,202.484923 C10.9482361,190.606715 6.23254428,177.668677 3.55027907,164 L271.405655,164 C268.72339,177.668677 264.007698,190.606715 257.587209,202.484923 L17.368725,202.484923 Z" id="Combined-Shape" fill="#696969"></path>
                <path d="M1.08148142,132.26605 C1.20029669,129.090497 1.42722674,125.942647 1.75869152,122.826087 L115.606929,122.826087 L115.606929,122.826087 C118.213713,122.826087 120.326929,124.939303 120.326929,127.546087 L120.326929,127.546087 C120.326929,130.152871 118.213713,132.266087 115.606929,132.266087 L1.08148006,132.266087 Z" id="Combined-Shape" fill="#F8B377"></path>
                <path d="M10.116593,88.2039667 C13.290889,79.9767143 17.2367698,72.1340779 21.8653442,64.7651003 L141.141143,64.7651003 L141.141143,64.7651003 C147.613608,64.7651003 152.860577,70.0120696 152.860577,76.4845342 L152.860577,76.4845342 L152.860577,76.4845342 C152.860577,82.9569988 147.613608,88.2039681 141.141143,88.2039681 L10.1165826,88.2039681 Z" id="Combined-Shape" fill="#A59689"></path>
                <path d="M24.6972717,60.4399996 C26.914106,57.1898403 29.2673065,54.0404181 31.7486204,51 L112.6731,51 L112.6731,51 C115.279884,51 117.393099,53.1132159 117.393099,55.7199998 L117.393099,55.7199998 C117.393099,58.3267837 115.279884,60.4399996 112.6731,60.4399996 L24.6972717,60.4399996 Z" id="Combined-Shape" fill="#F8B377"></path>
                <path d="M72.7904691,17.0510392 C79.6437761,13.3494331 86.8491105,10.2176968 94.3432289,7.71918162 L126.326085,7.71918162 L126.326085,7.71918162 C128.932868,7.71918162 131.046084,9.8323975 131.046084,12.4391814 L131.046084,12.4391814 C131.046084,15.0459653 128.932868,17.1591812 126.326085,17.1591812 L73.9244459,17.1591812 L73.9244459,17.1591812 C73.5379828,17.1591812 73.1587311,17.1221155 72.7904691,17.0510392 Z" id="Combined-Shape" fill="#A59689"></path>
                <path d="M196.166047,13.9999521 C204.171608,17.8247599 211.746773,22.4077588 218.798962,27.6562112 L149.82813,27.6562112 L149.82813,27.6562112 C146.057058,27.6562112 143,24.5991535 143,20.8280816 L143,20.8280816 L143,20.8280816 C143,17.0570098 146.057058,13.9999521 149.82813,13.9999521 L196.166047,13.9999521 Z" id="Combined-Shape" fill="#7D7D7D"></path>
                <path d="M263.556199,85 C264.839845,88.0909578 266.013511,91.2392582 267.072305,94.4399992 L157.72,94.4399996 L157.72,94.4399996 C155.113216,94.4399996 153,92.3267837 153,89.7199998 L153,89.7199998 L153,89.7199998 C153,87.1132159 155.113216,85 157.72,85 L157.72,85 L263.556199,85 Z" id="Combined-Shape" fill="#F8B377"></path>
                <path d="M270.568194,107.00034 C272.259982,114.444265 273.345354,122.119225 273.769508,129.970323 C272.725289,130.275309 271.620736,130.438868 270.477981,130.438868 L236.719434,130.438868 C230.246969,130.438868 225,125.191899 225,118.719434 L225,118.719434 L225,118.719434 C225,112.246969 230.246969,107 236.719434,107 L270.477981,107 C270.508078,107 270.538149,107.000113 270.568194,107.00034 Z" id="Combined-Shape" fill="#F8B377"></path>
                <path d="M273.715881,129.036289 C273.885666,131.828425 273.971798,134.643194 273.971798,137.478115 C273.971798,137.799003 273.970694,138.119632 273.968491,138.44 L209.701855,138.44 C207.105092,138.44 205,136.334908 205,133.738145 L205,133.738145 L205,133.738145 C205,131.141382 207.105092,129.036289 209.701855,129.036289 L209.701855,129.036289 L273.715881,129.036289 Z" id="Combined-Shape" fill="#F8B377"></path>
                <path d="M261.340792,195.000006 C260.161685,197.543374 258.906806,200.044342 257.579059,202.5 L192.75,202.5 L192.75,202.5 C190.678932,202.5 189,200.821068 189,198.75 L189,198.75 L189,198.75 C189,196.678932 190.678932,195 192.75,195 L192.75,195 L261.340795,195 Z" id="Combined-Shape" fill="#575757"></path>
                <path d="M255.010682,207.040686 C248.617262,217.856543 240.778323,227.713745 231.760357,236.345346 L155,236.345346 C147.268014,236.345346 141,230.077333 141,222.345346 L141,219.478249 C141,211.746263 147.268014,205.478249 155,205.478249 L155,205.478249 L248.577297,205.478249 L248.577297,205.478249 C250.896724,205.478249 253.084412,206.042288 255.010682,207.040686 Z" id="Combined-Shape" fill="#A59689"></path>
                <path d="M236.302638,231.789272 C229.27708,239.173974 221.435067,245.772268 212.921635,251.438868 L112.719434,251.438868 C106.246969,251.438868 101,246.191899 101,239.719434 L101,239.719434 L101,239.719434 C101,233.246969 106.246969,228 112.719434,228 L112.719434,228 L227.673666,228 L227.673666,228 C231.087665,228 234.160708,229.459809 236.302638,231.789272 Z" id="Combined-Shape" fill="#A59689"></path>
                <path d="M100.539162,269.13905 C112.287623,272.439667 124.677007,274.204844 137.477967,274.204844 C157.577047,274.204844 176.661473,269.853178 193.843491,262.039114 C191.452802,260.136706 188.425609,259 185.132924,259 L185.132924,259 L114,259 L114,259 C107.607237,259 102.21523,263.284744 100.539162,269.13905 Z" id="Combined-Shape" fill="#95877B"></path>
                <rect id="Combined-Shape" fill="#A59689" x="178" y="146" width="45.5088149" height="13.6562591" rx="6.82812956"></rect>
                <path d="M241.971029,49.5067806 C251.669745,61.0543275 259.495807,74.2324061 264.980557,88.571559 L209.339861,88.5715603 C201.607874,88.5715603 195.339861,82.3035468 195.339861,74.5715603 L195.339861,63.5067806 C195.339861,55.7747941 201.607874,49.5067806 209.339861,49.5067806 L209.339861,49.5067806 L241.971029,49.5067806 Z" id="Combined-Shape" fill="#787878"></path>
                <path d="M223.30664,31.1591416 C233.26407,39.2350222 242.064373,48.6861048 249.419574,59.2239231 L168.562073,59.2239231 L168.562073,59.2239231 C160.830087,59.2239231 154.562073,52.9559096 154.562073,45.2239231 L154.562073,45.1591416 L154.562073,45.1591416 C154.562073,37.4271551 160.830087,31.1591416 168.562073,31.1591416 L168.562073,31.1591416 L223.30664,31.1591416 Z" id="Combined-Shape" fill="#A59689"></path>
                <path d="M2.44841518,157.576361 C1.48377116,151.016964 0.98413631,144.305987 0.98413631,137.478115 C0.98413631,134.01174 1.11291177,130.575493 1.36593195,127.173913 L186.90795,127.173913 L186.90795,127.173913 C194.639936,127.173913 200.90795,133.441927 200.90795,141.173913 L200.90795,143.576361 L200.90795,143.576361 C200.90795,151.308348 194.639936,157.576361 186.90795,157.576361 L2.44841518,157.576361 Z" id="Combined-Shape" fill="#A59689"></path>
                <path d="M33.8911614,48.4388678 C41.5007421,39.5639765 50.227413,31.6780768 59.8527154,25 L65.564827,25 L65.564827,25 C72.0372916,25 77.2842609,30.2469693 77.2842609,36.7194339 L77.2842609,36.7194339 C77.2842609,43.1918985 72.0372916,48.4388678 65.564827,48.4388678 L33.8911614,48.4388678 Z" id="Combined-Shape" fill="#F8B377"></path>
                <rect id="Rectangle-2-Copy-2" fill="#F8B377" x="135" y="142.375137" width="129.634198" height="34.7826087" rx="14"></rect>
                <path d="M232.165232,39 C237.069152,43.7323583 241.620473,48.8288129 245.775832,54.2459273 C245.534879,54.2688488 245.290653,54.2805661 245.04369,54.2805661 L218.383782,54.2805661 L218.383782,54.2805661 C214.04084,54.2805661 210.415945,50.9659017 210.02842,46.640283 L210.02842,46.640283 L210.02842,46.640283 C209.682745,42.7817995 212.530439,39.3736556 216.388923,39.0279806 C216.597035,39.0093362 216.805877,39 217.014822,39 L217.014822,39 L232.165232,39 Z" id="Combined-Shape" fill="#7D7D7D"></path>
                <rect id="Rectangle-2-Copy-29" fill="#A59689" x="83" y="196" width="68.1974148" height="7.44000006" rx="3.72000003"></rect>
                <path d="M19.9625281,95 L129.438591,95 L129.438591,95 C135.911056,95 141.158025,100.246969 141.158025,106.719434 L141.158025,106.719434 L141.158025,106.719434 C141.158025,113.191899 135.911056,118.438868 129.438591,118.438868 L23.9725385,118.438868 L23.9725385,118.438868 C17.1940112,118.438868 11.3892239,113.582643 10.1924605,106.910598 L10.1581715,106.719434 L10.1581715,106.719434 C9.18692046,101.304637 12.7891259,96.1277228 18.2039226,95.1564718 C18.7843373,95.0523629 19.3728503,95 19.9625281,95 Z" id="Rectangle-2-Copy-12" fill="#787878"></path>
                <path d="M183.871545,144.375137 L218.487917,144.375137 L218.487917,144.375137 C224.960382,144.375137 230.207351,149.622107 230.207351,156.094571 L230.207351,156.094571 L230.207351,156.094571 C230.207351,162.567036 224.960382,167.814005 218.487917,167.814005 L185.70644,167.814005 L185.70644,167.814005 C179.070827,167.814005 173.551582,162.709944 173.033703,156.094571 L173.033703,156.094571 L173.033703,156.094571 C172.565126,150.108996 177.037538,144.876872 183.023113,144.408296 C183.305384,144.386199 183.588411,144.375137 183.871545,144.375137 Z" id="Rectangle-2-Copy-18" fill="#E4AA78"></path>
                <path d="M42.3939022,201 L58.1698173,201 L58.1698173,201 C61.9408891,201 64.9979469,204.057058 64.9979469,207.82813 L64.9979469,207.82813 L64.9979469,207.82813 C64.9979469,211.599201 61.9408891,214.656259 58.1698173,214.656259 L43.3240613,214.656259 L43.3240613,214.656259 C39.4712673,214.656259 36.2768477,211.672017 36.0150317,207.82813 L36.0150317,207.82813 L36.0150317,207.82813 C35.7750753,204.305177 38.4364698,201.254736 41.9594227,201.01478 C42.1040398,201.004929 42.2489501,201 42.3939022,201 Z" id="Rectangle-2-Copy-35" fill="#696969"></path>
                <path d="M33.1127546,139 L69.1698173,139 L69.1698173,139 C72.9408891,139 75.9979469,142.057058 75.9979469,145.82813 L75.9979469,145.82813 L75.9979469,145.82813 C75.9979469,149.599201 72.9408891,152.656259 69.1698173,152.656259 L34.684448,152.656259 L34.684448,152.656259 C30.7675892,152.656259 27.4732327,149.719303 27.0253991,145.82813 L27.0253991,145.82813 L27.0253991,145.82813 C26.6384732,142.466176 29.0502096,139.427109 32.4121632,139.040183 C32.6447343,139.013416 32.8786483,139 33.1127546,139 Z" id="Rectangle-2-Copy-32" fill="#8F8277"></path>
                <path d="M181.393902,39 L197.169817,39 L197.169817,39 C200.940889,39 203.997947,42.0570577 203.997947,45.8281296 L203.997947,45.8281296 L203.997947,45.8281296 C203.997947,49.5992014 200.940889,52.6562591 197.169817,52.6562591 L182.324061,52.6562591 L182.324061,52.6562591 C178.471267,52.6562591 175.276848,49.6720174 175.015032,45.8281296 L175.015032,45.8281296 L175.015032,45.8281296 C174.775075,42.3051766 177.43647,39.254736 180.959423,39.0147796 C181.10404,39.0049294 181.24895,39 181.393902,39 Z" id="Rectangle-2-Copy-33" fill="#E6A974"></path>
                <path d="M157.014822,209 L185.04369,209 L185.04369,209 C189.263302,209 192.683973,212.420671 192.683973,216.640283 L192.683973,216.640283 L192.683973,216.640283 C192.683973,220.859895 189.263302,224.280566 185.04369,224.280566 L158.383782,224.280566 L158.383782,224.280566 C154.04084,224.280566 150.415945,220.965902 150.02842,216.640283 L150.02842,216.640283 L150.02842,216.640283 C149.682745,212.781799 152.530439,209.373656 156.388923,209.027981 C156.597035,209.009336 156.805877,209 157.014822,209 Z" id="Rectangle-2-Copy-36" fill="#95877B"></path>
                <path d="M180.449244,100 L245.480563,100 L245.480563,100 C251.953028,100 257.199997,105.246969 257.199997,111.719434 L257.199997,111.719434 L257.199997,111.719434 C257.199997,118.191899 251.953028,123.438868 245.480563,123.438868 L183.246334,123.438868 L183.246334,123.438868 C176.513171,123.438868 170.843047,118.40516 170.045202,111.719434 L170.045202,111.719434 L170.045202,111.719434 C169.359501,105.97344 173.461678,100.759521 179.207672,100.07382 C179.619702,100.02465 180.03429,100 180.449244,100 Z" id="Rectangle-2-Copy-31" fill="#F8B377"></path>
                <path d="M37.2829566,43 C14.1632426,67.6018248 0,100.718423 0,137.143024 C0,213.082177 61.5608469,274.643024 137.5,274.643024 C165.036009,274.643024 190.681511,266.548803 212.187002,252.609866 C82.4806413,213.126997 46.1870888,132.357255 38.5152798,52.600028 C38.1778351,49.0919037 37.7670606,45.8918943 37.2829566,43 Z" id="Combined-Shape" fill="#000000" opacity="0.325747283"></path>
            </g>
        </g>
    </g>
</svg>