<?xml version="1.0" encoding="UTF-8"?>
<svg width="274px" height="275px" viewBox="0 0 274 275" version="1.1" xmlns="http://www.w3.org/2000/svg" xmlns:xlink="http://www.w3.org/1999/xlink">
    <!-- Generator: Sketch 47.1 (45422) - http://www.bohemiancoding.com/sketch -->
    <title>Group</title>
    <desc>Created with Sketch.</desc>
    <defs></defs>
    <g id="Page-1" stroke="none" stroke-width="1" fill="none" fill-rule="evenodd">
        <g id="Artboard-Copy-8" transform="translate(-113.000000, -113.000000)">
            <g id="Group" transform="translate(113.000000, 113.000000)">
                <ellipse id="Oval-3" fill="#D29055" cx="137.477967" cy="137.478115" rx="136.493831" ry="136.726729"></ellipse>
                <ellipse id="Oval-3-Copy-2" fill="#D29055" cx="137.477967" cy="137.478115" rx="136.493831" ry="136.726729"></ellipse>
                <ellipse id="Oval-3-Copy-6" fill="#D29055" cx="137.477967" cy="137.478115" rx="136.493831" ry="136.726729"></ellipse>
                <ellipse id="Oval-3-Copy-4" fill="#D29055" cx="137.477967" cy="137.478115" rx="136.493831" ry="136.726729"></ellipse>
                <ellipse id="Oval-3-Copy-12" fill="#D29055" cx="137.477967" cy="137.478115" rx="136.493831" ry="136.726729"></ellipse>
                <ellipse id="Oval-3-Copy-11" fill="#D29055" cx="137.477967" cy="137.478115" rx="136.493831" ry="136.726729"></ellipse>
                <ellipse id="Oval-3-Copy-10" fill="#D29055" cx="137.477967" cy="137.478115" rx="136.493831" ry="136.726729"></ellipse>
                <ellipse id="Oval-3-Copy-8" fill="#D29055" cx="137.477967" cy="137.478115" rx="136.493831" ry="136.726729"></ellipse>
                <ellipse id="Oval-3-Copy-20" fill="#D29055" cx="137.477967" cy="137.478115" rx="136.493831" ry="136.726729"></ellipse>
                <ellipse id="Oval-3-Copy-19" fill="#D29055" cx="137.477967" cy="137.478115" rx="136.493831" ry="136.726729"></ellipse>
                <ellipse id="Oval-3-Copy-18" fill="#D29055" cx="137.477967" cy="137.478115" rx="136.493831" ry="136.726729"></ellipse>
                <ellipse id="Oval-3-Copy-17" fill="#D29055" cx="137.477967" cy="137.478115" rx="136.493831" ry="136.726729"></ellipse>
                <ellipse id="Oval-3-Copy-16" fill="#FF8F9C" cx="137.477967" cy="137.478115" rx="136.493831" ry="136.726729"></ellipse>
                <path d="M60.8714839,250.656259 C54.8470723,246.556638 49.1671636,241.987013 43.8842845,237 L82.5649699,237 L82.5649699,237 C86.3360417,237 89.3930995,240.057058 89.3930995,243.82813 L89.3930995,243.82813 C89.3930995,247.599201 86.3360417,250.656259 82.5649699,250.656259 L60.8714839,250.656259 Z" id="Combined-Shape" fill="#E08B8D"></path>
                <path d="M38.3221729,231.44 C34.6066143,227.507022 31.1217406,223.353113 27.8892433,219 L91.9400039,219 L91.9400039,219 C95.3752149,219 98.1600037,221.784789 98.1600037,225.22 L98.1600037,225.22 C98.1600037,228.655211 95.3752149,231.44 91.9400039,231.44 L38.3221729,231.44 Z" id="Combined-Shape" fill="#F59A9C"></path>
                <path d="M28.2164943,219.438868 C22.7624273,212.154923 18.0172992,204.307721 14.0836793,196.000008 L113.438591,196 L113.438591,196 C119.911056,196 125.158025,201.246969 125.158025,207.719434 L125.158025,207.719434 C125.158025,214.191899 119.911056,219.438868 113.438591,219.438868 L28.2164943,219.438868 Z" id="Combined-Shape" fill="#F67578"></path>
                <path d="M10.8692334,188.66 C9.85421194,186.142985 8.91182226,183.588783 8.04466643,181 L77.4047966,181 L77.4047966,181 C79.5200472,181 81.2347966,182.714749 81.2347966,184.83 L81.2347966,184.83 C81.2347966,186.94525 79.5200472,188.66 77.4047966,188.66 L10.8692334,188.66 Z" id="Combined-Shape" fill="#F59A9C"></path>
                <path d="M6.9724982,177.656259 C5.60595051,173.196977 4.46092405,168.640597 3.55027907,164 L52.406667,164 L52.406667,164 C56.1777388,164 59.2347966,167.057058 59.2347966,170.82813 L59.2347966,170.82813 L59.2347966,170.82813 C59.2347966,174.599201 56.1777388,177.656259 52.406667,177.656259 L6.9724982,177.656259 Z" id="Combined-Shape" fill="#F67578"></path>
                <path d="M3.89311306,109.265873 C5.74076948,100.443106 8.43752122,91.9331984 11.8937983,83.8258736 L59.7373849,83.8258736 L59.7373849,83.8258736 C66.7624468,83.8258736 72.4573847,89.5208115 72.4573847,96.5458734 L72.4573847,96.5458734 L72.4573847,96.5458734 C72.4573847,103.570935 66.7624468,109.265873 59.7373849,109.265873 L3.89311306,109.265873 Z" id="Combined-Shape" fill="#F59A9C"></path>
                <path d="M9.73534448,89.2038037 C12.8325871,80.9841106 16.6977946,73.1418875 21.243314,65.7649371 L69.8764879,65.7649371 L69.8764879,65.7649371 C76.3489525,65.7649371 81.5959218,71.0119064 81.5959218,77.484371 L81.5959218,77.484371 C81.5959218,83.9568356 76.3489525,89.2038049 69.8764879,89.2038049 L9.73533562,89.2038049 Z" id="Combined-Shape" fill="#EA8688"></path>
                <path d="M24.6972717,60.4399996 C26.914106,57.1898403 29.2673065,54.0404181 31.7486204,51 L112.6731,51 L112.6731,51 C115.279884,51 117.393099,53.1132159 117.393099,55.7199998 L117.393099,55.7199998 C117.393099,58.3267837 115.279884,60.4399996 112.6731,60.4399996 L24.6972717,60.4399996 Z" id="Combined-Shape" fill="#FFA5A7"></path>
                <path d="M42.17155,39.6012568 C50.4158688,31.5447798 59.6742278,24.5247544 69.7367796,18.7513861 L88.9089084,18.7513861 L88.9089084,18.7513861 C94.9840404,18.7513861 99.908908,23.6762536 99.908908,29.7513856 L99.908908,29.7513856 C99.908908,35.8265176 94.9840404,40.7513852 88.9089084,40.7513852 L47.3335483,40.7513852 L47.3335483,40.7513852 C45.4935738,40.7513852 43.7423198,40.3401733 42.1715461,39.601261 Z" id="Combined-Shape" fill="#EC7D7F"></path>
                <path d="M253.237803,65 C255.983442,69.3909524 258.487009,73.9492901 260.729774,78.6562511 L179.82813,78.6562591 L179.82813,78.6562591 C176.057058,78.6562591 173,75.5992014 173,71.8281296 L173,71.8281296 L173,71.8281296 C173,68.0570577 176.057058,65 179.82813,65 L253.237803,65 Z" id="Combined-Shape" fill="#F67578"></path>
                <path d="M263.556199,85 C267.629433,94.8081549 270.595282,105.193695 272.29739,116 L167,116 C159.268014,116 153,109.731986 153,102 L153,99 L153,99 C153,91.2680135 159.268014,85 167,85 L167,85 L263.556199,85 Z" id="Combined-Shape" fill="#F39FA1"></path>
                <path d="M272.669782,156.4399 C271.5753,164.342231 269.806589,172.028609 267.423713,179.438868 L235.719434,179.438868 L235.719434,179.438868 C229.246969,179.438868 224,174.191899 224,167.719434 L224,167.719434 L224,167.719434 C224,161.246969 229.246969,156 235.719434,156 L235.719434,156 L269.477981,156 L269.477981,156 C270.584423,156 271.655053,156.15333 272.669782,156.4399 Z" id="Combined-Shape" fill="#E8696C"></path>
                <path d="M266.223971,183.000001 C265.337906,185.514544 264.380504,187.995357 263.3542,190.44 L221.72,190.44 L221.72,190.44 C219.665501,190.44 218,188.774499 218,186.72 C218,184.665501 219.665501,183 221.72,183 L221.72,183 L266.223977,183 Z" id="Combined-Shape" fill="#FFA5A7"></path>
                <path d="M261.340792,195.000006 C260.161685,197.543374 258.906806,200.044342 257.579059,202.5 L192.75,202.5 L192.75,202.5 C190.678932,202.5 189,200.821068 189,198.75 L189,198.75 L189,198.75 C189,196.678932 190.678932,195 192.75,195 L192.75,195 L261.340795,195 Z" id="Combined-Shape" fill="#E8696C"></path>
                <path d="M255.010682,207.040686 C248.617262,217.856543 240.778323,227.713745 231.760357,236.345346 L155,236.345346 C147.268014,236.345346 141,230.077333 141,222.345346 L141,219.478249 C141,211.746263 147.268014,205.478249 155,205.478249 L155,205.478249 L248.577297,205.478249 L248.577297,205.478249 C250.896724,205.478249 253.084412,206.042288 255.010682,207.040686 Z" id="Combined-Shape" fill="#E8696C"></path>
                <path d="M236.302638,231.789272 C229.27708,239.173974 221.435067,245.772268 212.921635,251.438868 L112.719434,251.438868 C106.246969,251.438868 101,246.191899 101,239.719434 L101,239.719434 L101,239.719434 C101,233.246969 106.246969,228 112.719434,228 L112.719434,228 L227.673666,228 L227.673666,228 C231.087665,228 234.160708,229.459809 236.302638,231.789272 Z" id="Combined-Shape" fill="#F4898B"></path>
                <path d="M100.539162,269.13905 C112.287623,272.439667 124.677007,274.204844 137.477967,274.204844 C157.577047,274.204844 176.661473,269.853178 193.843491,262.039114 C191.452802,260.136706 188.425609,259 185.132924,259 L185.132924,259 L114,259 L114,259 C107.607237,259 102.21523,263.284744 100.539162,269.13905 Z" id="Combined-Shape" fill="#E8696C"></path>
                <path d="M274.00699,142.651987 C274.00699,146.058644 273.380689,149.400518 272.1763,152.656259 L209.002136,152.656259 C206.239533,152.656259 204,150.416726 204,147.654123 L204,147.654123 L204,147.654123 C204,144.891519 206.239533,142.651987 209.002136,142.651987 L209.002136,142.651987 L274.00699,142.651987 Z" id="Combined-Shape" fill="#F39FA1"></path>
                <path d="M179.312694,7.29305536 C202.662882,14.8163679 223.269217,28.4683368 239.243791,46.357835 L162.687525,46.357835 C154.955538,46.357835 148.687525,40.0898215 148.687525,32.357835 L148.687525,21.2930554 C148.687525,13.5610689 154.955538,7.29305536 162.687525,7.29305536 L162.687525,7.29305536 L179.312694,7.29305536 Z" id="Combined-Shape" fill="#E08B8D"></path>
                <path d="M205.925012,19.1591812 C222.821943,28.9885648 237.420214,42.3456835 248.714966,58.2239634 L131.562073,58.2239634 L131.562073,58.2239634 C123.830087,58.2239634 117.562073,51.9559499 117.562073,44.2239634 L117.562073,33.1591838 L117.562073,33.1591838 C117.562073,25.4271973 123.830087,19.1591838 131.562073,19.1591838 L131.562073,19.1591838 L205.925016,19.1591838 Z" id="Combined-Shape" fill="#F67578"></path>
                <path d="M4.43747855,168.173909 C2.17787516,158.306661 0.98413631,148.032032 0.98413631,137.478115 C0.98413631,132.989578 1.20005563,128.551559 1.6220574,124.173909 L168.805129,124.173909 L168.805129,124.173909 C176.537116,124.173909 182.805129,130.441922 182.805129,138.173909 L182.805129,154.173909 L182.805129,154.173909 C182.805129,161.905895 176.537116,168.173909 168.805129,168.173909 L4.43747855,168.173909 Z" id="Combined-Shape" fill="#F4898B"></path>
                <path d="M27.6799043,56.2388972 C34.0697839,47.587579 41.4543925,39.7181056 49.6644663,32.8000294 L64.3535698,32.8000294 L64.3535698,32.8000294 C70.8260344,32.8000294 76.0730037,38.0469987 76.0730037,44.5194633 L76.0730037,44.5194633 C76.0730037,50.9919279 70.8260344,56.2388972 64.3535698,56.2388972 L27.6799043,56.2388972 Z" id="Combined-Shape" fill="#E08B8D"></path>
                <rect id="Rectangle-2-Copy-2" fill="#F4898B" x="88.0434783" y="153.26087" width="129.634198" height="34.7826087" rx="14"></rect>
                <path d="M216.525178,26 C225.787841,32.6023259 234.192428,40.3340465 241.53872,48.9946044 C241.420924,48.9982021 241.302659,49 241.183973,49 L178.044295,49 C171.430027,49 165.855245,44.0653676 165.052446,37.5 L165.052446,37.5 C164.365005,31.8780399 168.365223,26.7632596 173.987183,26.0758186 C174.400168,26.0253197 174.815844,26 175.231905,26 L175.231905,26 L216.525178,26 Z" id="Combined-Shape" fill="#E08B8D"></path>
                <rect id="Rectangle-2-Copy-29" fill="#F59A9C" x="83" y="196" width="68.1974148" height="7.44000006" rx="3.72000003"></rect>
                <path d="M23.9625281,95 L133.438591,95 L133.438591,95 C139.911056,95 145.158025,100.246969 145.158025,106.719434 L145.158025,106.719434 L145.158025,106.719434 C145.158025,113.191899 139.911056,118.438868 133.438591,118.438868 L27.9725385,118.438868 L27.9725385,118.438868 C21.1940112,118.438868 15.3892239,113.582643 14.1924605,106.910598 L14.1581715,106.719434 L14.1581715,106.719434 C13.1869205,101.304637 16.7891259,96.1277228 22.2039226,95.1564718 C22.7843373,95.0523629 23.3728503,95 23.9625281,95 Z" id="Rectangle-2-Copy-12" fill="#F59A9C"></path>
                <path d="M136.871545,155 L171.487917,155 L171.487917,155 C177.960382,155 183.207351,160.246969 183.207351,166.719434 L183.207351,166.719434 L183.207351,166.719434 C183.207351,173.191899 177.960382,178.438868 171.487917,178.438868 L138.70644,178.438868 L138.70644,178.438868 C132.070827,178.438868 126.551582,173.334807 126.033703,166.719434 L126.033703,166.719434 L126.033703,166.719434 C125.565126,160.733859 130.037538,155.501735 136.023113,155.033159 C136.305384,155.011061 136.588411,155 136.871545,155 Z" id="Rectangle-2-Copy-18" fill="#FFFFFF"></path>
                <path d="M159.871545,143 L194.487917,143 L194.487917,143 C200.960382,143 206.207351,148.246969 206.207351,154.719434 L206.207351,154.719434 L206.207351,154.719434 C206.207351,161.191899 200.960382,166.438868 194.487917,166.438868 L161.70644,166.438868 L161.70644,166.438868 C155.070827,166.438868 149.551582,161.334807 149.033703,154.719434 L149.033703,154.719434 L149.033703,154.719434 C148.565126,148.733859 153.037538,143.501735 159.023113,143.033159 C159.305384,143.011061 159.588411,143 159.871545,143 Z" id="Rectangle-2-Copy-38" fill="#FFFFFF"></path>
                <path d="M94.8715454,72 L129.487917,72 L129.487917,72 C135.960382,72 141.207351,77.2469693 141.207351,83.7194339 L141.207351,83.7194339 L141.207351,83.7194339 C141.207351,90.1918985 135.960382,95.4388678 129.487917,95.4388678 L96.7064397,95.4388678 L96.7064397,95.4388678 C90.0708271,95.4388678 84.5515822,90.3348067 84.0337027,83.7194339 L84.0337027,83.7194339 L84.0337027,83.7194339 C83.5651264,77.7338586 88.0375377,72.501735 94.023113,72.0331587 C94.3053841,72.0110613 94.5884107,72 94.8715454,72 Z" id="Rectangle-2-Copy-39" fill="#FFFFFF"></path>
                <path d="M119.35709,60 L140.679172,60 L140.679172,60 C146.754304,60 151.679171,64.9248676 151.679171,70.9999996 L151.679171,70.9999996 L151.679171,70.9999996 C151.679171,77.0751316 146.754304,81.9999991 140.679172,81.9999991 L120.726155,81.9999991 L120.726155,81.9999991 C114.531574,81.9999991 109.40509,77.1826215 109.020345,70.9999996 L109.020345,70.9999996 L109.020345,70.9999996 C108.665083,65.2911725 113.005005,60.3752573 118.713832,60.0199957 C118.927993,60.0066685 119.142516,60 119.35709,60 Z" id="Rectangle-2-Copy-40" fill="#FFFFFF"></path>
                <path d="M112.670009,89 L145.171027,89 L145.171027,89 C148.942099,89 151.999157,92.0570577 151.999157,95.8281296 L151.999157,95.8281296 L151.999157,95.8281296 C151.999157,99.5992014 148.942099,102.656259 145.171027,102.656259 L114.129183,102.656259 L114.129183,102.656259 C110.224021,102.656259 106.947504,99.7111881 106.532599,95.8281296 L106.532599,95.8281296 L106.532599,95.8281296 C106.170419,92.4385316 108.624627,89.3971152 112.014225,89.0349359 C112.232045,89.0116618 112.450949,89 112.670009,89 Z" id="Rectangle-2-Copy-41" fill="#FFFFFF"></path>
                <path d="M165.393885,31 L181.171027,31 L181.171027,31 C184.942099,31 187.999157,34.0570577 187.999157,37.8281296 L187.999157,37.8281296 L187.999157,37.8281296 C187.999157,41.5992014 184.942099,44.6562591 181.171027,44.6562591 L166.324083,44.6562591 L166.324083,44.6562591 C162.471286,44.6562591 159.27686,41.6720204 159.015033,37.8281296 L159.015033,37.8281296 L159.015033,37.8281296 C158.775067,34.3051866 161.436446,31.2547465 164.959389,31.0147808 C165.104012,31.0049298 165.248928,31 165.393885,31 Z" id="Rectangle-2-Copy-42" fill="#FFFFFF"></path>
                <path d="M153.393885,24 L169.171027,24 L169.171027,24 C172.942099,24 175.999157,27.0570577 175.999157,30.8281296 L175.999157,30.8281296 L175.999157,30.8281296 C175.999157,34.5992014 172.942099,37.6562591 169.171027,37.6562591 L154.324083,37.6562591 L154.324083,37.6562591 C150.471286,37.6562591 147.27686,34.6720204 147.015033,30.8281296 L147.015033,30.8281296 L147.015033,30.8281296 C146.775067,27.3051866 149.436446,24.2547465 152.959389,24.0147808 C153.104012,24.0049298 153.248928,24 153.393885,24 Z" id="Rectangle-2-Copy-43" fill="#FFFFFF"></path>
                <path d="M147.510776,39 L191.171027,39 L191.171027,39 C194.942099,39 197.999157,42.0570577 197.999157,45.8281296 L197.999157,45.8281296 L197.999157,45.8281296 C197.999157,49.5992014 194.942099,52.6562591 191.171027,52.6562591 L149.323095,52.6562591 L149.323095,52.6562591 C145.380561,52.6562591 142.047605,49.7363972 141.52894,45.8281296 L141.52894,45.8281296 L141.52894,45.8281296 C141.09051,42.5244529 143.413251,39.4908759 146.716928,39.0524458 C146.980102,39.01752 147.245294,39 147.510776,39 Z" id="Rectangle-2-Copy-44" fill="#FFFFFF"></path>
                <path d="M114.393902,146 L130.169817,146 L130.169817,146 C133.940889,146 136.997947,149.057058 136.997947,152.82813 L136.997947,152.82813 L136.997947,152.82813 C136.997947,156.599201 133.940889,159.656259 130.169817,159.656259 L115.324061,159.656259 L115.324061,159.656259 C111.471267,159.656259 108.276848,156.672017 108.015032,152.82813 L108.015032,152.82813 L108.015032,152.82813 C107.775075,149.305177 110.43647,146.254736 113.959423,146.01478 C114.10404,146.004929 114.24895,146 114.393902,146 Z" id="Rectangle-2-Copy-30" fill="#FFFFFF"></path>
                <path d="M42.3939022,201 L58.1698173,201 L58.1698173,201 C61.9408891,201 64.9979469,204.057058 64.9979469,207.82813 L64.9979469,207.82813 L64.9979469,207.82813 C64.9979469,211.599201 61.9408891,214.656259 58.1698173,214.656259 L43.3240613,214.656259 L43.3240613,214.656259 C39.4712673,214.656259 36.2768477,211.672017 36.0150317,207.82813 L36.0150317,207.82813 L36.0150317,207.82813 C35.7750753,204.305177 38.4364698,201.254736 41.9594227,201.01478 C42.1040398,201.004929 42.2489501,201 42.3939022,201 Z" id="Rectangle-2-Copy-35" fill="#FFFFFF"></path>
                <path d="M33.1281085,139 L69.1851712,139 L69.1851712,139 C72.956243,139 76.0133008,142.057058 76.0133008,145.82813 L76.0133008,145.82813 L76.0133008,145.82813 C76.0133008,149.599201 72.956243,152.656259 69.1851712,152.656259 L34.6998019,152.656259 L34.6998019,152.656259 C30.7829431,152.656259 27.4885866,149.719303 27.040753,145.82813 L27.040753,145.82813 L27.040753,145.82813 C26.6538271,142.466176 29.0655635,139.427109 32.4275171,139.040183 C32.6600882,139.013416 32.8940022,139 33.1281085,139 Z" id="Rectangle-2-Copy-32" fill="#FFFFFF"></path>
                <path d="M50.4627441,131 L61.2913565,131 L61.2913565,131 C65.0624283,131 68.119486,134.057058 68.119486,137.82813 L68.119486,137.82813 L68.119486,137.82813 C68.119486,141.599201 65.0624283,144.656259 61.2913565,144.656259 L51.2364813,144.656259 L51.2364813,144.656259 C47.3983473,144.656259 44.2276454,141.660118 44.0105323,137.82813 L44.0105323,137.82813 L44.0105323,137.82813 C43.8086336,134.264671 46.533716,131.212247 50.0971742,131.010348 C50.2189088,131.003451 50.3408142,131 50.4627441,131 Z" id="Rectangle-2-Copy-46" fill="#FFFFFF"></path>
                <path d="M58.1569614,157 L90.6806854,157 L90.6806854,157 C94.4517572,157 97.5088149,160.057058 97.5088149,163.82813 L97.5088149,163.82813 L97.5088149,163.82813 C97.5088149,167.599201 94.4517572,170.656259 90.6806854,170.656259 L59.6168543,170.656259 L59.6168543,170.656259 C55.7116181,170.656259 52.434988,167.71124 52.0198724,163.82813 L52.0198724,163.82813 L52.0198724,163.82813 C51.6575337,160.438709 54.1114685,157.397307 57.5008891,157.034968 C57.718804,157.011673 57.9378049,157 58.1569614,157 Z" id="Rectangle-2-Copy-47" fill="#FFFFFF"></path>
                <path d="M13.8522119,147.654123 L71.4426308,147.654123 L71.4426308,147.654123 C75.2137026,147.654123 78.2707603,150.711181 78.2707603,154.482252 L78.2707603,154.482252 L78.2707603,154.482252 C78.2707603,158.253324 75.2137026,161.310382 71.4426308,161.310382 L16.1055614,161.310382 L16.1055614,161.310382 C12.1136271,161.310382 8.70832869,158.420928 8.05842791,154.482252 L8.05842791,154.482252 L8.05842791,154.482252 C7.53044222,151.282434 9.69639071,148.260451 12.8962093,147.732466 C13.2122072,147.680325 13.5319411,147.654123 13.8522119,147.654123 Z" id="Rectangle-2-Copy-45" fill="#FFFFFF"></path>
                <path d="M117.393902,28 L133.169817,28 L133.169817,28 C136.940889,28 139.997947,31.0570577 139.997947,34.8281296 L139.997947,34.8281296 L139.997947,34.8281296 C139.997947,38.5992014 136.940889,41.6562591 133.169817,41.6562591 L118.324061,41.6562591 L118.324061,41.6562591 C114.471267,41.6562591 111.276848,38.6720174 111.015032,34.8281296 L111.015032,34.8281296 L111.015032,34.8281296 C110.775075,31.3051766 113.43647,28.254736 116.959423,28.0147796 C117.10404,28.0049294 117.24895,28 117.393902,28 Z" id="Rectangle-2-Copy-33" fill="#FFFFFF"></path>
                <path d="M157.014822,209 L185.04369,209 L185.04369,209 C189.263302,209 192.683973,212.420671 192.683973,216.640283 L192.683973,216.640283 L192.683973,216.640283 C192.683973,220.859895 189.263302,224.280566 185.04369,224.280566 L158.383782,224.280566 L158.383782,224.280566 C154.04084,224.280566 150.415945,220.965902 150.02842,216.640283 L150.02842,216.640283 L150.02842,216.640283 C149.682745,212.781799 152.530439,209.373656 156.388923,209.027981 C156.597035,209.009336 156.805877,209 157.014822,209 Z" id="Rectangle-2-Copy-36" fill="#FFFFFF"></path>
                <path d="M101.014822,244 L129.04369,244 L129.04369,244 C133.263302,244 136.683973,247.420671 136.683973,251.640283 L136.683973,251.640283 L136.683973,251.640283 C136.683973,255.859895 133.263302,259.280566 129.04369,259.280566 L102.383782,259.280566 L102.383782,259.280566 C98.0408396,259.280566 94.4159447,255.965902 94.0284199,251.640283 L94.0284199,251.640283 L94.0284199,251.640283 C93.6827449,247.781799 96.530439,244.373656 100.388923,244.027981 C100.597035,244.009336 100.805877,244 101.014822,244 Z" id="Rectangle-2-Copy-48" fill="#FFFFFF"></path>
                <path d="M80.0148224,104.782609 L108.04369,104.782609 L108.04369,104.782609 C112.263302,104.782609 115.683973,108.20328 115.683973,112.422892 L115.683973,112.422892 L115.683973,112.422892 C115.683973,116.642504 112.263302,120.063175 108.04369,120.063175 L81.3837823,120.063175 L81.3837823,120.063175 C77.0408396,120.063175 73.4159447,116.74851 73.0284199,112.422892 L73.0284199,112.422892 L73.0284199,112.422892 C72.6827449,108.564408 75.530439,105.156264 79.3889225,104.810589 C79.5970349,104.791945 79.8058765,104.782609 80.0148224,104.782609 Z" id="Rectangle-2-Copy-50" fill="#FFFFFF"></path>
                <path d="M107.385331,237 L124.907635,237 L124.907635,237 C127.545534,237 129.683973,239.13844 129.683973,241.776339 L129.683973,241.776339 L129.683973,241.776339 C129.683973,244.414238 127.545534,246.552677 124.907635,246.552677 L108.241139,246.552677 L108.241139,246.552677 C105.526139,246.552677 103.260029,244.480508 103.017767,241.776339 L103.017767,241.776339 L103.017767,241.776339 C102.801667,239.3642 104.581909,237.233592 106.994048,237.017492 C107.12415,237.005837 107.254708,237 107.385331,237 Z" id="Rectangle-2-Copy-49" fill="#FFFFFF"></path>
                <path d="M180.478892,100 L245.510211,100 L245.510211,100 C251.982676,100 257.229645,105.246969 257.229645,111.719434 L257.229645,111.719434 L257.229645,111.719434 C257.229645,118.191899 251.982676,123.438868 245.510211,123.438868 L183.275982,123.438868 L183.275982,123.438868 C176.542819,123.438868 170.872694,118.40516 170.07485,111.719434 L170.07485,111.719434 L170.07485,111.719434 C169.389149,105.97344 173.491326,100.759521 179.23732,100.07382 C179.64935,100.02465 180.063938,100 180.478892,100 Z" id="Rectangle-2-Copy-31" fill="#E8696C"></path>
                <path d="M204.267147,104.782609 L230.401515,104.782609 L230.401515,104.782609 C234.172587,104.782609 237.229645,107.839666 237.229645,111.610738 L237.229645,111.610738 L237.229645,111.610738 C237.229645,115.38181 234.172587,118.438868 230.401515,118.438868 L205.524907,118.438868 L205.524907,118.438868 C201.640193,118.438868 198.395278,115.47908 198.038998,111.610738 L198.038998,111.610738 L198.038998,111.610738 C197.722196,108.171027 200.253815,105.12577 203.693527,104.808969 C203.884229,104.791405 204.075638,104.782609 204.267147,104.782609 Z" id="Rectangle-2-Copy-37" fill="#E59294"></path>
                <path d="M37.2829566,43 C14.1632426,67.6018248 0,100.718423 0,137.143024 C0,213.082177 61.5608469,274.643024 137.5,274.643024 C165.036009,274.643024 190.681511,266.548803 212.187002,252.609866 C82.4806413,213.126997 46.1870888,132.357255 38.5152798,52.600028 C38.1778351,49.0919037 37.7670606,45.8918943 37.2829566,43 Z" id="Combined-Shape" fill="#000000" opacity="0.325747283"></path>
            </g>
        </g>
    </g>
</svg>