<?xml version="1.0" encoding="UTF-8"?>
<svg width="477px" height="275px" viewBox="0 0 477 275" version="1.1" xmlns="http://www.w3.org/2000/svg" xmlns:xlink="http://www.w3.org/1999/xlink">
    <!-- Generator: Sketch 47.1 (45422) - http://www.bohemiancoding.com/sketch -->
    <title>Group 2</title>
    <desc>Created with Sketch.</desc>
    <defs></defs>
    <g id="Page-1" stroke="none" stroke-width="1" fill="none" fill-rule="evenodd">
        <g id="Artboard-Copy-14" transform="translate(-15.000000, -113.000000)">
            <g id="Group-2" transform="translate(14.000000, 113.000000)">
                <g id="Group" transform="translate(98.000000, 0.000000)">
                    <ellipse id="Oval-3" fill="#D29055" cx="137.477967" cy="137.478115" rx="136.493831" ry="136.726729"></ellipse>
                    <ellipse id="Oval-3-Copy-2" fill="#D29055" cx="137.477967" cy="137.478115" rx="136.493831" ry="136.726729"></ellipse>
                    <ellipse id="Oval-3-Copy-6" fill="#D29055" cx="137.477967" cy="137.478115" rx="136.493831" ry="136.726729"></ellipse>
                    <ellipse id="Oval-3-Copy-4" fill="#D29055" cx="137.477967" cy="137.478115" rx="136.493831" ry="136.726729"></ellipse>
                    <ellipse id="Oval-3-Copy-12" fill="#D29055" cx="137.477967" cy="137.478115" rx="136.493831" ry="136.726729"></ellipse>
                    <ellipse id="Oval-3-Copy-11" fill="#D29055" cx="137.477967" cy="137.478115" rx="136.493831" ry="136.726729"></ellipse>
                    <ellipse id="Oval-3-Copy-10" fill="#D29055" cx="137.477967" cy="137.478115" rx="136.493831" ry="136.726729"></ellipse>
                    <ellipse id="Oval-3-Copy-8" fill="#D29055" cx="137.477967" cy="137.478115" rx="136.493831" ry="136.726729"></ellipse>
                    <ellipse id="Oval-3-Copy-20" fill="#D29055" cx="137.477967" cy="137.478115" rx="136.493831" ry="136.726729"></ellipse>
                    <ellipse id="Oval-3-Copy-19" fill="#D29055" cx="137.477967" cy="137.478115" rx="136.493831" ry="136.726729"></ellipse>
                    <ellipse id="Oval-3-Copy-18" fill="#D29055" cx="137.477967" cy="137.478115" rx="136.493831" ry="136.726729"></ellipse>
                    <ellipse id="Oval-3-Copy-17" fill="#D29055" cx="137.477967" cy="137.478115" rx="136.493831" ry="136.726729"></ellipse>
                    <ellipse id="Oval-3-Copy-16" fill="#FFAEAE" cx="137.477967" cy="137.478115" rx="136.493831" ry="136.726729"></ellipse>
                    <path d="M68.7894758,255.656262 C61.9523919,251.660167 55.4934311,247.085764 49.4794257,242 L120.044396,242 L120.044396,242 C123.815467,242 126.872525,245.057058 126.872525,248.82813 L126.872525,248.82813 C126.872525,252.599201 123.815467,255.656259 120.044396,255.656259 L68.7894717,255.656259 Z" id="Combined-Shape" fill="#FFCA73"></path>
                    <path d="M2.47424881,157.75124 C1.50566845,151.223705 0.997664567,144.545631 0.984402842,137.75124 L9.98440284,137.75124 L9.98440284,137.75124 C15.5072503,137.75124 19.9844028,142.228392 19.9844028,147.75124 L19.9844028,147.75124 C19.9844028,153.274087 15.5072503,157.75124 9.98440284,157.75124 L2.47424881,157.75124 Z" id="Combined-Shape" fill="#FFCA73"></path>
                    <path d="M9.61763481,185.438869 C6.80483689,177.917924 4.63441997,170.082626 3.17329545,162 L69.5321159,162 L69.5321159,162 C76.0045806,162 81.2515498,167.246969 81.2515498,173.719434 L81.2515498,173.719434 C81.2515498,180.191899 76.0045806,185.438868 69.5321159,185.438868 L9.61762638,185.438868 Z" id="Combined-Shape" fill="#FFCA73"></path>
                    <path d="M14.3983544,196.660008 C13.1925431,194.148311 12.0610973,191.59402 11.0068768,189 L81.2968789,189 L81.2968789,189 C83.4121294,189 85.1268788,190.714749 85.1268788,192.83 L85.1268788,192.83 C85.1268788,194.94525 83.4121294,196.66 81.2968789,196.66 L14.3983504,196.66 Z" id="Combined-Shape" fill="#FFCA73"></path>
                    <path d="M263.966813,85.9999408 C269.846081,100.480898 273.319059,116.199015 273.888501,132.6562 L238.087181,132.6562 C231.009938,132.6562 225.045737,127.374463 224.189918,120.349156 L221.917225,101.692897 L221.917225,101.692897 C220.982231,94.0176506 226.446285,87.0376721 234.121531,86.1026785 C234.683255,86.0342497 235.248611,85.9999408 235.814487,85.9999408 L235.814487,85.9999408 L263.966813,85.9999408 Z" id="Combined-Shape" fill="#FFCA73"></path>
                    <path d="M9.0516759,91.0589717 C12.0081781,82.8528099 15.7262366,75.0113193 20.1203925,67.6201047 L55.1928193,67.6201047 L55.1928193,67.6201047 C61.6652839,67.6201047 66.9122532,72.867074 66.9122532,79.3395386 L66.9122532,79.3395386 C66.9122532,85.8120032 61.6652839,91.0589725 55.1928193,91.0589725 L9.0516693,91.0589725 Z" id="Combined-Shape" fill="#FFCA73"></path>
                    <path d="M24.6972717,60.4399996 C26.914106,57.1898403 29.2673065,54.0404181 31.7486204,51 L112.6731,51 L112.6731,51 C115.279884,51 117.393099,53.1132159 117.393099,55.7199998 L117.393099,55.7199998 C117.393099,58.3267837 115.279884,60.4399996 112.6731,60.4399996 L24.6972717,60.4399996 Z" id="Combined-Shape" fill="#FFCA73"></path>
                    <path d="M72.7904691,17.0510392 C79.6437761,13.3494331 86.8491105,10.2176968 94.3432289,7.71918162 L162.35472,7.71918162 L162.35472,7.71918162 C164.961504,7.71918162 167.07472,9.8323975 167.07472,12.4391814 L167.07472,12.4391814 C167.07472,15.0459653 164.961504,17.1591812 162.35472,17.1591812 L73.9244459,17.1591812 C73.5379828,17.1591812 73.1587311,17.1221155 72.7904691,17.0510392 Z" id="Combined-Shape" fill="#FFCA73"></path>
                    <path d="M253.237803,65 C255.983442,69.3909524 258.487009,73.9492901 260.729774,78.6562511 L228.890631,78.6562591 C225.119559,78.6562591 222.062501,75.5992014 222.062501,71.8281296 L222.062501,71.8281296 L222.062501,71.8281296 C222.062501,68.0570577 225.119559,65 228.890631,65 L228.890631,65 L253.237803,65 Z" id="Combined-Shape" fill="#FFCA73"></path>
                    <path d="M272.669782,156.4399 C271.5753,164.342231 269.806589,172.028609 267.423713,179.438868 L235.719434,179.438868 L235.719434,179.438868 C229.246969,179.438868 224,174.191899 224,167.719434 L224,167.719434 L224,167.719434 C224,161.246969 229.246969,156 235.719434,156 L235.719434,156 L269.477981,156 L269.477981,156 C270.584423,156 271.655053,156.15333 272.669782,156.4399 Z" id="Combined-Shape" fill="#FFCA73"></path>
                    <path d="M266.223971,183.000001 C265.148832,186.051115 263.968662,189.052567 262.687812,192 L248.5,192 C246.014719,192 244,189.985281 244,187.5 L244,187.5 L244,187.5 C244,185.014719 246.014719,183 248.5,183 L248.5,183 L266.223977,183 Z" id="Combined-Shape" fill="#FFCA73"></path>
                    <path d="M260.872255,196.000008 C259.667611,198.544187 258.386861,201.045176 257.032949,203.500026 L190.75,203.5 L190.75,203.5 C188.678932,203.5 187,201.821068 187,199.75 L187,199.75 L187,199.75 C187,197.678932 188.678932,196 190.75,196 L190.75,196 L260.872259,196 Z" id="Combined-Shape" fill="#FFCA73"></path>
                    <path d="M255.010682,207.040686 C248.617262,217.856543 240.778323,227.713745 231.760357,236.345346 L80.5618099,236.345346 L80.5618099,236.345346 C72.8298234,236.345346 66.5618099,230.077333 66.5618099,222.345346 L66.5618099,219.478249 C66.5618099,211.746263 72.8298234,205.478249 80.5618099,205.478249 L80.5618099,205.478249 L248.577297,205.478249 L248.577297,205.478249 C250.896724,205.478249 253.084412,206.042288 255.010682,207.040686 Z" id="Combined-Shape" fill="#FFCA73"></path>
                    <path d="M137.377375,274.204808 C137.410903,274.204832 137.444434,274.204844 137.477967,274.204844 C165.65336,274.204844 191.834841,265.653328 213.576879,251 L139.719434,251 C133.246969,251 128,256.246969 128,262.719434 L128,262.719434 L128,262.719434 C128,268.389843 132.027151,273.119661 137.377375,274.204808 Z" id="Combined-Shape" fill="#FFCA73"></path>
                    <path d="M74.8598455,259.000009 C93.6147183,268.716748 114.906528,274.204844 137.477967,274.204844 C149.433207,274.204844 161.029456,272.665202 172.07989,269.773063 C170.622773,263.596701 165.074999,259 158.453607,259 L158.453607,259 L74.8598286,259 Z" id="Combined-Shape" fill="#FFCA73"></path>
                    <path d="M273.765869,139 C273.925867,140.208274 274.00699,141.425935 274.00699,142.651987 C274.00699,146.058644 273.380689,149.400518 272.1763,152.656259 L217.82813,152.656259 C214.057058,152.656259 211,149.599201 211,145.82813 L211,145.82813 L211,145.82813 C211,142.057058 214.057058,139 217.82813,139 L217.82813,139 L273.765869,139 Z" id="Combined-Shape" fill="#FFCA73"></path>
                    <rect id="Rectangle-2-Copy-2" fill="#FFCA73" x="88.0434783" y="153.26087" width="129.634198" height="34.7826087" rx="14"></rect>
                    <path d="M239.813623,47 C244.050526,51.80487 247.955431,56.9104015 251.492369,62.2805661 L184.490557,62.2805661 L184.490557,62.2805661 C180.147614,62.2805661 176.522719,58.9659017 176.135195,54.640283 L176.135195,54.640283 L176.135195,54.640283 C175.78952,50.7817995 178.637214,47.3736556 182.495697,47.0279806 C182.70381,47.0093362 182.912651,47 183.121597,47 L183.121597,47 L239.813623,47 Z" id="Combined-Shape" fill="#FFCA73"></path>
                    <path d="M23.6641965,95 L117.577297,95 L117.577297,95 C125.309284,95 131.577297,101.268014 131.577297,109 L131.577297,120.06478 L131.577297,120.06478 C131.577297,127.796767 125.309284,134.06478 117.577297,134.06478 L24.7680234,134.06478 L24.7680234,134.06478 C17.5742317,134.06478 11.5512836,128.612787 10.8371727,121.454527 L9.73334578,110.389747 L9.73334578,110.389747 C8.96580955,102.695951 14.5806528,95.8366855 22.2744492,95.0691493 C22.7362658,95.0230782 23.2000876,95 23.6641965,95 Z" id="Rectangle-2-Copy-12" fill="#FFCA73"></path>
                    <path d="M148.039113,125.758681 L170.789381,125.758681 L170.789381,125.758681 C177.261846,125.758681 182.508815,131.00565 182.508815,137.478115 L182.508815,137.478115 L182.508815,137.478115 C182.508815,143.95058 177.261846,149.197549 170.789381,149.197549 L149.498783,149.197549 L149.498783,149.197549 C142.898957,149.197549 137.437024,144.065181 137.026811,137.478115 L137.026811,137.478115 L137.026811,137.478115 C136.648055,131.396188 141.271388,126.15877 147.353315,125.780015 C147.581638,125.765796 147.810348,125.758681 148.039113,125.758681 Z" id="Rectangle-2-Copy-18" fill="#FFCA73"></path>
                    <path d="M172.892304,70 L205.970532,70 L205.970532,70 C212.442997,70 217.689966,75.2469693 217.689966,81.7194339 L217.689966,81.7194339 L217.689966,81.7194339 C217.689966,88.1918985 212.442997,93.4388678 205.970532,93.4388678 L174.678554,93.4388678 L174.678554,93.4388678 C168.047652,93.4388678 162.535885,88.3311642 162.032012,81.7194339 L162.032012,81.7194339 L162.032012,81.7194339 C161.574913,75.7214606 166.066679,70.4885905 172.064653,70.0314915 C172.340037,70.0105048 172.616121,70 172.892304,70 Z" id="Rectangle-2-Copy-30" fill="#FFCA73"></path>
                    <path d="M153.155155,99 L191.839598,99 L191.839598,99 C197.362446,99 201.839598,103.477153 201.839598,109 L201.839598,109 L201.839598,109 C201.839598,114.522847 197.362446,119 191.839598,119 L155.010147,119 L155.010147,119 C149.319569,119 144.565273,114.666257 144.03973,109 L144.03973,109 L144.03973,109 C143.5728,103.96569 147.275393,99.5060539 152.309703,99.0391237 C152.590766,99.0130552 152.872885,99 153.155155,99 Z" id="Rectangle-2-Copy-36" fill="#FFECCB"></path>
                    <path d="M33.1127546,139 L69.1698173,139 L69.1698173,139 C72.9408891,139 75.9979469,142.057058 75.9979469,145.82813 L75.9979469,145.82813 L75.9979469,145.82813 C75.9979469,149.599201 72.9408891,152.656259 69.1698173,152.656259 L34.684448,152.656259 L34.684448,152.656259 C30.7675892,152.656259 27.4732327,149.719303 27.0253991,145.82813 L27.0253991,145.82813 L27.0253991,145.82813 C26.6384732,142.466176 29.0502096,139.427109 32.4121632,139.040183 C32.6447343,139.013416 32.8786483,139 33.1127546,139 Z" id="Rectangle-2-Copy-32" fill="#FFECCB"></path>
                    <path d="M75.8727813,28 L133.485497,28 L133.485497,28 C137.256569,28 140.313627,31.0570577 140.313627,34.8281296 L140.313627,34.8281296 L140.313627,34.8281296 C140.313627,38.5992014 137.256569,41.6562591 133.485497,41.6562591 L78.1268368,41.6562591 L78.1268368,41.6562591 C74.134821,41.6562591 70.7294051,38.7668533 70.0792928,34.8281296 L70.0792928,34.8281296 L70.0792928,34.8281296 C69.5511686,31.6284742 71.7168725,28.6065119 74.9165278,28.0783877 C75.232607,28.0262167 75.5524255,28 75.8727813,28 Z" id="Rectangle-2-Copy-33" fill="#FFCA73"></path>
                    <path d="M160.417587,22 L179.65407,22 L179.65407,22 C185.176918,22 189.65407,26.4771525 189.65407,32 L189.65407,32 L189.65407,32 C189.65407,37.5228475 185.176918,42 179.65407,42 L161.657536,42 L161.657536,42 C156.026534,42 151.366801,37.6202114 151.018362,32 L151.018362,32 L151.018362,32 C150.69653,26.8089513 154.64381,22.3398785 159.834859,22.0180465 C160.028868,22.0060184 160.223204,22 160.417587,22 Z" id="Rectangle-2-Copy-35" fill="#FFCA73"></path>
                    <path d="M119.478892,160 L184.510211,160 L184.510211,160 C190.982676,160 196.229645,165.246969 196.229645,171.719434 L196.229645,171.719434 L196.229645,171.719434 C196.229645,178.191899 190.982676,183.438868 184.510211,183.438868 L122.275982,183.438868 L122.275982,183.438868 C115.542819,183.438868 109.872694,178.40516 109.07485,171.719434 L109.07485,171.719434 L109.07485,171.719434 C108.389149,165.97344 112.491326,160.759521 118.23732,160.07382 C118.64935,160.02465 119.063938,160 119.478892,160 Z" id="Rectangle-2-Copy-31" fill="#FFECCB"></path>
                    <path d="M39.4788918,107 L104.510211,107 L104.510211,107 C110.982676,107 116.229645,112.246969 116.229645,118.719434 L116.229645,118.719434 L116.229645,118.719434 C116.229645,125.191899 110.982676,130.438868 104.510211,130.438868 L42.2759817,130.438868 L42.2759817,130.438868 C35.5428188,130.438868 29.8726945,125.40516 29.0748498,118.719434 L29.0748498,118.719434 L29.0748498,118.719434 C28.3891485,112.97344 32.4913261,107.759521 38.2373198,107.07382 C38.6493503,107.02465 39.0639378,107 39.4788918,107 Z" id="Rectangle-2-Copy-39" fill="#FFECCB"></path>
                    <path d="M130.665802,25.1718692 L166.39584,25.1718692 L166.39584,25.1718692 C170.166913,25.1718692 173.223971,28.2289275 173.223971,32 L173.223971,32 L173.223971,32 C173.223971,35.7710725 170.166913,38.8281308 166.39584,38.8281308 L132.227147,38.8281308 L132.227147,38.8281308 C128.311372,38.8281308 125.018661,35.8904307 124.573861,32 L124.573861,32 L124.573861,32 C124.189193,28.6355139 126.604813,25.596224 129.969299,25.2115562 C130.200525,25.1851197 130.433069,25.1718692 130.665802,25.1718692 Z" id="Rectangle-2-Copy-40" fill="#FFECCB"></path>
                    <path d="M50.7932124,200 L91.2739976,200 L91.2739976,200 C97.7464622,200 102.993431,205.246969 102.993431,211.719434 L102.993431,211.719434 L102.993431,211.719434 C102.993431,218.191899 97.7464622,223.438868 91.2739976,223.438868 L52.8135831,223.438868 L52.8135831,223.438868 C46.1598152,223.438868 40.6119257,218.34862 40.0405067,211.719434 L40.0405067,211.719434 L40.0405067,211.719434 C39.5286184,205.780879 43.9278012,200.551761 49.8663566,200.039872 C50.1745942,200.013303 50.4838318,200 50.7932124,200 Z" id="Rectangle-2-Copy-38" fill="#FFECCB"></path>
                    <path d="M161.797813,210 L204.273431,210 L204.273431,210 C210.193924,210 214.993431,214.799508 214.993431,220.72 L214.993431,220.72 L214.993431,220.72 C214.993431,226.640493 210.193924,231.440001 204.273431,231.440001 L163.818184,231.440001 L163.818184,231.440001 C157.714695,231.440001 152.613124,226.796569 152.040507,220.72 L152.040507,220.72 L152.040507,220.72 C151.532699,215.331189 155.489534,210.551034 160.878346,210.043227 C161.183989,210.014425 161.490816,210 161.797813,210 Z" id="Rectangle-2-Copy-41" fill="#FFECCB"></path>
                    <path d="M80.4788918,67.6201047 L145.510211,67.6201047 L145.510211,67.6201047 C151.982676,67.6201047 157.229645,72.867074 157.229645,79.3395386 L157.229645,79.3395386 L157.229645,79.3395386 C157.229645,85.8120032 151.982676,91.0589725 145.510211,91.0589725 L83.2759817,91.0589725 L83.2759817,91.0589725 C76.5428188,91.0589725 70.8726945,86.0252642 70.0748498,79.3395386 L70.0748498,79.3395386 L70.0748498,79.3395386 C69.3891485,73.5935449 73.4913261,68.3796259 79.2373198,67.6939246 C79.6493503,67.6447547 80.0639378,67.6201047 80.4788918,67.6201047 Z" id="Rectangle-2-Copy-37" fill="#FFCA6E"></path>
                </g>
                <path d="M136.282957,43 C113.163243,67.6018248 99,100.718423 99,137.143024 C99,213.082177 160.560847,274.643024 236.5,274.643024 C264.036009,274.643024 289.681511,266.548803 311.187002,252.609866 C181.480641,213.126997 145.187089,132.357255 137.51528,52.600028 C137.177835,49.0919037 136.767061,45.8918943 136.282957,43 Z" id="Combined-Shape" fill="#000000" opacity="0.325747283"></path>
                <path d="M98.9962376,137.969649 C89.1283468,138.00585 84.0801697,138.810391 83.8517065,140.38327 C83.5090117,142.74259 151.555558,150.318628 241.092063,150.002179 C330.628568,149.685731 394.462962,142.796892 395.101772,140.38327 C395.527645,138.774189 387.895362,137.969649 372.204923,137.969649 L372.204923,134 C442.358453,137.557442 477.553886,141.46392 477.791221,145.719434 C478.147225,152.102704 352.63756,163.207915 241.092063,163.863281 C129.546566,164.518648 -0.245482899,153.469219 0.948992495,145.719434 C1.74530943,140.552911 34.4277245,136.646433 98.9962376,134 L98.9962376,137.969649 Z" id="Path-3" fill="#A1CDFF" transform="translate(239.366393, 148.945570) rotate(2.000000) translate(-239.366393, -148.945570) "></path>
            </g>
        </g>
    </g>
</svg>