<?xml version="1.0" encoding="UTF-8"?>
<svg width="276px" height="275px" viewBox="0 0 276 275" version="1.1" xmlns="http://www.w3.org/2000/svg" xmlns:xlink="http://www.w3.org/1999/xlink">
    <!-- Generator: Sketch 47.1 (45422) - http://www.bohemiancoding.com/sketch -->
    <title>Group 2</title>
    <desc>Created with Sketch.</desc>
    <defs></defs>
    <g id="Page-1" stroke="none" stroke-width="1" fill="none" fill-rule="evenodd">
        <g id="Artboard-Copy-16" transform="translate(-112.000000, -113.000000)">
            <g id="Group-2" transform="translate(112.000000, 113.000000)">
                <g id="Group">
                    <ellipse id="Oval-3" fill="#D29055" cx="138.265785" cy="137.5" rx="137.265785" ry="137.5"></ellipse>
                    <ellipse id="Oval-3-Copy-2" fill="#D29055" cx="138.265785" cy="137.5" rx="137.265785" ry="137.5"></ellipse>
                    <ellipse id="Oval-3-Copy-6" fill="#D29055" cx="138.265785" cy="137.5" rx="137.265785" ry="137.5"></ellipse>
                    <ellipse id="Oval-3-Copy-4" fill="#D29055" cx="138.265785" cy="137.5" rx="137.265785" ry="137.5"></ellipse>
                    <ellipse id="Oval-3-Copy-12" fill="#D29055" cx="138.265785" cy="137.5" rx="137.265785" ry="137.5"></ellipse>
                    <ellipse id="Oval-3-Copy-11" fill="#D29055" cx="138.265785" cy="137.5" rx="137.265785" ry="137.5"></ellipse>
                    <ellipse id="Oval-3-Copy-10" fill="#D29055" cx="138.265785" cy="137.5" rx="137.265785" ry="137.5"></ellipse>
                    <ellipse id="Oval-3-Copy-8" fill="#D29055" cx="138.265785" cy="137.5" rx="137.265785" ry="137.5"></ellipse>
                    <ellipse id="Oval-3-Copy-20" fill="#D29055" cx="138.265785" cy="137.5" rx="137.265785" ry="137.5"></ellipse>
                    <ellipse id="Oval-3-Copy-19" fill="#D29055" cx="138.265785" cy="137.5" rx="137.265785" ry="137.5"></ellipse>
                    <ellipse id="Oval-3-Copy-18" fill="#D29055" cx="138.265785" cy="137.5" rx="137.265785" ry="137.5"></ellipse>
                    <ellipse id="Oval-3-Copy-17" fill="#D29055" cx="138.265785" cy="137.5" rx="137.265785" ry="137.5"></ellipse>
                    <ellipse id="Oval-3-Copy-16" fill="#FFDCBD" cx="138.265785" cy="137.5" rx="137.265785" ry="137.5"></ellipse>
                    <path d="M68.7894758,255.656262 C61.9523919,251.660167 55.4934311,247.085764 49.4794257,242 L120.044396,242 L120.044396,242 C123.815467,242 126.872525,245.057058 126.872525,248.82813 L126.872525,248.82813 C126.872525,252.599201 123.815467,255.656259 120.044396,255.656259 L68.7894717,255.656259 Z" id="Combined-Shape" fill="#EEC9A8"></path>
                    <path d="M1.06417681,132.75124 C1.21303407,128.36228 1.56839711,124.025799 2.12083915,119.75124 L130.6017,119.75124 L130.6017,119.75124 C134.191551,119.75124 137.1017,122.661389 137.1017,126.25124 L137.1017,126.25124 C137.1017,129.841091 134.191551,132.75124 130.6017,132.75124 L1.06417681,132.75124 Z" id="Combined-Shape" fill="#FDAAAA"></path>
                    <path d="M4.39777332,168 C2.16389341,158.185955 0.98413631,147.970043 0.98413631,137.478115 C0.98413631,137.318679 0.984408739,137.159308 0.984953154,137 L19.0623907,137 L19.0623907,137 C26.7943772,137 33.0623907,143.268014 33.0623907,151 L33.0623907,154 C33.0623907,161.731986 26.7943772,168 19.0623907,168 L4.39777332,168 Z" id="Combined-Shape" fill="#FDAAAA"></path>
                    <path d="M14.3983544,196.660008 C13.1925431,194.148311 12.0610973,191.59402 11.0068768,189 L81.2968789,189 L81.2968789,189 C83.4121294,189 85.1268788,190.714749 85.1268788,192.83 L85.1268788,192.83 C85.1268788,194.94525 83.4121294,196.66 81.2968789,196.66 L14.3983504,196.66 Z" id="Combined-Shape" fill="#84AEDF"></path>
                    <path d="M272.735883,118.999939 C273.428275,124.133747 273.83622,129.35798 273.943304,134.656194 L185.833649,134.6562 L185.833649,134.6562 C181.510292,134.6562 178.005519,131.151426 178.005519,126.828069 L178.005519,126.828069 L178.005519,126.828069 C178.005519,122.504712 181.510292,118.999939 185.833649,118.999939 L185.833649,118.999939 L272.735883,118.999939 Z" id="Combined-Shape" fill="#FDAAAA"></path>
                    <path d="M2.8101728,115.058727 C4.13962654,106.985375 6.17511383,99.1504998 8.85098888,91.6198585 L61.9513161,91.6198592 L61.9513161,91.6198592 C68.4237807,91.6198592 73.67075,96.8668285 73.67075,103.339293 L73.67075,103.339293 C73.67075,109.811758 68.4237807,115.058727 61.9513161,115.058727 L2.8101728,115.058727 Z" id="Combined-Shape" fill="#84AEDF"></path>
                    <path d="M1.27264854,146.439803 C1.08129682,143.477288 0.98413631,140.489068 0.98413631,137.478115 C0.98413631,137.318614 0.984408963,137.159176 0.984953827,136.999803 L161.264137,136.999803 L161.264137,136.999803 C163.87092,136.999803 165.984136,139.113019 165.984136,141.719803 L165.984136,141.719803 C165.984136,144.326587 163.87092,146.439803 161.264137,146.439803 L1.27264854,146.439803 Z" id="Combined-Shape" fill="#FDAAAA"></path>
                    <path d="M59.7979777,25.037997 C63.0309315,22.7926265 66.3653838,20.6835672 69.7930478,18.7191201 L153.475086,18.7191232 L153.475086,18.7191232 C156.08187,18.7191232 158.195086,20.8323391 158.195086,23.439123 L158.195086,23.439123 C158.195086,26.0459069 156.08187,28.1591228 153.475086,28.1591228 L65.044812,28.1591228 C62.8125732,28.1591228 60.8209301,26.9224996 59.7979777,25.037997 Z" id="Combined-Shape" fill="#EEC9A8"></path>
                    <path d="M261.819206,80.9996819 C263.82812,85.4304955 265.607947,89.9876402 267.143537,94.6559406 L204.890631,94.655941 L204.890631,94.655941 C201.119559,94.655941 198.062501,91.5988832 198.062501,87.8278114 L198.062501,87.8278114 L198.062501,87.8278114 C198.062501,84.0567396 201.119559,80.9996819 204.890631,80.9996819 L204.890631,80.9996819 L261.819206,80.9996819 Z" id="Combined-Shape" fill="#84AEDF"></path>
                    <path d="M272.669782,156.4399 C271.5753,164.342231 269.806589,172.028609 267.423713,179.438868 L235.719434,179.438868 L235.719434,179.438868 C229.246969,179.438868 224,174.191899 224,167.719434 L224,167.719434 L224,167.719434 C224,161.246969 229.246969,156 235.719434,156 L235.719434,156 L269.477981,156 L269.477981,156 C270.584423,156 271.655053,156.15333 272.669782,156.4399 Z" id="Combined-Shape" fill="#FDAAAA"></path>
                    <path d="M266.223971,183.000001 C265.148832,186.051115 263.968662,189.052567 262.687812,192 L225.5,192 L225.5,192 C223.014719,192 221,189.985281 221,187.5 L221,187.5 L221,187.5 C221,185.014719 223.014719,183 225.5,183 L225.5,183 L266.223977,183 Z" id="Combined-Shape" fill="#84AEDF"></path>
                    <path d="M260.872255,196.000008 C259.667611,198.544187 258.386861,201.045176 257.032949,203.500026 L190.75,203.5 L190.75,203.5 C188.678932,203.5 187,201.821068 187,199.75 L187,199.75 L187,199.75 C187,197.678932 188.678932,196 190.75,196 L190.75,196 L260.872259,196 Z" id="Combined-Shape" fill="#EEC9A8"></path>
                    <path d="M254.148982,208.478249 C247.149068,219.995471 238.49742,230.394541 228.523589,239.345346 L112.56181,239.345346 L112.56181,239.345346 C104.829823,239.345346 98.5618099,233.077333 98.5618099,225.345346 L98.5618099,222.478249 C98.5618099,214.746263 104.829823,208.478249 112.56181,208.478249 L112.56181,208.478249 L254.148982,208.478249 Z" id="Combined-Shape" fill="#EEC9A8"></path>
                    <path d="M137.377375,274.204808 C137.410903,274.204832 137.444434,274.204844 137.477967,274.204844 C165.65336,274.204844 191.834841,265.653328 213.576879,251 L139.719434,251 C133.246969,251 128,256.246969 128,262.719434 L128,262.719434 L128,262.719434 C128,268.389843 132.027151,273.119661 137.377375,274.204808 Z" id="Combined-Shape" fill="#EEC9A8"></path>
                    <path d="M74.8598455,259.000009 C93.6147183,268.716748 114.906528,274.204844 137.477967,274.204844 C149.433207,274.204844 161.029456,272.665202 172.07989,269.773063 C170.622773,263.596701 165.074999,259 158.453607,259 L158.453607,259 L74.8598286,259 Z" id="Combined-Shape" fill="#EEC9A8"></path>
                    <rect id="Combined-Shape" fill="#84AEDF" x="211" y="137" width="57.847518" height="13.6562591" rx="6.82812956"></rect>
                    <rect id="Rectangle-2-Copy-2" fill="#FDAAAA" x="88.0434783" y="153.26087" width="129.634198" height="34.7826087" rx="14"></rect>
                    <path d="M251.307086,62 C254.540086,66.8825584 257.468379,71.9851499 260.064793,77.280556 L199.490557,77.2805661 L199.490557,77.2805661 C195.147614,77.2805661 191.522719,73.9659017 191.135195,69.640283 L191.135195,69.640283 L191.135195,69.640283 C190.78952,65.7817995 193.637214,62.3736556 197.495697,62.0279806 C197.70381,62.0093362 197.912651,62 198.121597,62 L198.121597,62 L251.307086,62 Z" id="Combined-Shape" fill="#FDAAAA"></path>
                    <path d="M61.2958847,56.1718692 L171.177388,56.1718692 L171.177388,56.1718692 C174.94846,56.1718692 178.005519,59.2289275 178.005519,63 L178.005519,63 L178.005519,63 C178.005519,66.7710725 174.94846,69.8281308 171.177388,69.8281308 L65.2066798,69.8281308 L65.2066798,69.8281308 C61.0020245,69.8281308 57.3062526,67.0421718 56.1486807,63 L56.1486807,63 L56.1486807,63 C55.3345996,60.1572777 56.9791382,57.1928528 59.8218605,56.3787717 C60.3011719,56.2415095 60.7973065,56.1718692 61.2958847,56.1718692 Z" id="Rectangle-2-Copy-18" fill="#EEC9A8"></path>
                    <path d="M16.6936287,170 L89.7487486,170 L89.7487486,170 C93.5198211,170 96.5768794,173.057058 96.5768794,176.828131 L96.5768794,176.828131 L96.5768794,176.828131 C96.5768794,180.599203 93.5198211,183.656262 89.7487486,183.656262 L19.436846,183.656262 L19.436846,183.656262 C15.3864805,183.656262 11.8983944,180.79917 11.1007072,176.828131 L11.1007072,176.828131 L11.1007072,176.828131 C10.4802238,173.739246 12.4812589,170.732208 15.5701441,170.111725 C15.9400233,170.037425 16.3163608,170 16.6936287,170 Z" id="Rectangle-2-Copy-21" fill="#84AEDF"></path>
                    <path d="M98.2900936,193 L175.286898,193 L175.286898,193 C177.954433,193 180.116898,195.162465 180.116898,197.83 L180.116898,197.83 L180.116898,197.83 C180.116898,200.497535 177.954433,202.66 175.286898,202.66 L101.033311,202.66 L101.033311,202.66 C98.0623348,202.66 95.4523237,200.687973 94.6407253,197.83 L94.6407253,197.83 L94.6407253,197.83 C94.0683725,195.814509 95.2382667,193.716648 97.2537571,193.144295 C97.5908796,193.04856 97.9396415,193 98.2900936,193 Z" id="Rectangle-2-Copy-23" fill="#EEC9A8"></path>
                    <path d="M148.359665,119 L167.250124,119 L167.250124,119 C171.021196,119 174.078254,122.057058 174.078254,125.828131 L174.078254,125.828131 L174.078254,125.828131 C174.078254,129.599203 171.021196,132.656262 167.250124,132.656262 L149.388313,132.656262 L149.388313,132.656262 C145.526095,132.656262 142.316612,129.679438 142.026515,125.828131 L142.026515,125.828131 L142.026515,125.828131 C141.763053,122.330429 144.384923,119.281403 147.882625,119.017941 C148.041357,119.005985 148.200483,119 148.359665,119 Z" id="Rectangle-2-Copy-30" fill="#FDAAAA"></path>
                    <path d="M237.866587,98 L253.578254,98 L253.578254,98 C258.272675,98 262.078254,101.80558 262.078254,106.5 L262.078254,106.5 L262.078254,106.5 C262.078254,111.19442 258.272675,115 253.578254,115 L239.228185,115 L239.228185,115 C234.412443,115 230.404646,111.300369 230.020165,106.5 L230.020165,106.5 L230.020165,106.5 C229.673081,102.166541 232.904676,98.3722115 237.238135,98.0251274 C237.447201,98.0083825 237.656852,98 237.866587,98 Z" id="Rectangle-2-Copy-36" fill="#84AEDF"></path>
                    <path d="M175.26229,137 L200.834201,137 L200.834201,137 C204.605273,137 207.662331,140.057058 207.662331,143.82813 L207.662331,143.82813 L207.662331,143.82813 C207.662331,147.599201 204.605273,150.656259 200.834201,150.656259 L176.502257,150.656259 L176.502257,150.656259 C172.619319,150.656259 169.377176,147.69516 169.026055,143.82813 L169.026055,143.82813 L169.026055,143.82813 C168.713329,140.383952 171.251872,137.33838 174.696049,137.025654 C174.884312,137.00856 175.073252,137 175.26229,137 Z" id="Rectangle-2-Copy-32" fill="#84AEDF"></path>
                    <path d="M63.1535199,154 L97.1837714,154 L97.1837714,154 C100.954843,154 104.011901,157.057058 104.011901,160.82813 L104.011901,160.82813 L104.011901,160.82813 C104.011901,164.599201 100.954843,167.656259 97.1837714,167.656259 L64.6610801,167.656259 L64.6610801,167.656259 C60.7509122,167.656259 57.4667403,164.714687 57.0376903,160.82813 L57.0376903,160.82813 L57.0376903,160.82813 C56.6648169,157.45045 59.1006936,154.410026 62.478373,154.037153 C62.7025709,154.012403 62.9279601,154 63.1535199,154 Z" id="Rectangle-2-Copy-42" fill="#84AEDF"></path>
                    <path d="M52.8727813,38 L110.485497,38 L110.485497,38 C114.256569,38 117.313627,41.0570577 117.313627,44.8281296 L117.313627,44.8281296 L117.313627,44.8281296 C117.313627,48.5992014 114.256569,51.6562591 110.485497,51.6562591 L55.1268368,51.6562591 L55.1268368,51.6562591 C51.134821,51.6562591 47.7294051,48.7668533 47.0792928,44.8281296 L47.0792928,44.8281296 L47.0792928,44.8281296 C46.5511686,41.6284742 48.7168725,38.6065119 51.9165278,38.0783877 C52.232607,38.0262167 52.5524255,38 52.8727813,38 Z" id="Rectangle-2-Copy-33" fill="#EEC9A8"></path>
                    <path d="M27.1507789,73 L121.17187,73 L121.17187,73 C124.942942,73 128,76.0570577 128,79.8281296 L128,79.8281296 L128,79.8281296 C128,83.5992014 124.942942,86.6562591 121.17187,86.6562591 L30.558543,86.6562591 L30.558543,86.6562591 C26.4229416,86.6562591 22.8184377,83.8406875 21.8171495,79.8281296 L21.8171495,79.8281296 L21.8171495,79.8281296 C21.082088,76.8824474 22.8741502,73.8986151 25.8198323,73.1635536 C26.2551445,73.0549264 26.702118,73 27.1507789,73 Z" id="Rectangle-2-Copy-43" fill="#EEC9A8"></path>
                    <path d="M143.907421,73.5611315 L179.172689,73.5611315 L179.172689,73.5611315 C185.645154,73.5611315 190.892123,78.8081009 190.892123,85.2805657 L190.892123,85.2805657 L190.892123,85.2805657 C190.892123,91.7530306 185.645154,97 179.172689,97 L145.762837,97 L145.762837,97 C139.12523,97 133.602826,91.8974729 133.079033,85.2805657 L133.079033,85.2805657 L133.079033,85.2805657 C132.60563,79.3002125 137.069894,74.0684089 143.050248,73.5950053 C143.335414,73.5724316 143.621362,73.5611315 143.907421,73.5611315 Z" id="Rectangle-2-Copy-35" fill="#FDAAAA"></path>
                    <path d="M183.905835,37 L209.919093,37 L209.919093,37 C214.061228,37 217.419093,40.3578644 217.419093,44.5 L217.419093,44.5 L217.419093,44.5 C217.419093,48.6421356 214.061228,52 209.919093,52 L185.202183,52 L185.202183,52 C180.943686,52 177.392719,48.7426826 177.026052,44.5 L177.026052,44.5 L177.026052,44.5 C176.697679,40.7004011 179.511663,37.3540182 183.311262,37.0256447 C183.508992,37.0085562 183.707367,37 183.905835,37 Z" id="Rectangle-2-Copy-44" fill="#EEC9A8"></path>
                    <path d="M48.796009,227 L90.9199982,227 L90.9199982,227 C93.4052795,227 95.4199982,229.014719 95.4199982,231.5 L95.4199982,231.5 L95.4199982,231.5 C95.4199982,233.985281 93.4052795,236 90.9199982,236 L50.413113,236 L50.413113,236 C47.7668212,236 45.5004851,234.104582 45.0324984,231.5 L45.0324984,231.5 L45.0324984,231.5 C44.6590319,229.421471 46.0412586,227.433735 48.1197881,227.060269 C48.3429623,227.020169 48.5692609,227 48.796009,227 Z" id="Rectangle-2-Copy-45" fill="#EEC9A8"></path>
                    <path d="M147.176376,78 L179.400413,78 L179.400413,78 C183.171485,78 186.228543,81.0570577 186.228543,84.8281296 L186.228543,84.8281296 L186.228543,84.8281296 C186.228543,88.5992014 183.171485,91.6562591 179.400413,91.6562591 L148.626787,91.6562591 L148.626787,91.6562591 C144.722528,91.6562591 141.447395,88.7105529 141.035049,84.8281296 L141.035049,84.8281296 L141.035049,84.8281296 C140.674815,81.436368 143.132353,78.3947747 146.524115,78.0345407 C146.740774,78.0115297 146.958499,78 147.176376,78 Z" id="Rectangle-2-Copy-46" fill="#E89B9B"></path>
                    <path d="M187.688953,122 L222.898543,122 L222.898543,122 C225.842221,122 228.228543,124.386322 228.228543,127.33 L228.228543,127.33 L228.228543,127.33 C228.228543,130.273678 225.842221,132.66 222.898543,132.66 L189.139364,132.66 L189.139364,132.66 C186.057953,132.66 183.450481,130.383279 183.035049,127.33 L183.035049,127.33 L183.035049,127.33 C182.685334,124.75972 184.485457,122.392596 187.055738,122.04288 C187.265601,122.014326 187.477156,122 187.688953,122 Z" id="Rectangle-2-Copy-51" fill="#E89B9B"></path>
                    <path d="M239.357982,161 L258.250125,161 L258.250125,161 C262.021197,161 265.078254,164.057058 265.078254,167.82813 L265.078254,167.82813 L265.078254,167.82813 C265.078254,171.599201 262.021197,174.656259 258.250125,174.656259 L240.386683,174.656259 L240.386683,174.656259 C236.524461,174.656259 233.31497,171.67944 233.024858,167.82813 L233.024858,167.82813 L233.024858,167.82813 C232.761384,164.330442 235.383232,161.281417 238.88092,161.017943 C239.039659,161.005985 239.198793,161 239.357982,161 Z" id="Rectangle-2-Copy-47" fill="#E89B9B"></path>
                    <path d="M118.478892,159 L183.510211,159 L183.510211,159 C189.982676,159 195.229645,164.246969 195.229645,170.719434 L195.229645,170.719434 L195.229645,170.719434 C195.229645,177.191899 189.982676,182.438868 183.510211,182.438868 L121.275982,182.438868 L121.275982,182.438868 C114.542819,182.438868 108.872694,177.40516 108.07485,170.719434 L108.07485,170.719434 L108.07485,170.719434 C107.389149,164.97344 111.491326,159.759521 117.23732,159.07382 C117.64935,159.02465 118.063938,159 118.478892,159 Z" id="Rectangle-2-Copy-31" fill="#84AEDF"></path>
                    <path d="M87.8628442,91 L123.12592,91 L123.12592,91 C129.598384,91 134.845354,96.2469693 134.845354,102.719434 L134.845354,102.719434 L134.845354,102.719434 C134.845354,109.191899 129.598384,114.438868 123.12592,114.438868 L89.718191,114.438868 L89.718191,114.438868 C83.0805915,114.438868 77.5581982,109.336336 77.0344252,102.719434 L77.0344252,102.719434 L77.0344252,102.719434 C76.5610379,96.7390632 81.0253301,91.5072587 87.0057008,91.0338714 C87.2908578,91.0112993 87.5767952,91 87.8628442,91 Z" id="Rectangle-2-Copy-39" fill="#84AEDF"></path>
                    <path d="M129.132193,38 L164.862231,38 L164.862231,38 C168.633304,38 171.690362,41.0570583 171.690362,44.8281308 L171.690362,44.8281308 L171.690362,44.8281308 C171.690362,48.5992033 168.633304,51.6562615 164.862231,51.6562615 L130.693538,51.6562615 L130.693538,51.6562615 C126.777763,51.6562615 123.485052,48.7185615 123.040252,44.8281308 L123.040252,44.8281308 L123.040252,44.8281308 C122.655584,41.4636446 125.071204,38.4243548 128.43569,38.0396869 C128.666916,38.0132504 128.89946,38 129.132193,38 Z" id="Rectangle-2-Copy-40" fill="#84AEDF"></path>
                    <path d="M96.7554093,95 L119.174457,95 L119.174457,95 C123.868877,95 127.674457,98.8055796 127.674457,103.5 L127.674457,103.5 L127.674457,103.5 C127.674457,108.19442 123.868877,112 119.174457,112 L98.3964763,112 L98.3964763,112 C93.5530212,112 89.5018218,108.321044 89.0364302,103.5 L89.0364302,103.5 L89.0364302,103.5 C88.6249013,99.2369256 91.7471959,95.4474109 96.0102703,95.035882 C96.2579305,95.0119745 96.5065978,95 96.7554093,95 Z" id="Rectangle-2-Copy-48" fill="#7F9DC0"></path>
                    <path d="M98.2126533,98 L119.241686,98 L119.241686,98 C122.461506,98 125.071686,100.61018 125.071686,103.83 L125.071686,103.83 L125.071686,103.83 C125.071686,107.04982 122.461506,109.66 119.241686,109.66 L99.5738247,109.66 L99.5738247,109.66 C96.2275098,109.66 93.4116573,107.153744 93.0236482,103.83 L93.0236482,103.83 L93.0236482,103.83 C92.6890979,100.964192 94.741088,98.3697882 97.6068964,98.0352379 C97.8079621,98.0117658 98.0102222,98 98.2126533,98 Z" id="Rectangle-2-Copy-50" fill="#7790AE"></path>
                    <path d="M124.581151,162 L177.919998,162 L177.919998,162 C182.614419,162 186.419998,165.80558 186.419998,170.5 L186.419998,170.5 L186.419998,170.5 C186.419998,175.19442 182.614419,179 177.919998,179 L127.511732,179 L127.511732,179 C122.527782,179 118.267747,175.411505 117.421067,170.5 L117.421067,170.5 L117.421067,170.5 C116.739379,166.545595 119.39244,162.787299 123.346844,162.10561 C123.754523,162.035332 124.167459,162 124.581151,162 Z" id="Rectangle-2-Copy-49" fill="#7F9DC0"></path>
                    <path d="M40.7932124,200 L81.2739976,200 L81.2739976,200 C87.7464622,200 92.9934315,205.246969 92.9934315,211.719434 L92.9934315,211.719434 L92.9934315,211.719434 C92.9934315,218.191899 87.7464622,223.438868 81.2739976,223.438868 L42.8135831,223.438868 L42.8135831,223.438868 C36.1598152,223.438868 30.6119257,218.34862 30.0405067,211.719434 L30.0405067,211.719434 L30.0405067,211.719434 C29.5286184,205.780879 33.9278012,200.551761 39.8663566,200.039872 C40.1745942,200.013303 40.4838318,200 40.7932124,200 Z" id="Rectangle-2-Copy-38" fill="#84AEDF"></path>
                    <path d="M161.797813,210 L204.273431,210 L204.273431,210 C210.193924,210 214.993431,214.799508 214.993431,220.72 L214.993431,220.72 L214.993431,220.72 C214.993431,226.640493 210.193924,231.440001 204.273431,231.440001 L163.818184,231.440001 L163.818184,231.440001 C157.714695,231.440001 152.613124,226.796569 152.040507,220.72 L152.040507,220.72 L152.040507,220.72 C151.532699,215.331189 155.489534,210.551034 160.878346,210.043227 C161.183989,210.014425 161.490816,210 161.797813,210 Z" id="Rectangle-2-Copy-41" fill="#84AEDF"></path>
                    <path d="M142.688127,100.782606 L217.443452,100.782606 L217.443452,100.782606 C221.214524,100.782606 224.271582,103.839665 224.271582,107.610737 L224.271582,107.610737 L224.271582,107.610737 C224.271582,111.38181 221.214524,114.438868 217.443452,114.438868 L145.485217,114.438868 L145.485217,114.438868 C141.428198,114.438868 137.93085,111.585245 137.116787,107.610737 L137.116787,107.610737 L137.116787,107.610737 C136.48656,104.533771 138.470033,101.528497 141.547,100.898269 C141.922506,100.821358 142.304826,100.782606 142.688127,100.782606 Z" id="Rectangle-2-Copy-37" fill="#FDAAAA"></path>
                </g>
                <path d="M38.2829566,43 C15.1632426,67.6397377 1,100.807371 1,137.288104 C1,213.344284 62.5608469,275 138.5,275 C166.036009,275 191.681511,266.893305 213.187002,252.932887 C83.4806413,213.389173 47.1870888,132.49496 39.5152798,52.6148222 C39.1778351,49.1012917 38.7670606,45.8963509 38.2829566,43 Z" id="Combined-Shape" fill="#000000" opacity="0.325747283"></path>
            </g>
        </g>
    </g>
</svg>