<?xml version="1.0" encoding="UTF-8"?>
<svg width="274px" height="275px" viewBox="0 0 274 275" version="1.1" xmlns="http://www.w3.org/2000/svg" xmlns:xlink="http://www.w3.org/1999/xlink">
    <!-- Generator: Sketch 47.1 (45422) - http://www.bohemiancoding.com/sketch -->
    <title>Group</title>
    <desc>Created with Sketch.</desc>
    <defs></defs>
    <g id="Page-1" stroke="none" stroke-width="1" fill="none" fill-rule="evenodd">
        <g id="Artboard-Copy-6" transform="translate(-113.000000, -113.000000)">
            <g id="Group" transform="translate(113.000000, 113.000000)">
                <ellipse id="Oval-3" fill="#D29055" cx="137.477967" cy="137.478115" rx="136.493831" ry="136.726729"></ellipse>
                <ellipse id="Oval-3-Copy-2" fill="#D29055" cx="137.477967" cy="137.478115" rx="136.493831" ry="136.726729"></ellipse>
                <ellipse id="Oval-3-Copy-6" fill="#D29055" cx="137.477967" cy="137.478115" rx="136.493831" ry="136.726729"></ellipse>
                <ellipse id="Oval-3-Copy-4" fill="#D29055" cx="137.477967" cy="137.478115" rx="136.493831" ry="136.726729"></ellipse>
                <ellipse id="Oval-3-Copy-12" fill="#D29055" cx="137.477967" cy="137.478115" rx="136.493831" ry="136.726729"></ellipse>
                <ellipse id="Oval-3-Copy-11" fill="#D29055" cx="137.477967" cy="137.478115" rx="136.493831" ry="136.726729"></ellipse>
                <ellipse id="Oval-3-Copy-10" fill="#D29055" cx="137.477967" cy="137.478115" rx="136.493831" ry="136.726729"></ellipse>
                <ellipse id="Oval-3-Copy-8" fill="#D29055" cx="137.477967" cy="137.478115" rx="136.493831" ry="136.726729"></ellipse>
                <ellipse id="Oval-3-Copy-20" fill="#D29055" cx="137.477967" cy="137.478115" rx="136.493831" ry="136.726729"></ellipse>
                <ellipse id="Oval-3-Copy-19" fill="#D29055" cx="137.477967" cy="137.478115" rx="136.493831" ry="136.726729"></ellipse>
                <ellipse id="Oval-3-Copy-18" fill="#D29055" cx="137.477967" cy="137.478115" rx="136.493831" ry="136.726729"></ellipse>
                <ellipse id="Oval-3-Copy-17" fill="#D29055" cx="137.477967" cy="137.478115" rx="136.493831" ry="136.726729"></ellipse>
                <ellipse id="Oval-3-Copy-16" fill="#4A90E2" cx="137.477967" cy="137.478115" rx="136.493831" ry="136.726729"></ellipse>
                <path d="M60.8714839,250.656259 C54.8470723,246.556638 49.1671636,241.987013 43.8842845,237 L82.5649699,237 L82.5649699,237 C86.3360417,237 89.3930995,240.057058 89.3930995,243.82813 L89.3930995,243.82813 C89.3930995,247.599201 86.3360417,250.656259 82.5649699,250.656259 L60.8714839,250.656259 Z" id="Combined-Shape" fill="#67A4EB"></path>
                <path d="M38.3221729,231.44 C34.6066143,227.507022 31.1217406,223.353113 27.8892433,219 L91.9400039,219 L91.9400039,219 C95.3752149,219 98.1600037,221.784789 98.1600037,225.22 L98.1600037,225.22 C98.1600037,228.655211 95.3752149,231.44 91.9400039,231.44 L38.3221729,231.44 Z" id="Combined-Shape" fill="#4384D0"></path>
                <path d="M28.2164943,219.438868 C22.7624273,212.154923 18.0172992,204.307721 14.0836793,196.000008 L113.438591,196 L113.438591,196 C119.911056,196 125.158025,201.246969 125.158025,207.719434 L125.158025,207.719434 C125.158025,214.191899 119.911056,219.438868 113.438591,219.438868 L28.2164943,219.438868 Z" id="Combined-Shape" fill="#4384D0"></path>
                <path d="M10.8692334,188.66 C9.85421194,186.142985 8.91182226,183.588783 8.04466643,181 L77.4047966,181 L77.4047966,181 C79.5200472,181 81.2347966,182.714749 81.2347966,184.83 L81.2347966,184.83 C81.2347966,186.94525 79.5200472,188.66 77.4047966,188.66 L10.8692334,188.66 Z" id="Combined-Shape" fill="#67A4EB"></path>
                <path d="M6.9724982,177.656259 C5.60595051,173.196977 4.46092405,168.640597 3.55027907,164 L52.406667,164 L52.406667,164 C56.1777388,164 59.2347966,167.057058 59.2347966,170.82813 L59.2347966,170.82813 L59.2347966,170.82813 C59.2347966,174.599201 56.1777388,177.656259 52.406667,177.656259 L6.9724982,177.656259 Z" id="Combined-Shape" fill="#67A4EB"></path>
                <path d="M1.08148142,132.26605 C1.40749319,123.552794 2.54747258,115.048113 4.42746372,106.826087 L76.3614816,106.826087 L76.3614816,106.826087 C83.3865435,106.826087 89.0814814,112.521025 89.0814814,119.546087 L89.0814814,119.546087 L89.0814814,119.546087 C89.0814814,126.571149 83.3865435,132.266087 76.3614816,132.266087 L1.08148006,132.266087 Z" id="Combined-Shape" fill="#67A4EB"></path>
                <path d="M10.116593,88.2039667 C13.290889,79.9767143 17.2367698,72.1340779 21.8653442,64.7651003 L141.141143,64.7651003 L141.141143,64.7651003 C147.613608,64.7651003 152.860577,70.0120696 152.860577,76.4845342 L152.860577,76.4845342 L152.860577,76.4845342 C152.860577,82.9569988 147.613608,88.2039681 141.141143,88.2039681 L10.1165826,88.2039681 Z" id="Combined-Shape" fill="#4384D0"></path>
                <path d="M24.6972717,60.4399996 C26.914106,57.1898403 29.2673065,54.0404181 31.7486204,51 L112.6731,51 L112.6731,51 C115.279884,51 117.393099,53.1132159 117.393099,55.7199998 L117.393099,55.7199998 C117.393099,58.3267837 115.279884,60.4399996 112.6731,60.4399996 L24.6972717,60.4399996 Z" id="Combined-Shape" fill="#4384D0"></path>
                <path d="M54.2909633,29.0698776 C66.2331814,19.8610282 79.7399226,12.5878774 94.3432289,7.71918162 L99.7904695,7.71918162 L99.7904695,7.71918162 C105.865602,7.71918162 110.790469,12.6440492 110.790469,18.7191812 L110.790469,18.7191812 C110.790469,24.7943132 105.865602,29.7191808 99.7904695,29.7191808 L58.2151094,29.7191808 L58.2151094,29.7191808 C56.8452643,29.7191808 55.5245942,29.4912594 54.2909633,29.0698776 Z" id="Combined-Shape" fill="#67A4EB"></path>
                <path d="M253.237803,65 C255.983442,69.3909524 258.487009,73.9492901 260.729774,78.6562511 L179.82813,78.6562591 L179.82813,78.6562591 C176.057058,78.6562591 173,75.5992014 173,71.8281296 L173,71.8281296 L173,71.8281296 C173,68.0570577 176.057058,65 179.82813,65 L253.237803,65 Z" id="Combined-Shape" fill="#67A4EB"></path>
                <path d="M263.556199,85 C267.629433,94.8081549 270.595282,105.193695 272.29739,116 L167,116 C159.268014,116 153,109.731986 153,102 L153,99 L153,99 C153,91.2680135 159.268014,85 167,85 L167,85 L263.556199,85 Z" id="Combined-Shape" fill="#4384D0"></path>
                <path d="M272.669782,156.4399 C271.5753,164.342231 269.806589,172.028609 267.423713,179.438868 L235.719434,179.438868 L235.719434,179.438868 C229.246969,179.438868 224,174.191899 224,167.719434 L224,167.719434 L224,167.719434 C224,161.246969 229.246969,156 235.719434,156 L235.719434,156 L269.477981,156 L269.477981,156 C270.584423,156 271.655053,156.15333 272.669782,156.4399 Z" id="Combined-Shape" fill="#4384D0"></path>
                <path d="M266.223971,183.000001 C265.337906,185.514544 264.380504,187.995357 263.3542,190.44 L221.72,190.44 L221.72,190.44 C219.665501,190.44 218,188.774499 218,186.72 C218,184.665501 219.665501,183 221.72,183 L221.72,183 L266.223977,183 Z" id="Combined-Shape" fill="#4384D0"></path>
                <path d="M261.340792,195.000006 C260.161685,197.543374 258.906806,200.044342 257.579059,202.5 L192.75,202.5 L192.75,202.5 C190.678932,202.5 189,200.821068 189,198.75 L189,198.75 L189,198.75 C189,196.678932 190.678932,195 192.75,195 L192.75,195 L261.340795,195 Z" id="Combined-Shape" fill="#3F7DC6"></path>
                <path d="M255.010682,207.040686 C248.617262,217.856543 240.778323,227.713745 231.760357,236.345346 L155,236.345346 C147.268014,236.345346 141,230.077333 141,222.345346 L141,219.478249 C141,211.746263 147.268014,205.478249 155,205.478249 L155,205.478249 L248.577297,205.478249 L248.577297,205.478249 C250.896724,205.478249 253.084412,206.042288 255.010682,207.040686 Z" id="Combined-Shape" fill="#4384D0"></path>
                <path d="M236.302638,231.789272 C229.27708,239.173974 221.435067,245.772268 212.921635,251.438868 L112.719434,251.438868 C106.246969,251.438868 101,246.191899 101,239.719434 L101,239.719434 L101,239.719434 C101,233.246969 106.246969,228 112.719434,228 L112.719434,228 L227.673666,228 L227.673666,228 C231.087665,228 234.160708,229.459809 236.302638,231.789272 Z" id="Combined-Shape" fill="#67A4EB"></path>
                <path d="M100.539162,269.13905 C112.287623,272.439667 124.677007,274.204844 137.477967,274.204844 C157.577047,274.204844 176.661473,269.853178 193.843491,262.039114 C191.452802,260.136706 188.425609,259 185.132924,259 L185.132924,259 L114,259 L114,259 C107.607237,259 102.21523,263.284744 100.539162,269.13905 Z" id="Combined-Shape" fill="#4384D0"></path>
                <path d="M274.00699,142.651987 C274.00699,146.058644 273.380689,149.400518 272.1763,152.656259 L209.002136,152.656259 C206.239533,152.656259 204,150.416726 204,147.654123 L204,147.654123 L204,147.654123 C204,144.891519 206.239533,142.651987 209.002136,142.651987 L209.002136,142.651987 L274.00699,142.651987 Z" id="Combined-Shape" fill="#4384D0"></path>
                <path d="M179.312694,7.29305536 C202.662882,14.8163679 223.269217,28.4683368 239.243791,46.357835 L162.687525,46.357835 C154.955538,46.357835 148.687525,40.0898215 148.687525,32.357835 L148.687525,21.2930554 C148.687525,13.5610689 154.955538,7.29305536 162.687525,7.29305536 L162.687525,7.29305536 L179.312694,7.29305536 Z" id="Combined-Shape" fill="#4384D0"></path>
                <path d="M205.925012,19.1591812 C222.821943,28.9885648 237.420214,42.3456835 248.714966,58.2239634 L131.562073,58.2239634 L131.562073,58.2239634 C123.830087,58.2239634 117.562073,51.9559499 117.562073,44.2239634 L117.562073,33.1591838 L117.562073,33.1591838 C117.562073,25.4271973 123.830087,19.1591838 131.562073,19.1591838 L131.562073,19.1591838 L205.925016,19.1591838 Z" id="Combined-Shape" fill="#4384D0"></path>
                <path d="M5.16039874,171.173913 C2.43323286,160.395225 0.98413631,149.106186 0.98413631,137.478115 C0.98413631,134.01174 1.11291177,130.575493 1.36593195,127.173913 L186.90795,127.173913 L186.90795,127.173913 C194.639936,127.173913 200.90795,133.441927 200.90795,141.173913 L200.90795,157.173913 L200.90795,157.173913 C200.90795,164.9059 194.639936,171.173913 186.90795,171.173913 L5.16039874,171.173913 Z" id="Combined-Shape" fill="#4384D0"></path>
                <path d="M35.6398416,46.4388678 C43.6192635,37.4887035 52.7570845,29.5969764 62.8173935,23 L138.673666,23 L138.673666,23 C145.14613,23 150.393099,28.2469693 150.393099,34.7194339 L150.393099,34.7194339 C150.393099,41.1918985 145.14613,46.4388678 138.673666,46.4388678 L35.6398416,46.4388678 Z" id="Combined-Shape" fill="#67A4EB"></path>
                <rect id="Rectangle-2-Copy-2" fill="#67A4EB" x="88.0434783" y="153.26087" width="129.634198" height="34.7826087" rx="14"></rect>
                <path d="M216.525178,26 C225.787841,32.6023259 234.192428,40.3340465 241.53872,48.9946044 C241.420924,48.9982021 241.302659,49 241.183973,49 L178.044295,49 C171.430027,49 165.855245,44.0653676 165.052446,37.5 L165.052446,37.5 C164.365005,31.8780399 168.365223,26.7632596 173.987183,26.0758186 C174.400168,26.0253197 174.815844,26 175.231905,26 L175.231905,26 L216.525178,26 Z" id="Combined-Shape" fill="#67A4EB"></path>
                <rect id="Rectangle-2-Copy-29" fill="#4384D0" x="83" y="196" width="68.1974148" height="7.44000006" rx="3.72000003"></rect>
                <path d="M19.9625281,95 L129.438591,95 L129.438591,95 C135.911056,95 141.158025,100.246969 141.158025,106.719434 L141.158025,106.719434 L141.158025,106.719434 C141.158025,113.191899 135.911056,118.438868 129.438591,118.438868 L23.9725385,118.438868 L23.9725385,118.438868 C17.1940112,118.438868 11.3892239,113.582643 10.1924605,106.910598 L10.1581715,106.719434 L10.1581715,106.719434 C9.18692046,101.304637 12.7891259,96.1277228 18.2039226,95.1564718 C18.7843373,95.0523629 19.3728503,95 19.9625281,95 Z" id="Rectangle-2-Copy-12" fill="#4384D0"></path>
                <path d="M136.871545,155 L171.487917,155 L171.487917,155 C177.960382,155 183.207351,160.246969 183.207351,166.719434 L183.207351,166.719434 L183.207351,166.719434 C183.207351,173.191899 177.960382,178.438868 171.487917,178.438868 L138.70644,178.438868 L138.70644,178.438868 C132.070827,178.438868 126.551582,173.334807 126.033703,166.719434 L126.033703,166.719434 L126.033703,166.719434 C125.565126,160.733859 130.037538,155.501735 136.023113,155.033159 C136.305384,155.011061 136.588411,155 136.871545,155 Z" id="Rectangle-2-Copy-18" fill="#FFFFFF"></path>
                <path d="M114.393902,146 L130.169817,146 L130.169817,146 C133.940889,146 136.997947,149.057058 136.997947,152.82813 L136.997947,152.82813 L136.997947,152.82813 C136.997947,156.599201 133.940889,159.656259 130.169817,159.656259 L115.324061,159.656259 L115.324061,159.656259 C111.471267,159.656259 108.276848,156.672017 108.015032,152.82813 L108.015032,152.82813 L108.015032,152.82813 C107.775075,149.305177 110.43647,146.254736 113.959423,146.01478 C114.10404,146.004929 114.24895,146 114.393902,146 Z" id="Rectangle-2-Copy-30" fill="#FFFFFF"></path>
                <path d="M42.3939022,201 L58.1698173,201 L58.1698173,201 C61.9408891,201 64.9979469,204.057058 64.9979469,207.82813 L64.9979469,207.82813 L64.9979469,207.82813 C64.9979469,211.599201 61.9408891,214.656259 58.1698173,214.656259 L43.3240613,214.656259 L43.3240613,214.656259 C39.4712673,214.656259 36.2768477,211.672017 36.0150317,207.82813 L36.0150317,207.82813 L36.0150317,207.82813 C35.7750753,204.305177 38.4364698,201.254736 41.9594227,201.01478 C42.1040398,201.004929 42.2489501,201 42.3939022,201 Z" id="Rectangle-2-Copy-35" fill="#FFFFFF"></path>
                <path d="M33.1127546,139 L69.1698173,139 L69.1698173,139 C72.9408891,139 75.9979469,142.057058 75.9979469,145.82813 L75.9979469,145.82813 L75.9979469,145.82813 C75.9979469,149.599201 72.9408891,152.656259 69.1698173,152.656259 L34.684448,152.656259 L34.684448,152.656259 C30.7675892,152.656259 27.4732327,149.719303 27.0253991,145.82813 L27.0253991,145.82813 L27.0253991,145.82813 C26.6384732,142.466176 29.0502096,139.427109 32.4121632,139.040183 C32.6447343,139.013416 32.8786483,139 33.1127546,139 Z" id="Rectangle-2-Copy-32" fill="#FFFFFF"></path>
                <path d="M117.393902,28 L133.169817,28 L133.169817,28 C136.940889,28 139.997947,31.0570577 139.997947,34.8281296 L139.997947,34.8281296 L139.997947,34.8281296 C139.997947,38.5992014 136.940889,41.6562591 133.169817,41.6562591 L118.324061,41.6562591 L118.324061,41.6562591 C114.471267,41.6562591 111.276848,38.6720174 111.015032,34.8281296 L111.015032,34.8281296 L111.015032,34.8281296 C110.775075,31.3051766 113.43647,28.254736 116.959423,28.0147796 C117.10404,28.0049294 117.24895,28 117.393902,28 Z" id="Rectangle-2-Copy-33" fill="#FFFFFF"></path>
                <path d="M157.014822,209 L185.04369,209 L185.04369,209 C189.263302,209 192.683973,212.420671 192.683973,216.640283 L192.683973,216.640283 L192.683973,216.640283 C192.683973,220.859895 189.263302,224.280566 185.04369,224.280566 L158.383782,224.280566 L158.383782,224.280566 C154.04084,224.280566 150.415945,220.965902 150.02842,216.640283 L150.02842,216.640283 L150.02842,216.640283 C149.682745,212.781799 152.530439,209.373656 156.388923,209.027981 C156.597035,209.009336 156.805877,209 157.014822,209 Z" id="Rectangle-2-Copy-36" fill="#FFFFFF"></path>
                <path d="M180.449244,100 L245.480563,100 L245.480563,100 C251.953028,100 257.199997,105.246969 257.199997,111.719434 L257.199997,111.719434 L257.199997,111.719434 C257.199997,118.191899 251.953028,123.438868 245.480563,123.438868 L183.246334,123.438868 L183.246334,123.438868 C176.513171,123.438868 170.843047,118.40516 170.045202,111.719434 L170.045202,111.719434 L170.045202,111.719434 C169.359501,105.97344 173.461678,100.759521 179.207672,100.07382 C179.619702,100.02465 180.03429,100 180.449244,100 Z" id="Rectangle-2-Copy-31" fill="#67A4EB"></path>
                <path d="M37.8856059,44 C15.0024576,68.4490818 0.98413631,101.360072 0.98413631,137.558527 C0.98413631,213.026204 61.9150797,274.204844 137.077207,274.204844 C164.331462,274.204844 189.714555,266.160876 210.999996,252.30848 C82.6208184,213.070745 46.6986291,132.802471 39.1053197,53.5404252 C38.7713277,50.0540814 38.3647565,46.8739397 37.8856059,44 Z" id="Combined-Shape" fill="#000000" opacity="0.325747283"></path>
            </g>
        </g>
    </g>
</svg>