<?xml version="1.0" encoding="UTF-8"?>
<svg width="451px" height="275px" viewBox="0 0 451 275" version="1.1" xmlns="http://www.w3.org/2000/svg" xmlns:xlink="http://www.w3.org/1999/xlink">
    <!-- Generator: Sketch 51.2 (57519) - http://www.bohemiancoding.com/sketch -->
    <title>Group</title>
    <desc>Created with Sketch.</desc>
    <defs></defs>
    <g id="Page-1" stroke="none" stroke-width="1" fill="none" fill-rule="evenodd">
        <g id="Artboard-Copy-17" transform="translate(-26.000000, -113.000000)">
            <g id="Group" transform="translate(24.000000, 113.000000)">
                <g id="Group-2" transform="translate(90.000000, 0.000000)">
                    <ellipse id="Oval-3" fill="#D29055" cx="137.477967" cy="137.478115" rx="136.493831" ry="136.726729"></ellipse>
                    <ellipse id="Oval-3-Copy-2" fill="#D29055" cx="137.477967" cy="137.478115" rx="136.493831" ry="136.726729"></ellipse>
                    <ellipse id="Oval-3-Copy-6" fill="#D29055" cx="137.477967" cy="137.478115" rx="136.493831" ry="136.726729"></ellipse>
                    <ellipse id="Oval-3-Copy-4" fill="#D29055" cx="137.477967" cy="137.478115" rx="136.493831" ry="136.726729"></ellipse>
                    <ellipse id="Oval-3-Copy-12" fill="#D29055" cx="137.477967" cy="137.478115" rx="136.493831" ry="136.726729"></ellipse>
                    <ellipse id="Oval-3-Copy-11" fill="#D29055" cx="137.477967" cy="137.478115" rx="136.493831" ry="136.726729"></ellipse>
                    <ellipse id="Oval-3-Copy-10" fill="#D29055" cx="137.477967" cy="137.478115" rx="136.493831" ry="136.726729"></ellipse>
                    <ellipse id="Oval-3-Copy-8" fill="#D29055" cx="137.477967" cy="137.478115" rx="136.493831" ry="136.726729"></ellipse>
                    <ellipse id="Oval-3-Copy-20" fill="#D29055" cx="137.477967" cy="137.478115" rx="136.493831" ry="136.726729"></ellipse>
                    <ellipse id="Oval-3-Copy-19" fill="#D29055" cx="137.477967" cy="137.478115" rx="136.493831" ry="136.726729"></ellipse>
                    <ellipse id="Oval-3-Copy-18" fill="#D29055" cx="137.477967" cy="137.478115" rx="136.493831" ry="136.726729"></ellipse>
                    <ellipse id="Oval-3-Copy-17" fill="#D29055" cx="137.477967" cy="137.478115" rx="136.493831" ry="136.726729"></ellipse>
                    <ellipse id="Oval-3-Copy-16" fill="#C88EB2" cx="137.477967" cy="137.478115" rx="136.493831" ry="136.726729"></ellipse>
                    <path d="M68.7894758,255.656262 C61.9523919,251.660167 55.4934311,247.085764 49.4794257,242 L120.044396,242 C123.815467,242 126.872525,245.057058 126.872525,248.82813 C126.872525,252.599201 123.815467,255.656259 120.044396,255.656259 L68.7894717,255.656259 Z" id="Combined-Shape" fill="#A5B6D5"></path>
                    <path d="M2.47424881,157.75124 C1.50566845,151.223705 0.997664567,144.545631 0.984402842,137.75124 L9.98440284,137.75124 C15.5072503,137.75124 19.9844028,142.228392 19.9844028,147.75124 C19.9844028,153.274087 15.5072503,157.75124 9.98440284,157.75124 L2.47424881,157.75124 Z" id="Combined-Shape" fill="#A5B6D5"></path>
                    <path d="M28.2164943,219.438868 C22.7624273,212.154923 18.0172992,204.307721 14.0836793,196.000008 L46.4424962,196 C52.9149608,196 58.1619301,201.246969 58.1619301,207.719434 C58.1619301,214.191899 52.9149608,219.438868 46.4424962,219.438868 L28.2164943,219.438868 Z" id="Combined-Shape" fill="#A5B6D5"></path>
                    <path d="M11.6943224,190.660003 C10.6329598,188.144231 9.64461966,185.590009 8.73196304,183.000001 L28.0219594,183 C30.13721,183 31.8519593,184.714749 31.8519593,186.83 C31.8519593,188.94525 30.13721,190.66 28.0219594,190.66 L11.6943039,190.66 Z" id="Combined-Shape" fill="#A5B6D5"></path>
                    <path d="M6.9724982,177.656259 C5.60595051,173.196977 4.46092405,168.640597 3.55027907,164 L74.6303312,164 C78.401403,164 81.4584608,167.057058 81.4584608,170.82813 C81.4584608,174.599201 78.401403,177.656259 74.6303312,177.656259 L6.9724982,177.656259 Z" id="Combined-Shape" fill="#A097A3"></path>
                    <path d="M10.116593,88.2039667 C13.290889,79.9767143 17.2367698,72.1340779 21.8653442,64.7651003 L141.141143,64.7651003 C147.613608,64.7651003 152.860577,70.0120696 152.860577,76.4845342 C152.860577,82.9569988 147.613608,88.2039681 141.141143,88.2039681 L10.1165826,88.2039681 Z" id="Combined-Shape" fill="#EBDDEF"></path>
                    <path d="M24.6972717,60.4399996 C26.914106,57.1898403 29.2673065,54.0404181 31.7486204,51 L112.6731,51 C115.279884,51 117.393099,53.1132159 117.393099,55.7199998 C117.393099,58.3267837 115.279884,60.4399996 112.6731,60.4399996 L24.6972717,60.4399996 Z" id="Combined-Shape" fill="#D3C6D7"></path>
                    <path d="M72.7904691,17.0510392 C79.6437761,13.3494331 86.8491105,10.2176968 94.3432289,7.71918162 L162.35472,7.71918162 C164.961504,7.71918162 167.07472,9.8323975 167.07472,12.4391814 C167.07472,15.0459653 164.961504,17.1591812 162.35472,17.1591812 L73.9244459,17.1591812 C73.5379828,17.1591812 73.1587311,17.1221155 72.7904691,17.0510392 Z" id="Combined-Shape" fill="#EBDDEF"></path>
                    <path d="M253.237803,65 C255.983442,69.3909524 258.487009,73.9492901 260.729774,78.6562511 L228.890631,78.6562591 C225.119559,78.6562591 222.062501,75.5992014 222.062501,71.8281296 C222.062501,68.0570577 225.119559,65 228.890631,65 L253.237803,65 Z" id="Combined-Shape" fill="#D3C6D7"></path>
                    <path d="M272.669782,156.4399 C271.5753,164.342231 269.806589,172.028609 267.423713,179.438868 L235.719434,179.438868 C229.246969,179.438868 224,174.191899 224,167.719434 C224,161.246969 229.246969,156 235.719434,156 L269.477981,156 C270.584423,156 271.655053,156.15333 272.669782,156.4399 Z" id="Combined-Shape" fill="#EBDDEF"></path>
                    <path d="M266.223971,183.000001 C265.148832,186.051115 263.968662,189.052567 262.687812,192 L248.5,192 C246.014719,192 244,189.985281 244,187.5 C244,185.014719 246.014719,183 248.5,183 L266.223977,183 Z" id="Combined-Shape" fill="#A5B6D5"></path>
                    <path d="M260.872255,196.000008 C259.667611,198.544187 258.386861,201.045176 257.032949,203.500026 L190.75,203.5 C188.678932,203.5 187,201.821068 187,199.75 C187,197.678932 188.678932,196 190.75,196 L260.872259,196 Z" id="Combined-Shape" fill="#A097A3"></path>
                    <path d="M255.010682,207.040686 C248.617262,217.856543 240.778323,227.713745 231.760357,236.345346 L80.5618099,236.345346 C72.8298234,236.345346 66.5618099,230.077333 66.5618099,222.345346 L66.5618099,219.478249 C66.5618099,211.746263 72.8298234,205.478249 80.5618099,205.478249 L248.577297,205.478249 C250.896724,205.478249 253.084412,206.042288 255.010682,207.040686 Z" id="Combined-Shape" fill="#CAA5D5"></path>
                    <path d="M137.377375,274.204808 C132.027151,273.119661 128,268.389843 128,262.719434 C128,256.246969 133.246969,251 139.719434,251 L213.576879,251 C191.834841,265.653328 165.65336,274.204844 137.477967,274.204844 C137.444434,274.204844 137.410903,274.204832 137.377375,274.204808 Z" id="Combined-Shape" fill="#A5B6D5"></path>
                    <path d="M74.8598286,259 L158.453607,259 C165.074999,259 170.622773,263.596701 172.07989,269.773063 C161.029456,272.665202 149.433207,274.204844 137.477967,274.204844 C114.906528,274.204844 93.6147183,268.716748 74.8598455,259.000009 Z" id="Combined-Shape" fill="#A097A3"></path>
                    <path d="M273.765869,139 C273.925867,140.208274 274.00699,141.425935 274.00699,142.651987 C274.00699,146.058644 273.380689,149.400518 272.1763,152.656259 L217.82813,152.656259 C214.057058,152.656259 211,149.599201 211,145.82813 C211,142.057058 214.057058,139 217.82813,139 L273.765869,139 Z" id="Combined-Shape" fill="#EBDDEF"></path>
                    <rect id="Rectangle-2-Copy-2" fill="#D3C6D7" x="88.0434783" y="153.26087" width="129.634198" height="34.7826087" rx="14"></rect>
                    <path d="M239.813623,47 C244.050526,51.80487 247.955431,56.9104015 251.492369,62.2805661 L184.490557,62.2805661 C180.147614,62.2805661 176.522719,58.9659017 176.135195,54.640283 C175.78952,50.7817995 178.637214,47.3736556 182.495697,47.0279806 C182.70381,47.0093362 182.912651,47 183.121597,47 L239.813623,47 Z" id="Combined-Shape" fill="#A097A3"></path>
                    <path d="M23.6641965,95 L117.577297,95 C125.309284,95 131.577297,101.268014 131.577297,109 L131.577297,120.06478 C131.577297,127.796767 125.309284,134.06478 117.577297,134.06478 L24.7680234,134.06478 C17.5742317,134.06478 11.5512836,128.612787 10.8371727,121.454527 L9.73334578,110.389747 C8.96580955,102.695951 14.5806528,95.8366855 22.2744492,95.0691493 C22.7362658,95.0230782 23.2000876,95 23.6641965,95 Z" id="Rectangle-2-Copy-12" fill="#CAA5D5"></path>
                    <path d="M148.039113,125.758681 L170.789381,125.758681 C177.261846,125.758681 182.508815,131.00565 182.508815,137.478115 L182.508815,137.478115 C182.508815,143.95058 177.261846,149.197549 170.789381,149.197549 L149.498783,149.197549 C142.898957,149.197549 137.437024,144.065181 137.026811,137.478115 L137.026811,137.478115 C136.648055,131.396188 141.271388,126.15877 147.353315,125.780015 C147.581638,125.765796 147.810348,125.758681 148.039113,125.758681 Z" id="Rectangle-2-Copy-18" fill="#D3C6D7"></path>
                    <path d="M172.711153,70 L205.789381,70 C212.261846,70 217.508815,75.2469693 217.508815,81.7194339 L217.508815,81.7194339 C217.508815,88.1918985 212.261846,93.4388678 205.789381,93.4388678 L174.497403,93.4388678 C167.866501,93.4388678 162.354734,88.3311642 161.850861,81.7194339 L161.850861,81.7194339 C161.393762,75.7214606 165.885528,70.4885905 171.883502,70.0314915 C172.158886,70.0105048 172.434969,70 172.711153,70 Z" id="Rectangle-2-Copy-30" fill="#A097A3"></path>
                    <path d="M33.1127546,139 L69.1698173,139 C72.9408891,139 75.9979469,142.057058 75.9979469,145.82813 L75.9979469,145.82813 C75.9979469,149.599201 72.9408891,152.656259 69.1698173,152.656259 L34.684448,152.656259 C30.7675892,152.656259 27.4732327,149.719303 27.0253991,145.82813 L27.0253991,145.82813 C26.6384732,142.466176 29.0502096,139.427109 32.4121632,139.040183 C32.6447343,139.013416 32.8786483,139 33.1127546,139 Z" id="Rectangle-2-Copy-32" fill="#A097A3"></path>
                    <path d="M75.8727813,28 L133.485497,28 C137.256569,28 140.313627,31.0570577 140.313627,34.8281296 L140.313627,34.8281296 C140.313627,38.5992014 137.256569,41.6562591 133.485497,41.6562591 L78.1268368,41.6562591 C74.134821,41.6562591 70.7294051,38.7668533 70.0792928,34.8281296 L70.0792928,34.8281296 C69.5511686,31.6284742 71.7168725,28.6065119 74.9165278,28.0783877 C75.232607,28.0262167 75.5524255,28 75.8727813,28 Z" id="Rectangle-2-Copy-33" fill="#D3C6D7"></path>
                    <path d="M160.417587,22 L179.65407,22 C185.176918,22 189.65407,26.4771525 189.65407,32 L189.65407,32 C189.65407,37.5228475 185.176918,42 179.65407,42 L161.657536,42 C156.026534,42 151.366801,37.6202114 151.018362,32 L151.018362,32 C150.69653,26.8089513 154.64381,22.3398785 159.834859,22.0180465 C160.028868,22.0060184 160.223204,22 160.417587,22 Z" id="Rectangle-2-Copy-35" fill="#EBDDEF"></path>
                    <path d="M180.449244,100 L245.480563,100 C251.953028,100 257.199997,105.246969 257.199997,111.719434 L257.199997,111.719434 C257.199997,118.191899 251.953028,123.438868 245.480563,123.438868 L183.246334,123.438868 C176.513171,123.438868 170.843047,118.40516 170.045202,111.719434 L170.045202,111.719434 C169.359501,105.97344 173.461678,100.759521 179.207672,100.07382 C179.619702,100.02465 180.03429,100 180.449244,100 Z" id="Rectangle-2-Copy-31" fill="#A097A3"></path>
                    <path d="M37.2829566,43 C37.7670606,45.8918943 38.1778351,49.0919037 38.5152798,52.600028 C46.1870888,132.357255 82.4806413,213.126997 212.187006,252.609863 C190.681511,266.548803 165.036009,274.643024 137.5,274.643024 C61.5608469,274.643024 0,213.082177 0,137.143024 C0,100.718423 14.1632426,67.6018248 37.2829566,43 Z" id="Combined-Shape" fill="#000000" opacity="0.325747283"></path>
                </g>
                <path d="M89.5704351,142.336306 C78.912956,142.695803 73.5753339,143.574655 73.5575686,144.972862 C73.5309208,147.070171 138.997737,151.52898 228.372249,151.183303 C317.746761,150.837626 381.650499,147.058187 381.670149,144.972862 C381.68325,143.582645 375.280259,142.703793 362.461178,142.336306 L362.461178,138 C423.50958,139.499916 454.022516,142.674273 453.999988,147.52307 C453.966195,154.796265 339.715933,160.670749 228.372249,161.386648 C117.028565,162.102548 -0.442787756,155.353703 0.00125495257,147.52307 C0.297283425,142.302648 30.1536768,139.128291 89.5704351,138 L89.5704351,142.336306 Z" id="Path-3" fill="#E386FF" transform="translate(227.000000, 149.719434) rotate(8.000000) translate(-227.000000, -149.719434) "></path>
                <path d="M89.5704351,133.710565 C78.912956,134.183994 73.5753339,135.341371 73.5575686,137.182696 C73.5309208,139.944683 138.997737,145.816575 228.372249,145.361346 C317.746761,144.906117 381.650499,139.928901 381.670149,137.182696 C381.68325,135.351892 375.280259,134.194515 362.461178,133.710565 L362.461178,128 C423.50958,129.975269 454.022516,134.15564 453.999988,140.541114 C453.966195,150.119326 339.715933,157.855546 228.372249,158.798328 C117.028565,159.74111 -0.442787756,150.853426 0.00125495257,140.541114 C0.297283425,133.66624 30.1536768,129.485869 89.5704351,128 L89.5704351,133.710565 Z" id="Path-3-Copy" fill="#84678C" transform="translate(227.000000, 143.433548) rotate(8.000000) translate(-227.000000, -143.433548) "></path>
            </g>
        </g>
    </g>
</svg>