<?xml version="1.0" encoding="UTF-8"?>
<svg width="275px" height="275px" viewBox="0 0 275 275" version="1.1" xmlns="http://www.w3.org/2000/svg" xmlns:xlink="http://www.w3.org/1999/xlink">
    <!-- Generator: Sketch 47.1 (45422) - http://www.bohemiancoding.com/sketch -->
    <title>Group Copy</title>
    <desc>Created with Sketch.</desc>
    <defs></defs>
    <g id="Page-1" stroke="none" stroke-width="1" fill="none" fill-rule="evenodd">
        <g id="Artboard-Copy-3" transform="translate(-113.000000, -113.000000)">
            <g id="Group-Copy" transform="translate(113.000000, 113.000000)">
                <circle id="Oval-3" fill="#57F0CE" cx="137.5" cy="137.5" r="137.5"></circle>
                <path d="M268.93841,97 C272.269787,107.824334 274.30079,119.21845 274.849074,131 L214,131 C206.268014,131 200,124.731986 200,117 L200,111 L200,111 C200,103.268014 206.268014,97 214,97 L214,97 L268.93841,97 Z" id="Combined-Shape" fill="#50E3C2"></path>
                <path d="M17.1216292,70.9999731 C25.6340263,55.6236726 37.0069141,42.0509561 50.5221166,31 L83,31 C90.7319865,31 97,37.2680135 97,45 L97,57 L97,57 C97,64.7319865 90.7319865,71 83,71 L17.1216143,71 Z" id="Combined-Shape" fill="#FFFFFF"></path>
                <path d="M4.89708035,101 C8.85708,86.5809269 15.1059774,73.1092278 23.228675,61 L115,61 C122.731986,61 129,67.2680135 129,75 L129,87 L129,87 C129,94.7319865 122.731986,101 115,101 L4.89708035,101 Z" id="Combined-Shape" fill="#50E3C2"></path>
                <path d="M17.1216292,204.000027 C11.9272526,194.617206 7.79800854,184.562803 4.89708035,174 L47,174 C54.7319865,174 61,180.268014 61,188 L61,190 C61,197.731986 54.7319865,204 47,204 L17.1216143,204 Z" id="Combined-Shape" fill="#47C0A4"></path>
                <path d="M272.999709,161 C271.19996,171.450886 268.220558,181.49823 264.203535,191 L183,191 C175.268014,191 169,184.731986 169,177 L169,175 L169,175 C169,167.268014 175.268014,161 183,161 L183,161 L272.999709,161 Z" id="Combined-Shape" fill="#50E3C2"></path>
                <path d="M235.449,41 C245.233366,50.9303601 253.518959,62.3415259 259.939074,74.8667938 C259.305292,74.9546133 258.657946,75 258,75 L183,75 C175.268014,75 169,68.7319865 169,61 L169,55 L169,55 C169,47.2680135 175.268014,41 183,41 L183,41 L235.449,41 Z" id="Combined-Shape" fill="#50E3C2"></path>
                <path d="M210.568378,20.999999 C226.949762,31.2960029 241.006176,44.9514347 251.771325,61 L117,61 C109.268014,61 103,54.7319865 103,47 L103,35 C103,27.2680135 109.268014,21 117,21 L117,21 L210.568379,21 Z" id="Combined-Shape" fill="#47C0A4"></path>
                <rect id="Rectangle-2-Copy-13" fill="#47C0A4" x="133" y="106" width="103" height="34" rx="14"></rect>
                <rect id="Rectangle-2-Copy-21" fill="#47C0A4" x="16" y="143" width="103" height="40" rx="14"></rect>
                <rect id="Rectangle-2-Copy-3" fill="#50E3C2" x="69" y="164" width="90" height="53" rx="14"></rect>
                <rect id="Rectangle-2-Copy-4" fill="#50E3C2" x="99" y="227" width="59" height="30" rx="14"></rect>
                <rect id="Rectangle-2-Copy-5" fill="#50E3C2" x="115" y="202" width="27" height="40" rx="13.5"></rect>
                <rect id="Rectangle-3" fill="#50E3C2" x="45" y="88" width="30" height="31"></rect>
                <rect id="Rectangle-2-Copy-2" fill="#50E3C2" x="10" y="109" width="103" height="30" rx="14"></rect>
                <rect id="Rectangle-2-Copy-6" fill="#FFFFFF" x="180" y="91" width="40" height="25" rx="12.5"></rect>
                <rect id="Rectangle-2-Copy-16" fill="#FFFFFF" x="40" y="59" width="40" height="25" rx="12.5"></rect>
                <rect id="Rectangle-2-Copy-7" fill="#FFFFFF" x="164" y="202" width="72" height="30" rx="14"></rect>
                <path d="M0.107991339,143.000042 C0.036221581,141.175604 0,139.342032 0,137.5 C0,130.880325 0.467785111,124.369907 1.37210217,118 L24.5,118 C31.4035594,118 37,123.596441 37,130.5 L37,130.5 L37,130.5 C37,137.403559 31.4035594,143 24.5,143 L0.10798967,143 Z" id="Combined-Shape" fill="#FFFFFF"></path>
                <rect id="Rectangle-2-Copy-8" fill="#FFFFFF" x="150" y="172" width="59" height="25" rx="12.5"></rect>
                <rect id="Rectangle-2-Copy-15" fill="#FFFFFF" x="61" y="51" width="68" height="20" rx="10"></rect>
                <rect id="Rectangle-2-Copy-9" fill="#FFFFFF" x="30" y="159" width="59" height="25" rx="12.5"></rect>
                <path d="M37.2829566,43.3569758 C14.1632426,67.9588006 0,101.075399 0,137.5 C0,213.439153 61.5608469,275 137.5,275 C165.036009,275 190.681511,266.905779 212.187002,252.966841 C82.4806413,213.483973 46.1870888,132.714231 38.5152798,52.9570038 C38.1778351,49.4488794 37.7670606,46.2488701 37.2829566,43.3569758 Z" id="Combined-Shape" fill="#000000" opacity="0.325747283"></path>
            </g>
        </g>
    </g>
</svg>