<?xml version="1.0" encoding="UTF-8"?>
<svg width="274px" height="275px" viewBox="0 0 274 275" version="1.1" xmlns="http://www.w3.org/2000/svg" xmlns:xlink="http://www.w3.org/1999/xlink">
    <!-- Generator: Sketch 47.1 (45422) - http://www.bohemiancoding.com/sketch -->
    <title>Group 2</title>
    <desc>Created with Sketch.</desc>
    <defs></defs>
    <g id="Page-1" stroke="none" stroke-width="1" fill="none" fill-rule="evenodd">
        <g id="Artboard-Copy-13" transform="translate(-113.000000, -113.000000)">
            <g id="Group-2" transform="translate(113.000000, 113.000000)">
                <g id="Group">
                    <ellipse id="Oval-3" fill="#D29055" cx="137.477967" cy="137.478115" rx="136.493831" ry="136.726729"></ellipse>
                    <ellipse id="Oval-3-Copy-2" fill="#D29055" cx="137.477967" cy="137.478115" rx="136.493831" ry="136.726729"></ellipse>
                    <ellipse id="Oval-3-Copy-6" fill="#D29055" cx="137.477967" cy="137.478115" rx="136.493831" ry="136.726729"></ellipse>
                    <ellipse id="Oval-3-Copy-4" fill="#D29055" cx="137.477967" cy="137.478115" rx="136.493831" ry="136.726729"></ellipse>
                    <ellipse id="Oval-3-Copy-12" fill="#D29055" cx="137.477967" cy="137.478115" rx="136.493831" ry="136.726729"></ellipse>
                    <ellipse id="Oval-3-Copy-11" fill="#D29055" cx="137.477967" cy="137.478115" rx="136.493831" ry="136.726729"></ellipse>
                    <ellipse id="Oval-3-Copy-10" fill="#D29055" cx="137.477967" cy="137.478115" rx="136.493831" ry="136.726729"></ellipse>
                    <ellipse id="Oval-3-Copy-8" fill="#D29055" cx="137.477967" cy="137.478115" rx="136.493831" ry="136.726729"></ellipse>
                    <ellipse id="Oval-3-Copy-20" fill="#D29055" cx="137.477967" cy="137.478115" rx="136.493831" ry="136.726729"></ellipse>
                    <ellipse id="Oval-3-Copy-19" fill="#D29055" cx="137.477967" cy="137.478115" rx="136.493831" ry="136.726729"></ellipse>
                    <ellipse id="Oval-3-Copy-18" fill="#D29055" cx="137.477967" cy="137.478115" rx="136.493831" ry="136.726729"></ellipse>
                    <ellipse id="Oval-3-Copy-17" fill="#D29055" cx="137.477967" cy="137.478115" rx="136.493831" ry="136.726729"></ellipse>
                    <ellipse id="Oval-3-Copy-16" fill="#3B8C7A" cx="137.477967" cy="137.478115" rx="136.493831" ry="136.726729"></ellipse>
                    <path d="M60.8714839,250.656259 C54.8470723,246.556638 49.1671636,241.987013 43.8842845,237 L82.5649699,237 L82.5649699,237 C86.3360417,237 89.3930995,240.057058 89.3930995,243.82813 L89.3930995,243.82813 C89.3930995,247.599201 86.3360417,250.656259 82.5649699,250.656259 L60.8714839,250.656259 Z" id="Combined-Shape" fill="#FFFAB5"></path>
                    <path d="M38.3221729,231.44 C34.6066143,227.507022 31.1217406,223.353113 27.8892433,219 L91.9400039,219 L91.9400039,219 C95.3752149,219 98.1600037,221.784789 98.1600037,225.22 L98.1600037,225.22 C98.1600037,228.655211 95.3752149,231.44 91.9400039,231.44 L38.3221729,231.44 Z" id="Combined-Shape" fill="#B7FFEF"></path>
                    <path d="M273.12974,152.751386 C272.237155,160.795592 270.647863,168.629186 268.423672,176.190254 L203.598741,176.190254 L203.598741,176.190254 C196.820213,176.190254 191.015426,171.334029 189.818663,164.661984 L189.784374,164.47082 L189.784374,164.47082 C188.813123,159.056023 192.415328,153.879109 197.830125,152.907858 C198.41054,152.803749 198.999053,152.751386 199.58873,152.751386 L199.58873,152.751386 L273.12974,152.751386 Z" id="Combined-Shape" fill="#246758"></path>
                    <path d="M10.8692334,188.66 C9.85421194,186.142985 8.91182226,183.588783 8.04466643,181 L77.4047966,181 L77.4047966,181 C79.5200472,181 81.2347966,182.714749 81.2347966,184.83 L81.2347966,184.83 C81.2347966,186.94525 79.5200472,188.66 77.4047966,188.66 L10.8692334,188.66 Z" id="Combined-Shape" fill="#B7FFEF"></path>
                    <path d="M6.9724982,177.656259 C5.60595051,173.196977 4.46092405,168.640597 3.55027907,164 L52.406667,164 L52.406667,164 C56.1777388,164 59.2347966,167.057058 59.2347966,170.82813 L59.2347966,170.82813 L59.2347966,170.82813 C59.2347966,174.599201 56.1777388,177.656259 52.406667,177.656259 L6.9724982,177.656259 Z" id="Combined-Shape" fill="#B7FFEF"></path>
                    <path d="M3.89311306,109.265873 C5.74076948,100.443106 8.43752122,91.9331984 11.8937983,83.8258736 L59.7373849,83.8258736 L59.7373849,83.8258736 C66.7624468,83.8258736 72.4573847,89.5208115 72.4573847,96.5458734 L72.4573847,96.5458734 L72.4573847,96.5458734 C72.4573847,103.570935 66.7624468,109.265873 59.7373849,109.265873 L3.89311306,109.265873 Z" id="Combined-Shape" fill="#B7FFEF"></path>
                    <path d="M1.36372172,127.203671 C1.95895409,119.177961 3.24582316,111.345139 5.16483127,103.764803 L269.791103,103.764803 C271.710111,111.345139 272.99698,119.177961 273.592212,127.203671 L1.36372172,127.203671 Z" id="Combined-Shape" fill="#FFFAB5"></path>
                    <path d="M24.6972717,60.4399996 C26.914106,57.1898403 29.2673065,54.0404181 31.7486204,51 L112.6731,51 L112.6731,51 C115.279884,51 117.393099,53.1132159 117.393099,55.7199998 L117.393099,55.7199998 C117.393099,58.3267837 115.279884,60.4399996 112.6731,60.4399996 L24.6972717,60.4399996 Z" id="Combined-Shape" fill="#4ECEB2"></path>
                    <path d="M42.17155,39.6012568 C50.4158688,31.5447798 59.6742278,24.5247544 69.7367796,18.7513861 L88.9089084,18.7513861 L88.9089084,18.7513861 C94.9840404,18.7513861 99.908908,23.6762536 99.908908,29.7513856 L99.908908,29.7513856 C99.908908,35.8265176 94.9840404,40.7513852 88.9089084,40.7513852 L47.3335483,40.7513852 L47.3335483,40.7513852 C45.4935738,40.7513852 43.7423198,40.3401733 42.1715461,39.601261 Z" id="Combined-Shape" fill="#B7FFEF"></path>
                    <path d="M253.237803,65 C255.983442,69.3909524 258.487009,73.9492901 260.729774,78.6562511 L179.82813,78.6562591 L179.82813,78.6562591 C176.057058,78.6562591 173,75.5992014 173,71.8281296 L173,71.8281296 L173,71.8281296 C173,68.0570577 176.057058,65 179.82813,65 L253.237803,65 Z" id="Combined-Shape" fill="#246758"></path>
                    <path d="M263.556199,85 C267.629433,94.8081549 270.595282,105.193695 272.29739,116 L167,116 C159.268014,116 153,109.731986 153,102 L153,99 L153,99 C153,91.2680135 159.268014,85 167,85 L167,85 L263.556199,85 Z" id="Combined-Shape" fill="#B7FFEF"></path>
                    <path d="M255.060464,67.9998301 C259.42406,75.3938835 263.112391,83.2352297 266.040429,91.4386979 L238.719434,91.4386979 L238.719434,91.4386979 C232.246969,91.4386979 227,86.1917287 227,79.719264 L227,79.719264 L227,79.719264 C227,73.2467994 232.246969,67.9998301 238.719434,67.9998301 L238.719434,67.9998301 L255.060464,67.9998301 Z" id="Combined-Shape" fill="#246758"></path>
                    <path d="M266.223971,183.000001 C265.337906,185.514544 264.380504,187.995357 263.3542,190.44 L221.72,190.44 L221.72,190.44 C219.665501,190.44 218,188.774499 218,186.72 C218,184.665501 219.665501,183 221.72,183 L221.72,183 L266.223977,183 Z" id="Combined-Shape" fill="#B7FFEF"></path>
                    <path d="M261.340792,195.000006 C260.161685,197.543374 258.906806,200.044342 257.579059,202.5 L192.75,202.5 L192.75,202.5 C190.678932,202.5 189,200.821068 189,198.75 L189,198.75 L189,198.75 C189,196.678932 190.678932,195 192.75,195 L192.75,195 L261.340795,195 Z" id="Combined-Shape" fill="#FFFAB5"></path>
                    <path d="M262.034952,193.478254 C257.02463,204.643145 250.562199,215.012614 242.888564,224.345346 L234.721239,224.345346 L234.721239,224.345346 C226.989253,224.345346 220.721239,218.077333 220.721239,210.345346 L220.721239,207.478249 L220.721239,207.478249 C220.721239,199.746263 226.989253,193.478249 234.721239,193.478249 L234.721239,193.478249 L262.034954,193.478249 Z" id="Combined-Shape" fill="#FFFAB5"></path>
                    <path d="M90.5355491,265.904171 C105.172583,271.274125 120.983605,274.204844 137.477967,274.204844 C169.305272,274.204844 198.588293,263.29288 221.801998,245 L104.53555,245 L104.53555,245 C96.8035635,245 90.53555,251.268014 90.53555,259 L90.53555,259 L90.53555,265.904179 Z" id="Combined-Shape" fill="#B7FFEF"></path>
                    <path d="M100.539162,269.13905 C112.287623,272.439667 124.677007,274.204844 137.477967,274.204844 C157.577047,274.204844 176.661473,269.853178 193.843491,262.039114 C191.452802,260.136706 188.425609,259 185.132924,259 L185.132924,259 L114,259 L114,259 C107.607237,259 102.21523,263.284744 100.539162,269.13905 Z" id="Combined-Shape" fill="#FFFAB5"></path>
                    <path d="M274.00699,142.651987 C274.00699,146.406888 273.246098,150.083085 271.788874,153.651987 L125.5,153.651987 L125.5,153.651987 C122.462434,153.651987 120,151.189553 120,148.151987 C120,145.11442 122.462434,142.651987 125.5,142.651987 L125.5,142.651987 L274.00699,142.651987 Z" id="Combined-Shape" fill="#B7FFEF"></path>
                    <path d="M179.312694,7.29305536 C202.662882,14.8163679 223.269217,28.4683368 239.243791,46.357835 L162.687525,46.357835 C154.955538,46.357835 148.687525,40.0898215 148.687525,32.357835 L148.687525,21.2930554 C148.687525,13.5610689 154.955538,7.29305536 162.687525,7.29305536 L162.687525,7.29305536 L179.312694,7.29305536 Z" id="Combined-Shape" fill="#49BBA1"></path>
                    <path d="M205.925012,19.1591812 C222.821943,28.9885648 237.420214,42.3456835 248.714966,58.2239634 L131.562073,58.2239634 L131.562073,58.2239634 C123.830087,58.2239634 117.562073,51.9559499 117.562073,44.2239634 L117.562073,33.1591838 L117.562073,33.1591838 C117.562073,25.4271973 123.830087,19.1591838 131.562073,19.1591838 L131.562073,19.1591838 L205.925016,19.1591838 Z" id="Combined-Shape" fill="#246758"></path>
                    <path d="M4.43747855,168.173909 C2.17787516,158.306661 0.98413631,148.032032 0.98413631,137.478115 C0.98413631,132.989578 1.20005563,128.551559 1.6220574,124.173909 L168.805129,124.173909 L168.805129,124.173909 C176.537116,124.173909 182.805129,130.441922 182.805129,138.173909 L182.805129,154.173909 L182.805129,154.173909 C182.805129,161.905895 176.537116,168.173909 168.805129,168.173909 L4.43747855,168.173909 Z" id="Combined-Shape" fill="#B7FFEF"></path>
                    <path d="M27.6799043,56.2388972 C34.0697839,47.587579 41.4543925,39.7181056 49.6644663,32.8000294 L64.3535698,32.8000294 L64.3535698,32.8000294 C70.8260344,32.8000294 76.0730037,38.0469987 76.0730037,44.5194633 L76.0730037,44.5194633 C76.0730037,50.9919279 70.8260344,56.2388972 64.3535698,56.2388972 L27.6799043,56.2388972 Z" id="Combined-Shape" fill="#4ECEB2"></path>
                    <rect id="Rectangle-2-Copy-2" fill="#246758" x="88" y="153" width="129.634198" height="34.7826087" rx="14"></rect>
                    <rect id="Rectangle-2-Copy-6" fill="#246758" x="106" y="167.719434" width="70.2707603" height="59.4399996" rx="14"></rect>
                    <path d="M216.525178,26 C225.787841,32.6023259 234.192428,40.3340465 241.53872,48.9946044 C241.420924,48.9982021 241.302659,49 241.183973,49 L178.044295,49 C171.430027,49 165.855245,44.0653676 165.052446,37.5 L165.052446,37.5 C164.365005,31.8780399 168.365223,26.7632596 173.987183,26.0758186 C174.400168,26.0253197 174.815844,26 175.231905,26 L175.231905,26 L216.525178,26 Z" id="Combined-Shape" fill="#49BBA1"></path>
                    <rect id="Rectangle-2-Copy-29" fill="#FFFAB5" x="83" y="196" width="68.1974148" height="7.44000006" rx="3.72000003"></rect>
                    <path d="M61.9625281,191 L171.438591,191 L171.438591,191 C177.911056,191 183.158025,196.246969 183.158025,202.719434 L183.158025,202.719434 L183.158025,202.719434 C183.158025,209.191899 177.911056,214.438868 171.438591,214.438868 L65.9725385,214.438868 L65.9725385,214.438868 C59.1940112,214.438868 53.3892239,209.582643 52.1924605,202.910598 L52.1581715,202.719434 L52.1581715,202.719434 C51.1869205,197.304637 54.7891259,192.127723 60.2039226,191.156472 C60.7843373,191.052363 61.3728503,191 61.9625281,191 Z" id="Rectangle-2-Copy-12" fill="#B7FFEF"></path>
                    <path d="M65.8715454,61.5611322 L100.487917,61.5611322 L100.487917,61.5611322 C106.960382,61.5611322 112.207351,66.8081015 112.207351,73.2805661 L112.207351,73.2805661 L112.207351,73.2805661 C112.207351,79.7530307 106.960382,85 100.487917,85 L67.7064397,85 L67.7064397,85 C61.0708271,85 55.5515822,79.8959388 55.0337027,73.2805661 L55.0337027,73.2805661 L55.0337027,73.2805661 C54.5651264,67.2949908 59.0375377,62.0628672 65.023113,61.5942909 C65.3053841,61.5721935 65.5884107,61.5611322 65.8715454,61.5611322 Z" id="Rectangle-2-Copy-18" fill="#AEA95F"></path>
                    <path d="M44.8715454,208.911798 L79.4879174,208.911798 L79.4879174,208.911798 C85.9603821,208.911798 91.2073514,214.158767 91.2073514,220.631232 L91.2073514,220.631232 L91.2073514,220.631232 C91.2073514,227.103696 85.9603821,232.350666 79.4879174,232.350666 L46.7064397,232.350666 L46.7064397,232.350666 C40.0708271,232.350666 34.5515822,227.246604 34.0337027,220.631232 L34.0337027,220.631232 L34.0337027,220.631232 C33.5651264,214.645656 38.0375377,209.413533 44.023113,208.944956 C44.3053841,208.922859 44.5884107,208.911798 44.8715454,208.911798 Z" id="Rectangle-2-Copy-38" fill="#FFFAB5"></path>
                    <path d="M74.3570903,89 L95.6791719,89 L95.6791719,89 C101.754304,89 106.679171,93.9248676 106.679171,99.9999996 L106.679171,99.9999996 L106.679171,99.9999996 C106.679171,106.075132 101.754304,110.999999 95.6791719,110.999999 L75.7261553,110.999999 L75.7261553,110.999999 C69.5315735,110.999999 64.4050905,106.182621 64.0203445,99.9999996 L64.0203445,99.9999996 L64.0203445,99.9999996 C63.6650829,94.2911725 68.0050052,89.3752573 73.7138323,89.0199957 C73.9279927,89.0066685 74.1425156,89 74.3570903,89 Z" id="Rectangle-2-Copy-40" fill="#9CDCCE"></path>
                    <path d="M217.393885,144 L233.171027,144 L233.171027,144 C236.942099,144 239.999157,147.057058 239.999157,150.82813 L239.999157,150.82813 L239.999157,150.82813 C239.999157,154.599201 236.942099,157.656259 233.171027,157.656259 L218.324083,157.656259 L218.324083,157.656259 C214.471286,157.656259 211.27686,154.67202 211.015033,150.82813 L211.015033,150.82813 L211.015033,150.82813 C210.775067,147.305187 213.436446,144.254746 216.959389,144.014781 C217.104012,144.00493 217.248928,144 217.393885,144 Z" id="Rectangle-2-Copy-42" fill="#9CDCCE"></path>
                    <path d="M179.393885,32.7015759 L195.171027,32.7015759 L195.171027,32.7015759 C198.942099,32.7015759 201.999157,35.7586337 201.999157,39.5297055 L201.999157,39.5297055 L201.999157,39.5297055 C201.999157,43.3007773 198.942099,46.357835 195.171027,46.357835 L180.324083,46.357835 L180.324083,46.357835 C176.471286,46.357835 173.27686,43.3735963 173.015033,39.5297055 L173.015033,39.5297055 L173.015033,39.5297055 C172.775067,36.0067626 175.436446,32.9563224 178.959389,32.7163567 C179.104012,32.7065057 179.248928,32.7015759 179.393885,32.7015759 Z" id="Rectangle-2-Copy-43" fill="#4A9282"></path>
                    <path d="M199.034975,152 L242.695226,152 L242.695226,152 C246.466298,152 249.523356,155.057058 249.523356,158.82813 L249.523356,158.82813 L249.523356,158.82813 C249.523356,162.599201 246.466298,165.656259 242.695226,165.656259 L200.847293,165.656259 L200.847293,165.656259 C196.90476,165.656259 193.571804,162.736397 193.053139,158.82813 L193.053139,158.82813 L193.053139,158.82813 C192.614709,155.524453 194.93745,152.490876 198.241127,152.052446 C198.504301,152.01752 198.769493,152 199.034975,152 Z" id="Rectangle-2-Copy-44" fill="#9CDCCE"></path>
                    <path d="M113.829915,146 L171.442631,146 L171.442631,146 C175.213703,146 178.27076,149.057058 178.27076,152.82813 L178.27076,152.82813 L178.27076,152.82813 C178.27076,156.599201 175.213703,159.656259 171.442631,159.656259 L116.08397,159.656259 L116.08397,159.656259 C112.091954,159.656259 108.686539,156.766853 108.036426,152.82813 L108.036426,152.82813 L108.036426,152.82813 C107.508302,149.628474 109.674006,146.606512 112.873661,146.078388 C113.18974,146.026217 113.509559,146 113.829915,146 Z" id="Rectangle-2-Copy-30" fill="#AEA95F"></path>
                    <path d="M58.2703562,200 L74.0462713,200 L74.0462713,200 C77.8173431,200 80.8744008,203.057058 80.8744008,206.82813 L80.8744008,206.82813 L80.8744008,206.82813 C80.8744008,210.599201 77.8173431,213.656259 74.0462713,213.656259 L59.2005152,213.656259 L59.2005152,213.656259 C55.3477213,213.656259 52.1533017,210.672017 51.8914857,206.82813 L51.8914857,206.82813 L51.8914857,206.82813 C51.6515293,203.305177 54.3129238,200.254736 57.8358767,200.01478 C57.9804938,200.004929 58.125404,200 58.2703562,200 Z" id="Rectangle-2-Copy-35" fill="#FFFAB5"></path>
                    <path d="M33.1281085,139 L69.1851712,139 L69.1851712,139 C72.956243,139 76.0133008,142.057058 76.0133008,145.82813 L76.0133008,145.82813 L76.0133008,145.82813 C76.0133008,149.599201 72.956243,152.656259 69.1851712,152.656259 L34.6998019,152.656259 L34.6998019,152.656259 C30.7829431,152.656259 27.4885866,149.719303 27.040753,145.82813 L27.040753,145.82813 L27.040753,145.82813 C26.6538271,142.466176 29.0655635,139.427109 32.4275171,139.040183 C32.6600882,139.013416 32.8940022,139 33.1281085,139 Z" id="Rectangle-2-Copy-32" fill="#9CDCCE"></path>
                    <path d="M50.4627441,131 L61.2913565,131 L61.2913565,131 C65.0624283,131 68.119486,134.057058 68.119486,137.82813 L68.119486,137.82813 L68.119486,137.82813 C68.119486,141.599201 65.0624283,144.656259 61.2913565,144.656259 L51.2364813,144.656259 L51.2364813,144.656259 C47.3983473,144.656259 44.2276454,141.660118 44.0105323,137.82813 L44.0105323,137.82813 L44.0105323,137.82813 C43.8086336,134.264671 46.533716,131.212247 50.0971742,131.010348 C50.2189088,131.003451 50.3408142,131 50.4627441,131 Z" id="Rectangle-2-Copy-46" fill="#9CDCCE"></path>
                    <path d="M101.892485,93 L157.758495,93 L157.758495,93 C161.529567,93 164.586624,96.0570577 164.586624,99.8281296 L164.586624,99.8281296 L164.586624,99.8281296 C164.586624,103.599201 161.529567,106.656259 157.758495,106.656259 L104.091228,106.656259 L104.091228,106.656259 C100.105575,106.656259 96.7093463,103.763106 96.0757907,99.8281296 L96.0757907,99.8281296 L96.0757907,99.8281296 C95.5585627,96.6156577 97.7434896,93.5921387 100.955961,93.0749107 C101.265644,93.0250499 101.578814,93 101.892485,93 Z" id="Rectangle-2-Copy-47" fill="#B7FFEF"></path>
                    <path d="M90.1725701,57.3437404 L122.696294,57.3437404 L122.696294,57.3437404 C126.467366,57.3437404 129.524424,60.4007982 129.524424,64.17187 L129.524424,64.17187 L129.524424,64.17187 C129.524424,67.9429418 126.467366,70.9999996 122.696294,70.9999996 L91.632463,70.9999996 L91.632463,70.9999996 C87.7272269,70.9999996 84.4505967,68.0549806 84.0354811,64.17187 L84.0354811,64.17187 L84.0354811,64.17187 C83.6731424,60.7824494 86.1270772,57.7410475 89.5164978,57.3787088 C89.7344127,57.3554131 89.9534136,57.3437404 90.1725701,57.3437404 Z" id="Rectangle-2-Copy-51" fill="#AEA95F"></path>
                    <path d="M13.8522119,147.654123 L71.4426308,147.654123 L71.4426308,147.654123 C75.2137026,147.654123 78.2707603,150.711181 78.2707603,154.482252 L78.2707603,154.482252 L78.2707603,154.482252 C78.2707603,158.253324 75.2137026,161.310382 71.4426308,161.310382 L16.1055614,161.310382 L16.1055614,161.310382 C12.1136271,161.310382 8.70832869,158.420928 8.05842791,154.482252 L8.05842791,154.482252 L8.05842791,154.482252 C7.53044222,151.282434 9.69639071,148.260451 12.8962093,147.732466 C13.2122072,147.680325 13.5319411,147.654123 13.8522119,147.654123 Z" id="Rectangle-2-Copy-45" fill="#9CDCCE"></path>
                    <path d="M163.393902,137 L179.169817,137 L179.169817,137 C182.940889,137 185.997947,140.057058 185.997947,143.82813 L185.997947,143.82813 L185.997947,143.82813 C185.997947,147.599201 182.940889,150.656259 179.169817,150.656259 L164.324061,150.656259 L164.324061,150.656259 C160.471267,150.656259 157.276848,147.672017 157.015032,143.82813 L157.015032,143.82813 L157.015032,143.82813 C156.775075,140.305177 159.43647,137.254736 162.959423,137.01478 C163.10404,137.004929 163.24895,137 163.393902,137 Z" id="Rectangle-2-Copy-33" fill="#9CDCCE"></path>
                    <path d="M195.668318,76 L251.655933,76 L251.655933,76 C255.875545,76 259.296216,79.4206712 259.296216,83.640283 L259.296216,83.640283 L259.296216,83.640283 C259.296216,87.8598949 255.875545,91.2805661 251.655933,91.2805661 L197.922041,91.2805661 L197.922041,91.2805661 C193.485698,91.2805661 189.719555,88.0291472 189.072244,83.640283 L189.072244,83.640283 L189.072244,83.640283 C188.534953,79.9973716 191.052555,76.6086479 194.695467,76.0713567 C195.017573,76.0238494 195.342727,76 195.668318,76 Z" id="Rectangle-2-Copy-52" fill="#AEA95F"></path>
                    <path d="M91.0148224,81 L119.04369,81 L119.04369,81 C123.263302,81 126.683973,84.4206712 126.683973,88.640283 L126.683973,88.640283 L126.683973,88.640283 C126.683973,92.8598949 123.263302,96.2805661 119.04369,96.2805661 L92.3837823,96.2805661 L92.3837823,96.2805661 C88.0408396,96.2805661 84.4159447,92.9659017 84.0284199,88.640283 L84.0284199,88.640283 L84.0284199,88.640283 C83.6827449,84.7817995 86.530439,81.3736556 90.3889225,81.0279806 C90.5970349,81.0093362 90.8058765,81 91.0148224,81 Z" id="Rectangle-2-Copy-50" fill="#FFFAB5"></path>
                    <path d="M180.478892,100 L245.510211,100 L245.510211,100 C251.982676,100 257.229645,105.246969 257.229645,111.719434 L257.229645,111.719434 L257.229645,111.719434 C257.229645,118.191899 251.982676,123.438868 245.510211,123.438868 L183.275982,123.438868 L183.275982,123.438868 C176.542819,123.438868 170.872694,118.40516 170.07485,111.719434 L170.07485,111.719434 L170.07485,111.719434 C169.389149,105.97344 173.491326,100.759521 179.23732,100.07382 C179.64935,100.02465 180.063938,100 180.478892,100 Z" id="Rectangle-2-Copy-31" fill="#FFFAB5"></path>
                    <path d="M204.267147,104.782609 L230.401515,104.782609 L230.401515,104.782609 C234.172587,104.782609 237.229645,107.839666 237.229645,111.610738 L237.229645,111.610738 L237.229645,111.610738 C237.229645,115.38181 234.172587,118.438868 230.401515,118.438868 L205.524907,118.438868 L205.524907,118.438868 C201.640193,118.438868 198.395278,115.47908 198.038998,111.610738 L198.038998,111.610738 L198.038998,111.610738 C197.722196,108.171027 200.253815,105.12577 203.693527,104.808969 C203.884229,104.791405 204.075638,104.782609 204.267147,104.782609 Z" id="Rectangle-2-Copy-37" fill="#B7FFEF"></path>
                </g>
                <path d="M37.0743902,45 C14.0840113,69.3894133 0,102.220084 0,138.330196 C0,213.613692 61.2164664,274.643024 136.730805,274.643024 C164.112773,274.643024 189.614811,266.618688 210.999996,252.800099 C82.0192324,213.658125 45.9287114,133.585747 38.2998196,54.5171416 C37.9642626,51.0393063 37.5557861,47.8669258 37.0743902,45 Z" id="Combined-Shape" fill="#000000" opacity="0.325747283"></path>
            </g>
        </g>
    </g>
</svg>