<?xml version="1.0" encoding="utf-8"?>
<!-- Generator: Adobe Illustrator 17.0.0, SVG Export Plug-In . SVG Version: 6.00 Build 0)  -->
<!DOCTYPE svg PUBLIC "-//W3C//DTD SVG 1.1//EN" "http://www.w3.org/Graphics/SVG/1.1/DTD/svg11.dtd">
<svg version="1.1" id="Layer_1" xmlns="http://www.w3.org/2000/svg" xmlns:xlink="http://www.w3.org/1999/xlink" x="0px" y="0px"
	 width="39.685px" height="39.685px" viewBox="0.657 4.324 39.685 39.685" enable-background="new 0.657 4.324 39.685 39.685"
	 xml:space="preserve">
<title>Group 3 Copy 6</title>
<desc>Created with Sketch.</desc>
<g id="Page-1">
	<g id="schueler_01-copy-4" transform="translate(-195.000000, -115.000000)">
		<g id="Group-3-Copy-6" transform="translate(195.000000, 115.000000)">
			<circle id="Oval" fill="none" stroke="#FFFFFF" stroke-width="4" cx="20.5" cy="24.167" r="17"/>
			<g id="Group-4" transform="translate(7.000000, 14.000000)">
				<path id="Combined-Shape" fill="#FFFFFF" d="M8.319,8.336H19.67l0,0c1.011,0,1.83,0.819,1.83,1.83l0,0
					c0,1.011-0.819,1.83-1.83,1.83H8.549l6.69,6.69l0,0c0.715,0.715,0.715,1.874,0,2.589l0,0l0,0c-0.715,0.715-1.874,0.715-2.589,0
					l-9.311-9.311c-0.284-0.084-0.551-0.237-0.775-0.461l0,0l0,0c-0.715-0.715-0.715-1.874,0-2.589l0,0l9.857-9.857
					c0.715-0.715,1.874-0.715,2.589,0c0.715,0.715,0.715,1.874,0,2.589L8.319,8.336z"/>
			</g>
		</g>
	</g>
</g>
</svg>
