<?xml version="1.0" encoding="UTF-8"?>
<svg width="38px" height="48px" viewBox="0 0 38 48" version="1.1" xmlns="http://www.w3.org/2000/svg" xmlns:xlink="http://www.w3.org/1999/xlink">
    <!-- Generator: Sketch 47.1 (45422) - http://www.bohemiancoding.com/sketch -->
    <title>Group</title>
    <desc>Created with Sketch.</desc>
    <defs></defs>
    <g id="Page-1" stroke="none" stroke-width="1" fill="none" fill-rule="evenodd">
        <g id="schueler_09-copy-12" transform="translate(-581.000000, -388.000000)" fill-rule="nonzero" fill="#FF5F73">
            <g id="Group" transform="translate(581.000000, 388.000000)">
                <g id="pdf_icon-copy-9">
                    <path d="M33.8750728,48 L4.12738689,48 C1.85215872,48 0,46.1555442 0,43.8867655 L0,4.11568728 C0,1.84690853 1.85215872,0 4.12738689,0 L31.4645608,0 L31.4645608,6.21032192 C31.4645608,6.52427184 31.7203703,6.78180889 32.0352126,6.78180889 L38,6.78180889 L38,43.8867655 C38,46.1555442 36.150301,48 33.8750728,48 L33.8750728,48 Z M4.12738689,2.13878385 C3.03281766,2.13878385 2.14486375,3.02422075 2.14486375,4.11568728 L2.14486375,43.8867655 C2.14486375,44.9757793 3.03281766,45.8612161 4.12738689,45.8612161 L33.8750728,45.8612161 C34.9671823,45.8612161 35.857596,44.9757793 35.857596,43.8867655 L35.857596,8.91814001 L32.0352126,8.91814001 C30.5397113,8.91814001 29.3221568,7.70403679 29.3221568,6.21032192 L29.3221568,2.13878385 L4.12738689,2.13878385 Z" id="Fill-1"></path>
                    <path d="M29.06784,43 L10.93216,43 C9.3138238,43 8,41.6616729 8,40.0187266 L8,37 L10.1389543,37 L10.1389543,40.0187266 C10.1389543,40.463171 10.4950373,40.8227216 10.93216,40.8227216 L29.06784,40.8227216 C29.5049627,40.8227216 29.85859,40.463171 29.85859,40.0187266 L29.85859,37.1073658 L32,37.1073658 L32,40.0187266 C32,41.6616729 30.6837205,43 29.06784,43" id="Fill-4"></path>
                    <polygon id="Fill-7" points="36.470624 8 30 1.43467933 31.529376 0 38 6.56532067"></polygon>
                    <path d="M5,24 L5,13 L8.38415185,13 C9.6664658,13 10.5004519,13.0533241 10.890931,13.1650508 C11.4887014,13.3301016 11.9900572,13.6881348 12.3949985,14.2416898 C12.7975294,14.7927054 13,15.5087719 13,16.3822715 C13,17.0577101 12.8818921,17.6265005 12.6504971,18.0861034 C12.4166918,18.5482456 12.1226273,18.9088181 11.763483,19.1703601 C11.4043387,19.4344414 11.0403736,19.6071099 10.6691775,19.6934441 C10.1678216,19.7975531 9.43748117,19.8508772 8.4829768,19.8508772 L7.109069,19.8508772 L7.109069,24 L5,24 Z M7.109069,14.8587258 L7.109069,17.9819945 L8.26122326,17.9819945 C9.09279904,17.9819945 9.64959325,17.9235919 9.92919554,17.8093259 C10.2087978,17.69506 10.428141,17.5147738 10.5872251,17.2684672 C10.7463091,17.0246999 10.8258512,16.7377655 10.8258512,16.4127424 C10.8258512,16.0140813 10.7149744,15.6839797 10.4908105,15.4224377 C10.2690569,15.1634349 9.98704429,15.0009234 9.64477252,14.934903 C9.39168424,14.8841182 8.88791805,14.8587258 8.12624284,14.8587258 L7.109069,14.8587258 Z" id="Fill-8"></path>
                    <path d="M15,13 L18.5220264,13 C19.314978,13 19.9207048,13.0710988 20.3370044,13.2107572 C20.8964758,13.4012004 21.376652,13.7389197 21.7753304,14.2239151 C22.1762115,14.7089104 22.4801762,15.3030933 22.6872247,16.0064635 C22.8964758,16.7072946 23,17.5757156 23,18.6066482 C23,19.5106187 22.9030837,20.2927054 22.7070485,20.9478301 C22.469163,21.7476916 22.1277533,22.3951985 21.685022,22.8903509 C21.3502203,23.2661588 20.8986784,23.5581717 20.3303965,23.7689289 C19.9052863,23.9238227 19.3370044,24 18.6255507,24 L15,24 L15,13 Z M16.9273128,14.861265 L16.9273128,22.1463527 L18.3656388,22.1463527 C18.9030837,22.1463527 19.2929515,22.1133426 19.530837,22.0422438 C19.8436123,21.9533703 20.1013216,21.8010157 20.30837,21.5851801 C20.5154185,21.3693444 20.6828194,21.0163897 20.8127753,20.5237765 C20.9427313,20.0311634 21.0088106,19.3582641 21.0088106,18.5076177 C21.0088106,17.6569714 20.9427313,17.004386 20.8127753,16.5498615 C20.6828194,16.095337 20.5,15.739843 20.2665198,15.4833795 C20.030837,15.2294552 19.7356828,15.0567867 19.3744493,14.965374 C19.1057269,14.8968144 18.5770925,14.861265 17.7929515,14.861265 L16.9273128,14.861265 Z" id="Fill-10"></path>
                    <polygon id="Fill-13" points="25 24 25 13 33 13 33 14.8587258 27.3569024 14.8587258 27.3569024 17.4639889 32.226936 17.4639889 32.226936 19.3252539 27.3569024 19.3252539 27.3569024 24"></polygon>
                    <path d="M27.4608763,31.309396 L19.7949653,39.4315493 C19.0796061,40.1894836 17.9203939,40.1894836 17.2073957,39.4315493 L9.53912375,31.309396 C8.38699422,30.0886966 9.20387294,28 10.8329085,28 L26.1670915,28 C27.7961271,28 28.6130058,30.0886966 27.4608763,31.309396" id="Fill-14"></path>
                </g>
            </g>
        </g>
    </g>
</svg>