<?xml version="1.0" encoding="UTF-8"?>
<svg width="80px" height="74px" viewBox="0 0 80 74" version="1.1" xmlns="http://www.w3.org/2000/svg" xmlns:xlink="http://www.w3.org/1999/xlink">
    <!-- Generator: Sketch 47.1 (45422) - http://www.bohemiancoding.com/sketch -->
    <title>rich_media_icon copy</title>
    <desc>Created with Sketch.</desc>
    <defs>
        <rect id="path-1" x="0" y="0" width="38" height="29" rx="5"></rect>
        <rect id="path-2" x="0" y="0" width="38" height="29" rx="5"></rect>
        <rect id="path-3" x="0" y="0" width="38" height="29" rx="5"></rect>
    </defs>
    <g id="Page-1" stroke="none" stroke-width="1" fill="none" fill-rule="evenodd">
        <g id="Artboard-3" transform="translate(-312.000000, -646.000000)">
            <g id="rich_media_icon-copy" transform="translate(312.000000, 646.000000)">
                <circle id="Oval-8-Copy-2" stroke="#FF5F73" stroke-width="3" fill="#1C1C20" cx="40" cy="37" r="35"></circle>
                <g id="Group-Copy">
                    <g id="Group-Copy-8" transform="translate(0.000000, 32.000000)">
                        <g id="Group-5">
                            <g id="Rectangle-2">
                                <use fill="#1C1C20" fill-rule="evenodd" xlink:href="#path-1"></use>
                                <rect stroke="#FF5F73" stroke-width="3" x="1.5" y="1.5" width="35" height="26" rx="5"></rect>
                            </g>
                            <path d="M12.7243964,7.79796254 L12.7243964,20.9197128 L12.7243964,20.9197128 C12.7243964,21.4719976 13.1721117,21.9197128 13.7243964,21.9197128 C13.8855884,21.9197128 14.0443916,21.8807466 14.1872757,21.8061342 L26.7518463,15.2450566 L26.7518463,15.2450566 C27.2414033,14.9894154 27.4310295,14.385313 27.1753884,13.895756 C27.0807952,13.7146086 26.9329737,13.5667908 26.7518239,13.4722022 L14.1872532,6.91152948 L14.1872532,6.91152948 C13.6976898,6.65590072 13.0935921,6.84554226 12.8379634,7.33510572 C12.7633585,7.47798407 12.7243964,7.63677908 12.7243964,7.79796254 Z" id="Path-2" fill="#FF5F73"></path>
                        </g>
                    </g>
                    <g id="Group-Copy-9" transform="translate(42.000000, 32.000000)">
                        <g id="Group-5">
                            <g id="Rectangle-2">
                                <use fill="#1C1C20" fill-rule="evenodd" xlink:href="#path-2"></use>
                                <rect stroke="#FF5F73" stroke-width="3" x="1.5" y="1.5" width="35" height="26" rx="5"></rect>
                            </g>
                            <circle id="Oval" fill="#FF5F73" cx="14" cy="20" r="3"></circle>
                            <circle id="Oval-Copy" fill="#FF5F73" cx="23" cy="18" r="3"></circle>
                            <polyline id="Path-4" stroke="#FF5F73" stroke-width="2" points="15.9953954 20.0554142 15.9953954 9.28386189 25.0337308 6.28132994 25.0337308 18.0079174"></polyline>
                        </g>
                    </g>
                    <g id="Group-Copy-10" transform="translate(21.000000, 0.000000)">
                        <g id="Group-5">
                            <g id="Rectangle-2">
                                <use fill="#1C1C20" fill-rule="evenodd" xlink:href="#path-3"></use>
                                <rect stroke="#FF5F73" stroke-width="3" x="1.5" y="1.5" width="35" height="26" rx="5"></rect>
                            </g>
                            <path d="M12.0773069,13.4233429 L7.18315452,20.3557051 L7.18315452,20.3557051 C6.86462989,20.8068819 6.97216573,21.4308482 7.42334254,21.7493728 C7.59207031,21.8684923 7.79354301,21.9324449 8.00008239,21.9324449 L17.7836282,21.9324449 L17.7836282,21.9324449 C18.3359129,21.9324449 18.7836282,21.4847297 18.7836282,20.9324449 C18.7836282,20.726062 18.7197722,20.5247341 18.6008203,20.3560795 L13.7114269,13.4237174 L13.7114269,13.4237174 C13.3931091,12.9723947 12.7691921,12.8645729 12.3178694,13.1828907 C12.2245395,13.2487163 12.1431753,13.3300432 12.0773069,13.4233429 Z" id="Path-2" fill="#FF5F73"></path>
                            <circle id="Oval" fill="#FF5F73" cx="17" cy="11" r="2"></circle>
                            <path d="M22.0570445,10.1767036 L14.8708093,20.3557051 L14.8708093,20.3557051 C14.5522847,20.8068819 14.6598205,21.4308482 15.1109973,21.7493728 C15.2797251,21.8684923 15.4811978,21.9324449 15.6877372,21.9324449 L30.0532197,21.9324449 L30.0532197,21.9324449 C30.6055044,21.9324449 31.0532197,21.4847297 31.0532197,20.9324449 C31.0532197,20.726062 30.9893638,20.5247341 30.8704118,20.3560795 L23.6911645,10.177078 L23.6911645,10.177078 C23.3728467,9.72575529 22.7489297,9.61793349 22.297607,9.93625131 C22.204277,10.0020769 22.1229129,10.0834038 22.0570445,10.1767036 Z" id="Path-2-Copy" fill="#FF5F73"></path>
                        </g>
                    </g>
                </g>
            </g>
        </g>
    </g>
</svg>