<?xml version="1.0" encoding="UTF-8"?>
<svg width="36px" height="36px" viewBox="0 0 36 36" version="1.1" xmlns="http://www.w3.org/2000/svg" xmlns:xlink="http://www.w3.org/1999/xlink">
    <!-- Generator: Sketch 47.1 (45422) - http://www.bohemiancoding.com/sketch -->
    <title>Group 3 Copy 3</title>
    <desc>Created with Sketch.</desc>
    <defs>
        <radialGradient cx="50%" cy="0%" fx="50%" fy="0%" r="100%" id="radialGradient-1">
            <stop stop-color="#FFFFFF" offset="0%"></stop>
            <stop stop-color="#000000" offset="100%"></stop>
        </radialGradient>
        <radialGradient cx="50%" cy="0%" fx="50%" fy="0%" r="53.0828729%" gradientTransform="translate(0.500000,0.000000),rotate(109.622884),scale(1.000000,3.748859),translate(-0.500000,-0.000000)" id="radialGradient-2">
            <stop stop-color="#FFFFFF" stop-opacity="0.5" offset="0%"></stop>
            <stop stop-color="#000000" stop-opacity="0.515398551" offset="100%"></stop>
        </radialGradient>
        <circle id="path-3" cx="18" cy="18" r="18"></circle>
        <path d="M28.5179299,3.39105706 C30.0913742,4.52587295 31.4741271,5.90862585 32.6089429,7.48207007 C32.092829,8.38865066 31.1178086,9 30,9 C28.3431458,9 27,7.65685425 27,6 C27,4.88219137 27.6113493,3.90717103 28.5179299,3.39105706 Z" id="path-4"></path>
        <linearGradient x1="50%" y1="0%" x2="50%" y2="100%" id="linearGradient-5">
            <stop stop-color="#202020" stop-opacity="0.5" offset="0%"></stop>
            <stop stop-color="#000000" stop-opacity="0.5" offset="100%"></stop>
        </linearGradient>
    </defs>
    <g id="Page-1" stroke="none" stroke-width="1" fill="none" fill-rule="evenodd">
        <g id="Artboard-Copy-12" transform="translate(-178.000000, -185.000000)">
            <g id="Group-3-Copy-3" transform="translate(178.000000, 185.000000)">
                <g id="Oval">
                    <use fill="url(#radialGradient-1)" xlink:href="#path-3"></use>
                    <use fill="url(#radialGradient-2)" xlink:href="#path-3"></use>
                    <use fill="#F6F6F6" xlink:href="#path-3"></use>
                </g>
                <g id="Combined-Shape">
                    <use fill="url(#radialGradient-1)" xlink:href="#path-4"></use>
                    <use fill="url(#radialGradient-2)" xlink:href="#path-4"></use>
                    <use fill="#E6E6E6" xlink:href="#path-4"></use>
                </g>
                <circle id="Oval-9" fill="#E6E6E6" cx="21" cy="9" r="3"></circle>
                <circle id="Oval-9-Copy" fill="#E6E6E6" cx="30" cy="19" r="4"></circle>
                <circle id="Oval-9-Copy-2" fill="#E6E6E6" cx="13" cy="17" r="2"></circle>
                <circle id="Oval-9-Copy-3" fill="#E6E6E6" cx="13" cy="8" r="3"></circle>
                <circle id="Oval-9-Copy-4" fill="#E6E6E6" cx="17" cy="27" r="4"></circle>
                <circle id="Oval-9-Copy-5" fill="#E6E6E6" cx="20" cy="18" r="3"></circle>
                <circle id="Oval-9-Copy-6" fill="#E6E6E6" cx="4.5" cy="13.5" r="2.5"></circle>
                <circle id="Oval-9-Copy-7" fill="#E6E6E6" cx="7.5" cy="23.5" r="3.5"></circle>
                <circle id="Oval-9-Copy-8" fill="#E6E6E6" cx="30" cy="26" r="2"></circle>
                <path d="M1.89822487,10 C0.683232634,12.4106616 0,15.1282516 0,18.0033043 C0,27.9426049 8.16560984,36 18.2384,36 C21.8291266,36 25.1774954,34.9760948 28,33.2080337 C22.6113977,32.4037555 17.3277548,29.8810458 12.1490714,25.6399048 C6.97038803,21.3987638 3.55343918,16.1854622 1.89822487,10 Z" id="Oval-Copy" fill="url(#linearGradient-5)" opacity="0.384001359"></path>
            </g>
        </g>
    </g>
</svg>