<?xml version="1.0" encoding="utf-8"?>
<!-- Generator: Adobe Illustrator 17.0.0, SVG Export Plug-In . SVG Version: 6.00 Build 0)  -->
<!DOCTYPE svg PUBLIC "-//W3C//DTD SVG 1.1//EN" "http://www.w3.org/Graphics/SVG/1.1/DTD/svg11.dtd">
<svg version="1.1" id="Layer_1" xmlns="http://www.w3.org/2000/svg" xmlns:xlink="http://www.w3.org/1999/xlink" x="0px" y="0px"
	 width="535.814px" height="526.056px" viewBox="0 0 535.814 526.056" enable-background="new 0 0 535.814 526.056"
	 xml:space="preserve">
<g>
	<polygon fill="#50E3C2" points="11.651,459.228 11.167,459.228 2.292,462.494 2.292,465.681 7.87,463.78 7.87,482.056 
		11.651,482.056 11.651,459.228 	"/>
	<path fill="#50E3C2" d="M16.667,367.025H6.104l5.563-5.953c1.458-1.583,2.508-2.997,3.148-4.242
		c0.641-1.245,0.961-2.435,0.961-3.57c0-1.958-0.638-3.492-1.914-4.602c-1.276-1.109-3.018-1.664-5.227-1.664
		c-1.531,0-2.883,0.307-4.055,0.922c-1.172,0.615-2.073,1.477-2.703,2.586c-0.63,1.109-0.945,2.357-0.945,3.742h3.797
		c0-1.302,0.338-2.328,1.016-3.078c0.677-0.75,1.63-1.125,2.859-1.125c1.031,0,1.852,0.333,2.461,1
		c0.609,0.667,0.914,1.542,0.914,2.625c0,0.823-0.232,1.643-0.695,2.461c-0.464,0.818-1.242,1.836-2.336,3.055l-7.578,8.266v2.609
		h15.297V367.025L16.667,367.025z"/>
	<path fill="#50E3C2" d="M5.76,259.947h2.234c1.396,0,2.448,0.323,3.156,0.969c0.708,0.646,1.062,1.568,1.062,2.766
		c0,1.188-0.339,2.094-1.016,2.719c-0.677,0.625-1.604,0.938-2.781,0.938c-1.135,0-2.039-0.312-2.711-0.938
		s-1.008-1.438-1.008-2.438H0.901c0,1.938,0.698,3.49,2.094,4.656c1.396,1.167,3.187,1.75,5.375,1.75
		c2.281,0,4.122-0.604,5.523-1.812c1.401-1.208,2.102-2.833,2.102-4.875c0-1.271-0.326-2.365-0.977-3.281
		c-0.651-0.917-1.602-1.588-2.852-2.016c1.031-0.458,1.872-1.138,2.523-2.039c0.651-0.901,0.977-1.862,0.977-2.883
		c0-2.031-0.648-3.617-1.945-4.758s-3.081-1.711-5.352-1.711c-1.375,0-2.617,0.268-3.727,0.805
		c-1.109,0.537-1.974,1.284-2.594,2.242c-0.62,0.958-0.93,2.021-0.93,3.188h3.797c0-0.948,0.328-1.716,0.984-2.305
		c0.656-0.588,1.495-0.883,2.516-0.883c1.167,0,2.034,0.3,2.602,0.898c0.568,0.599,0.852,1.44,0.852,2.523
		c0,1.125-0.341,1.984-1.023,2.578c-0.682,0.594-1.607,0.896-2.773,0.906H5.76V259.947L5.76,259.947z"/>
	<path fill="#50E3C2" d="M14.214,145.306h-3.922l-9.812,15.375l0.109,2.312h9.828v5.062h3.797v-5.062h2.828v-3.047h-2.828V145.306
		L14.214,145.306z M10.135,150.947l0.281-0.5v9.5H4.464L10.135,150.947L10.135,150.947z"/>
	<path fill="#50E3C2" d="M5.417,51.525c0.562-0.531,1.083-0.888,1.562-1.07c0.479-0.182,1.063-0.273,1.75-0.273
		c1.26,0,2.25,0.404,2.969,1.211c0.719,0.807,1.078,1.904,1.078,3.289c0,1.438-0.326,2.573-0.977,3.406
		c-0.651,0.833-1.56,1.25-2.727,1.25c-1.042,0-1.885-0.294-2.531-0.883C5.896,57.866,5.5,57.02,5.354,55.916H1.682
		c0.115,1.938,0.857,3.498,2.227,4.68c1.37,1.182,3.096,1.773,5.18,1.773c2.323,0,4.151-0.685,5.484-2.055
		c1.333-1.37,2-3.211,2-5.523c0-2.344-0.602-4.208-1.805-5.594c-1.203-1.385-2.888-2.078-5.055-2.078
		c-1.323,0-2.51,0.302-3.563,0.906l0.625-5.438h9.062v-3.281H3.62L2.385,50.775L5.417,51.525L5.417,51.525z"/>
	<g>
		<path fill="#50E3C2" d="M535.862,526.056H31.667v-2h504.195V526.056z M535.862,474.056H31.667v-2h504.195V474.056z
			 M535.862,420.056H31.667v-2h504.195V420.056z M535.862,370.056H31.667v-2h504.195V370.056z M535.862,318.056H31.667v-2h504.195
			V318.056z M535.862,264.056H31.667v-2h504.195V264.056z M535.862,210.056H31.667v-2h504.195V210.056z M535.862,158.056H31.667v-2
			h504.195V158.056z M535.862,104.056H31.667v-2h504.195V104.056z M535.862,56.056H31.667v-2h504.195V56.056z M535.862,2.056H31.667
			v-2h504.195V2.056z"/>
	</g>
</g>
</svg>
