<?xml version="1.0" encoding="utf-8"?>
<!-- Generator: Adobe Illustrator 17.0.0, SVG Export Plug-In . SVG Version: 6.00 Build 0)  -->
<!DOCTYPE svg PUBLIC "-//W3C//DTD SVG 1.1//EN" "http://www.w3.org/Graphics/SVG/1.1/DTD/svg11.dtd">
<svg version="1.1" id="Layer_1" xmlns="http://www.w3.org/2000/svg" xmlns:xlink="http://www.w3.org/1999/xlink" x="0px" y="0px"
	 width="456px" height="123px" viewBox="0 0 456 123" enable-background="new 0 0 456 123" xml:space="preserve">
<title>Group</title>
<desc>Created with Sketch.</desc>
<g id="Page-1">
	<g id="schueler_07_new_graph_02-copy-2" transform="translate(-662.000000, -597.000000)">
		<g id="Group" transform="translate(662.000000, 593.000000)">
			<path id="Line-6" fill="none" stroke="#353535" stroke-width="8" stroke-linecap="round" d="M6.5,66H447"/>
			<g id="Group-3" transform="translate(0.000000, 55.000000)">
				<circle id="Oval" fill="#FCB814" cx="11" cy="11" r="11"/>
				<circle id="Oval-Copy" fill="#48A7D6" cx="300" cy="11" r="11"/>
				<circle id="Oval-Copy-2" fill="#FCB714" cx="59" cy="11" r="11"/>
				<circle id="Oval-Copy-7" fill="#44A6D8" cx="349" cy="11" r="11"/>
				<circle id="Oval-Copy-3" fill="#ED1D25" cx="108.055" cy="11" r="11"/>
				<circle id="Oval-Copy-8" fill="#0B643A" cx="397" cy="11" r="11"/>
				<circle id="Oval-Copy-4" fill="#ED1D23" cx="156" cy="11" r="11"/>
				<circle id="Oval-Copy-9" fill="#046537" cx="445" cy="11" r="11"/>
				<circle id="Oval-Copy-6" fill="#653393" cx="252" cy="11" r="11"/>
				<circle id="Oval-Copy-5" fill="#653393" cx="204" cy="11" r="11"/>
			</g>
			<path id="Line-3" fill="none" stroke="#979797" stroke-linecap="square" d="M10.5,51.754V22.246"/>
			<path id="Line-3-Copy-2" fill="none" stroke="#979797" stroke-linecap="square" d="M204.5,51.754V22.246"/>
			<path id="Line-3-Copy-4" fill="none" stroke="#979797" stroke-linecap="square" d="M397.5,51.754V22.246"/>
			<path id="Line-3-Copy" fill="none" stroke="#979797" stroke-linecap="square" d="M107.625,109.754V80.246"/>
			<path id="Line-3-Copy-3" fill="none" stroke="#979797" stroke-linecap="square" d="M300.5,109.754V80.246"/>
			<text transform="matrix(1 0 0 1 8 14)" fill="#FFFFFF" font-family="'ArchivoBlack-Regular'" font-size="13">1</text>
			<text transform="matrix(1 0 0 1 202 14)" fill="#FFFFFF" font-family="'ArchivoBlack-Regular'" font-size="13">3</text>
			<text transform="matrix(1 0 0 1 395 14)" fill="#FFFFFF" font-family="'ArchivoBlack-Regular'" font-size="13">5</text>
			<text transform="matrix(1 0 0 1 104.125 127)" fill="#FFFFFF" font-family="'ArchivoBlack-Regular'" font-size="13">2</text>
			<text transform="matrix(1 0 0 1 297 127)" fill="#FFFFFF" font-family="'ArchivoBlack-Regular'" font-size="13">4</text>
		</g>
	</g>
</g>
</svg>
